<svg width="145" height="113" viewBox="0 0 145 113" fill="none" xmlns="http://www.w3.org/2000/svg">
<path d="M62.2 100.487C46.2552 105.751 32.9701 100.487 25 84.2527" stroke="#6F737A" stroke-width="6" stroke-linecap="round" stroke-linejoin="round"/>
<path d="M62.2 107.003V92.2514C62.2 89.5305 63.0556 87.1645 64.432 85.026C65.3806 83.5609 64.7296 81.477 63.0231 81.022C48.8731 77.2091 38.95 71.0893 38.95 50.7872C38.95 45.5092 40.717 40.5497 43.8232 36.2271C44.5951 35.1533 44.9857 34.6164 45.0787 34.1341C45.1717 33.6427 45.009 33.0103 44.6835 31.7363C43.3675 26.5675 43.4559 21.0756 45.4275 16.1297C45.4275 16.1297 49.5055 14.8239 58.7916 20.4978C60.912 21.7945 61.9722 22.4452 62.9068 22.5908C63.8415 22.7364 65.0877 22.4315 67.5801 21.8218C71.1437 20.9573 74.8036 20.5308 78.475 20.5524C82.1464 20.537 85.8057 20.9649 89.37 21.8264C91.8624 22.4361 93.1132 22.7364 94.0479 22.5953C94.9779 22.4497 96.0381 21.7991 98.1585 20.5023C107.445 14.8284 111.523 16.1343 111.523 16.1343C113.494 21.0802 113.583 26.572 112.267 31.7408C111.941 33.0148 111.783 33.6518 111.876 34.1341C111.969 34.6164 112.355 35.1579 113.127 36.2317C116.233 40.5542 118 45.5137 118 50.7917C118 71.0939 108.077 77.2136 93.927 81.0175C92.2204 81.477 91.5694 83.5609 92.518 85.0215C93.8944 87.16 94.75 89.526 94.75 92.2514V107.003" stroke="#6F737A" stroke-width="6" stroke-linecap="round" stroke-linejoin="round"/>
</svg>
