<svg width="145" height="113" viewBox="0 0 145 113" fill="none" xmlns="http://www.w3.org/2000/svg">
<path d="M120.403 108.98H100.096C98.6592 108.98 97.4983 107.817 97.4983 106.378V73.6161C97.4983 62.38 91.7132 62.38 89.8045 62.38C84.6687 62.38 82.4845 66.4408 81.7761 68.1953C81.4416 68.9839 81.2841 70.3242 81.2841 72.197V106.398C81.2841 107.837 80.1232 109 78.6869 109H58.3602C57.6715 109 57.0024 108.724 56.5105 108.231C56.0186 107.739 55.7432 107.068 55.7628 106.378C55.7628 105.826 56.0383 50.8879 55.7628 45.2698C55.7235 44.5601 55.9792 43.8702 56.4712 43.3577C56.9632 42.8452 57.6322 42.5494 58.3601 42.5494H78.6869C80.1232 42.5494 81.2842 43.7124 81.2842 45.1514V46.689C84.708 43.6335 89.647 41.1103 97.0063 41.1103C113.279 41.1103 123 52.3857 123 71.2703V106.378C123 107.817 121.839 108.98 120.403 108.98ZM102.693 103.776L117.825 103.776V71.27C117.825 55.4015 110.249 46.3141 97.026 46.3141C88.1909 46.3141 83.9013 50.7297 81.2055 54.7708C80.8907 55.8353 79.8871 56.6239 78.7065 56.6239H78.5689C77.6242 56.6239 76.7584 56.1112 76.306 55.2834C75.9518 54.6328 75.873 53.8837 76.1092 53.1938V47.7336H61.0167C61.1544 58.5951 61.0167 93.7425 60.9773 103.756H76.0895V72.177C76.0895 69.5553 76.3649 67.6629 76.9552 66.2239C79.2378 60.5664 84.039 57.1562 89.7849 57.1562C97.9706 57.1562 102.673 63.1489 102.673 73.5963V103.776L102.693 103.776ZM47.1245 108.98H26.7978C25.3614 108.98 24.2005 107.817 24.2005 106.378V45.1512C24.2005 43.7122 25.3614 42.5491 26.7978 42.5491H47.1245C48.5609 42.5491 49.7218 43.7122 49.7218 45.1511V106.378C49.7218 107.817 48.5609 108.98 47.1245 108.98ZM29.3953 103.776H44.5271V47.753H29.3954L29.3953 103.776ZM36.971 39.395L36.8331 39.395C28.8245 39.395 23 33.8361 23 26.1876C23 18.559 28.9229 13 37.1086 13C45.1566 13 50.9025 18.4012 51.06 26.1285C51.06 33.8361 45.1371 39.395 36.971 39.395ZM37.1086 18.2239C31.776 18.2239 28.1948 21.437 28.1948 26.2075C28.1948 30.899 31.7368 34.1909 36.8332 34.1909H36.9709C42.2838 34.1909 45.865 30.9778 45.865 26.2074C45.7666 21.3778 42.3232 18.2239 37.1086 18.2239Z" fill="#6F747A"/>
</svg>
