<svg width="145" height="113" viewBox="0 0 145 113" fill="none" xmlns="http://www.w3.org/2000/svg">
<path d="M131 34V97C131 99.3869 130.052 101.676 128.364 103.364C126.676 105.052 124.387 106 122 106H23C20.6131 106 18.3239 105.052 16.636 103.364C14.9482 101.676 14 99.3869 14 97V34M131 34C131 31.6131 130.052 29.3239 128.364 27.636C126.676 25.9482 124.387 25 122 25H23C20.6131 25 18.3239 25.9482 16.636 27.636C14.9482 29.3239 14 31.6131 14 34M131 34L77.621 70.954C76.1162 71.9952 74.3299 72.553 72.5 72.553C70.6701 72.553 68.8838 71.9952 67.379 70.954L14 34" stroke="#6F747A" stroke-width="6" stroke-linecap="round" stroke-linejoin="round"/>
</svg>
