<svg width="145" height="113" viewBox="0 0 145 113" fill="none" xmlns="http://www.w3.org/2000/svg">
<path d="M71.6166 94.624C71.8939 95.2427 71.9046 95.8507 71.6486 96.448C71.3926 97.024 70.9872 97.5573 70.4326 98.048C69.8779 98.5387 69.2379 98.9653 68.5126 99.328C67.8086 99.6907 67.1366 99.9467 66.4966 100.096C65.7926 100.245 65.0459 100.309 64.2566 100.288C63.4886 100.288 62.7099 100.192 61.9206 100C61.1526 99.8293 60.3952 99.5733 59.6486 99.232C58.9232 98.8693 58.2512 98.432 57.6326 97.92C56.8859 97.3013 56.2992 96.5653 55.8726 95.712C55.4672 94.8373 55.1686 93.9093 54.9766 92.928C54.7846 91.9467 54.6779 90.9653 54.6566 89.984C54.6566 88.9813 54.6886 88.0427 54.7526 87.168C54.8166 86.3787 54.9766 85.5573 55.2326 84.704C55.4886 83.8507 55.8406 83.0187 56.2886 82.208C56.7579 81.376 57.3126 80.608 57.9526 79.904C58.6139 79.2 59.3819 78.6027 60.2566 78.112C60.9179 77.728 61.6539 77.472 62.4646 77.344C63.2966 77.1947 64.1286 77.1627 64.9606 77.248C65.8139 77.312 66.6139 77.4933 67.3606 77.792C68.1286 78.0693 68.7792 78.4533 69.3126 78.944C69.6539 79.2427 70.0059 79.6587 70.3686 80.192C70.7526 80.7253 71.0299 81.2693 71.2006 81.824C71.3712 82.3787 71.3712 82.9013 71.2006 83.392C71.0512 83.8613 70.6246 84.1813 69.9206 84.352C69.6219 84.4373 69.3552 84.4587 69.1206 84.416C68.8859 84.352 68.6726 84.256 68.4806 84.128C68.2886 83.9787 68.1072 83.808 67.9366 83.616C67.7659 83.424 67.6059 83.232 67.4566 83.04C66.9446 82.4213 66.3472 82.0053 65.6646 81.792C64.9819 81.5573 64.2992 81.504 63.6166 81.632C62.9552 81.7387 62.3259 82.016 61.7286 82.464C61.1526 82.8907 60.7046 83.4453 60.3846 84.128C60.0432 84.8533 59.7659 85.6533 59.5526 86.528C59.3606 87.3813 59.2539 88.256 59.2326 89.152C59.2112 90.0267 59.2859 90.88 59.4566 91.712C59.6486 92.544 59.9686 93.28 60.4166 93.92C60.7579 94.432 61.1739 94.848 61.6646 95.168C62.1766 95.488 62.7206 95.712 63.2966 95.84C63.8726 95.968 64.4486 95.9893 65.0246 95.904C65.6219 95.8187 66.1979 95.6267 66.7526 95.328C66.9232 95.2427 67.1046 95.1253 67.2966 94.976C67.5099 94.8053 67.7232 94.6347 67.9366 94.464C68.1499 94.2933 68.3632 94.1333 68.5766 93.984C68.8112 93.8347 69.0566 93.728 69.3126 93.664C69.6966 93.536 70.1126 93.5467 70.5606 93.696C71.0299 93.8453 71.3819 94.1547 71.6166 94.624ZM92.3491 78.88C92.4557 79.3707 92.4664 79.872 92.3811 80.384C92.3171 80.8747 92.2211 81.3227 92.0931 81.728C91.8371 82.56 91.5384 83.488 91.1971 84.512C90.8557 85.536 90.5144 86.56 90.1731 87.584C89.8317 88.608 89.5011 89.5787 89.1811 90.496C88.8611 91.392 88.5944 92.1387 88.3811 92.736C88.1677 93.2907 87.9437 93.92 87.7091 94.624C87.4744 95.328 87.1864 96.0213 86.8451 96.704C86.5251 97.3653 86.1411 97.9733 85.6931 98.528C85.2664 99.0827 84.7437 99.488 84.1251 99.744C83.5064 100 82.9411 100.064 82.4291 99.936C81.9171 99.7867 81.4584 99.5307 81.0531 99.168C80.6477 98.784 80.2744 98.3147 79.9331 97.76C79.6131 97.184 79.3251 96.5973 79.0691 96C78.8131 95.4027 78.5784 94.8267 78.3651 94.272C78.1517 93.696 77.9597 93.2053 77.7891 92.8C77.1277 91.3493 76.5304 89.8133 75.9971 88.192C75.4637 86.5707 74.9197 85.024 74.3651 83.552C74.2157 83.1253 74.0451 82.6133 73.8531 82.016C73.6611 81.3973 73.5331 80.7893 73.4691 80.192C73.4264 79.5733 73.5011 79.0187 73.6931 78.528C73.8851 78.016 74.2904 77.664 74.9091 77.472C75.0371 77.4293 75.1651 77.3973 75.2931 77.376C75.4424 77.3333 75.5811 77.3013 75.7091 77.28C75.8584 77.28 75.9971 77.2907 76.1251 77.312C76.2531 77.3333 76.3917 77.3867 76.5411 77.472C76.6477 77.5147 76.7544 77.568 76.8611 77.632C76.9677 77.6747 77.0637 77.7387 77.1491 77.824C77.2344 77.9307 77.3091 78.0373 77.3731 78.144C77.4584 78.2507 77.5437 78.3573 77.6291 78.464C77.6931 78.6133 77.7464 78.752 77.7891 78.88C77.8531 78.9867 77.9064 79.0933 77.9491 79.2C77.9917 79.3493 78.0451 79.488 78.1091 79.616C78.1731 79.7227 78.2264 79.8293 78.2691 79.936L78.4611 80.48L83.0691 93.632L87.6131 80.512L87.8371 79.968C87.8797 79.8613 87.9224 79.7547 87.9651 79.648C88.0077 79.52 88.0504 79.3813 88.0931 79.232C88.1357 79.1253 88.1784 79.0187 88.2211 78.912C88.2851 78.784 88.3597 78.656 88.4451 78.528C88.5091 78.4213 88.5731 78.3147 88.6371 78.208C88.7224 78.08 88.8077 77.9627 88.8931 77.856C88.9571 77.7707 89.0317 77.696 89.1171 77.632C89.2237 77.568 89.3197 77.5147 89.4051 77.472C89.5757 77.3867 89.7251 77.3333 89.8531 77.312C90.0024 77.2907 90.1304 77.28 90.2371 77.28C90.3651 77.3013 90.4931 77.3333 90.6211 77.376C90.7704 77.3973 90.9091 77.4293 91.0371 77.472C91.4424 77.5787 91.7411 77.76 91.9331 78.016C92.1464 78.272 92.2851 78.56 92.3491 78.88Z" fill="#6F747A"/>
<path d="M73.737 44.8866C80.6092 44.8866 86.1803 39.3155 86.1803 32.4433C86.1803 25.571 80.6092 20 73.737 20C66.8648 20 61.2937 25.571 61.2937 32.4433C61.2937 39.3155 66.8648 44.8866 73.737 44.8866Z" stroke="#6F747A" stroke-width="4"/>
<path d="M86.1803 49.8638H87.0563C88.8757 49.8643 90.6323 50.5291 91.9961 51.7335C93.3599 52.9378 94.237 54.5986 94.4626 56.404L95.4356 64.1785C95.5232 64.8789 95.4607 65.5899 95.2525 66.2643C95.0442 66.9387 94.6949 67.5611 94.2277 68.0902C93.7605 68.6193 93.1861 69.0429 92.5427 69.3331C91.8993 69.6232 91.2015 69.7732 90.4956 69.773H56.9784C56.2726 69.7732 55.5748 69.6232 54.9313 69.3331C54.2879 69.0429 53.7135 68.6193 53.2463 68.0902C52.7792 67.5611 52.4298 66.9387 52.2216 66.2643C52.0133 65.5899 51.9509 64.8789 52.0384 64.1785L53.009 56.404C53.2347 54.5978 54.1125 52.9362 55.4773 51.7318C56.8421 50.5274 58.6 49.8631 60.4202 49.8638H61.2937" stroke="#6F747A" stroke-width="4" stroke-linecap="round" stroke-linejoin="round"/>
<rect x="38.5" y="8.5" width="70.7096" height="100.574" rx="14.5" stroke="#6F747A" stroke-width="7"/>
<g clip-path="url(#clip0_346_616)">
<path d="M65.7864 9.30994L24.4418 14.8155C16.5037 15.8725 10.9255 23.1645 11.9826 31.1025L20.2913 93.498C21.3484 101.436 28.6404 107.014 36.5784 105.957L77.9231 100.452C85.8612 99.3945 91.4393 92.1025 90.3823 84.1645L82.0735 21.7691C81.0165 13.831 73.7245 8.25289 65.7864 9.30994Z" stroke="#6F747A" stroke-width="7"/>
<path d="M21.417 36.2549L39 34" stroke="#6F747A" stroke-width="4" stroke-linecap="round"/>
<path d="M23.9546 51.1455L39 49" stroke="#6F747A" stroke-width="4" stroke-linecap="round"/>
<path d="M26.6093 64.4187L39 63" stroke="#6F747A" stroke-width="4" stroke-linecap="round"/>
<path d="M29.2638 79.0186L39 78" stroke="#6F747A" stroke-width="4" stroke-linecap="round"/>
</g>
<g clip-path="url(#clip1_346_616)">
<mask id="mask0_346_616" style="mask-type:luminance" maskUnits="userSpaceOnUse" x="2" y="1" width="145" height="113">
<path d="M147 1H2V114H147V1Z" fill="white"/>
</mask>
<g mask="url(#mask0_346_616)">
<path d="M110 34L126.198 35.9866" stroke="#6F747A" stroke-width="4" stroke-linecap="round"/>
<path d="M110 49L124.208 50.5864" stroke="#6F747A" stroke-width="4" stroke-linecap="round"/>
<path d="M111 64L121.553 65.1865" stroke="#6F747A" stroke-width="4" stroke-linecap="round"/>
<path d="M111 79L118.898 79.7866" stroke="#6F747A" stroke-width="4" stroke-linecap="round"/>
<path d="M122.981 15.4108L81.5785 10.3553C73.9036 9.41817 66.922 14.8803 65.9849 22.5552L58.3554 85.0373C57.4183 92.7123 62.8804 99.6939 70.5553 100.631L111.957 105.686C119.632 106.624 126.614 101.162 127.551 93.4866L135.181 31.0044C136.118 23.3295 130.656 16.3479 122.981 15.4108Z" stroke="#6F747A" stroke-width="6"/>
</g>
</g>
<defs>
<clipPath id="clip0_346_616">
<rect width="39" height="108" fill="white" transform="translate(3 5)"/>
</clipPath>
<clipPath id="clip1_346_616">
<rect width="39" height="108" fill="white" transform="translate(103 5)"/>
</clipPath>
</defs>
</svg>
