<svg xmlns="http://www.w3.org/2000/svg" xmlns:xlink="http://www.w3.org/1999/xlink" width="1920" zoomAndPan="magnify" viewBox="0 0 1440 809.999993" height="1080" preserveAspectRatio="xMidYMid meet" version="1.0"><defs><clipPath id="11b4912f9d"><path d="M 1184 565 L 1222 565 L 1222 584.636719 L 1184 584.636719 Z M 1184 565 " clip-rule="nonzero"/></clipPath><clipPath id="ce118cbbda"><path d="M 971 491 L 1030 491 L 1030 520.921875 L 971 520.921875 Z M 971 491 " clip-rule="nonzero"/></clipPath><clipPath id="2df7cf3fe0"><path d="M 1125 459 L 1178 459 L 1178 486.4375 L 1125 486.4375 Z M 1125 459 " clip-rule="nonzero"/></clipPath><clipPath id="aadb6d09ba"><path d="M 1199 404 L 1252 404 L 1252 431.46875 L 1199 431.46875 Z M 1199 404 " clip-rule="nonzero"/></clipPath><clipPath id="f0c0aeb9c0"><path d="M 1207 377 L 1245 377 L 1245 395.886719 L 1207 395.886719 Z M 1207 377 " clip-rule="nonzero"/></clipPath><clipPath id="c01ddf1aca"><path d="M 1106 336 L 1159 336 L 1159 362.710938 L 1106 362.710938 Z M 1106 336 " clip-rule="nonzero"/></clipPath><clipPath id="c3c3706e30"><path d="M 1241 343 L 1275 343 L 1275 359.890625 L 1241 359.890625 Z M 1241 343 " clip-rule="nonzero"/></clipPath><clipPath id="3c0416b370"><path d="M 1068 381 L 1108 381 L 1108 401.9375 L 1068 401.9375 Z M 1068 381 " clip-rule="nonzero"/></clipPath><clipPath id="3297dbaf45"><path d="M 1190 478 L 1228 478 L 1228 496.882812 L 1190 496.882812 Z M 1190 478 " clip-rule="nonzero"/></clipPath><clipPath id="c78f48bc49"><path d="M 1237 518 L 1275 518 L 1275 537.402344 L 1237 537.402344 Z M 1237 518 " clip-rule="nonzero"/></clipPath><clipPath id="631d9a33bb"><path d="M 1288 518 L 1326 518 L 1326 537.402344 L 1288 537.402344 Z M 1288 518 " clip-rule="nonzero"/></clipPath><clipPath id="ba7ca9c3fe"><path d="M 1262 379 L 1316 379 L 1316 406.636719 L 1262 406.636719 Z M 1262 379 " clip-rule="nonzero"/></clipPath><clipPath id="561cb589ae"><path d="M 1390 252 L 1428 252 L 1428 270.933594 L 1390 270.933594 Z M 1390 252 " clip-rule="nonzero"/></clipPath></defs><path fill="#a65b1e" d="M 634.632812 643.089844 C 637.269531 641.960938 637.519531 628.148438 634.632812 624.886719 C 631.746094 621.621094 597.972656 621.996094 595.585938 624.007812 C 593.203125 626.015625 592.824219 640.078125 594.960938 642.335938 C 597.09375 644.597656 631.996094 644.21875 634.632812 643.089844 Z M 634.632812 643.089844 " fill-opacity="1" fill-rule="nonzero"/><path fill="#fda769" d="M 719.847656 642.121094 C 724.402344 640.171875 724.835938 616.320312 719.847656 610.683594 C 714.863281 605.046875 656.539062 605.699219 652.417969 609.167969 C 648.300781 612.636719 647.648438 636.917969 651.335938 640.820312 C 655.019531 644.722656 715.296875 644.074219 719.847656 642.121094 Z M 719.847656 642.121094 " fill-opacity="1" fill-rule="nonzero"/><path fill="#f3b85c" d="M 787.714844 638.574219 C 790.351562 637.445312 790.601562 623.632812 787.714844 620.367188 C 784.828125 617.105469 751.054688 617.480469 748.667969 619.488281 C 746.285156 621.5 745.90625 635.558594 748.042969 637.820312 C 750.175781 640.078125 785.078125 639.703125 787.714844 638.574219 Z M 787.714844 638.574219 " fill-opacity="1" fill-rule="nonzero"/><path fill="#ffa544" d="M 895.238281 645.347656 C 899.792969 643.398438 900.226562 619.546875 895.238281 613.910156 C 890.25 608.273438 831.929688 608.925781 827.808594 612.394531 C 823.6875 615.863281 823.039062 640.144531 826.726562 644.046875 C 830.410156 647.953125 890.683594 647.300781 895.238281 645.347656 Z M 895.238281 645.347656 " fill-opacity="1" fill-rule="nonzero"/><path fill="#ffa544" d="M 970.082031 642.609375 C 973.535156 641.128906 973.863281 623.035156 970.082031 618.761719 C 966.296875 614.484375 922.058594 614.976562 918.933594 617.609375 C 915.808594 620.242188 915.3125 638.660156 918.109375 641.621094 C 920.90625 644.582031 966.625 644.089844 970.082031 642.609375 Z M 970.082031 642.609375 " fill-opacity="1" fill-rule="nonzero"/><path fill="#a65b1e" d="M 1031.636719 638.855469 C 1033.796875 637.929688 1034 626.621094 1031.636719 623.949219 C 1029.273438 621.277344 1001.621094 621.585938 999.667969 623.230469 C 997.714844 624.875 997.40625 636.386719 999.15625 638.238281 C 1000.902344 640.089844 1029.480469 639.78125 1031.636719 638.855469 Z M 1031.636719 638.855469 " fill-opacity="1" fill-rule="nonzero"/><path fill="#a65b1e" d="M 1211.679688 538.191406 C 1216.234375 536.242188 1216.667969 512.390625 1211.679688 506.753906 C 1206.691406 501.117188 1148.371094 501.769531 1144.25 505.238281 C 1140.128906 508.707031 1139.480469 532.988281 1143.164062 536.890625 C 1146.851562 540.792969 1207.125 540.144531 1211.679688 538.191406 Z M 1211.679688 538.191406 " fill-opacity="1" fill-rule="nonzero"/><path fill="#f4e7cb" d="M 922.347656 603.757812 C 926.902344 601.804688 927.335938 577.957031 922.347656 572.320312 C 917.363281 566.683594 859.039062 567.332031 854.917969 570.800781 C 850.800781 574.269531 850.148438 598.554688 853.835938 602.457031 C 857.523438 606.359375 917.796875 605.707031 922.347656 603.757812 Z M 922.347656 603.757812 " fill-opacity="1" fill-rule="nonzero"/><path fill="#a65b1e" d="M 1001.605469 597.652344 C 1005.144531 596.136719 1005.480469 577.601562 1001.605469 573.21875 C 997.730469 568.839844 952.402344 569.34375 949.199219 572.042969 C 945.996094 574.738281 945.492188 593.609375 948.355469 596.644531 C 951.222656 599.675781 998.066406 599.171875 1001.605469 597.652344 Z M 1001.605469 597.652344 " fill-opacity="1" fill-rule="nonzero"/><path fill="#fec868" d="M 1166.71875 585.28125 C 1171.273438 583.332031 1171.707031 559.480469 1166.71875 553.84375 C 1161.734375 548.207031 1103.410156 548.859375 1099.289062 552.328125 C 1095.171875 555.796875 1094.519531 580.078125 1098.207031 583.980469 C 1101.894531 587.882812 1162.167969 587.234375 1166.71875 585.28125 Z M 1166.71875 585.28125 " fill-opacity="1" fill-rule="nonzero"/><path fill="#f4e7cb" d="M 1179.003906 624.222656 C 1181.261719 623.257812 1181.476562 611.425781 1179.003906 608.628906 C 1176.53125 605.832031 1147.597656 606.15625 1145.554688 607.875 C 1143.511719 609.597656 1143.1875 621.644531 1145.015625 623.578125 C 1146.84375 625.515625 1176.746094 625.191406 1179.003906 624.222656 Z M 1179.003906 624.222656 " fill-opacity="1" fill-rule="nonzero"/><path fill="#ffa544" d="M 957.179688 562.308594 C 960.816406 560.75 961.164062 541.6875 957.179688 537.179688 C 953.191406 532.675781 906.574219 533.195312 903.28125 535.96875 C 899.988281 538.742188 899.46875 558.152344 902.414062 561.269531 C 905.363281 564.390625 953.539062 563.871094 957.179688 562.308594 Z M 957.179688 562.308594 " fill-opacity="1" fill-rule="nonzero"/><path fill="#fcb249" d="M 823.070312 601.664062 C 825.335938 600.699219 825.550781 588.882812 823.070312 586.089844 C 820.589844 583.296875 791.578125 583.621094 789.527344 585.339844 C 787.476562 587.058594 787.152344 599.085938 788.988281 601.019531 C 790.820312 602.953125 820.804688 602.632812 823.070312 601.664062 Z M 823.070312 601.664062 " fill-opacity="1" fill-rule="nonzero"/><g clip-path="url(#11b4912f9d)"><path fill="#a65b1e" d="M 1219.816406 583.523438 C 1222.074219 582.554688 1222.289062 570.722656 1219.816406 567.925781 C 1217.34375 565.128906 1188.410156 565.453125 1186.367188 567.175781 C 1184.324219 568.894531 1184 580.941406 1185.832031 582.878906 C 1187.660156 584.8125 1217.558594 584.492188 1219.816406 583.523438 Z M 1219.816406 583.523438 " fill-opacity="1" fill-rule="nonzero"/></g><path fill="#fcb249" d="M 1037.605469 561.769531 C 1042.164062 559.816406 1042.597656 535.96875 1037.605469 530.332031 C 1032.609375 524.691406 974.207031 525.34375 970.082031 528.8125 C 965.957031 532.28125 965.304688 556.566406 968.996094 560.46875 C 972.6875 564.371094 1033.042969 563.71875 1037.605469 561.769531 Z M 1037.605469 561.769531 " fill-opacity="1" fill-rule="nonzero"/><g clip-path="url(#ce118cbbda)"><path fill="#fec868" d="M 1026.492188 518.945312 C 1030.03125 517.429688 1030.371094 498.894531 1026.492188 494.511719 C 1022.617188 490.132812 977.289062 490.636719 974.089844 493.332031 C 970.886719 496.027344 970.382812 514.902344 973.246094 517.933594 C 976.109375 520.96875 1022.957031 520.460938 1026.492188 518.945312 Z M 1026.492188 518.945312 " fill-opacity="1" fill-rule="nonzero"/></g><path fill="#a65b1e" d="M 1108.09375 526.027344 C 1111.632812 524.507812 1111.96875 505.972656 1108.09375 501.59375 C 1104.21875 497.210938 1058.890625 497.714844 1055.6875 500.414062 C 1052.488281 503.109375 1051.980469 521.980469 1054.847656 525.015625 C 1057.710938 528.046875 1104.554688 527.542969 1108.09375 526.027344 Z M 1108.09375 526.027344 " fill-opacity="1" fill-rule="nonzero"/><path fill="#ffa544" d="M 1124.175781 629.632812 C 1128.726562 627.679688 1129.160156 603.832031 1124.175781 598.195312 C 1119.1875 592.554688 1060.863281 593.207031 1056.746094 596.675781 C 1052.625 600.144531 1051.976562 624.429688 1055.660156 628.332031 C 1059.347656 632.234375 1119.621094 631.582031 1124.175781 629.632812 Z M 1124.175781 629.632812 " fill-opacity="1" fill-rule="nonzero"/><path fill="#ffa544" d="M 1063.800781 484.679688 C 1067 483.308594 1067.304688 466.542969 1063.800781 462.582031 C 1060.296875 458.617188 1019.296875 459.078125 1016.402344 461.515625 C 1013.507812 463.953125 1013.050781 481.023438 1015.640625 483.765625 C 1018.230469 486.507812 1060.601562 486.050781 1063.800781 484.679688 Z M 1063.800781 484.679688 " fill-opacity="1" fill-rule="nonzero"/><path fill="#f4e7cb" d="M 1112.558594 485.1875 C 1114.898438 484.183594 1115.121094 471.921875 1112.558594 469.023438 C 1109.992188 466.125 1080.007812 466.460938 1077.886719 468.242188 C 1075.769531 470.027344 1075.433594 482.511719 1077.332031 484.519531 C 1079.226562 486.527344 1110.21875 486.191406 1112.558594 485.1875 Z M 1112.558594 485.1875 " fill-opacity="1" fill-rule="nonzero"/><path fill="#fcb249" d="M 1116.160156 448.480469 C 1120.71875 446.527344 1121.152344 422.679688 1116.160156 417.042969 C 1111.167969 411.40625 1052.765625 412.054688 1048.640625 415.523438 C 1044.515625 418.992188 1043.863281 443.277344 1047.554688 447.179688 C 1051.246094 451.082031 1111.601562 450.429688 1116.160156 448.480469 Z M 1116.160156 448.480469 " fill-opacity="1" fill-rule="nonzero"/><path fill="#f0dcb5" d="M 1051.449219 601.019531 C 1053.605469 600.09375 1053.8125 588.789062 1051.449219 586.113281 C 1049.082031 583.441406 1021.433594 583.75 1019.480469 585.394531 C 1017.527344 587.039062 1017.21875 598.550781 1018.964844 600.402344 C 1020.714844 602.253906 1049.289062 601.945312 1051.449219 601.019531 Z M 1051.449219 601.019531 " fill-opacity="1" fill-rule="nonzero"/><path fill="#ffa544" d="M 1084.140625 554.996094 C 1086.300781 554.070312 1086.507812 542.765625 1084.140625 540.089844 C 1081.777344 537.417969 1054.125 537.726562 1052.171875 539.371094 C 1050.21875 541.015625 1049.914062 552.527344 1051.660156 554.378906 C 1053.40625 556.230469 1081.984375 555.921875 1084.140625 554.996094 Z M 1084.140625 554.996094 " fill-opacity="1" fill-rule="nonzero"/><path fill="#a65b1e" d="M 1182.914062 449.074219 C 1186.453125 447.558594 1186.789062 429.019531 1182.914062 424.640625 C 1179.039062 420.257812 1133.707031 420.765625 1130.507812 423.460938 C 1127.304688 426.15625 1126.800781 445.03125 1129.664062 448.0625 C 1132.527344 451.097656 1179.375 450.589844 1182.914062 449.074219 Z M 1182.914062 449.074219 " fill-opacity="1" fill-rule="nonzero"/><path fill="#fda769" d="M 1192.222656 406.96875 C 1196.777344 405.015625 1197.210938 381.167969 1192.222656 375.527344 C 1187.234375 369.890625 1128.914062 370.542969 1124.792969 374.011719 C 1120.671875 377.480469 1120.023438 401.765625 1123.710938 405.667969 C 1127.394531 409.570312 1187.667969 408.917969 1192.222656 406.96875 Z M 1192.222656 406.96875 " fill-opacity="1" fill-rule="nonzero"/><path fill="#a65b1e" d="M 1245.097656 469.46875 C 1248.335938 468.082031 1248.644531 451.113281 1245.097656 447.101562 C 1241.550781 443.089844 1200.054688 443.554688 1197.121094 446.019531 C 1194.191406 448.488281 1193.726562 465.765625 1196.351562 468.542969 C 1198.972656 471.320312 1241.859375 470.859375 1245.097656 469.46875 Z M 1245.097656 469.46875 " fill-opacity="1" fill-rule="nonzero"/><g clip-path="url(#2df7cf3fe0)"><path fill="#fcb249" d="M 1175.484375 484.925781 C 1178.683594 483.550781 1178.992188 466.769531 1175.484375 462.800781 C 1171.980469 458.835938 1130.984375 459.292969 1128.089844 461.734375 C 1125.195312 464.175781 1124.738281 481.261719 1127.328125 484.007812 C 1129.917969 486.753906 1172.285156 486.296875 1175.484375 484.925781 Z M 1175.484375 484.925781 " fill-opacity="1" fill-rule="nonzero"/></g><g clip-path="url(#aadb6d09ba)"><path fill="#fcb249" d="M 1249.285156 429.957031 C 1252.488281 428.582031 1252.792969 411.800781 1249.285156 407.832031 C 1245.78125 403.867188 1204.789062 404.324219 1201.890625 406.765625 C 1198.996094 409.207031 1198.539062 426.292969 1201.128906 429.039062 C 1203.722656 431.785156 1246.085938 431.328125 1249.285156 429.957031 Z M 1249.285156 429.957031 " fill-opacity="1" fill-rule="nonzero"/></g><g clip-path="url(#f0c0aeb9c0)"><path fill="#a65b1e" d="M 1242.960938 394.855469 C 1245.242188 393.875 1245.457031 381.929688 1242.960938 379.105469 C 1240.460938 376.28125 1211.242188 376.605469 1209.179688 378.34375 C 1207.113281 380.082031 1206.789062 392.246094 1208.636719 394.203125 C 1210.480469 396.15625 1240.679688 395.832031 1242.960938 394.855469 Z M 1242.960938 394.855469 " fill-opacity="1" fill-rule="nonzero"/></g><g clip-path="url(#c01ddf1aca)"><path fill="#fcb249" d="M 1156.160156 361.199219 C 1159.359375 359.824219 1159.664062 343.042969 1156.160156 339.074219 C 1152.65625 335.109375 1111.660156 335.566406 1108.765625 338.007812 C 1105.871094 340.449219 1105.414062 357.535156 1108.003906 360.28125 C 1110.59375 363.027344 1152.960938 362.570312 1156.160156 361.199219 Z M 1156.160156 361.199219 " fill-opacity="1" fill-rule="nonzero"/></g><path fill="#ffe073" d="M 1230.589844 364.816406 C 1233.789062 363.445312 1234.09375 346.683594 1230.589844 342.71875 C 1227.085938 338.757812 1186.085938 339.214844 1183.191406 341.652344 C 1180.296875 344.089844 1179.839844 361.160156 1182.429688 363.902344 C 1185.019531 366.648438 1227.390625 366.191406 1230.589844 364.816406 Z M 1230.589844 364.816406 " fill-opacity="1" fill-rule="nonzero"/><path fill="#f3b85c" d="M 1223.753906 328.320312 C 1228.789062 326.164062 1229.269531 299.796875 1223.753906 293.566406 C 1218.242188 287.332031 1153.761719 288.050781 1149.207031 291.886719 C 1144.652344 295.722656 1143.933594 322.570312 1148.007812 326.882812 C 1152.082031 331.199219 1218.722656 330.480469 1223.753906 328.320312 Z M 1223.753906 328.320312 " fill-opacity="1" fill-rule="nonzero"/><g clip-path="url(#c3c3706e30)"><path fill="#f3b85c" d="M 1272.527344 358.730469 C 1274.496094 357.886719 1274.679688 347.578125 1272.527344 345.140625 C 1270.371094 342.703125 1245.160156 342.984375 1243.382812 344.484375 C 1241.601562 345.984375 1241.320312 356.480469 1242.914062 358.167969 C 1244.507812 359.855469 1270.558594 359.574219 1272.527344 358.730469 Z M 1272.527344 358.730469 " fill-opacity="1" fill-rule="nonzero"/></g><path fill="#a65b1e" d="M 1279.015625 326.003906 C 1281.296875 325.027344 1281.515625 313.082031 1279.015625 310.257812 C 1276.519531 307.433594 1247.300781 307.757812 1245.234375 309.496094 C 1243.171875 311.234375 1242.847656 323.398438 1244.691406 325.355469 C 1246.539062 327.308594 1276.734375 326.984375 1279.015625 326.003906 Z M 1279.015625 326.003906 " fill-opacity="1" fill-rule="nonzero"/><g clip-path="url(#3c0416b370)"><path fill="#fcb249" d="M 1105.527344 400.519531 C 1107.910156 399.5 1108.136719 387.023438 1105.527344 384.074219 C 1102.917969 381.125 1072.40625 381.464844 1070.25 383.28125 C 1068.097656 385.09375 1067.757812 397.796875 1069.683594 399.839844 C 1071.613281 401.882812 1103.144531 401.539062 1105.527344 400.519531 Z M 1105.527344 400.519531 " fill-opacity="1" fill-rule="nonzero"/></g><path fill="#a65b1e" d="M 757.386719 601.84375 C 760.023438 600.710938 760.277344 586.902344 757.386719 583.636719 C 754.5 580.375 720.726562 580.75 718.34375 582.757812 C 715.957031 584.765625 715.582031 598.828125 717.714844 601.089844 C 719.847656 603.347656 754.753906 602.972656 757.386719 601.84375 Z M 757.386719 601.84375 " fill-opacity="1" fill-rule="nonzero"/><g clip-path="url(#3297dbaf45)"><path fill="#ffa544" d="M 1226.066406 495.773438 C 1228.324219 494.804688 1228.539062 482.972656 1226.066406 480.175781 C 1223.589844 477.378906 1194.660156 477.703125 1192.617188 479.421875 C 1190.570312 481.144531 1190.25 493.191406 1192.078125 495.125 C 1193.90625 497.0625 1223.804688 496.738281 1226.066406 495.773438 Z M 1226.066406 495.773438 " fill-opacity="1" fill-rule="nonzero"/></g><path fill="#ffa544" d="M 562.988281 639.683594 C 566.726562 638.082031 567.082031 618.511719 562.988281 613.886719 C 558.894531 609.261719 511.035156 609.792969 507.652344 612.640625 C 504.273438 615.488281 503.738281 635.414062 506.765625 638.617188 C 509.789062 641.820312 559.253906 641.285156 562.988281 639.683594 Z M 562.988281 639.683594 " fill-opacity="1" fill-rule="nonzero"/><path fill="#fec868" d="M 1281.5 631.425781 C 1286.050781 629.472656 1286.484375 605.621094 1281.5 599.984375 C 1276.511719 594.347656 1218.1875 595 1214.070312 598.46875 C 1209.949219 601.9375 1209.300781 626.21875 1212.984375 630.121094 C 1216.671875 634.027344 1276.945312 633.375 1281.5 631.425781 Z M 1281.5 631.425781 " fill-opacity="1" fill-rule="nonzero"/><path fill="#ffa544" d="M 1358.085938 630.121094 C 1361.539062 628.640625 1361.867188 610.550781 1358.085938 606.273438 C 1354.300781 601.996094 1310.0625 602.492188 1306.9375 605.121094 C 1303.8125 607.753906 1303.320312 626.171875 1306.113281 629.132812 C 1308.910156 632.09375 1354.632812 631.601562 1358.085938 630.121094 Z M 1358.085938 630.121094 " fill-opacity="1" fill-rule="nonzero"/><path fill="#fec868" d="M 1310.710938 583.101562 C 1315.261719 581.148438 1315.695312 557.300781 1310.710938 551.660156 C 1305.722656 546.023438 1247.398438 546.675781 1243.28125 550.144531 C 1239.160156 553.613281 1238.511719 577.894531 1242.195312 581.800781 C 1245.882812 585.703125 1306.15625 585.050781 1310.710938 583.101562 Z M 1310.710938 583.101562 " fill-opacity="1" fill-rule="nonzero"/><g clip-path="url(#c78f48bc49)"><path fill="#ffa544" d="M 1272.3125 536.289062 C 1274.570312 535.320312 1274.785156 523.488281 1272.3125 520.691406 C 1269.839844 517.898438 1240.90625 518.21875 1238.863281 519.941406 C 1236.820312 521.660156 1236.496094 533.707031 1238.324219 535.644531 C 1240.152344 537.578125 1270.054688 537.257812 1272.3125 536.289062 Z M 1272.3125 536.289062 " fill-opacity="1" fill-rule="nonzero"/></g><path fill="#ffe073" d="M 1302.023438 506.214844 C 1305.972656 504.523438 1306.351562 483.835938 1302.023438 478.945312 C 1297.699219 474.054688 1247.105469 474.621094 1243.53125 477.628906 C 1239.957031 480.636719 1239.394531 501.703125 1242.59375 505.089844 C 1245.789062 508.472656 1298.074219 507.910156 1302.023438 506.214844 Z M 1302.023438 506.214844 " fill-opacity="1" fill-rule="nonzero"/><g clip-path="url(#631d9a33bb)"><path fill="#a65b1e" d="M 1323.527344 536.289062 C 1325.785156 535.320312 1326 523.488281 1323.527344 520.691406 C 1321.054688 517.898438 1292.121094 518.21875 1290.078125 519.941406 C 1288.035156 521.660156 1287.710938 533.707031 1289.539062 535.644531 C 1291.367188 537.578125 1321.269531 537.257812 1323.527344 536.289062 Z M 1323.527344 536.289062 " fill-opacity="1" fill-rule="nonzero"/></g><path fill="#f4e7cb" d="M 1303.054688 454.699219 C 1306.296875 453.3125 1306.605469 436.34375 1303.054688 432.332031 C 1299.507812 428.320312 1258.011719 428.785156 1255.078125 431.253906 C 1252.148438 433.71875 1251.6875 451 1254.308594 453.773438 C 1256.929688 456.550781 1299.816406 456.089844 1303.054688 454.699219 Z M 1303.054688 454.699219 " fill-opacity="1" fill-rule="nonzero"/><g clip-path="url(#ba7ca9c3fe)"><path fill="#fec868" d="M 1312.738281 404.984375 C 1315.976562 403.59375 1316.285156 386.625 1312.738281 382.617188 C 1309.1875 378.605469 1267.691406 379.066406 1264.761719 381.535156 C 1261.828125 384.003906 1261.367188 401.28125 1263.988281 404.058594 C 1266.613281 406.835938 1309.496094 406.371094 1312.738281 404.984375 Z M 1312.738281 404.984375 " fill-opacity="1" fill-rule="nonzero"/></g><path fill="#fcb249" d="M 1359.378906 364.015625 C 1363.9375 362.066406 1364.371094 338.214844 1359.378906 332.578125 C 1354.382812 326.941406 1295.980469 327.59375 1291.855469 331.0625 C 1287.730469 334.53125 1287.082031 358.8125 1290.769531 362.714844 C 1294.460938 366.621094 1354.820312 365.96875 1359.378906 364.015625 Z M 1359.378906 364.015625 " fill-opacity="1" fill-rule="nonzero"/><path fill="#ffe073" d="M 1349.78125 314.460938 C 1352.984375 313.089844 1353.289062 296.324219 1349.78125 292.359375 C 1346.277344 288.398438 1305.28125 288.855469 1302.382812 291.292969 C 1299.488281 293.734375 1299.03125 310.800781 1301.621094 313.546875 C 1304.214844 316.289062 1346.582031 315.832031 1349.78125 314.460938 Z M 1349.78125 314.460938 " fill-opacity="1" fill-rule="nonzero"/><path fill="#f3b85c" d="M 1397.042969 313.191406 C 1399.011719 312.347656 1399.199219 302.039062 1397.042969 299.601562 C 1394.890625 297.167969 1369.679688 297.449219 1367.898438 298.945312 C 1366.117188 300.445312 1365.835938 310.941406 1367.429688 312.628906 C 1369.023438 314.316406 1395.074219 314.035156 1397.042969 313.191406 Z M 1397.042969 313.191406 " fill-opacity="1" fill-rule="nonzero"/><path fill="#ffe073" d="M 1266.007812 284.035156 C 1269.957031 282.34375 1270.332031 261.65625 1266.007812 256.765625 C 1261.679688 251.875 1211.089844 252.441406 1207.515625 255.449219 C 1203.941406 258.457031 1203.375 279.523438 1206.574219 282.910156 C 1209.769531 286.292969 1262.058594 285.730469 1266.007812 284.035156 Z M 1266.007812 284.035156 " fill-opacity="1" fill-rule="nonzero"/><path fill="#f0dcb5" d="M 1369.460938 272.453125 C 1374.816406 270.160156 1375.324219 242.105469 1369.460938 235.476562 C 1363.59375 228.847656 1294.996094 229.613281 1290.152344 233.691406 C 1285.304688 237.773438 1284.539062 266.332031 1288.875 270.921875 C 1293.210938 275.515625 1364.105469 274.75 1369.460938 272.453125 Z M 1369.460938 272.453125 " fill-opacity="1" fill-rule="nonzero"/><g clip-path="url(#561cb589ae)"><path fill="#a65b1e" d="M 1425.785156 269.898438 C 1428.066406 268.921875 1428.285156 256.972656 1425.785156 254.148438 C 1423.289062 251.324219 1394.070312 251.652344 1392.003906 253.390625 C 1389.941406 255.125 1389.617188 267.292969 1391.460938 269.246094 C 1393.308594 271.203125 1423.503906 270.875 1425.785156 269.898438 Z M 1425.785156 269.898438 " fill-opacity="1" fill-rule="nonzero"/></g><path fill="#fda769" d="M 1266.660156 245.789062 C 1268.949219 244.808594 1269.167969 232.832031 1266.660156 230 C 1264.15625 227.171875 1234.871094 227.496094 1232.804688 229.238281 C 1230.734375 230.980469 1230.410156 243.175781 1232.257812 245.132812 C 1234.109375 247.09375 1264.375 246.769531 1266.660156 245.789062 Z M 1266.660156 245.789062 " fill-opacity="1" fill-rule="nonzero"/></svg>