<svg width="201" height="118" viewBox="0 0 201 118" fill="none" xmlns="http://www.w3.org/2000/svg">
<g filter="url(#filter0_d_449_19)">
<rect x="17" y="13" width="167" height="84" rx="19" fill="#F6FDFE"/>
</g>
<path d="M35.4201 42.16C34.6095 42.1707 33.9055 42.0427 33.3081 41.776C32.7108 41.5093 32.1401 41.1093 31.5961 40.576C31.5428 40.5333 31.4948 40.48 31.4521 40.416C31.4201 40.352 31.4041 40.2773 31.4041 40.192C31.4041 40.064 31.4521 39.9467 31.5481 39.84C31.6548 39.7333 31.7721 39.68 31.9001 39.68C32.0281 39.68 32.1455 39.7333 32.2521 39.84C32.6681 40.288 33.1375 40.6293 33.6601 40.864C34.1935 41.0987 34.7641 41.216 35.3721 41.216C35.8841 41.216 36.3375 41.136 36.7321 40.976C37.1375 40.816 37.4575 40.5867 37.6921 40.288C37.9268 39.9893 38.0441 39.6427 38.0441 39.248C38.0441 38.7573 37.9108 38.3627 37.6441 38.064C37.3775 37.7547 37.0255 37.504 36.5881 37.312C36.1508 37.1093 35.6655 36.928 35.1321 36.768C34.6948 36.64 34.2788 36.496 33.8841 36.336C33.4895 36.1653 33.1375 35.9627 32.8281 35.728C32.5188 35.4827 32.2788 35.184 32.1081 34.832C31.9375 34.48 31.8521 34.0533 31.8521 33.552C31.8521 32.9867 32.0015 32.4853 32.3001 32.048C32.5988 31.6107 33.0201 31.2693 33.5641 31.024C34.1188 30.768 34.7588 30.64 35.4841 30.64C36.1135 30.64 36.7161 30.7467 37.2921 30.96C37.8788 31.1733 38.3428 31.488 38.6841 31.904C38.8441 32.0747 38.9241 32.2293 38.9241 32.368C38.9241 32.4747 38.8708 32.5813 38.7641 32.688C38.6575 32.7947 38.5401 32.848 38.4121 32.848C38.3055 32.848 38.2148 32.8107 38.1401 32.736C37.9588 32.512 37.7295 32.3147 37.4521 32.144C37.1748 31.9627 36.8655 31.824 36.5241 31.728C36.1935 31.632 35.8468 31.584 35.4841 31.584C34.9828 31.584 34.5295 31.664 34.1241 31.824C33.7295 31.9733 33.4148 32.192 33.1801 32.48C32.9561 32.768 32.8441 33.1147 32.8441 33.52C32.8441 33.968 32.9721 34.336 33.2281 34.624C33.4841 34.912 33.8201 35.152 34.2361 35.344C34.6521 35.5253 35.0948 35.696 35.5641 35.856C36.0228 35.984 36.4601 36.1333 36.8761 36.304C37.3028 36.464 37.6761 36.6667 37.9961 36.912C38.3268 37.1573 38.5828 37.4667 38.7641 37.84C38.9561 38.2133 39.0521 38.6827 39.0521 39.248C39.0521 39.792 38.8975 40.2827 38.5881 40.72C38.2788 41.1573 37.8521 41.504 37.3081 41.76C36.7748 42.016 36.1455 42.1493 35.4201 42.16ZM40.5485 33.856H44.2765C44.4045 33.856 44.5112 33.904 44.5965 34C44.6818 34.0853 44.7245 34.192 44.7245 34.32C44.7245 34.4373 44.6818 34.5387 44.5965 34.624C44.5112 34.7093 44.4045 34.752 44.2765 34.752H40.5485C40.4205 34.752 40.3085 34.7093 40.2125 34.624C40.1272 34.528 40.0845 34.4213 40.0845 34.304C40.0845 34.176 40.1272 34.0693 40.2125 33.984C40.3085 33.8987 40.4205 33.856 40.5485 33.856ZM42.1965 31.6C42.3352 31.6 42.4472 31.648 42.5325 31.744C42.6285 31.84 42.6765 31.952 42.6765 32.08V40.112C42.6765 40.4107 42.7138 40.6347 42.7885 40.784C42.8738 40.9333 42.9805 41.0347 43.1085 41.088C43.2365 41.1307 43.3645 41.152 43.4925 41.152C43.5778 41.152 43.6525 41.1413 43.7165 41.12C43.7912 41.088 43.8712 41.072 43.9565 41.072C44.0525 41.072 44.1325 41.1093 44.1965 41.184C44.2712 41.2587 44.3085 41.3547 44.3085 41.472C44.3085 41.6213 44.2232 41.7493 44.0525 41.856C43.8818 41.952 43.6792 42 43.4445 42C43.3485 42 43.2045 41.9947 43.0125 41.984C42.8205 41.9627 42.6232 41.904 42.4205 41.808C42.2178 41.7013 42.0472 41.52 41.9085 41.264C41.7805 41.008 41.7165 40.64 41.7165 40.16V32.08C41.7165 31.952 41.7592 31.84 41.8445 31.744C41.9405 31.648 42.0578 31.6 42.1965 31.6ZM46.9784 42C46.829 42 46.7117 41.952 46.6264 41.856C46.541 41.76 46.4984 41.648 46.4984 41.52V34.352C46.4984 34.224 46.541 34.112 46.6264 34.016C46.7224 33.92 46.8397 33.872 46.9784 33.872C47.117 33.872 47.229 33.92 47.3144 34.016C47.4104 34.112 47.4584 34.224 47.4584 34.352V36.752L47.2184 36.8C47.2504 36.4267 47.341 36.0587 47.4904 35.696C47.6504 35.3227 47.8637 34.9813 48.1304 34.672C48.397 34.3627 48.7117 34.112 49.0744 33.92C49.4477 33.728 49.8637 33.632 50.3224 33.632C50.5144 33.632 50.701 33.6747 50.8824 33.76C51.0637 33.8347 51.1544 33.9627 51.1544 34.144C51.1544 34.304 51.1117 34.4267 51.0264 34.512C50.941 34.5973 50.8397 34.64 50.7224 34.64C50.6264 34.64 50.5197 34.6133 50.4024 34.56C50.2957 34.5067 50.1517 34.48 49.9704 34.48C49.6717 34.48 49.373 34.5707 49.0744 34.752C48.7757 34.9227 48.5037 35.1573 48.2584 35.456C48.013 35.7547 47.8157 36.0907 47.6664 36.464C47.5277 36.8267 47.4584 37.1947 47.4584 37.568V41.52C47.4584 41.648 47.4104 41.76 47.3144 41.856C47.2184 41.952 47.1064 42 46.9784 42ZM59.9113 37.904C59.9113 38.7147 59.7353 39.4453 59.3833 40.096C59.0313 40.736 58.5513 41.2427 57.9433 41.616C57.3353 41.9787 56.6419 42.16 55.8633 42.16C55.1059 42.16 54.4179 41.9787 53.7993 41.616C53.1913 41.2427 52.7059 40.736 52.3433 40.096C51.9913 39.4453 51.8153 38.7147 51.8153 37.904C51.8153 37.0827 51.9913 36.352 52.3433 35.712C52.7059 35.072 53.1913 34.5653 53.7993 34.192C54.4179 33.8187 55.1059 33.632 55.8633 33.632C56.6419 33.632 57.3353 33.8187 57.9433 34.192C58.5513 34.5653 59.0313 35.072 59.3833 35.712C59.7353 36.352 59.9113 37.0827 59.9113 37.904ZM58.9513 37.904C58.9513 37.2533 58.8179 36.6773 58.5513 36.176C58.2846 35.664 57.9166 35.264 57.4473 34.976C56.9886 34.6773 56.4606 34.528 55.8633 34.528C55.2873 34.528 54.7646 34.6773 54.2953 34.976C53.8259 35.264 53.4526 35.664 53.1753 36.176C52.9086 36.6773 52.7753 37.2533 52.7753 37.904C52.7753 38.5547 52.9086 39.1307 53.1753 39.632C53.4526 40.1333 53.8259 40.5333 54.2953 40.832C54.7646 41.12 55.2873 41.264 55.8633 41.264C56.4606 41.264 56.9886 41.12 57.4473 40.832C57.9166 40.5333 58.2846 40.1333 58.5513 39.632C58.8179 39.1307 58.9513 38.5547 58.9513 37.904ZM65.8075 33.632C66.5115 33.632 67.0715 33.776 67.4875 34.064C67.9142 34.3413 68.2182 34.7253 68.3995 35.216C68.5915 35.696 68.6875 36.2293 68.6875 36.816V41.52C68.6875 41.648 68.6395 41.76 68.5435 41.856C68.4475 41.952 68.3355 42 68.2075 42C68.0582 42 67.9408 41.952 67.8555 41.856C67.7702 41.76 67.7275 41.648 67.7275 41.52V36.864C67.7275 36.4373 67.6582 36.048 67.5195 35.696C67.3808 35.344 67.1515 35.0613 66.8315 34.848C66.5222 34.6347 66.1115 34.528 65.5995 34.528C65.1408 34.528 64.7035 34.6347 64.2875 34.848C63.8822 35.0613 63.5515 35.344 63.2955 35.696C63.0395 36.048 62.9115 36.4373 62.9115 36.864V41.52C62.9115 41.648 62.8635 41.76 62.7675 41.856C62.6715 41.952 62.5595 42 62.4315 42C62.2822 42 62.1648 41.952 62.0795 41.856C61.9942 41.76 61.9515 41.648 61.9515 41.52V34.352C61.9515 34.224 61.9942 34.112 62.0795 34.016C62.1755 33.92 62.2928 33.872 62.4315 33.872C62.5702 33.872 62.6822 33.92 62.7675 34.016C62.8635 34.112 62.9115 34.224 62.9115 34.352V35.696L62.5435 36.272C62.5648 35.9307 62.6715 35.6053 62.8635 35.296C63.0662 34.976 63.3222 34.6933 63.6315 34.448C63.9408 34.192 64.2822 33.9947 64.6555 33.856C65.0395 33.7067 65.4235 33.632 65.8075 33.632ZM74.6095 33.632C75.0895 33.632 75.5322 33.7173 75.9375 33.888C76.3428 34.048 76.6948 34.2613 76.9935 34.528C77.3028 34.784 77.5428 35.0613 77.7135 35.36C77.8842 35.648 77.9695 35.9253 77.9695 36.192L77.6975 35.808V34.32C77.6975 34.1813 77.7402 34.064 77.8255 33.968C77.9215 33.872 78.0388 33.824 78.1775 33.824C78.3268 33.824 78.4442 33.872 78.5295 33.968C78.6148 34.064 78.6575 34.1813 78.6575 34.32V41.248C78.6575 42.1013 78.4815 42.8213 78.1295 43.408C77.7775 43.9947 77.2975 44.4373 76.6895 44.736C76.0922 45.0453 75.4095 45.2 74.6415 45.2C74.2682 45.2 73.8735 45.152 73.4575 45.056C73.0522 44.96 72.7002 44.8373 72.4015 44.688C72.1135 44.5387 71.9535 44.384 71.9215 44.224C71.8362 44.128 71.7935 44.032 71.7935 43.936C71.8042 43.8507 71.8522 43.776 71.9375 43.712C72.0442 43.6373 72.1562 43.6267 72.2735 43.68C72.3908 43.744 72.5668 43.824 72.8015 43.92C72.9082 43.952 73.0522 44 73.2335 44.064C73.4148 44.128 73.6282 44.1813 73.8735 44.224C74.1295 44.2773 74.3962 44.304 74.6735 44.304C75.6335 44.304 76.3748 44.0267 76.8975 43.472C77.4308 42.928 77.6975 42.208 77.6975 41.312V39.776L77.8735 39.824C77.7775 40.208 77.6175 40.544 77.3935 40.832C77.1802 41.12 76.9242 41.3653 76.6255 41.568C76.3268 41.76 76.0015 41.904 75.6495 42C75.3082 42.1067 74.9668 42.16 74.6255 42.16C73.8895 42.16 73.2282 41.9733 72.6415 41.6C72.0548 41.2267 71.5855 40.72 71.2335 40.08C70.8922 39.44 70.7215 38.7093 70.7215 37.888C70.7215 37.0773 70.8922 36.352 71.2335 35.712C71.5855 35.0613 72.0495 34.5547 72.6255 34.192C73.2122 33.8187 73.8735 33.632 74.6095 33.632ZM74.7215 34.528C74.1348 34.528 73.6068 34.6773 73.1375 34.976C72.6788 35.264 72.3162 35.664 72.0495 36.176C71.7935 36.6773 71.6655 37.248 71.6655 37.888C71.6655 38.528 71.7935 39.104 72.0495 39.616C72.3162 40.128 72.6788 40.5333 73.1375 40.832C73.6068 41.12 74.1348 41.264 74.7215 41.264C75.3082 41.264 75.8308 41.12 76.2895 40.832C76.7482 40.544 77.1108 40.1493 77.3775 39.648C77.6442 39.136 77.7775 38.5493 77.7775 37.888C77.7775 37.2267 77.6442 36.6453 77.3775 36.144C77.1108 35.632 76.7482 35.2373 76.2895 34.96C75.8308 34.672 75.3082 34.528 74.7215 34.528ZM84.5694 42.16C83.748 42.16 83.0227 41.984 82.3934 41.632C81.764 41.28 81.2734 40.7893 80.9214 40.16C80.5694 39.5307 80.3934 38.7947 80.3934 37.952C80.3934 37.0453 80.5694 36.272 80.9214 35.632C81.284 34.992 81.748 34.5013 82.3134 34.16C82.8894 33.808 83.4974 33.632 84.1374 33.632C84.6067 33.632 85.06 33.7173 85.4974 33.888C85.9454 34.048 86.34 34.2933 86.6814 34.624C87.0334 34.944 87.3107 35.3387 87.5134 35.808C87.7267 36.2773 87.844 36.8213 87.8654 37.44C87.8547 37.568 87.8014 37.68 87.7054 37.776C87.6094 37.8613 87.4974 37.904 87.3694 37.904H80.9534L80.7614 37.04H87.0654L86.8574 37.232V36.912C86.8147 36.4107 86.6547 35.984 86.3774 35.632C86.1 35.28 85.764 35.0133 85.3694 34.832C84.9747 34.6507 84.564 34.56 84.1374 34.56C83.8174 34.56 83.4867 34.624 83.1454 34.752C82.8147 34.88 82.5107 35.0827 82.2334 35.36C81.9667 35.6267 81.748 35.9733 81.5774 36.4C81.4067 36.816 81.3214 37.312 81.3214 37.888C81.3214 38.5173 81.4494 39.088 81.7054 39.6C81.9614 40.112 82.3294 40.5173 82.8094 40.816C83.3 41.1147 83.8814 41.264 84.5534 41.264C84.9267 41.264 85.2627 41.2107 85.5614 41.104C85.86 40.9973 86.1214 40.8587 86.3454 40.688C86.5694 40.5067 86.756 40.32 86.9054 40.128C87.0227 40.032 87.14 39.984 87.2574 39.984C87.364 39.984 87.4547 40.0267 87.5294 40.112C87.6147 40.1973 87.6574 40.2933 87.6574 40.4C87.6574 40.528 87.604 40.64 87.4974 40.736C87.1774 41.12 86.7614 41.456 86.2494 41.744C85.7374 42.0213 85.1774 42.16 84.5694 42.16ZM90.4003 42C90.2509 42 90.1336 41.952 90.0483 41.856C89.9629 41.76 89.9203 41.648 89.9203 41.52V34.352C89.9203 34.224 89.9629 34.112 90.0483 34.016C90.1443 33.92 90.2616 33.872 90.4003 33.872C90.5389 33.872 90.6509 33.92 90.7363 34.016C90.8323 34.112 90.8803 34.224 90.8803 34.352V36.752L90.6403 36.8C90.6723 36.4267 90.7629 36.0587 90.9123 35.696C91.0723 35.3227 91.2856 34.9813 91.5523 34.672C91.8189 34.3627 92.1336 34.112 92.4963 33.92C92.8696 33.728 93.2856 33.632 93.7443 33.632C93.9363 33.632 94.1229 33.6747 94.3043 33.76C94.4856 33.8347 94.5763 33.9627 94.5763 34.144C94.5763 34.304 94.5336 34.4267 94.4483 34.512C94.3629 34.5973 94.2616 34.64 94.1443 34.64C94.0483 34.64 93.9416 34.6133 93.8243 34.56C93.7176 34.5067 93.5736 34.48 93.3923 34.48C93.0936 34.48 92.7949 34.5707 92.4963 34.752C92.1976 34.9227 91.9256 35.1573 91.6803 35.456C91.4349 35.7547 91.2376 36.0907 91.0883 36.464C90.9496 36.8267 90.8803 37.1947 90.8803 37.568V41.52C90.8803 41.648 90.8323 41.76 90.7363 41.856C90.6403 41.952 90.5283 42 90.4003 42ZM107.156 33.824C107.294 33.824 107.406 33.872 107.492 33.968C107.588 34.064 107.635 34.1813 107.635 34.32V41.52C107.635 41.648 107.588 41.76 107.492 41.856C107.396 41.952 107.284 42 107.156 42C107.017 42 106.9 41.952 106.804 41.856C106.718 41.76 106.676 41.648 106.676 41.52V39.616L106.948 39.488C106.948 39.7867 106.862 40.0907 106.692 40.4C106.532 40.7093 106.308 40.9973 106.02 41.264C105.732 41.5307 105.39 41.7493 104.996 41.92C104.612 42.08 104.196 42.16 103.748 42.16C103.022 42.16 102.372 41.9733 101.796 41.6C101.23 41.2267 100.782 40.7147 100.452 40.064C100.132 39.4133 99.9715 38.6827 99.9715 37.872C99.9715 37.04 100.137 36.3093 100.468 35.68C100.798 35.04 101.246 34.5387 101.812 34.176C102.377 33.8133 103.017 33.632 103.732 33.632C104.19 33.632 104.617 33.712 105.012 33.872C105.417 34.032 105.769 34.2507 106.068 34.528C106.366 34.8053 106.596 35.1253 106.756 35.488C106.926 35.84 107.012 36.208 107.012 36.592L106.676 36.352V34.32C106.676 34.1813 106.718 34.064 106.804 33.968C106.9 33.872 107.017 33.824 107.156 33.824ZM103.828 41.264C104.393 41.264 104.894 41.12 105.332 40.832C105.769 40.5333 106.11 40.128 106.356 39.616C106.612 39.0933 106.74 38.512 106.74 37.872C106.74 37.2427 106.612 36.6773 106.356 36.176C106.11 35.6747 105.769 35.2747 105.332 34.976C104.894 34.6773 104.393 34.528 103.828 34.528C103.273 34.528 102.772 34.672 102.324 34.96C101.886 35.248 101.54 35.6427 101.284 36.144C101.038 36.6453 100.916 37.2213 100.916 37.872C100.916 38.512 101.038 39.0933 101.284 39.616C101.54 40.128 101.886 40.5333 102.324 40.832C102.761 41.12 103.262 41.264 103.828 41.264ZM114.043 33.76C114.768 33.76 115.408 33.9413 115.963 34.304C116.528 34.656 116.976 35.1467 117.307 35.776C117.637 36.3947 117.803 37.1093 117.803 37.92C117.803 38.7307 117.637 39.4507 117.307 40.08C116.976 40.7093 116.528 41.2053 115.963 41.568C115.397 41.9307 114.763 42.112 114.059 42.112C113.685 42.112 113.328 42.0587 112.987 41.952C112.656 41.8347 112.352 41.68 112.075 41.488C111.797 41.296 111.552 41.072 111.339 40.816C111.125 40.5493 110.955 40.2613 110.827 39.952L111.115 39.744V44.72C111.115 44.848 111.067 44.96 110.971 45.056C110.885 45.152 110.773 45.2 110.635 45.2C110.496 45.2 110.379 45.152 110.283 45.056C110.197 44.96 110.155 44.848 110.155 44.72V34.288C110.155 34.1493 110.197 34.032 110.283 33.936C110.368 33.84 110.485 33.792 110.635 33.792C110.773 33.792 110.885 33.84 110.971 33.936C111.067 34.032 111.115 34.1493 111.115 34.288V36.016L110.891 35.888C110.997 35.5573 111.152 35.264 111.355 35.008C111.568 34.7413 111.813 34.5173 112.091 34.336C112.368 34.144 112.672 34 113.003 33.904C113.333 33.808 113.68 33.76 114.043 33.76ZM113.963 34.656C113.387 34.656 112.88 34.8 112.443 35.088C112.005 35.3653 111.659 35.7493 111.403 36.24C111.157 36.72 111.035 37.28 111.035 37.92C111.035 38.5493 111.157 39.1147 111.403 39.616C111.659 40.1173 112.005 40.512 112.443 40.8C112.88 41.0773 113.387 41.216 113.963 41.216C114.528 41.216 115.024 41.0773 115.451 40.8C115.888 40.512 116.235 40.1173 116.491 39.616C116.747 39.1147 116.875 38.5493 116.875 37.92C116.875 37.2907 116.747 36.7307 116.491 36.24C116.235 35.7493 115.888 35.3653 115.451 35.088C115.024 34.8 114.528 34.656 113.963 34.656ZM123.746 33.76C124.471 33.76 125.111 33.9413 125.666 34.304C126.231 34.656 126.679 35.1467 127.01 35.776C127.34 36.3947 127.506 37.1093 127.506 37.92C127.506 38.7307 127.34 39.4507 127.01 40.08C126.679 40.7093 126.231 41.2053 125.666 41.568C125.1 41.9307 124.466 42.112 123.762 42.112C123.388 42.112 123.031 42.0587 122.69 41.952C122.359 41.8347 122.055 41.68 121.778 41.488C121.5 41.296 121.255 41.072 121.042 40.816C120.828 40.5493 120.658 40.2613 120.53 39.952L120.818 39.744V44.72C120.818 44.848 120.77 44.96 120.674 45.056C120.588 45.152 120.476 45.2 120.338 45.2C120.199 45.2 120.082 45.152 119.986 45.056C119.9 44.96 119.858 44.848 119.858 44.72V34.288C119.858 34.1493 119.9 34.032 119.986 33.936C120.071 33.84 120.188 33.792 120.338 33.792C120.476 33.792 120.588 33.84 120.674 33.936C120.77 34.032 120.818 34.1493 120.818 34.288V36.016L120.594 35.888C120.7 35.5573 120.855 35.264 121.058 35.008C121.271 34.7413 121.516 34.5173 121.794 34.336C122.071 34.144 122.375 34 122.706 33.904C123.036 33.808 123.383 33.76 123.746 33.76ZM123.666 34.656C123.09 34.656 122.583 34.8 122.146 35.088C121.708 35.3653 121.362 35.7493 121.106 36.24C120.86 36.72 120.738 37.28 120.738 37.92C120.738 38.5493 120.86 39.1147 121.106 39.616C121.362 40.1173 121.708 40.512 122.146 40.8C122.583 41.0773 123.09 41.216 123.666 41.216C124.231 41.216 124.727 41.0773 125.154 40.8C125.591 40.512 125.938 40.1173 126.194 39.616C126.45 39.1147 126.578 38.5493 126.578 37.92C126.578 37.2907 126.45 36.7307 126.194 36.24C125.938 35.7493 125.591 35.3653 125.154 35.088C124.727 34.8 124.231 34.656 123.666 34.656ZM133.257 42.16C132.436 42.16 131.71 41.984 131.081 41.632C130.452 41.28 129.961 40.7893 129.609 40.16C129.257 39.5307 129.081 38.7947 129.081 37.952C129.081 37.0453 129.257 36.272 129.609 35.632C129.972 34.992 130.436 34.5013 131.001 34.16C131.577 33.808 132.185 33.632 132.825 33.632C133.294 33.632 133.748 33.7173 134.185 33.888C134.633 34.048 135.028 34.2933 135.369 34.624C135.721 34.944 135.998 35.3387 136.201 35.808C136.414 36.2773 136.532 36.8213 136.553 37.44C136.542 37.568 136.489 37.68 136.393 37.776C136.297 37.8613 136.185 37.904 136.057 37.904H129.641L129.449 37.04H135.753L135.545 37.232V36.912C135.502 36.4107 135.342 35.984 135.065 35.632C134.788 35.28 134.452 35.0133 134.057 34.832C133.662 34.6507 133.252 34.56 132.825 34.56C132.505 34.56 132.174 34.624 131.833 34.752C131.502 34.88 131.198 35.0827 130.921 35.36C130.654 35.6267 130.436 35.9733 130.265 36.4C130.094 36.816 130.009 37.312 130.009 37.888C130.009 38.5173 130.137 39.088 130.393 39.6C130.649 40.112 131.017 40.5173 131.497 40.816C131.988 41.1147 132.569 41.264 133.241 41.264C133.614 41.264 133.95 41.2107 134.249 41.104C134.548 40.9973 134.809 40.8587 135.033 40.688C135.257 40.5067 135.444 40.32 135.593 40.128C135.71 40.032 135.828 39.984 135.945 39.984C136.052 39.984 136.142 40.0267 136.217 40.112C136.302 40.1973 136.345 40.2933 136.345 40.4C136.345 40.528 136.292 40.64 136.185 40.736C135.865 41.12 135.449 41.456 134.937 41.744C134.425 42.0213 133.865 42.16 133.257 42.16ZM145.374 33.824C145.513 33.824 145.625 33.872 145.71 33.968C145.806 34.064 145.854 34.1813 145.854 34.32V41.52C145.854 41.648 145.806 41.76 145.71 41.856C145.614 41.952 145.502 42 145.374 42C145.236 42 145.118 41.952 145.022 41.856C144.937 41.76 144.894 41.648 144.894 41.52V39.616L145.166 39.488C145.166 39.7867 145.081 40.0907 144.91 40.4C144.75 40.7093 144.526 40.9973 144.238 41.264C143.95 41.5307 143.609 41.7493 143.214 41.92C142.83 42.08 142.414 42.16 141.966 42.16C141.241 42.16 140.59 41.9733 140.014 41.6C139.449 41.2267 139.001 40.7147 138.67 40.064C138.35 39.4133 138.19 38.6827 138.19 37.872C138.19 37.04 138.356 36.3093 138.686 35.68C139.017 35.04 139.465 34.5387 140.03 34.176C140.596 33.8133 141.236 33.632 141.95 33.632C142.409 33.632 142.836 33.712 143.23 33.872C143.636 34.032 143.988 34.2507 144.286 34.528C144.585 34.8053 144.814 35.1253 144.974 35.488C145.145 35.84 145.23 36.208 145.23 36.592L144.894 36.352V34.32C144.894 34.1813 144.937 34.064 145.022 33.968C145.118 33.872 145.236 33.824 145.374 33.824ZM142.046 41.264C142.612 41.264 143.113 41.12 143.55 40.832C143.988 40.5333 144.329 40.128 144.574 39.616C144.83 39.0933 144.958 38.512 144.958 37.872C144.958 37.2427 144.83 36.6773 144.574 36.176C144.329 35.6747 143.988 35.2747 143.55 34.976C143.113 34.6773 142.612 34.528 142.046 34.528C141.492 34.528 140.99 34.672 140.542 34.96C140.105 35.248 139.758 35.6427 139.502 36.144C139.257 36.6453 139.134 37.2213 139.134 37.872C139.134 38.512 139.257 39.0933 139.502 39.616C139.758 40.128 140.105 40.5333 140.542 40.832C140.98 41.12 141.481 41.264 142.046 41.264ZM149.429 41.52C149.429 41.648 149.381 41.76 149.285 41.856C149.189 41.952 149.077 42 148.949 42C148.811 42 148.693 41.952 148.597 41.856C148.512 41.76 148.469 41.648 148.469 41.52V30.64C148.469 30.512 148.517 30.4 148.613 30.304C148.709 30.208 148.821 30.16 148.949 30.16C149.088 30.16 149.2 30.208 149.285 30.304C149.381 30.4 149.429 30.512 149.429 30.64V41.52ZM155.908 33.856H159.636C159.764 33.856 159.871 33.904 159.956 34C160.041 34.0853 160.084 34.192 160.084 34.32C160.084 34.4373 160.041 34.5387 159.956 34.624C159.871 34.7093 159.764 34.752 159.636 34.752H155.908C155.78 34.752 155.668 34.7093 155.572 34.624C155.487 34.528 155.444 34.4213 155.444 34.304C155.444 34.176 155.487 34.0693 155.572 33.984C155.668 33.8987 155.78 33.856 155.908 33.856ZM157.556 31.6C157.695 31.6 157.807 31.648 157.892 31.744C157.988 31.84 158.036 31.952 158.036 32.08V40.112C158.036 40.4107 158.073 40.6347 158.148 40.784C158.233 40.9333 158.34 41.0347 158.468 41.088C158.596 41.1307 158.724 41.152 158.852 41.152C158.937 41.152 159.012 41.1413 159.076 41.12C159.151 41.088 159.231 41.072 159.316 41.072C159.412 41.072 159.492 41.1093 159.556 41.184C159.631 41.2587 159.668 41.3547 159.668 41.472C159.668 41.6213 159.583 41.7493 159.412 41.856C159.241 41.952 159.039 42 158.804 42C158.708 42 158.564 41.9947 158.372 41.984C158.18 41.9627 157.983 41.904 157.78 41.808C157.577 41.7013 157.407 41.52 157.268 41.264C157.14 41.008 157.076 40.64 157.076 40.16V32.08C157.076 31.952 157.119 31.84 157.204 31.744C157.3 31.648 157.417 31.6 157.556 31.6ZM169.396 37.904C169.396 38.7147 169.22 39.4453 168.868 40.096C168.516 40.736 168.036 41.2427 167.428 41.616C166.82 41.9787 166.126 42.16 165.348 42.16C164.59 42.16 163.902 41.9787 163.284 41.616C162.676 41.2427 162.19 40.736 161.828 40.096C161.476 39.4453 161.3 38.7147 161.3 37.904C161.3 37.0827 161.476 36.352 161.828 35.712C162.19 35.072 162.676 34.5653 163.284 34.192C163.902 33.8187 164.59 33.632 165.348 33.632C166.126 33.632 166.82 33.8187 167.428 34.192C168.036 34.5653 168.516 35.072 168.868 35.712C169.22 36.352 169.396 37.0827 169.396 37.904ZM168.436 37.904C168.436 37.2533 168.302 36.6773 168.036 36.176C167.769 35.664 167.401 35.264 166.932 34.976C166.473 34.6773 165.945 34.528 165.348 34.528C164.772 34.528 164.249 34.6773 163.78 34.976C163.31 35.264 162.937 35.664 162.66 36.176C162.393 36.6773 162.26 37.2533 162.26 37.904C162.26 38.5547 162.393 39.1307 162.66 39.632C162.937 40.1333 163.31 40.5333 163.78 40.832C164.249 41.12 164.772 41.264 165.348 41.264C165.945 41.264 166.473 41.12 166.932 40.832C167.401 40.5333 167.769 40.1333 168.036 39.632C168.302 39.1307 168.436 38.5547 168.436 37.904Z" fill="black"/>
<path d="M84.3522 53.68C84.4909 53.68 84.6029 53.728 84.6882 53.824C84.7842 53.92 84.8322 54.032 84.8322 54.16V61.216C84.8322 62.08 84.6615 62.8053 84.3202 63.392C83.9789 63.9893 83.5202 64.4373 82.9442 64.736C82.3682 65.0453 81.7122 65.2 80.9762 65.2C80.5175 65.2 80.0909 65.1467 79.6962 65.04C79.3122 64.944 78.9975 64.816 78.7522 64.656C78.6242 64.5813 78.5282 64.4907 78.4642 64.384C78.4002 64.2773 78.3949 64.1653 78.4482 64.048C78.5015 63.8987 78.5815 63.7973 78.6882 63.744C78.8055 63.7013 78.9229 63.7067 79.0402 63.76C79.2215 63.856 79.4829 63.9733 79.8242 64.112C80.1655 64.2507 80.5549 64.32 80.9922 64.32C81.5789 64.32 82.0855 64.1973 82.5122 63.952C82.9495 63.7067 83.2855 63.3493 83.5202 62.88C83.7549 62.4213 83.8722 61.872 83.8722 61.232V60.08L83.9842 60.464C83.8242 60.7947 83.5949 61.088 83.2962 61.344C83.0082 61.6 82.6722 61.8027 82.2882 61.952C81.9149 62.0907 81.5149 62.16 81.0882 62.16C80.4482 62.16 79.9149 62.032 79.4882 61.776C79.0722 61.5093 78.7629 61.1467 78.5602 60.688C78.3575 60.2293 78.2562 59.6907 78.2562 59.072V54.16C78.2562 54.032 78.2989 53.92 78.3842 53.824C78.4695 53.728 78.5869 53.68 78.7362 53.68C78.8749 53.68 78.9869 53.728 79.0722 53.824C79.1682 53.92 79.2162 54.032 79.2162 54.16V58.928C79.2162 59.6747 79.3762 60.2507 79.6962 60.656C80.0269 61.0613 80.5602 61.264 81.2962 61.264C81.7549 61.264 82.1762 61.1573 82.5602 60.944C82.9442 60.72 83.2589 60.432 83.5042 60.08C83.7495 59.7173 83.8722 59.3333 83.8722 58.928V54.16C83.8722 54.032 83.9149 53.92 84.0002 53.824C84.0962 53.728 84.2135 53.68 84.3522 53.68ZM94.8878 57.904C94.8878 58.7147 94.7118 59.4453 94.3598 60.096C94.0078 60.736 93.5278 61.2427 92.9198 61.616C92.3118 61.9787 91.6185 62.16 90.8398 62.16C90.0825 62.16 89.3945 61.9787 88.7758 61.616C88.1678 61.2427 87.6825 60.736 87.3198 60.096C86.9678 59.4453 86.7918 58.7147 86.7918 57.904C86.7918 57.0827 86.9678 56.352 87.3198 55.712C87.6825 55.072 88.1678 54.5653 88.7758 54.192C89.3945 53.8187 90.0825 53.632 90.8398 53.632C91.6185 53.632 92.3118 53.8187 92.9198 54.192C93.5278 54.5653 94.0078 55.072 94.3598 55.712C94.7118 56.352 94.8878 57.0827 94.8878 57.904ZM93.9278 57.904C93.9278 57.2533 93.7945 56.6773 93.5278 56.176C93.2611 55.664 92.8931 55.264 92.4238 54.976C91.9651 54.6773 91.4371 54.528 90.8398 54.528C90.2638 54.528 89.7411 54.6773 89.2718 54.976C88.8025 55.264 88.4291 55.664 88.1518 56.176C87.8851 56.6773 87.7518 57.2533 87.7518 57.904C87.7518 58.5547 87.8851 59.1307 88.1518 59.632C88.4291 60.1333 88.8025 60.5333 89.2718 60.832C89.7411 61.12 90.2638 61.264 90.8398 61.264C91.4371 61.264 91.9651 61.12 92.4238 60.832C92.8931 60.5333 93.2611 60.1333 93.5278 59.632C93.7945 59.1307 93.9278 58.5547 93.9278 57.904ZM103.04 53.872C103.179 53.872 103.291 53.92 103.376 54.016C103.472 54.112 103.52 54.224 103.52 54.352V58.864C103.52 59.92 103.221 60.7253 102.624 61.28C102.027 61.8347 101.221 62.112 100.208 62.112C99.2054 62.112 98.4054 61.8347 97.8081 61.28C97.2214 60.7253 96.9281 59.92 96.9281 58.864V54.352C96.9281 54.224 96.9707 54.112 97.0561 54.016C97.1521 53.92 97.2694 53.872 97.4081 53.872C97.5467 53.872 97.6587 53.92 97.7441 54.016C97.8401 54.112 97.8881 54.224 97.8881 54.352V58.864C97.8881 59.632 98.0907 60.2187 98.4961 60.624C98.9121 61.0187 99.4827 61.216 100.208 61.216C100.944 61.216 101.52 61.0187 101.936 60.624C102.352 60.2187 102.56 59.632 102.56 58.864V54.352C102.56 54.224 102.603 54.112 102.688 54.016C102.773 53.92 102.891 53.872 103.04 53.872ZM109.893 53.632C110.597 53.632 111.157 53.776 111.573 54.064C112 54.3413 112.304 54.7253 112.485 55.216C112.677 55.696 112.773 56.2293 112.773 56.816V61.52C112.773 61.648 112.725 61.76 112.629 61.856C112.533 61.952 112.421 62 112.293 62C112.144 62 112.027 61.952 111.941 61.856C111.856 61.76 111.813 61.648 111.813 61.52V56.864C111.813 56.4373 111.744 56.048 111.605 55.696C111.467 55.344 111.237 55.0613 110.917 54.848C110.608 54.6347 110.197 54.528 109.685 54.528C109.227 54.528 108.789 54.6347 108.373 54.848C107.968 55.0613 107.637 55.344 107.381 55.696C107.125 56.048 106.997 56.4373 106.997 56.864V61.52C106.997 61.648 106.949 61.76 106.853 61.856C106.757 61.952 106.645 62 106.517 62C106.368 62 106.251 61.952 106.165 61.856C106.08 61.76 106.037 61.648 106.037 61.52V54.352C106.037 54.224 106.08 54.112 106.165 54.016C106.261 53.92 106.379 53.872 106.517 53.872C106.656 53.872 106.768 53.92 106.853 54.016C106.949 54.112 106.997 54.224 106.997 54.352V55.696L106.629 56.272C106.651 55.9307 106.757 55.6053 106.949 55.296C107.152 54.976 107.408 54.6933 107.717 54.448C108.027 54.192 108.368 53.9947 108.741 53.856C109.125 53.7067 109.509 53.632 109.893 53.632ZM118.695 53.632C119.175 53.632 119.618 53.7173 120.023 53.888C120.429 54.048 120.781 54.2613 121.079 54.528C121.389 54.784 121.629 55.0613 121.799 55.36C121.97 55.648 122.055 55.9253 122.055 56.192L121.783 55.808V54.32C121.783 54.1813 121.826 54.064 121.911 53.968C122.007 53.872 122.125 53.824 122.263 53.824C122.413 53.824 122.53 53.872 122.615 53.968C122.701 54.064 122.743 54.1813 122.743 54.32V61.248C122.743 62.1013 122.567 62.8213 122.215 63.408C121.863 63.9947 121.383 64.4373 120.775 64.736C120.178 65.0453 119.495 65.2 118.727 65.2C118.354 65.2 117.959 65.152 117.543 65.056C117.138 64.96 116.786 64.8373 116.487 64.688C116.199 64.5387 116.039 64.384 116.007 64.224C115.922 64.128 115.879 64.032 115.879 63.936C115.89 63.8507 115.938 63.776 116.023 63.712C116.13 63.6373 116.242 63.6267 116.359 63.68C116.477 63.744 116.653 63.824 116.887 63.92C116.994 63.952 117.138 64 117.319 64.064C117.501 64.128 117.714 64.1813 117.959 64.224C118.215 64.2773 118.482 64.304 118.759 64.304C119.719 64.304 120.461 64.0267 120.983 63.472C121.517 62.928 121.783 62.208 121.783 61.312V59.776L121.959 59.824C121.863 60.208 121.703 60.544 121.479 60.832C121.266 61.12 121.01 61.3653 120.711 61.568C120.413 61.76 120.087 61.904 119.735 62C119.394 62.1067 119.053 62.16 118.711 62.16C117.975 62.16 117.314 61.9733 116.727 61.6C116.141 61.2267 115.671 60.72 115.319 60.08C114.978 59.44 114.807 58.7093 114.807 57.888C114.807 57.0773 114.978 56.352 115.319 55.712C115.671 55.0613 116.135 54.5547 116.711 54.192C117.298 53.8187 117.959 53.632 118.695 53.632ZM118.807 54.528C118.221 54.528 117.693 54.6773 117.223 54.976C116.765 55.264 116.402 55.664 116.135 56.176C115.879 56.6773 115.751 57.248 115.751 57.888C115.751 58.528 115.879 59.104 116.135 59.616C116.402 60.128 116.765 60.5333 117.223 60.832C117.693 61.12 118.221 61.264 118.807 61.264C119.394 61.264 119.917 61.12 120.375 60.832C120.834 60.544 121.197 60.1493 121.463 59.648C121.73 59.136 121.863 58.5493 121.863 57.888C121.863 57.2267 121.73 56.6453 121.463 56.144C121.197 55.632 120.834 55.2373 120.375 54.96C119.917 54.672 119.394 54.528 118.807 54.528ZM55.1399 70.16C55.2785 70.16 55.3905 70.208 55.4759 70.304C55.5719 70.3893 55.6199 70.5013 55.6199 70.64V81.52C55.6199 81.648 55.5719 81.76 55.4759 81.856C55.3799 81.952 55.2679 82 55.1399 82C55.0012 82 54.8839 81.952 54.7879 81.856C54.7025 81.76 54.6599 81.648 54.6599 81.52V79.616L54.9319 79.392C54.9319 79.6907 54.8519 80.0053 54.6919 80.336C54.5319 80.656 54.3025 80.9547 54.0039 81.232C53.7159 81.5093 53.3745 81.7333 52.9799 81.904C52.5959 82.0747 52.1799 82.16 51.7319 82.16C51.0172 82.16 50.3719 81.9733 49.7959 81.6C49.2305 81.2267 48.7825 80.72 48.4519 80.08C48.1212 79.44 47.9559 78.7093 47.9559 77.888C47.9559 77.0773 48.1212 76.352 48.4519 75.712C48.7825 75.0613 49.2305 74.5547 49.7959 74.192C50.3612 73.8187 51.0012 73.632 51.7159 73.632C52.1532 73.632 52.5692 73.712 52.9639 73.872C53.3585 74.032 53.7052 74.2507 54.0039 74.528C54.3132 74.8053 54.5532 75.1253 54.7239 75.488C54.9052 75.84 54.9959 76.208 54.9959 76.592L54.6599 76.352V70.64C54.6599 70.512 54.7025 70.4 54.7879 70.304C54.8839 70.208 55.0012 70.16 55.1399 70.16ZM51.8119 81.264C52.3879 81.264 52.8892 81.12 53.3159 80.832C53.7532 80.5333 54.0945 80.1333 54.3399 79.632C54.5959 79.12 54.7239 78.5387 54.7239 77.888C54.7239 77.248 54.5959 76.6773 54.3399 76.176C54.0945 75.664 53.7532 75.264 53.3159 74.976C52.8785 74.6773 52.3772 74.528 51.8119 74.528C51.2572 74.528 50.7559 74.6773 50.3079 74.976C49.8705 75.264 49.5239 75.664 49.2679 76.176C49.0225 76.6773 48.8999 77.248 48.8999 77.888C48.8999 78.528 49.0225 79.104 49.2679 79.616C49.5239 80.128 49.8705 80.5333 50.3079 80.832C50.7559 81.12 51.2572 81.264 51.8119 81.264ZM61.835 82.16C61.0137 82.16 60.2883 81.984 59.659 81.632C59.0297 81.28 58.539 80.7893 58.187 80.16C57.835 79.5307 57.659 78.7947 57.659 77.952C57.659 77.0453 57.835 76.272 58.187 75.632C58.5497 74.992 59.0137 74.5013 59.579 74.16C60.155 73.808 60.763 73.632 61.403 73.632C61.8723 73.632 62.3257 73.7173 62.763 73.888C63.211 74.048 63.6057 74.2933 63.947 74.624C64.299 74.944 64.5763 75.3387 64.779 75.808C64.9923 76.2773 65.1097 76.8213 65.131 77.44C65.1203 77.568 65.067 77.68 64.971 77.776C64.875 77.8613 64.763 77.904 64.635 77.904H58.219L58.027 77.04H64.331L64.123 77.232V76.912C64.0803 76.4107 63.9203 75.984 63.643 75.632C63.3657 75.28 63.0297 75.0133 62.635 74.832C62.2403 74.6507 61.8297 74.56 61.403 74.56C61.083 74.56 60.7523 74.624 60.411 74.752C60.0803 74.88 59.7763 75.0827 59.499 75.36C59.2323 75.6267 59.0137 75.9733 58.843 76.4C58.6723 76.816 58.587 77.312 58.587 77.888C58.587 78.5173 58.715 79.088 58.971 79.6C59.227 80.112 59.595 80.5173 60.075 80.816C60.5657 81.1147 61.147 81.264 61.819 81.264C62.1923 81.264 62.5283 81.2107 62.827 81.104C63.1257 80.9973 63.387 80.8587 63.611 80.688C63.835 80.5067 64.0217 80.32 64.171 80.128C64.2883 80.032 64.4057 79.984 64.523 79.984C64.6297 79.984 64.7203 80.0267 64.795 80.112C64.8803 80.1973 64.923 80.2933 64.923 80.4C64.923 80.528 64.8697 80.64 64.763 80.736C64.443 81.12 64.027 81.456 63.515 81.744C63.003 82.0213 62.443 82.16 61.835 82.16ZM70.8659 73.76C71.5272 73.76 72.0925 73.936 72.5619 74.288C73.0312 74.6293 73.3512 75.1413 73.5219 75.824L73.2979 75.888L73.3939 75.6C73.5325 75.28 73.7619 74.9813 74.0819 74.704C74.4125 74.416 74.7859 74.1867 75.2019 74.016C75.6179 73.8453 76.0392 73.76 76.4659 73.76C77.1379 73.76 77.6765 73.904 78.0819 74.192C78.4979 74.48 78.7965 74.8693 78.9779 75.36C79.1699 75.84 79.2659 76.384 79.2659 76.992V81.52C79.2659 81.648 79.2179 81.76 79.1219 81.856C79.0365 81.952 78.9245 82 78.7859 82C78.6472 82 78.5299 81.952 78.4339 81.856C78.3485 81.76 78.3059 81.648 78.3059 81.52V77.04C78.3059 76.6027 78.2365 76.2027 78.0979 75.84C77.9592 75.4773 77.7405 75.1893 77.4419 74.976C77.1432 74.7627 76.7432 74.656 76.2419 74.656C75.8045 74.656 75.3832 74.7627 74.9779 74.976C74.5832 75.1893 74.2579 75.4773 74.0019 75.84C73.7565 76.2027 73.6339 76.6027 73.6339 77.04V81.52C73.6339 81.648 73.5859 81.76 73.4899 81.856C73.4045 81.952 73.2925 82 73.1539 82C73.0152 82 72.8979 81.952 72.8019 81.856C72.7165 81.76 72.6739 81.648 72.6739 81.52V76.992C72.6739 76.5547 72.6099 76.16 72.4819 75.808C72.3539 75.456 72.1459 75.1787 71.8579 74.976C71.5699 74.7627 71.1805 74.656 70.6899 74.656C70.2525 74.656 69.8365 74.7627 69.4419 74.976C69.0579 75.1787 68.7432 75.456 68.4979 75.808C68.2632 76.16 68.1459 76.5547 68.1459 76.992V81.52C68.1459 81.648 68.0979 81.76 68.0019 81.856C67.9059 81.952 67.7939 82 67.6659 82C67.5165 82 67.3992 81.952 67.3139 81.856C67.2285 81.76 67.1859 81.648 67.1859 81.52V74.352C67.1859 74.224 67.2285 74.112 67.3139 74.016C67.4099 73.92 67.5272 73.872 67.6659 73.872C67.8045 73.872 67.9165 73.92 68.0019 74.016C68.0979 74.112 68.1459 74.224 68.1459 74.352V75.84L67.7139 76.432C67.7459 76.112 67.8472 75.792 68.0179 75.472C68.1992 75.152 68.4339 74.864 68.7219 74.608C69.0099 74.352 69.3352 74.1493 69.6979 74C70.0712 73.84 70.4605 73.76 70.8659 73.76ZM89.3956 77.904C89.3956 78.7147 89.2196 79.4453 88.8676 80.096C88.5156 80.736 88.0356 81.2427 87.4276 81.616C86.8196 81.9787 86.1263 82.16 85.3476 82.16C84.5903 82.16 83.9023 81.9787 83.2836 81.616C82.6756 81.2427 82.1903 80.736 81.8276 80.096C81.4756 79.4453 81.2996 78.7147 81.2996 77.904C81.2996 77.0827 81.4756 76.352 81.8276 75.712C82.1903 75.072 82.6756 74.5653 83.2836 74.192C83.9023 73.8187 84.5903 73.632 85.3476 73.632C86.1263 73.632 86.8196 73.8187 87.4276 74.192C88.0356 74.5653 88.5156 75.072 88.8676 75.712C89.2196 76.352 89.3956 77.0827 89.3956 77.904ZM88.4356 77.904C88.4356 77.2533 88.3023 76.6773 88.0356 76.176C87.769 75.664 87.401 75.264 86.9316 74.976C86.473 74.6773 85.945 74.528 85.3476 74.528C84.7716 74.528 84.249 74.6773 83.7796 74.976C83.3103 75.264 82.937 75.664 82.6596 76.176C82.393 76.6773 82.2596 77.2533 82.2596 77.904C82.2596 78.5547 82.393 79.1307 82.6596 79.632C82.937 80.1333 83.3103 80.5333 83.7796 80.832C84.249 81.12 84.7716 81.264 85.3476 81.264C85.945 81.264 86.473 81.12 86.9316 80.832C87.401 80.5333 87.769 80.1333 88.0356 79.632C88.3023 79.1307 88.4356 78.5547 88.4356 77.904ZM94.8439 73.632C95.3239 73.632 95.7665 73.7173 96.1719 73.888C96.5772 74.048 96.9292 74.2613 97.2279 74.528C97.5372 74.784 97.7772 75.0613 97.9479 75.36C98.1185 75.648 98.2039 75.9253 98.2039 76.192L97.9319 75.808V74.32C97.9319 74.1813 97.9745 74.064 98.0599 73.968C98.1559 73.872 98.2732 73.824 98.4119 73.824C98.5612 73.824 98.6785 73.872 98.7639 73.968C98.8492 74.064 98.8919 74.1813 98.8919 74.32V81.248C98.8919 82.1013 98.7159 82.8213 98.3639 83.408C98.0119 83.9947 97.5319 84.4373 96.9239 84.736C96.3265 85.0453 95.6439 85.2 94.8759 85.2C94.5025 85.2 94.1079 85.152 93.6919 85.056C93.2865 84.96 92.9345 84.8373 92.6359 84.688C92.3479 84.5387 92.1879 84.384 92.1559 84.224C92.0705 84.128 92.0279 84.032 92.0279 83.936C92.0385 83.8507 92.0865 83.776 92.1719 83.712C92.2785 83.6373 92.3905 83.6267 92.5079 83.68C92.6252 83.744 92.8012 83.824 93.0359 83.92C93.1425 83.952 93.2865 84 93.4679 84.064C93.6492 84.128 93.8625 84.1813 94.1079 84.224C94.3639 84.2773 94.6305 84.304 94.9079 84.304C95.8679 84.304 96.6092 84.0267 97.1319 83.472C97.6652 82.928 97.9319 82.208 97.9319 81.312V79.776L98.1079 79.824C98.0119 80.208 97.8519 80.544 97.6279 80.832C97.4145 81.12 97.1585 81.3653 96.8599 81.568C96.5612 81.76 96.2359 81.904 95.8839 82C95.5425 82.1067 95.2012 82.16 94.8599 82.16C94.1239 82.16 93.4625 81.9733 92.8759 81.6C92.2892 81.2267 91.8199 80.72 91.4679 80.08C91.1265 79.44 90.9559 78.7093 90.9559 77.888C90.9559 77.0773 91.1265 76.352 91.4679 75.712C91.8199 75.0613 92.2839 74.5547 92.8599 74.192C93.4465 73.8187 94.1079 73.632 94.8439 73.632ZM94.9559 74.528C94.3692 74.528 93.8412 74.6773 93.3719 74.976C92.9132 75.264 92.5505 75.664 92.2839 76.176C92.0279 76.6773 91.8999 77.248 91.8999 77.888C91.8999 78.528 92.0279 79.104 92.2839 79.616C92.5505 80.128 92.9132 80.5333 93.3719 80.832C93.8412 81.12 94.3692 81.264 94.9559 81.264C95.5425 81.264 96.0652 81.12 96.5239 80.832C96.9825 80.544 97.3452 80.1493 97.6119 79.648C97.8785 79.136 98.0119 78.5493 98.0119 77.888C98.0119 77.2267 97.8785 76.6453 97.6119 76.144C97.3452 75.632 96.9825 75.2373 96.5239 74.96C96.0652 74.672 95.5425 74.528 94.9559 74.528ZM101.9 82C101.751 82 101.634 81.952 101.548 81.856C101.463 81.76 101.42 81.648 101.42 81.52V74.352C101.42 74.224 101.463 74.112 101.548 74.016C101.644 73.92 101.762 73.872 101.9 73.872C102.039 73.872 102.151 73.92 102.236 74.016C102.332 74.112 102.38 74.224 102.38 74.352V76.752L102.14 76.8C102.172 76.4267 102.263 76.0587 102.412 75.696C102.572 75.3227 102.786 74.9813 103.052 74.672C103.319 74.3627 103.634 74.112 103.996 73.92C104.37 73.728 104.786 73.632 105.244 73.632C105.436 73.632 105.623 73.6747 105.804 73.76C105.986 73.8347 106.076 73.9627 106.076 74.144C106.076 74.304 106.034 74.4267 105.948 74.512C105.863 74.5973 105.762 74.64 105.644 74.64C105.548 74.64 105.442 74.6133 105.324 74.56C105.218 74.5067 105.074 74.48 104.892 74.48C104.594 74.48 104.295 74.5707 103.996 74.752C103.698 74.9227 103.426 75.1573 103.18 75.456C102.935 75.7547 102.738 76.0907 102.588 76.464C102.45 76.8267 102.38 77.1947 102.38 77.568V81.52C102.38 81.648 102.332 81.76 102.236 81.856C102.14 81.952 102.028 82 101.9 82ZM114.093 73.824C114.232 73.824 114.344 73.872 114.429 73.968C114.525 74.064 114.573 74.1813 114.573 74.32V81.52C114.573 81.648 114.525 81.76 114.429 81.856C114.333 81.952 114.221 82 114.093 82C113.954 82 113.837 81.952 113.741 81.856C113.656 81.76 113.613 81.648 113.613 81.52V79.616L113.885 79.488C113.885 79.7867 113.8 80.0907 113.629 80.4C113.469 80.7093 113.245 80.9973 112.957 81.264C112.669 81.5307 112.328 81.7493 111.933 81.92C111.549 82.08 111.133 82.16 110.685 82.16C109.96 82.16 109.309 81.9733 108.733 81.6C108.168 81.2267 107.72 80.7147 107.389 80.064C107.069 79.4133 106.909 78.6827 106.909 77.872C106.909 77.04 107.074 76.3093 107.405 75.68C107.736 75.04 108.184 74.5387 108.749 74.176C109.314 73.8133 109.954 73.632 110.669 73.632C111.128 73.632 111.554 73.712 111.949 73.872C112.354 74.032 112.706 74.2507 113.005 74.528C113.304 74.8053 113.533 75.1253 113.693 75.488C113.864 75.84 113.949 76.208 113.949 76.592L113.613 76.352V74.32C113.613 74.1813 113.656 74.064 113.741 73.968C113.837 73.872 113.954 73.824 114.093 73.824ZM110.765 81.264C111.33 81.264 111.832 81.12 112.269 80.832C112.706 80.5333 113.048 80.128 113.293 79.616C113.549 79.0933 113.677 78.512 113.677 77.872C113.677 77.2427 113.549 76.6773 113.293 76.176C113.048 75.6747 112.706 75.2747 112.269 74.976C111.832 74.6773 111.33 74.528 110.765 74.528C110.21 74.528 109.709 74.672 109.261 74.96C108.824 75.248 108.477 75.6427 108.221 76.144C107.976 76.6453 107.853 77.2213 107.853 77.872C107.853 78.512 107.976 79.0933 108.221 79.616C108.477 80.128 108.824 80.5333 109.261 80.832C109.698 81.12 110.2 81.264 110.765 81.264ZM120.98 73.76C121.705 73.76 122.345 73.9413 122.9 74.304C123.465 74.656 123.913 75.1467 124.244 75.776C124.575 76.3947 124.74 77.1093 124.74 77.92C124.74 78.7307 124.575 79.4507 124.244 80.08C123.913 80.7093 123.465 81.2053 122.9 81.568C122.335 81.9307 121.7 82.112 120.996 82.112C120.623 82.112 120.265 82.0587 119.924 81.952C119.593 81.8347 119.289 81.68 119.012 81.488C118.735 81.296 118.489 81.072 118.276 80.816C118.063 80.5493 117.892 80.2613 117.764 79.952L118.052 79.744V84.72C118.052 84.848 118.004 84.96 117.908 85.056C117.823 85.152 117.711 85.2 117.572 85.2C117.433 85.2 117.316 85.152 117.22 85.056C117.135 84.96 117.092 84.848 117.092 84.72V74.288C117.092 74.1493 117.135 74.032 117.22 73.936C117.305 73.84 117.423 73.792 117.572 73.792C117.711 73.792 117.823 73.84 117.908 73.936C118.004 74.032 118.052 74.1493 118.052 74.288V76.016L117.828 75.888C117.935 75.5573 118.089 75.264 118.292 75.008C118.505 74.7413 118.751 74.5173 119.028 74.336C119.305 74.144 119.609 74 119.94 73.904C120.271 73.808 120.617 73.76 120.98 73.76ZM120.9 74.656C120.324 74.656 119.817 74.8 119.38 75.088C118.943 75.3653 118.596 75.7493 118.34 76.24C118.095 76.72 117.972 77.28 117.972 77.92C117.972 78.5493 118.095 79.1147 118.34 79.616C118.596 80.1173 118.943 80.512 119.38 80.8C119.817 81.0773 120.324 81.216 120.9 81.216C121.465 81.216 121.961 81.0773 122.388 80.8C122.825 80.512 123.172 80.1173 123.428 79.616C123.684 79.1147 123.812 78.5493 123.812 77.92C123.812 77.2907 123.684 76.7307 123.428 76.24C123.172 75.7493 122.825 75.3653 122.388 75.088C121.961 74.8 121.465 74.656 120.9 74.656ZM130.523 73.76C131.195 73.76 131.739 73.904 132.155 74.192C132.571 74.48 132.875 74.8693 133.067 75.36C133.27 75.8507 133.371 76.3947 133.371 76.992V81.52C133.371 81.648 133.323 81.76 133.227 81.856C133.131 81.952 133.019 82 132.891 82C132.742 82 132.625 81.952 132.539 81.856C132.454 81.76 132.411 81.648 132.411 81.52V76.992C132.411 76.5547 132.342 76.16 132.203 75.808C132.075 75.456 131.862 75.1787 131.563 74.976C131.265 74.7627 130.865 74.656 130.363 74.656C129.915 74.656 129.489 74.7627 129.083 74.976C128.689 75.1787 128.369 75.456 128.123 75.808C127.878 76.16 127.755 76.5547 127.755 76.992V81.52C127.755 81.648 127.707 81.76 127.611 81.856C127.515 81.952 127.403 82 127.275 82C127.126 82 127.009 81.952 126.923 81.856C126.838 81.76 126.795 81.648 126.795 81.52V70.64C126.795 70.512 126.838 70.4 126.923 70.304C127.019 70.208 127.137 70.16 127.275 70.16C127.414 70.16 127.526 70.208 127.611 70.304C127.707 70.4 127.755 70.512 127.755 70.64V75.824L127.387 76.384C127.409 76.0533 127.51 75.7333 127.691 75.424C127.883 75.104 128.129 74.8213 128.427 74.576C128.726 74.32 129.057 74.1227 129.419 73.984C129.782 73.8347 130.15 73.76 130.523 73.76ZM136.817 81.52C136.817 81.648 136.769 81.76 136.673 81.856C136.577 81.952 136.465 82 136.337 82C136.198 82 136.081 81.952 135.985 81.856C135.9 81.76 135.857 81.648 135.857 81.52V74.16C135.857 74.032 135.9 73.92 135.985 73.824C136.081 73.728 136.198 73.68 136.337 73.68C136.476 73.68 136.588 73.728 136.673 73.824C136.769 73.92 136.817 74.032 136.817 74.16V81.52ZM136.337 72.608C136.113 72.608 135.942 72.56 135.825 72.464C135.718 72.3573 135.665 72.208 135.665 72.016V71.856C135.665 71.664 135.724 71.52 135.841 71.424C135.969 71.3173 136.14 71.264 136.353 71.264C136.556 71.264 136.71 71.3173 136.817 71.424C136.934 71.52 136.993 71.664 136.993 71.856V72.016C136.993 72.208 136.934 72.3573 136.817 72.464C136.71 72.56 136.55 72.608 136.337 72.608ZM142.911 73.632C143.423 73.632 143.892 73.6907 144.319 73.808C144.746 73.9147 145.087 74.064 145.343 74.256C145.61 74.448 145.743 74.656 145.743 74.88C145.743 74.9867 145.706 75.0933 145.631 75.2C145.556 75.296 145.455 75.344 145.327 75.344C145.199 75.344 145.092 75.312 145.007 75.248C144.932 75.184 144.852 75.1093 144.767 75.024C144.692 74.9387 144.58 74.8587 144.431 74.784C144.292 74.72 144.095 74.6613 143.839 74.608C143.583 74.5547 143.29 74.528 142.959 74.528C142.362 74.528 141.823 74.6773 141.343 74.976C140.863 75.2747 140.484 75.68 140.207 76.192C139.93 76.6933 139.791 77.2587 139.791 77.888C139.791 78.528 139.924 79.104 140.191 79.616C140.458 80.128 140.826 80.5333 141.295 80.832C141.764 81.12 142.314 81.264 142.943 81.264C143.37 81.264 143.7 81.2267 143.935 81.152C144.17 81.0773 144.372 80.992 144.543 80.896C144.746 80.7787 144.89 80.6667 144.975 80.56C145.071 80.4427 145.194 80.384 145.343 80.384C145.482 80.384 145.583 80.4267 145.647 80.512C145.722 80.5867 145.759 80.688 145.759 80.816C145.759 80.9867 145.631 81.1787 145.375 81.392C145.13 81.5947 144.788 81.776 144.351 81.936C143.914 82.0853 143.412 82.16 142.847 82.16C142.047 82.16 141.343 81.9733 140.735 81.6C140.138 81.2267 139.668 80.72 139.327 80.08C138.996 79.4293 138.831 78.6987 138.831 77.888C138.831 77.1093 139.002 76.4 139.343 75.76C139.684 75.12 140.159 74.608 140.767 74.224C141.386 73.8293 142.1 73.632 142.911 73.632ZM147.128 80.704C147.043 80.576 147 80.4533 147 80.336C147.011 80.208 147.08 80.1067 147.208 80.032C147.293 79.9573 147.389 79.9253 147.496 79.936C147.613 79.9467 147.72 80 147.816 80.096C148.104 80.4693 148.451 80.7733 148.856 81.008C149.272 81.232 149.763 81.344 150.328 81.344C150.627 81.344 150.92 81.296 151.208 81.2C151.507 81.0933 151.752 80.9387 151.944 80.736C152.136 80.5227 152.232 80.256 152.232 79.936C152.232 79.6053 152.136 79.3387 151.944 79.136C151.752 78.9333 151.501 78.7733 151.192 78.656C150.893 78.5387 150.573 78.4373 150.232 78.352C149.869 78.256 149.517 78.1493 149.176 78.032C148.835 77.904 148.531 77.7493 148.264 77.568C148.008 77.376 147.8 77.1467 147.64 76.88C147.48 76.6133 147.4 76.288 147.4 75.904C147.4 75.456 147.523 75.0613 147.768 74.72C148.013 74.3787 148.344 74.112 148.76 73.92C149.187 73.728 149.667 73.632 150.2 73.632C150.467 73.632 150.755 73.6693 151.064 73.744C151.373 73.808 151.677 73.92 151.976 74.08C152.275 74.24 152.541 74.4587 152.776 74.736C152.872 74.832 152.92 74.944 152.92 75.072C152.92 75.1893 152.867 75.296 152.76 75.392C152.675 75.456 152.573 75.488 152.456 75.488C152.349 75.488 152.259 75.4453 152.184 75.36C151.928 75.072 151.624 74.8533 151.272 74.704C150.92 74.5547 150.541 74.48 150.136 74.48C149.827 74.48 149.533 74.5333 149.256 74.64C148.989 74.736 148.765 74.8853 148.584 75.088C148.403 75.2907 148.312 75.5573 148.312 75.888C148.333 76.1973 148.44 76.448 148.632 76.64C148.835 76.832 149.096 76.992 149.416 77.12C149.747 77.248 150.115 77.3653 150.52 77.472C150.861 77.5573 151.187 77.6587 151.496 77.776C151.816 77.8933 152.093 78.0427 152.328 78.224C152.573 78.3947 152.765 78.6133 152.904 78.88C153.053 79.1467 153.128 79.4827 153.128 79.888C153.128 80.3573 152.995 80.7627 152.728 81.104C152.472 81.4453 152.125 81.7067 151.688 81.888C151.251 82.0693 150.765 82.16 150.232 82.16C149.656 82.16 149.096 82.048 148.552 81.824C148.019 81.6 147.544 81.2267 147.128 80.704Z" fill="#D658D6"/>
<defs>
<filter id="filter0_d_449_19" x="0" y="0" width="201" height="118" filterUnits="userSpaceOnUse" color-interpolation-filters="sRGB">
<feFlood flood-opacity="0" result="BackgroundImageFix"/>
<feColorMatrix in="SourceAlpha" type="matrix" values="0 0 0 0 0 0 0 0 0 0 0 0 0 0 0 0 0 0 127 0" result="hardAlpha"/>
<feMorphology radius="7" operator="erode" in="SourceAlpha" result="effect1_dropShadow_449_19"/>
<feOffset dy="4"/>
<feGaussianBlur stdDeviation="12"/>
<feComposite in2="hardAlpha" operator="out"/>
<feColorMatrix type="matrix" values="0 0 0 0 0 0 0 0 0 0 0 0 0 0 0 0 0 0 0.25 0"/>
<feBlend mode="normal" in2="BackgroundImageFix" result="effect1_dropShadow_449_19"/>
<feBlend mode="normal" in="SourceGraphic" in2="effect1_dropShadow_449_19" result="shape"/>
</filter>
</defs>
</svg>
