<svg width="201" height="118" viewBox="0 0 201 118" fill="none" xmlns="http://www.w3.org/2000/svg">
<g filter="url(#filter0_d_449_15)">
<rect x="17" y="13" width="167" height="84" rx="19" fill="#F6FDFE"/>
</g>
<path d="M37.6647 39.174C37.7767 39.174 37.8747 39.216 37.9587 39.3C38.0427 39.3747 38.0847 39.468 38.0847 39.58C38.0847 39.7013 38.0427 39.804 37.9587 39.888C37.8747 39.9627 37.7767 40 37.6647 40H32.6667C32.5453 40 32.4427 39.958 32.3587 39.874C32.284 39.79 32.2467 39.692 32.2467 39.58V30.62C32.2467 30.508 32.2887 30.41 32.3727 30.326C32.4567 30.242 32.564 30.2 32.6947 30.2C32.8067 30.2 32.9047 30.242 32.9887 30.326C33.082 30.41 33.1287 30.508 33.1287 30.62V39.412L32.8627 39.174H37.6647ZM42.7218 40.14C42.0032 40.14 41.3685 39.986 40.8178 39.678C40.2672 39.37 39.8378 38.9407 39.5298 38.39C39.2218 37.8393 39.0678 37.1953 39.0678 36.458C39.0678 35.6647 39.2218 34.988 39.5298 34.428C39.8472 33.868 40.2532 33.4387 40.7478 33.14C41.2518 32.832 41.7838 32.678 42.3438 32.678C42.7545 32.678 43.1512 32.7527 43.5338 32.902C43.9258 33.042 44.2712 33.2567 44.5698 33.546C44.8778 33.826 45.1205 34.1713 45.2978 34.582C45.4845 34.9927 45.5872 35.4687 45.6058 36.01C45.5965 36.122 45.5498 36.22 45.4658 36.304C45.3818 36.3787 45.2838 36.416 45.1718 36.416H39.5578L39.3898 35.66H44.9058L44.7238 35.828V35.548C44.6865 35.1093 44.5465 34.736 44.3038 34.428C44.0612 34.12 43.7672 33.8867 43.4218 33.728C43.0765 33.5693 42.7172 33.49 42.3438 33.49C42.0638 33.49 41.7745 33.546 41.4758 33.658C41.1865 33.77 40.9205 33.9473 40.6778 34.19C40.4445 34.4233 40.2532 34.7267 40.1038 35.1C39.9545 35.464 39.8798 35.898 39.8798 36.402C39.8798 36.9527 39.9918 37.452 40.2158 37.9C40.4398 38.348 40.7618 38.7027 41.1818 38.964C41.6112 39.2253 42.1198 39.356 42.7078 39.356C43.0345 39.356 43.3285 39.3093 43.5898 39.216C43.8512 39.1227 44.0798 39.0013 44.2758 38.852C44.4718 38.6933 44.6352 38.53 44.7658 38.362C44.8685 38.278 44.9712 38.236 45.0738 38.236C45.1672 38.236 45.2465 38.2733 45.3118 38.348C45.3865 38.4227 45.4238 38.5067 45.4238 38.6C45.4238 38.712 45.3772 38.81 45.2838 38.894C45.0038 39.23 44.6398 39.524 44.1918 39.776C43.7438 40.0187 43.2538 40.14 42.7218 40.14ZM47.1675 32.692C47.2422 32.692 47.3168 32.7153 47.3915 32.762C47.4662 32.8087 47.5222 32.8787 47.5595 32.972L50.0095 38.796L49.8275 38.908L52.3335 32.972C52.4082 32.7853 52.5435 32.6967 52.7395 32.706C52.8328 32.706 52.9215 32.7387 53.0055 32.804C53.0895 32.86 53.1315 32.944 53.1315 33.056C53.1315 33.112 53.1222 33.1587 53.1035 33.196C53.0942 33.224 53.0848 33.2567 53.0755 33.294L50.3315 39.734C50.2568 39.902 50.1308 39.9907 49.9535 40C49.8695 40.0093 49.7855 39.9907 49.7015 39.944C49.6268 39.888 49.5708 39.818 49.5335 39.734L46.7755 33.294C46.7662 33.2753 46.7568 33.2473 46.7475 33.21C46.7382 33.1727 46.7335 33.1353 46.7335 33.098C46.7335 32.9953 46.7708 32.902 46.8455 32.818C46.9202 32.734 47.0275 32.692 47.1675 32.692ZM57.9113 40.14C57.1926 40.14 56.558 39.986 56.0073 39.678C55.4566 39.37 55.0273 38.9407 54.7193 38.39C54.4113 37.8393 54.2573 37.1953 54.2573 36.458C54.2573 35.6647 54.4113 34.988 54.7193 34.428C55.0366 33.868 55.4426 33.4387 55.9373 33.14C56.4413 32.832 56.9733 32.678 57.5333 32.678C57.944 32.678 58.3406 32.7527 58.7233 32.902C59.1153 33.042 59.4606 33.2567 59.7593 33.546C60.0673 33.826 60.31 34.1713 60.4873 34.582C60.674 34.9927 60.7766 35.4687 60.7953 36.01C60.786 36.122 60.7393 36.22 60.6553 36.304C60.5713 36.3787 60.4733 36.416 60.3613 36.416H54.7473L54.5793 35.66H60.0953L59.9133 35.828V35.548C59.876 35.1093 59.736 34.736 59.4933 34.428C59.2506 34.12 58.9566 33.8867 58.6113 33.728C58.266 33.5693 57.9066 33.49 57.5333 33.49C57.2533 33.49 56.964 33.546 56.6653 33.658C56.376 33.77 56.11 33.9473 55.8673 34.19C55.634 34.4233 55.4426 34.7267 55.2933 35.1C55.144 35.464 55.0693 35.898 55.0693 36.402C55.0693 36.9527 55.1813 37.452 55.4053 37.9C55.6293 38.348 55.9513 38.7027 56.3713 38.964C56.8006 39.2253 57.3093 39.356 57.8973 39.356C58.224 39.356 58.518 39.3093 58.7793 39.216C59.0406 39.1227 59.2693 39.0013 59.4653 38.852C59.6613 38.6933 59.8246 38.53 59.9553 38.362C60.058 38.278 60.1606 38.236 60.2633 38.236C60.3566 38.236 60.436 38.2733 60.5013 38.348C60.576 38.4227 60.6133 38.5067 60.6133 38.6C60.6133 38.712 60.5666 38.81 60.4733 38.894C60.1933 39.23 59.8293 39.524 59.3813 39.776C58.9333 40.0187 58.4433 40.14 57.9113 40.14ZM63.5173 39.58C63.5173 39.692 63.4753 39.79 63.3913 39.874C63.3073 39.958 63.2093 40 63.0973 40C62.976 40 62.8733 39.958 62.7893 39.874C62.7146 39.79 62.6773 39.692 62.6773 39.58V30.06C62.6773 29.948 62.7193 29.85 62.8033 29.766C62.8873 29.682 62.9853 29.64 63.0973 29.64C63.2186 29.64 63.3166 29.682 63.3913 29.766C63.4753 29.85 63.5173 29.948 63.5173 30.06V39.58ZM73.05 32.79C73.6847 32.79 74.2447 32.9487 74.73 33.266C75.2247 33.574 75.6167 34.0033 75.906 34.554C76.1953 35.0953 76.34 35.7207 76.34 36.43C76.34 37.1393 76.1953 37.7693 75.906 38.32C75.6167 38.8707 75.2247 39.3047 74.73 39.622C74.2353 39.9393 73.68 40.098 73.064 40.098C72.7373 40.098 72.4247 40.0513 72.126 39.958C71.8367 39.8553 71.5707 39.72 71.328 39.552C71.0853 39.384 70.8707 39.188 70.684 38.964C70.4973 38.7307 70.348 38.4787 70.236 38.208L70.488 38.026V42.38C70.488 42.492 70.446 42.59 70.362 42.674C70.2873 42.758 70.1893 42.8 70.068 42.8C69.9467 42.8 69.844 42.758 69.76 42.674C69.6853 42.59 69.648 42.492 69.648 42.38V33.252C69.648 33.1307 69.6853 33.028 69.76 32.944C69.8347 32.86 69.9373 32.818 70.068 32.818C70.1893 32.818 70.2873 32.86 70.362 32.944C70.446 33.028 70.488 33.1307 70.488 33.252V34.764L70.292 34.652C70.3853 34.3627 70.5207 34.106 70.698 33.882C70.8847 33.6487 71.0993 33.4527 71.342 33.294C71.5847 33.126 71.8507 33 72.14 32.916C72.4293 32.832 72.7327 32.79 73.05 32.79ZM72.98 33.574C72.476 33.574 72.0327 33.7 71.65 33.952C71.2673 34.1947 70.964 34.5307 70.74 34.96C70.5253 35.38 70.418 35.87 70.418 36.43C70.418 36.9807 70.5253 37.4753 70.74 37.914C70.964 38.3527 71.2673 38.698 71.65 38.95C72.0327 39.1927 72.476 39.314 72.98 39.314C73.4747 39.314 73.9087 39.1927 74.282 38.95C74.6647 38.698 74.968 38.3527 75.192 37.914C75.416 37.4753 75.528 36.9807 75.528 36.43C75.528 35.8793 75.416 35.3893 75.192 34.96C74.968 34.5307 74.6647 34.1947 74.282 33.952C73.9087 33.7 73.4747 33.574 72.98 33.574ZM79.0622 39.58C79.0622 39.692 79.0202 39.79 78.9362 39.874C78.8522 39.958 78.7542 40 78.6422 40C78.5209 40 78.4182 39.958 78.3342 39.874C78.2596 39.79 78.2222 39.692 78.2222 39.58V30.06C78.2222 29.948 78.2642 29.85 78.3482 29.766C78.4322 29.682 78.5302 29.64 78.6422 29.64C78.7636 29.64 78.8616 29.682 78.9362 29.766C79.0202 29.85 79.0622 29.948 79.0622 30.06V39.58ZM87.2308 32.846C87.3521 32.846 87.4501 32.888 87.5248 32.972C87.6088 33.056 87.6508 33.1587 87.6508 33.28V39.58C87.6508 39.692 87.6088 39.79 87.5248 39.874C87.4408 39.958 87.3428 40 87.2308 40C87.1095 40 87.0068 39.958 86.9228 39.874C86.8481 39.79 86.8108 39.692 86.8108 39.58V37.914L87.0488 37.802C87.0488 38.0633 86.9741 38.3293 86.8248 38.6C86.6848 38.8707 86.4888 39.1227 86.2368 39.356C85.9848 39.5893 85.6861 39.7807 85.3408 39.93C85.0048 40.07 84.6408 40.14 84.2488 40.14C83.6141 40.14 83.0448 39.9767 82.5408 39.65C82.0461 39.3233 81.6541 38.8753 81.3648 38.306C81.0848 37.7367 80.9448 37.0973 80.9448 36.388C80.9448 35.66 81.0895 35.0207 81.3788 34.47C81.6681 33.91 82.0601 33.4713 82.5548 33.154C83.0495 32.8367 83.6095 32.678 84.2348 32.678C84.6361 32.678 85.0095 32.748 85.3548 32.888C85.7095 33.028 86.0175 33.2193 86.2788 33.462C86.5401 33.7047 86.7408 33.9847 86.8808 34.302C87.0301 34.61 87.1048 34.932 87.1048 35.268L86.8108 35.058V33.28C86.8108 33.1587 86.8481 33.056 86.9228 32.972C87.0068 32.888 87.1095 32.846 87.2308 32.846ZM84.3188 39.356C84.8135 39.356 85.2521 39.23 85.6348 38.978C86.0175 38.7167 86.3161 38.362 86.5308 37.914C86.7548 37.4567 86.8668 36.948 86.8668 36.388C86.8668 35.8373 86.7548 35.3427 86.5308 34.904C86.3161 34.4653 86.0175 34.1153 85.6348 33.854C85.2521 33.5927 84.8135 33.462 84.3188 33.462C83.8335 33.462 83.3948 33.588 83.0028 33.84C82.6201 34.092 82.3168 34.4373 82.0928 34.876C81.8781 35.3147 81.7708 35.8187 81.7708 36.388C81.7708 36.948 81.8781 37.4567 82.0928 37.914C82.3168 38.362 82.6201 38.7167 83.0028 38.978C83.3855 39.23 83.8241 39.356 84.3188 39.356ZM95.189 32.72C95.3104 32.72 95.4084 32.762 95.483 32.846C95.567 32.93 95.609 33.028 95.609 33.14V39.314C95.609 40.07 95.4597 40.7047 95.161 41.218C94.8624 41.7407 94.461 42.1327 93.957 42.394C93.453 42.6647 92.879 42.8 92.235 42.8C91.8337 42.8 91.4604 42.7533 91.115 42.66C90.779 42.576 90.5037 42.464 90.289 42.324C90.177 42.2587 90.093 42.1793 90.037 42.086C89.981 41.9927 89.9764 41.8947 90.023 41.792C90.0697 41.6613 90.1397 41.5727 90.233 41.526C90.3357 41.4887 90.4384 41.4933 90.541 41.54C90.6997 41.624 90.9284 41.7267 91.227 41.848C91.5257 41.9693 91.8664 42.03 92.249 42.03C92.7624 42.03 93.2057 41.9227 93.579 41.708C93.9617 41.4933 94.2557 41.1807 94.461 40.77C94.6664 40.3687 94.769 39.888 94.769 39.328V38.32L94.867 38.656C94.727 38.9453 94.5264 39.202 94.265 39.426C94.013 39.65 93.719 39.8273 93.383 39.958C93.0564 40.0793 92.7064 40.14 92.333 40.14C91.773 40.14 91.3064 40.028 90.933 39.804C90.569 39.5707 90.2984 39.2533 90.121 38.852C89.9437 38.4507 89.855 37.9793 89.855 37.438V33.14C89.855 33.028 89.8924 32.93 89.967 32.846C90.0417 32.762 90.1444 32.72 90.275 32.72C90.3964 32.72 90.4944 32.762 90.569 32.846C90.653 32.93 90.695 33.028 90.695 33.14V37.312C90.695 37.9653 90.835 38.4693 91.115 38.824C91.4044 39.1787 91.871 39.356 92.515 39.356C92.9164 39.356 93.285 39.2627 93.621 39.076C93.957 38.88 94.2324 38.628 94.447 38.32C94.6617 38.0027 94.769 37.6667 94.769 37.312V33.14C94.769 33.028 94.8064 32.93 94.881 32.846C94.965 32.762 95.0677 32.72 95.189 32.72ZM98.6241 39.58C98.6241 39.692 98.5821 39.79 98.4981 39.874C98.4141 39.958 98.3161 40 98.2041 40C98.0827 40 97.9801 39.958 97.8961 39.874C97.8214 39.79 97.7841 39.692 97.7841 39.58V33.14C97.7841 33.028 97.8214 32.93 97.8961 32.846C97.9801 32.762 98.0827 32.72 98.2041 32.72C98.3254 32.72 98.4234 32.762 98.4981 32.846C98.5821 32.93 98.6241 33.028 98.6241 33.14V39.58ZM98.2041 31.782C98.0081 31.782 97.8587 31.74 97.7561 31.656C97.6627 31.5627 97.6161 31.432 97.6161 31.264V31.124C97.6161 30.956 97.6674 30.83 97.7701 30.746C97.8821 30.6527 98.0314 30.606 98.2181 30.606C98.3954 30.606 98.5307 30.6527 98.6241 30.746C98.7267 30.83 98.7781 30.956 98.7781 31.124V31.264C98.7781 31.432 98.7267 31.5627 98.6241 31.656C98.5307 31.74 98.3907 31.782 98.2041 31.782ZM104.18 32.678C104.796 32.678 105.286 32.804 105.65 33.056C106.024 33.2987 106.29 33.6347 106.448 34.064C106.616 34.484 106.7 34.9507 106.7 35.464V39.58C106.7 39.692 106.658 39.79 106.574 39.874C106.49 39.958 106.392 40 106.28 40C106.15 40 106.047 39.958 105.972 39.874C105.898 39.79 105.86 39.692 105.86 39.58V35.506C105.86 35.1327 105.8 34.792 105.678 34.484C105.557 34.176 105.356 33.9287 105.076 33.742C104.806 33.5553 104.446 33.462 103.998 33.462C103.597 33.462 103.214 33.5553 102.85 33.742C102.496 33.9287 102.206 34.176 101.982 34.484C101.758 34.792 101.646 35.1327 101.646 35.506V39.58C101.646 39.692 101.604 39.79 101.52 39.874C101.436 39.958 101.338 40 101.226 40C101.096 40 100.993 39.958 100.918 39.874C100.844 39.79 100.806 39.692 100.806 39.58V33.308C100.806 33.196 100.844 33.098 100.918 33.014C101.002 32.93 101.105 32.888 101.226 32.888C101.348 32.888 101.446 32.93 101.52 33.014C101.604 33.098 101.646 33.196 101.646 33.308V34.484L101.324 34.988C101.343 34.6893 101.436 34.4047 101.604 34.134C101.782 33.854 102.006 33.6067 102.276 33.392C102.547 33.168 102.846 32.9953 103.172 32.874C103.508 32.7433 103.844 32.678 104.18 32.678ZM111.882 32.678C112.302 32.678 112.689 32.7527 113.044 32.902C113.399 33.042 113.707 33.2287 113.968 33.462C114.239 33.686 114.449 33.9287 114.598 34.19C114.747 34.442 114.822 34.6847 114.822 34.918L114.584 34.582V33.28C114.584 33.1587 114.621 33.056 114.696 32.972C114.78 32.888 114.883 32.846 115.004 32.846C115.135 32.846 115.237 32.888 115.312 32.972C115.387 33.056 115.424 33.1587 115.424 33.28V39.342C115.424 40.0887 115.27 40.7187 114.962 41.232C114.654 41.7453 114.234 42.1327 113.702 42.394C113.179 42.6647 112.582 42.8 111.91 42.8C111.583 42.8 111.238 42.758 110.874 42.674C110.519 42.59 110.211 42.4827 109.95 42.352C109.698 42.2213 109.558 42.086 109.53 41.946C109.455 41.862 109.418 41.778 109.418 41.694C109.427 41.6193 109.469 41.554 109.544 41.498C109.637 41.4327 109.735 41.4233 109.838 41.47C109.941 41.526 110.095 41.596 110.3 41.68C110.393 41.708 110.519 41.75 110.678 41.806C110.837 41.862 111.023 41.9087 111.238 41.946C111.462 41.9927 111.695 42.016 111.938 42.016C112.778 42.016 113.427 41.7733 113.884 41.288C114.351 40.812 114.584 40.182 114.584 39.398V38.054L114.738 38.096C114.654 38.432 114.514 38.726 114.318 38.978C114.131 39.23 113.907 39.4447 113.646 39.622C113.385 39.79 113.1 39.916 112.792 40C112.493 40.0933 112.195 40.14 111.896 40.14C111.252 40.14 110.673 39.9767 110.16 39.65C109.647 39.3233 109.236 38.88 108.928 38.32C108.629 37.76 108.48 37.1207 108.48 36.402C108.48 35.6927 108.629 35.058 108.928 34.498C109.236 33.9287 109.642 33.4853 110.146 33.168C110.659 32.8413 111.238 32.678 111.882 32.678ZM111.98 33.462C111.467 33.462 111.005 33.5927 110.594 33.854C110.193 34.106 109.875 34.456 109.642 34.904C109.418 35.3427 109.306 35.842 109.306 36.402C109.306 36.962 109.418 37.466 109.642 37.914C109.875 38.362 110.193 38.7167 110.594 38.978C111.005 39.23 111.467 39.356 111.98 39.356C112.493 39.356 112.951 39.23 113.352 38.978C113.753 38.726 114.071 38.3807 114.304 37.942C114.537 37.494 114.654 36.9807 114.654 36.402C114.654 35.8233 114.537 35.3147 114.304 34.876C114.071 34.428 113.753 34.0827 113.352 33.84C112.951 33.588 112.493 33.462 111.98 33.462ZM124.054 29.696C124.194 29.696 124.344 29.71 124.502 29.738C124.67 29.766 124.815 29.8173 124.936 29.892C125.058 29.9573 125.118 30.06 125.118 30.2C125.118 30.3027 125.081 30.396 125.006 30.48C124.932 30.5547 124.848 30.592 124.754 30.592C124.661 30.592 124.544 30.5687 124.404 30.522C124.264 30.466 124.115 30.438 123.956 30.438C123.76 30.438 123.592 30.4847 123.452 30.578C123.312 30.662 123.205 30.788 123.13 30.956C123.056 31.1147 123.018 31.3107 123.018 31.544V39.58C123.018 39.692 122.976 39.79 122.892 39.874C122.818 39.958 122.72 40 122.598 40C122.477 40 122.374 39.958 122.29 39.874C122.216 39.79 122.178 39.692 122.178 39.58V31.544C122.178 30.9467 122.351 30.4893 122.696 30.172C123.051 29.8547 123.504 29.696 124.054 29.696ZM124.586 32.986C124.698 32.986 124.792 33.0233 124.866 33.098C124.941 33.1727 124.978 33.266 124.978 33.378C124.978 33.49 124.941 33.5833 124.866 33.658C124.792 33.7327 124.698 33.77 124.586 33.77H121.156C121.054 33.77 120.96 33.7327 120.876 33.658C120.802 33.574 120.764 33.4807 120.764 33.378C120.764 33.2567 120.802 33.1633 120.876 33.098C120.96 33.0233 121.054 32.986 121.156 32.986H124.586ZM127.316 39.58C127.316 39.692 127.274 39.79 127.19 39.874C127.106 39.958 127.008 40 126.896 40C126.775 40 126.672 39.958 126.588 39.874C126.514 39.79 126.476 39.692 126.476 39.58V33.14C126.476 33.028 126.514 32.93 126.588 32.846C126.672 32.762 126.775 32.72 126.896 32.72C127.018 32.72 127.116 32.762 127.19 32.846C127.274 32.93 127.316 33.028 127.316 33.14V39.58ZM126.896 31.782C126.7 31.782 126.551 31.74 126.448 31.656C126.355 31.5627 126.308 31.432 126.308 31.264V31.124C126.308 30.956 126.36 30.83 126.462 30.746C126.574 30.6527 126.724 30.606 126.91 30.606C127.088 30.606 127.223 30.6527 127.316 30.746C127.419 30.83 127.47 30.956 127.47 31.124V31.264C127.47 31.432 127.419 31.5627 127.316 31.656C127.223 31.74 127.083 31.782 126.896 31.782ZM132.724 40.14C132.005 40.14 131.37 39.986 130.82 39.678C130.269 39.37 129.84 38.9407 129.532 38.39C129.224 37.8393 129.07 37.1953 129.07 36.458C129.07 35.6647 129.224 34.988 129.532 34.428C129.849 33.868 130.255 33.4387 130.75 33.14C131.254 32.832 131.786 32.678 132.346 32.678C132.756 32.678 133.153 32.7527 133.536 32.902C133.928 33.042 134.273 33.2567 134.572 33.546C134.88 33.826 135.122 34.1713 135.3 34.582C135.486 34.9927 135.589 35.4687 135.608 36.01C135.598 36.122 135.552 36.22 135.468 36.304C135.384 36.3787 135.286 36.416 135.174 36.416H129.56L129.392 35.66H134.908L134.726 35.828V35.548C134.688 35.1093 134.548 34.736 134.306 34.428C134.063 34.12 133.769 33.8867 133.424 33.728C133.078 33.5693 132.719 33.49 132.346 33.49C132.066 33.49 131.776 33.546 131.478 33.658C131.188 33.77 130.922 33.9473 130.68 34.19C130.446 34.4233 130.255 34.7267 130.106 35.1C129.956 35.464 129.882 35.898 129.882 36.402C129.882 36.9527 129.994 37.452 130.218 37.9C130.442 38.348 130.764 38.7027 131.184 38.964C131.613 39.2253 132.122 39.356 132.71 39.356C133.036 39.356 133.33 39.3093 133.592 39.216C133.853 39.1227 134.082 39.0013 134.278 38.852C134.474 38.6933 134.637 38.53 134.768 38.362C134.87 38.278 134.973 38.236 135.076 38.236C135.169 38.236 135.248 38.2733 135.314 38.348C135.388 38.4227 135.426 38.5067 135.426 38.6C135.426 38.712 135.379 38.81 135.286 38.894C135.006 39.23 134.642 39.524 134.194 39.776C133.746 40.0187 133.256 40.14 132.724 40.14ZM138.33 39.58C138.33 39.692 138.288 39.79 138.204 39.874C138.12 39.958 138.022 40 137.91 40C137.788 40 137.686 39.958 137.602 39.874C137.527 39.79 137.49 39.692 137.49 39.58V30.06C137.49 29.948 137.532 29.85 137.616 29.766C137.7 29.682 137.798 29.64 137.91 29.64C138.031 29.64 138.129 29.682 138.204 29.766C138.288 29.85 138.33 29.948 138.33 30.06V39.58ZM146.362 29.64C146.483 29.64 146.581 29.682 146.656 29.766C146.74 29.8407 146.782 29.9387 146.782 30.06V39.58C146.782 39.692 146.74 39.79 146.656 39.874C146.572 39.958 146.474 40 146.362 40C146.24 40 146.138 39.958 146.054 39.874C145.979 39.79 145.942 39.692 145.942 39.58V37.914L146.18 37.718C146.18 37.9793 146.11 38.2547 145.97 38.544C145.83 38.824 145.629 39.0853 145.368 39.328C145.116 39.5707 144.817 39.7667 144.472 39.916C144.136 40.0653 143.772 40.14 143.38 40.14C142.754 40.14 142.19 39.9767 141.686 39.65C141.191 39.3233 140.799 38.88 140.51 38.32C140.22 37.76 140.076 37.1207 140.076 36.402C140.076 35.6927 140.22 35.058 140.51 34.498C140.799 33.9287 141.191 33.4853 141.686 33.168C142.18 32.8413 142.74 32.678 143.366 32.678C143.748 32.678 144.112 32.748 144.458 32.888C144.803 33.028 145.106 33.2193 145.368 33.462C145.638 33.7047 145.848 33.9847 145.998 34.302C146.156 34.61 146.236 34.932 146.236 35.268L145.942 35.058V30.06C145.942 29.948 145.979 29.85 146.054 29.766C146.138 29.682 146.24 29.64 146.362 29.64ZM143.45 39.356C143.954 39.356 144.392 39.23 144.766 38.978C145.148 38.7167 145.447 38.3667 145.662 37.928C145.886 37.48 145.998 36.9713 145.998 36.402C145.998 35.842 145.886 35.3427 145.662 34.904C145.447 34.456 145.148 34.106 144.766 33.854C144.383 33.5927 143.944 33.462 143.45 33.462C142.964 33.462 142.526 33.5927 142.134 33.854C141.751 34.106 141.448 34.456 141.224 34.904C141.009 35.3427 140.902 35.842 140.902 36.402C140.902 36.962 141.009 37.466 141.224 37.914C141.448 38.362 141.751 38.7167 142.134 38.978C142.526 39.23 142.964 39.356 143.45 39.356Z" fill="#D658D6"/>
<path d="M155.404 29.696C155.544 29.696 155.693 29.71 155.852 29.738C156.02 29.766 156.165 29.8173 156.286 29.892C156.407 29.9573 156.468 30.06 156.468 30.2C156.468 30.3027 156.431 30.396 156.356 30.48C156.281 30.5547 156.197 30.592 156.104 30.592C156.011 30.592 155.894 30.5687 155.754 30.522C155.614 30.466 155.465 30.438 155.306 30.438C155.11 30.438 154.942 30.4847 154.802 30.578C154.662 30.662 154.555 30.788 154.48 30.956C154.405 31.1147 154.368 31.3107 154.368 31.544V39.58C154.368 39.692 154.326 39.79 154.242 39.874C154.167 39.958 154.069 40 153.948 40C153.827 40 153.724 39.958 153.64 39.874C153.565 39.79 153.528 39.692 153.528 39.58V31.544C153.528 30.9467 153.701 30.4893 154.046 30.172C154.401 29.8547 154.853 29.696 155.404 29.696ZM155.936 32.986C156.048 32.986 156.141 33.0233 156.216 33.098C156.291 33.1727 156.328 33.266 156.328 33.378C156.328 33.49 156.291 33.5833 156.216 33.658C156.141 33.7327 156.048 33.77 155.936 33.77H152.506C152.403 33.77 152.31 33.7327 152.226 33.658C152.151 33.574 152.114 33.4807 152.114 33.378C152.114 33.2567 152.151 33.1633 152.226 33.098C152.31 33.0233 152.403 32.986 152.506 32.986H155.936ZM164.003 36.416C164.003 37.1253 163.849 37.7647 163.541 38.334C163.233 38.894 162.813 39.3373 162.281 39.664C161.749 39.9813 161.143 40.14 160.461 40.14C159.799 40.14 159.197 39.9813 158.655 39.664C158.123 39.3373 157.699 38.894 157.381 38.334C157.073 37.7647 156.919 37.1253 156.919 36.416C156.919 35.6973 157.073 35.058 157.381 34.498C157.699 33.938 158.123 33.4947 158.655 33.168C159.197 32.8413 159.799 32.678 160.461 32.678C161.143 32.678 161.749 32.8413 162.281 33.168C162.813 33.4947 163.233 33.938 163.541 34.498C163.849 35.058 164.003 35.6973 164.003 36.416ZM163.163 36.416C163.163 35.8467 163.047 35.3427 162.813 34.904C162.58 34.456 162.258 34.106 161.847 33.854C161.446 33.5927 160.984 33.462 160.461 33.462C159.957 33.462 159.5 33.5927 159.089 33.854C158.679 34.106 158.352 34.456 158.109 34.904C157.876 35.3427 157.759 35.8467 157.759 36.416C157.759 36.9853 157.876 37.4893 158.109 37.928C158.352 38.3667 158.679 38.7167 159.089 38.978C159.5 39.23 159.957 39.356 160.461 39.356C160.984 39.356 161.446 39.23 161.847 38.978C162.258 38.7167 162.58 38.3667 162.813 37.928C163.047 37.4893 163.163 36.9853 163.163 36.416ZM166.209 40C166.078 40 165.975 39.958 165.901 39.874C165.826 39.79 165.789 39.692 165.789 39.58V33.308C165.789 33.196 165.826 33.098 165.901 33.014C165.985 32.93 166.087 32.888 166.209 32.888C166.33 32.888 166.428 32.93 166.503 33.014C166.587 33.098 166.629 33.196 166.629 33.308V35.408L166.419 35.45C166.447 35.1233 166.526 34.8013 166.657 34.484C166.797 34.1573 166.983 33.8587 167.217 33.588C167.45 33.3173 167.725 33.098 168.043 32.93C168.369 32.762 168.733 32.678 169.135 32.678C169.303 32.678 169.466 32.7153 169.625 32.79C169.783 32.8553 169.863 32.9673 169.863 33.126C169.863 33.266 169.825 33.3733 169.751 33.448C169.676 33.5227 169.587 33.56 169.485 33.56C169.401 33.56 169.307 33.5367 169.205 33.49C169.111 33.4433 168.985 33.42 168.827 33.42C168.565 33.42 168.304 33.4993 168.043 33.658C167.781 33.8073 167.543 34.0127 167.329 34.274C167.114 34.5353 166.941 34.8293 166.811 35.156C166.689 35.4733 166.629 35.7953 166.629 36.122V39.58C166.629 39.692 166.587 39.79 166.503 39.874C166.419 39.958 166.321 40 166.209 40ZM34.1809 50.678C34.8155 50.678 35.3755 50.8367 35.8609 51.154C36.3555 51.4713 36.7475 51.91 37.0369 52.47C37.3262 53.0207 37.4709 53.66 37.4709 54.388C37.4709 55.0973 37.3262 55.7367 37.0369 56.306C36.7475 56.8753 36.3555 57.3233 35.8609 57.65C35.3662 57.9767 34.8109 58.14 34.1949 58.14C33.8682 58.14 33.5555 58.0887 33.2569 57.986C32.9675 57.8833 32.7015 57.748 32.4589 57.58C32.2162 57.4027 32.0015 57.1973 31.8149 56.964C31.6282 56.7307 31.4789 56.4787 31.3669 56.208L31.6189 56.026V57.608C31.6189 57.7293 31.5769 57.832 31.4929 57.916C31.4182 57.9907 31.3202 58.028 31.1989 58.028C31.0775 58.028 30.9749 57.9907 30.8909 57.916C30.8162 57.832 30.7789 57.7293 30.7789 57.608V48.074C30.7789 47.9527 30.8162 47.8547 30.8909 47.78C30.9655 47.696 31.0682 47.654 31.1989 47.654C31.3202 47.654 31.4182 47.696 31.4929 47.78C31.5769 47.8547 31.6189 47.9527 31.6189 48.074V52.764L31.4229 52.652C31.5162 52.3627 31.6515 52.1013 31.8289 51.868C32.0155 51.6253 32.2302 51.4153 32.4729 51.238C32.7155 51.0607 32.9815 50.9253 33.2709 50.832C33.5602 50.7293 33.8635 50.678 34.1809 50.678ZM34.1109 51.462C33.6069 51.462 33.1635 51.588 32.7809 51.84C32.3982 52.092 32.0949 52.4373 31.8709 52.876C31.6562 53.3147 31.5489 53.8187 31.5489 54.388C31.5489 54.948 31.6562 55.4567 31.8709 55.914C32.0949 56.362 32.3982 56.7167 32.7809 56.978C33.1635 57.23 33.6069 57.356 34.1109 57.356C34.6055 57.356 35.0395 57.2253 35.4129 56.964C35.7955 56.7027 36.0989 56.348 36.3229 55.9C36.5469 55.4427 36.6589 54.9387 36.6589 54.388C36.6589 53.8187 36.5469 53.3147 36.3229 52.876C36.0989 52.4373 35.7955 52.092 35.4129 51.84C35.0395 51.588 34.6055 51.462 34.1109 51.462ZM45.9331 54.416C45.9331 55.1253 45.7791 55.7647 45.4711 56.334C45.1631 56.894 44.7431 57.3373 44.2111 57.664C43.6791 57.9813 43.0724 58.14 42.3911 58.14C41.7284 58.14 41.1264 57.9813 40.5851 57.664C40.0531 57.3373 39.6284 56.894 39.3111 56.334C39.0031 55.7647 38.8491 55.1253 38.8491 54.416C38.8491 53.6973 39.0031 53.058 39.3111 52.498C39.6284 51.938 40.0531 51.4947 40.5851 51.168C41.1264 50.8413 41.7284 50.678 42.3911 50.678C43.0724 50.678 43.6791 50.8413 44.2111 51.168C44.7431 51.4947 45.1631 51.938 45.4711 52.498C45.7791 53.058 45.9331 53.6973 45.9331 54.416ZM45.0931 54.416C45.0931 53.8467 44.9764 53.3427 44.7431 52.904C44.5098 52.456 44.1878 52.106 43.7771 51.854C43.3758 51.5927 42.9138 51.462 42.3911 51.462C41.8871 51.462 41.4298 51.5927 41.0191 51.854C40.6084 52.106 40.2818 52.456 40.0391 52.904C39.8058 53.3427 39.6891 53.8467 39.6891 54.416C39.6891 54.9853 39.8058 55.4893 40.0391 55.928C40.2818 56.3667 40.6084 56.7167 41.0191 56.978C41.4298 57.23 41.8871 57.356 42.3911 57.356C42.9138 57.356 43.3758 57.23 43.7771 56.978C44.1878 56.7167 44.5098 56.3667 44.7431 55.928C44.9764 55.4893 45.0931 54.9853 45.0931 54.416ZM47.2563 50.874H50.5183C50.6303 50.874 50.7236 50.916 50.7983 51C50.873 51.0747 50.9103 51.168 50.9103 51.28C50.9103 51.3827 50.873 51.4713 50.7983 51.546C50.7236 51.6207 50.6303 51.658 50.5183 51.658H47.2563C47.1443 51.658 47.0463 51.6207 46.9623 51.546C46.8876 51.462 46.8503 51.3687 46.8503 51.266C46.8503 51.154 46.8876 51.0607 46.9623 50.986C47.0463 50.9113 47.1443 50.874 47.2563 50.874ZM48.6983 48.9C48.8196 48.9 48.9176 48.942 48.9923 49.026C49.0763 49.11 49.1183 49.208 49.1183 49.32V56.348C49.1183 56.6093 49.151 56.8053 49.2163 56.936C49.291 57.0667 49.3843 57.1553 49.4963 57.202C49.6083 57.2393 49.7203 57.258 49.8323 57.258C49.907 57.258 49.9723 57.2487 50.0283 57.23C50.0936 57.202 50.1636 57.188 50.2383 57.188C50.3223 57.188 50.3923 57.2207 50.4483 57.286C50.5136 57.3513 50.5463 57.4353 50.5463 57.538C50.5463 57.6687 50.4716 57.7807 50.3223 57.874C50.173 57.958 49.9956 58 49.7903 58C49.7063 58 49.5803 57.9953 49.4123 57.986C49.2443 57.9673 49.0716 57.916 48.8943 57.832C48.717 57.7387 48.5676 57.58 48.4463 57.356C48.3343 57.132 48.2783 56.81 48.2783 56.39V49.32C48.2783 49.208 48.3156 49.11 48.3903 49.026C48.4743 48.942 48.577 48.9 48.6983 48.9ZM55.7244 50.79C56.3124 50.79 56.7884 50.916 57.1524 51.168C57.5164 51.42 57.7824 51.7607 57.9504 52.19C58.1278 52.6193 58.2164 53.0953 58.2164 53.618V57.58C58.2164 57.692 58.1744 57.79 58.0904 57.874C58.0064 57.958 57.9084 58 57.7964 58C57.6658 58 57.5631 57.958 57.4884 57.874C57.4138 57.79 57.3764 57.692 57.3764 57.58V53.618C57.3764 53.2353 57.3158 52.89 57.1944 52.582C57.0824 52.274 56.8958 52.0313 56.6344 51.854C56.3731 51.6673 56.0231 51.574 55.5844 51.574C55.1924 51.574 54.8191 51.6673 54.4644 51.854C54.1191 52.0313 53.8391 52.274 53.6244 52.582C53.4098 52.89 53.3024 53.2353 53.3024 53.618V57.58C53.3024 57.692 53.2604 57.79 53.1764 57.874C53.0924 57.958 52.9944 58 52.8824 58C52.7518 58 52.6491 57.958 52.5744 57.874C52.4998 57.79 52.4624 57.692 52.4624 57.58V48.06C52.4624 47.948 52.4998 47.85 52.5744 47.766C52.6584 47.682 52.7611 47.64 52.8824 47.64C53.0038 47.64 53.1018 47.682 53.1764 47.766C53.2604 47.85 53.3024 47.948 53.3024 48.06V52.596L52.9804 53.086C52.9991 52.7967 53.0878 52.5167 53.2464 52.246C53.4144 51.966 53.6291 51.7187 53.8904 51.504C54.1518 51.28 54.4411 51.1073 54.7584 50.986C55.0758 50.8553 55.3978 50.79 55.7244 50.79ZM67.6496 50.79C68.2843 50.79 68.8443 50.9487 69.3296 51.266C69.8243 51.574 70.2163 52.0033 70.5056 52.554C70.7949 53.0953 70.9396 53.7207 70.9396 54.43C70.9396 55.1393 70.7949 55.7693 70.5056 56.32C70.2163 56.8707 69.8243 57.3047 69.3296 57.622C68.8349 57.9393 68.2796 58.098 67.6636 58.098C67.3369 58.098 67.0243 58.0513 66.7256 57.958C66.4363 57.8553 66.1703 57.72 65.9276 57.552C65.6849 57.384 65.4703 57.188 65.2836 56.964C65.0969 56.7307 64.9476 56.4787 64.8356 56.208L65.0876 56.026V60.38C65.0876 60.492 65.0456 60.59 64.9616 60.674C64.8869 60.758 64.7889 60.8 64.6676 60.8C64.5463 60.8 64.4436 60.758 64.3596 60.674C64.2849 60.59 64.2476 60.492 64.2476 60.38V51.252C64.2476 51.1307 64.2849 51.028 64.3596 50.944C64.4343 50.86 64.5369 50.818 64.6676 50.818C64.7889 50.818 64.8869 50.86 64.9616 50.944C65.0456 51.028 65.0876 51.1307 65.0876 51.252V52.764L64.8916 52.652C64.9849 52.3627 65.1203 52.106 65.2976 51.882C65.4843 51.6487 65.6989 51.4527 65.9416 51.294C66.1843 51.126 66.4503 51 66.7396 50.916C67.0289 50.832 67.3323 50.79 67.6496 50.79ZM67.5796 51.574C67.0756 51.574 66.6323 51.7 66.2496 51.952C65.8669 52.1947 65.5636 52.5307 65.3396 52.96C65.1249 53.38 65.0176 53.87 65.0176 54.43C65.0176 54.9807 65.1249 55.4753 65.3396 55.914C65.5636 56.3527 65.8669 56.698 66.2496 56.95C66.6323 57.1927 67.0756 57.314 67.5796 57.314C68.0743 57.314 68.5083 57.1927 68.8816 56.95C69.2643 56.698 69.5676 56.3527 69.7916 55.914C70.0156 55.4753 70.1276 54.9807 70.1276 54.43C70.1276 53.8793 70.0156 53.3893 69.7916 52.96C69.5676 52.5307 69.2643 52.1947 68.8816 51.952C68.5083 51.7 68.0743 51.574 67.5796 51.574ZM79.4018 54.416C79.4018 55.1253 79.2478 55.7647 78.9398 56.334C78.6318 56.894 78.2118 57.3373 77.6798 57.664C77.1478 57.9813 76.5412 58.14 75.8598 58.14C75.1972 58.14 74.5952 57.9813 74.0538 57.664C73.5218 57.3373 73.0972 56.894 72.7798 56.334C72.4718 55.7647 72.3178 55.1253 72.3178 54.416C72.3178 53.6973 72.4718 53.058 72.7798 52.498C73.0972 51.938 73.5218 51.4947 74.0538 51.168C74.5952 50.8413 75.1972 50.678 75.8598 50.678C76.5412 50.678 77.1478 50.8413 77.6798 51.168C78.2118 51.4947 78.6318 51.938 78.9398 52.498C79.2478 53.058 79.4018 53.6973 79.4018 54.416ZM78.5618 54.416C78.5618 53.8467 78.4452 53.3427 78.2118 52.904C77.9785 52.456 77.6565 52.106 77.2458 51.854C76.8445 51.5927 76.3825 51.462 75.8598 51.462C75.3558 51.462 74.8985 51.5927 74.4878 51.854C74.0772 52.106 73.7505 52.456 73.5078 52.904C73.2745 53.3427 73.1578 53.8467 73.1578 54.416C73.1578 54.9853 73.2745 55.4893 73.5078 55.928C73.7505 56.3667 74.0772 56.7167 74.4878 56.978C74.8985 57.23 75.3558 57.356 75.8598 57.356C76.3825 57.356 76.8445 57.23 77.2458 56.978C77.6565 56.7167 77.9785 56.3667 78.2118 55.928C78.4452 55.4893 78.5618 54.9853 78.5618 54.416ZM84.5891 50.79C85.2237 50.79 85.7837 50.9487 86.2691 51.266C86.7637 51.574 87.1557 52.0033 87.4451 52.554C87.7344 53.0953 87.8791 53.7207 87.8791 54.43C87.8791 55.1393 87.7344 55.7693 87.4451 56.32C87.1557 56.8707 86.7637 57.3047 86.2691 57.622C85.7744 57.9393 85.2191 58.098 84.6031 58.098C84.2764 58.098 83.9637 58.0513 83.6651 57.958C83.3757 57.8553 83.1097 57.72 82.8671 57.552C82.6244 57.384 82.4097 57.188 82.2231 56.964C82.0364 56.7307 81.8871 56.4787 81.7751 56.208L82.0271 56.026V60.38C82.0271 60.492 81.9851 60.59 81.9011 60.674C81.8264 60.758 81.7284 60.8 81.6071 60.8C81.4857 60.8 81.3831 60.758 81.2991 60.674C81.2244 60.59 81.1871 60.492 81.1871 60.38V51.252C81.1871 51.1307 81.2244 51.028 81.2991 50.944C81.3737 50.86 81.4764 50.818 81.6071 50.818C81.7284 50.818 81.8264 50.86 81.9011 50.944C81.9851 51.028 82.0271 51.1307 82.0271 51.252V52.764L81.8311 52.652C81.9244 52.3627 82.0597 52.106 82.2371 51.882C82.4237 51.6487 82.6384 51.4527 82.8811 51.294C83.1237 51.126 83.3897 51 83.6791 50.916C83.9684 50.832 84.2717 50.79 84.5891 50.79ZM84.5191 51.574C84.0151 51.574 83.5717 51.7 83.1891 51.952C82.8064 52.1947 82.5031 52.5307 82.2791 52.96C82.0644 53.38 81.9571 53.87 81.9571 54.43C81.9571 54.9807 82.0644 55.4753 82.2791 55.914C82.5031 56.3527 82.8064 56.698 83.1891 56.95C83.5717 57.1927 84.0151 57.314 84.5191 57.314C85.0137 57.314 85.4477 57.1927 85.8211 56.95C86.2037 56.698 86.5071 56.3527 86.7311 55.914C86.9551 55.4753 87.0671 54.9807 87.0671 54.43C87.0671 53.8793 86.9551 53.3893 86.7311 52.96C86.5071 52.5307 86.2037 52.1947 85.8211 51.952C85.4477 51.7 85.0137 51.574 84.5191 51.574ZM95.0253 50.888C95.1466 50.888 95.2446 50.93 95.3193 51.014C95.4033 51.098 95.4453 51.196 95.4453 51.308V55.256C95.4453 56.18 95.184 56.8847 94.6613 57.37C94.1386 57.8553 93.434 58.098 92.5473 58.098C91.67 58.098 90.97 57.8553 90.4473 57.37C89.934 56.8847 89.6773 56.18 89.6773 55.256V51.308C89.6773 51.196 89.7146 51.098 89.7893 51.014C89.8733 50.93 89.976 50.888 90.0973 50.888C90.2186 50.888 90.3166 50.93 90.3913 51.014C90.4753 51.098 90.5173 51.196 90.5173 51.308V55.256C90.5173 55.928 90.6946 56.4413 91.0493 56.796C91.4133 57.1413 91.9126 57.314 92.5473 57.314C93.1913 57.314 93.6953 57.1413 94.0593 56.796C94.4233 56.4413 94.6053 55.928 94.6053 55.256V51.308C94.6053 51.196 94.6426 51.098 94.7173 51.014C94.792 50.93 94.8946 50.888 95.0253 50.888ZM98.572 57.58C98.572 57.692 98.53 57.79 98.446 57.874C98.362 57.958 98.264 58 98.152 58C98.0307 58 97.928 57.958 97.844 57.874C97.7693 57.79 97.732 57.692 97.732 57.58V48.06C97.732 47.948 97.774 47.85 97.858 47.766C97.942 47.682 98.04 47.64 98.152 47.64C98.2733 47.64 98.3713 47.682 98.446 47.766C98.53 47.85 98.572 47.948 98.572 48.06V57.58ZM106.741 50.846C106.862 50.846 106.96 50.888 107.035 50.972C107.119 51.056 107.161 51.1587 107.161 51.28V57.58C107.161 57.692 107.119 57.79 107.035 57.874C106.951 57.958 106.853 58 106.741 58C106.619 58 106.517 57.958 106.433 57.874C106.358 57.79 106.321 57.692 106.321 57.58V55.914L106.559 55.802C106.559 56.0633 106.484 56.3293 106.335 56.6C106.195 56.8707 105.999 57.1227 105.747 57.356C105.495 57.5893 105.196 57.7807 104.851 57.93C104.515 58.07 104.151 58.14 103.759 58.14C103.124 58.14 102.555 57.9767 102.051 57.65C101.556 57.3233 101.164 56.8753 100.875 56.306C100.595 55.7367 100.455 55.0973 100.455 54.388C100.455 53.66 100.599 53.0207 100.889 52.47C101.178 51.91 101.57 51.4713 102.065 51.154C102.559 50.8367 103.119 50.678 103.745 50.678C104.146 50.678 104.519 50.748 104.865 50.888C105.219 51.028 105.527 51.2193 105.789 51.462C106.05 51.7047 106.251 51.9847 106.391 52.302C106.54 52.61 106.615 52.932 106.615 53.268L106.321 53.058V51.28C106.321 51.1587 106.358 51.056 106.433 50.972C106.517 50.888 106.619 50.846 106.741 50.846ZM103.829 57.356C104.323 57.356 104.762 57.23 105.145 56.978C105.527 56.7167 105.826 56.362 106.041 55.914C106.265 55.4567 106.377 54.948 106.377 54.388C106.377 53.8373 106.265 53.3427 106.041 52.904C105.826 52.4653 105.527 52.1153 105.145 51.854C104.762 51.5927 104.323 51.462 103.829 51.462C103.343 51.462 102.905 51.588 102.513 51.84C102.13 52.092 101.827 52.4373 101.603 52.876C101.388 53.3147 101.281 53.8187 101.281 54.388C101.281 54.948 101.388 55.4567 101.603 55.914C101.827 56.362 102.13 56.7167 102.513 56.978C102.895 57.23 103.334 57.356 103.829 57.356ZM109.785 58C109.654 58 109.551 57.958 109.477 57.874C109.402 57.79 109.365 57.692 109.365 57.58V51.308C109.365 51.196 109.402 51.098 109.477 51.014C109.561 50.93 109.663 50.888 109.785 50.888C109.906 50.888 110.004 50.93 110.079 51.014C110.163 51.098 110.205 51.196 110.205 51.308V53.408L109.995 53.45C110.023 53.1233 110.102 52.8013 110.233 52.484C110.373 52.1573 110.559 51.8587 110.793 51.588C111.026 51.3173 111.301 51.098 111.619 50.93C111.945 50.762 112.309 50.678 112.711 50.678C112.879 50.678 113.042 50.7153 113.201 50.79C113.359 50.8553 113.439 50.9673 113.439 51.126C113.439 51.266 113.401 51.3733 113.327 51.448C113.252 51.5227 113.163 51.56 113.061 51.56C112.977 51.56 112.883 51.5367 112.781 51.49C112.687 51.4433 112.561 51.42 112.403 51.42C112.141 51.42 111.88 51.4993 111.619 51.658C111.357 51.8073 111.119 52.0127 110.905 52.274C110.69 52.5353 110.517 52.8293 110.387 53.156C110.265 53.4733 110.205 53.7953 110.205 54.122V57.58C110.205 57.692 110.163 57.79 110.079 57.874C109.995 57.958 109.897 58 109.785 58ZM121.73 50.678C122.178 50.678 122.588 50.7293 122.962 50.832C123.335 50.9253 123.634 51.056 123.858 51.224C124.091 51.392 124.208 51.574 124.208 51.77C124.208 51.8633 124.175 51.9567 124.11 52.05C124.044 52.134 123.956 52.176 123.844 52.176C123.732 52.176 123.638 52.148 123.564 52.092C123.498 52.036 123.428 51.9707 123.354 51.896C123.288 51.8213 123.19 51.7513 123.06 51.686C122.938 51.63 122.766 51.5787 122.542 51.532C122.318 51.4853 122.061 51.462 121.772 51.462C121.249 51.462 120.778 51.5927 120.358 51.854C119.938 52.1153 119.606 52.47 119.364 52.918C119.121 53.3567 119 53.8513 119 54.402C119 54.962 119.116 55.466 119.35 55.914C119.583 56.362 119.905 56.7167 120.316 56.978C120.726 57.23 121.207 57.356 121.758 57.356C122.131 57.356 122.42 57.3233 122.626 57.258C122.831 57.1927 123.008 57.118 123.158 57.034C123.335 56.9313 123.461 56.8333 123.536 56.74C123.62 56.6373 123.727 56.586 123.858 56.586C123.979 56.586 124.068 56.6233 124.124 56.698C124.189 56.7633 124.222 56.852 124.222 56.964C124.222 57.1133 124.11 57.2813 123.886 57.468C123.671 57.6453 123.372 57.804 122.99 57.944C122.607 58.0747 122.168 58.14 121.674 58.14C120.974 58.14 120.358 57.9767 119.826 57.65C119.303 57.3233 118.892 56.88 118.594 56.32C118.304 55.7507 118.16 55.1113 118.16 54.402C118.16 53.7207 118.309 53.1 118.608 52.54C118.906 51.98 119.322 51.532 119.854 51.196C120.395 50.8507 121.02 50.678 121.73 50.678ZM126.246 58C126.115 58 126.012 57.958 125.938 57.874C125.863 57.79 125.826 57.692 125.826 57.58V51.308C125.826 51.196 125.863 51.098 125.938 51.014C126.022 50.93 126.124 50.888 126.246 50.888C126.367 50.888 126.465 50.93 126.54 51.014C126.624 51.098 126.666 51.196 126.666 51.308V53.408L126.456 53.45C126.484 53.1233 126.563 52.8013 126.694 52.484C126.834 52.1573 127.02 51.8587 127.254 51.588C127.487 51.3173 127.762 51.098 128.08 50.93C128.406 50.762 128.77 50.678 129.172 50.678C129.34 50.678 129.503 50.7153 129.662 50.79C129.82 50.8553 129.9 50.9673 129.9 51.126C129.9 51.266 129.862 51.3733 129.788 51.448C129.713 51.5227 129.624 51.56 129.522 51.56C129.438 51.56 129.344 51.5367 129.242 51.49C129.148 51.4433 129.022 51.42 128.864 51.42C128.602 51.42 128.341 51.4993 128.08 51.658C127.818 51.8073 127.58 52.0127 127.366 52.274C127.151 52.5353 126.978 52.8293 126.848 53.156C126.726 53.4733 126.666 53.7953 126.666 54.122V57.58C126.666 57.692 126.624 57.79 126.54 57.874C126.456 57.958 126.358 58 126.246 58ZM134.132 58.14C133.413 58.14 132.779 57.986 132.228 57.678C131.677 57.37 131.248 56.9407 130.94 56.39C130.632 55.8393 130.478 55.1953 130.478 54.458C130.478 53.6647 130.632 52.988 130.94 52.428C131.257 51.868 131.663 51.4387 132.158 51.14C132.662 50.832 133.194 50.678 133.754 50.678C134.165 50.678 134.561 50.7527 134.944 50.902C135.336 51.042 135.681 51.2567 135.98 51.546C136.288 51.826 136.531 52.1713 136.708 52.582C136.895 52.9927 136.997 53.4687 137.016 54.01C137.007 54.122 136.96 54.22 136.876 54.304C136.792 54.3787 136.694 54.416 136.582 54.416H130.968L130.8 53.66H136.316L136.134 53.828V53.548C136.097 53.1093 135.957 52.736 135.714 52.428C135.471 52.12 135.177 51.8867 134.832 51.728C134.487 51.5693 134.127 51.49 133.754 51.49C133.474 51.49 133.185 51.546 132.886 51.658C132.597 51.77 132.331 51.9473 132.088 52.19C131.855 52.4233 131.663 52.7267 131.514 53.1C131.365 53.464 131.29 53.898 131.29 54.402C131.29 54.9527 131.402 55.452 131.626 55.9C131.85 56.348 132.172 56.7027 132.592 56.964C133.021 57.2253 133.53 57.356 134.118 57.356C134.445 57.356 134.739 57.3093 135 57.216C135.261 57.1227 135.49 57.0013 135.686 56.852C135.882 56.6933 136.045 56.53 136.176 56.362C136.279 56.278 136.381 56.236 136.484 56.236C136.577 56.236 136.657 56.2733 136.722 56.348C136.797 56.4227 136.834 56.5067 136.834 56.6C136.834 56.712 136.787 56.81 136.694 56.894C136.414 57.23 136.05 57.524 135.602 57.776C135.154 58.0187 134.664 58.14 134.132 58.14ZM144.735 50.846C144.856 50.846 144.954 50.888 145.029 50.972C145.113 51.056 145.155 51.1587 145.155 51.28V57.58C145.155 57.692 145.113 57.79 145.029 57.874C144.945 57.958 144.847 58 144.735 58C144.613 58 144.511 57.958 144.427 57.874C144.352 57.79 144.315 57.692 144.315 57.58V55.914L144.553 55.802C144.553 56.0633 144.478 56.3293 144.329 56.6C144.189 56.8707 143.993 57.1227 143.741 57.356C143.489 57.5893 143.19 57.7807 142.845 57.93C142.509 58.07 142.145 58.14 141.753 58.14C141.118 58.14 140.549 57.9767 140.045 57.65C139.55 57.3233 139.158 56.8753 138.869 56.306C138.589 55.7367 138.449 55.0973 138.449 54.388C138.449 53.66 138.593 53.0207 138.883 52.47C139.172 51.91 139.564 51.4713 140.059 51.154C140.553 50.8367 141.113 50.678 141.739 50.678C142.14 50.678 142.513 50.748 142.859 50.888C143.213 51.028 143.521 51.2193 143.783 51.462C144.044 51.7047 144.245 51.9847 144.385 52.302C144.534 52.61 144.609 52.932 144.609 53.268L144.315 53.058V51.28C144.315 51.1587 144.352 51.056 144.427 50.972C144.511 50.888 144.613 50.846 144.735 50.846ZM141.823 57.356C142.317 57.356 142.756 57.23 143.139 56.978C143.521 56.7167 143.82 56.362 144.035 55.914C144.259 55.4567 144.371 54.948 144.371 54.388C144.371 53.8373 144.259 53.3427 144.035 52.904C143.82 52.4653 143.521 52.1153 143.139 51.854C142.756 51.5927 142.317 51.462 141.823 51.462C141.337 51.462 140.899 51.588 140.507 51.84C140.124 52.092 139.821 52.4373 139.597 52.876C139.382 53.3147 139.275 53.8187 139.275 54.388C139.275 54.948 139.382 55.4567 139.597 55.914C139.821 56.362 140.124 56.7167 140.507 56.978C140.889 57.23 141.328 57.356 141.823 57.356ZM146.897 50.874H150.159C150.271 50.874 150.364 50.916 150.439 51C150.514 51.0747 150.551 51.168 150.551 51.28C150.551 51.3827 150.514 51.4713 150.439 51.546C150.364 51.6207 150.271 51.658 150.159 51.658H146.897C146.785 51.658 146.687 51.6207 146.603 51.546C146.528 51.462 146.491 51.3687 146.491 51.266C146.491 51.154 146.528 51.0607 146.603 50.986C146.687 50.9113 146.785 50.874 146.897 50.874ZM148.339 48.9C148.46 48.9 148.558 48.942 148.633 49.026C148.717 49.11 148.759 49.208 148.759 49.32V56.348C148.759 56.6093 148.792 56.8053 148.857 56.936C148.932 57.0667 149.025 57.1553 149.137 57.202C149.249 57.2393 149.361 57.258 149.473 57.258C149.548 57.258 149.613 57.2487 149.669 57.23C149.734 57.202 149.804 57.188 149.879 57.188C149.963 57.188 150.033 57.2207 150.089 57.286C150.154 57.3513 150.187 57.4353 150.187 57.538C150.187 57.6687 150.112 57.7807 149.963 57.874C149.814 57.958 149.636 58 149.431 58C149.347 58 149.221 57.9953 149.053 57.986C148.885 57.9673 148.712 57.916 148.535 57.832C148.358 57.7387 148.208 57.58 148.087 57.356C147.975 57.132 147.919 56.81 147.919 56.39V49.32C147.919 49.208 147.956 49.11 148.031 49.026C148.115 48.942 148.218 48.9 148.339 48.9ZM158.699 54.416C158.699 55.1253 158.545 55.7647 158.237 56.334C157.929 56.894 157.509 57.3373 156.977 57.664C156.445 57.9813 155.838 58.14 155.157 58.14C154.494 58.14 153.892 57.9813 153.351 57.664C152.819 57.3373 152.394 56.894 152.077 56.334C151.769 55.7647 151.615 55.1253 151.615 54.416C151.615 53.6973 151.769 53.058 152.077 52.498C152.394 51.938 152.819 51.4947 153.351 51.168C153.892 50.8413 154.494 50.678 155.157 50.678C155.838 50.678 156.445 50.8413 156.977 51.168C157.509 51.4947 157.929 51.938 158.237 52.498C158.545 53.058 158.699 53.6973 158.699 54.416ZM157.859 54.416C157.859 53.8467 157.742 53.3427 157.509 52.904C157.275 52.456 156.953 52.106 156.543 51.854C156.141 51.5927 155.679 51.462 155.157 51.462C154.653 51.462 154.195 51.5927 153.785 51.854C153.374 52.106 153.047 52.456 152.805 52.904C152.571 53.3427 152.455 53.8467 152.455 54.416C152.455 54.9853 152.571 55.4893 152.805 55.928C153.047 56.3667 153.374 56.7167 153.785 56.978C154.195 57.23 154.653 57.356 155.157 57.356C155.679 57.356 156.141 57.23 156.543 56.978C156.953 56.7167 157.275 56.3667 157.509 55.928C157.742 55.4893 157.859 54.9853 157.859 54.416ZM160.904 58C160.773 58 160.671 57.958 160.596 57.874C160.521 57.79 160.484 57.692 160.484 57.58V51.308C160.484 51.196 160.521 51.098 160.596 51.014C160.68 50.93 160.783 50.888 160.904 50.888C161.025 50.888 161.123 50.93 161.198 51.014C161.282 51.098 161.324 51.196 161.324 51.308V53.408L161.114 53.45C161.142 53.1233 161.221 52.8013 161.352 52.484C161.492 52.1573 161.679 51.8587 161.912 51.588C162.145 51.3173 162.421 51.098 162.738 50.93C163.065 50.762 163.429 50.678 163.83 50.678C163.998 50.678 164.161 50.7153 164.32 50.79C164.479 50.8553 164.558 50.9673 164.558 51.126C164.558 51.266 164.521 51.3733 164.446 51.448C164.371 51.5227 164.283 51.56 164.18 51.56C164.096 51.56 164.003 51.5367 163.9 51.49C163.807 51.4433 163.681 51.42 163.522 51.42C163.261 51.42 162.999 51.4993 162.738 51.658C162.477 51.8073 162.239 52.0127 162.024 52.274C161.809 52.5353 161.637 52.8293 161.506 53.156C161.385 53.4733 161.324 53.7953 161.324 54.122V57.58C161.324 57.692 161.282 57.79 161.198 57.874C161.114 57.958 161.016 58 160.904 58ZM165.465 56.866C165.39 56.754 165.353 56.6467 165.353 56.544C165.362 56.432 165.423 56.3433 165.535 56.278C165.609 56.2127 165.693 56.1847 165.787 56.194C165.889 56.2033 165.983 56.25 166.067 56.334C166.319 56.6607 166.622 56.9267 166.977 57.132C167.341 57.328 167.77 57.426 168.265 57.426C168.526 57.426 168.783 57.384 169.035 57.3C169.296 57.2067 169.511 57.0713 169.679 56.894C169.847 56.7073 169.931 56.474 169.931 56.194C169.931 55.9047 169.847 55.6713 169.679 55.494C169.511 55.3167 169.291 55.1767 169.021 55.074C168.759 54.9713 168.479 54.8827 168.181 54.808C167.863 54.724 167.555 54.6307 167.257 54.528C166.958 54.416 166.692 54.2807 166.459 54.122C166.235 53.954 166.053 53.7533 165.913 53.52C165.773 53.2867 165.703 53.002 165.703 52.666C165.703 52.274 165.81 51.9287 166.025 51.63C166.239 51.3313 166.529 51.098 166.893 50.93C167.266 50.762 167.686 50.678 168.153 50.678C168.386 50.678 168.638 50.7107 168.909 50.776C169.179 50.832 169.445 50.93 169.707 51.07C169.968 51.21 170.201 51.4013 170.407 51.644C170.491 51.728 170.533 51.826 170.533 51.938C170.533 52.0407 170.486 52.134 170.393 52.218C170.318 52.274 170.229 52.302 170.127 52.302C170.033 52.302 169.954 52.2647 169.889 52.19C169.665 51.938 169.399 51.7467 169.091 51.616C168.783 51.4853 168.451 51.42 168.097 51.42C167.826 51.42 167.569 51.4667 167.327 51.56C167.093 51.644 166.897 51.7747 166.739 51.952C166.58 52.1293 166.501 52.3627 166.501 52.652C166.519 52.9227 166.613 53.142 166.781 53.31C166.958 53.478 167.187 53.618 167.467 53.73C167.756 53.842 168.078 53.9447 168.433 54.038C168.731 54.1127 169.016 54.2013 169.287 54.304C169.567 54.4067 169.809 54.5373 170.015 54.696C170.229 54.8453 170.397 55.0367 170.519 55.27C170.649 55.5033 170.715 55.7973 170.715 56.152C170.715 56.5627 170.598 56.9173 170.365 57.216C170.141 57.5147 169.837 57.7433 169.455 57.902C169.072 58.0607 168.647 58.14 168.181 58.14C167.677 58.14 167.187 58.042 166.711 57.846C166.244 57.65 165.829 57.3233 165.465 56.866ZM35.7572 76.14C35.0946 76.14 34.5066 75.986 33.9932 75.678C33.4799 75.37 33.0786 74.9733 32.7892 74.488C32.5092 74.0027 32.3692 73.4893 32.3692 72.948C32.3692 72.5373 32.4486 72.1407 32.6072 71.758C32.7752 71.3753 33.0226 71.0347 33.3492 70.736C33.6852 70.428 34.1099 70.1853 34.6232 70.008L35.2252 70.61C34.4972 70.778 33.9839 71.0673 33.6852 71.478C33.3866 71.8887 33.2372 72.3413 33.2372 72.836C33.2372 73.256 33.3352 73.6573 33.5312 74.04C33.7272 74.4133 34.0212 74.7213 34.4132 74.964C34.8052 75.2067 35.2859 75.328 35.8552 75.328C36.4619 75.328 36.9799 75.23 37.4092 75.034C37.8479 74.8287 38.2166 74.5627 38.5152 74.236C38.8139 73.9 39.0519 73.5267 39.2292 73.116C39.4066 72.696 39.5372 72.2713 39.6212 71.842C39.6399 71.7487 39.6772 71.6787 39.7332 71.632C39.7986 71.576 39.8872 71.548 39.9992 71.548C40.1299 71.548 40.2326 71.5947 40.3072 71.688C40.3819 71.7813 40.4099 71.898 40.3912 72.038C40.3072 72.542 40.1532 73.0367 39.9292 73.522C39.7052 74.0073 39.4019 74.4507 39.0192 74.852C38.6366 75.244 38.1746 75.5567 37.6332 75.79C37.0919 76.0233 36.4666 76.14 35.7572 76.14ZM40.7272 75.958C40.6806 75.958 40.6339 75.9533 40.5872 75.944C40.5499 75.9253 40.5126 75.9067 40.4752 75.888C39.9059 75.44 39.3552 75.0107 38.8232 74.6C38.3006 74.18 37.7779 73.7273 37.2552 73.242C36.7419 72.7567 36.2006 72.1967 35.6312 71.562C35.3046 71.1887 35.0106 70.8247 34.7492 70.47C34.4879 70.106 34.2779 69.7513 34.1192 69.406C33.9606 69.0513 33.8812 68.7013 33.8812 68.356C33.8812 67.9267 33.9886 67.5393 34.2032 67.194C34.4179 66.8393 34.7212 66.564 35.1132 66.368C35.5052 66.1627 35.9719 66.06 36.5132 66.06C37.1852 66.06 37.7406 66.186 38.1792 66.438C38.6179 66.69 38.9259 66.9887 39.1032 67.334C39.1126 67.3433 39.1266 67.376 39.1452 67.432C39.1639 67.4787 39.1732 67.5347 39.1732 67.6C39.1732 67.684 39.1359 67.7633 39.0612 67.838C38.9959 67.9127 38.9026 67.95 38.7812 67.95C38.7066 67.95 38.6412 67.936 38.5852 67.908C38.5386 67.88 38.5012 67.8427 38.4732 67.796C38.2866 67.516 38.0392 67.2873 37.7312 67.11C37.4326 66.9233 37.0266 66.83 36.5132 66.83C35.9439 66.83 35.5099 66.9747 35.2112 67.264C34.9126 67.544 34.7632 67.908 34.7632 68.356C34.7632 68.6453 34.8426 68.9533 35.0012 69.28C35.1599 69.5973 35.3606 69.9193 35.6032 70.246C35.8552 70.5727 36.1166 70.89 36.3872 71.198C36.7606 71.618 37.1526 72.0287 37.5632 72.43C37.9832 72.822 38.3939 73.1907 38.7952 73.536C39.2059 73.8813 39.5932 74.194 39.9572 74.474C40.3212 74.754 40.6432 75.0013 40.9232 75.216C40.9886 75.2627 41.0352 75.314 41.0632 75.37C41.0912 75.426 41.1052 75.4913 41.1052 75.566C41.1052 75.6407 41.0726 75.7247 41.0072 75.818C40.9419 75.9113 40.8486 75.958 40.7272 75.958ZM47.3093 75.58C47.3093 75.692 47.2673 75.79 47.1833 75.874C47.0993 75.958 47.0013 76 46.8893 76C46.768 76 46.6653 75.958 46.5813 75.874C46.5066 75.79 46.4693 75.692 46.4693 75.58V66.06C46.4693 65.948 46.5113 65.85 46.5953 65.766C46.6793 65.682 46.7773 65.64 46.8893 65.64C47.0106 65.64 47.1086 65.682 47.1833 65.766C47.2673 65.85 47.3093 65.948 47.3093 66.06V75.58ZM52.7091 76.14C51.9905 76.14 51.3558 75.986 50.8051 75.678C50.2545 75.37 49.8251 74.9407 49.5171 74.39C49.2091 73.8393 49.0551 73.1953 49.0551 72.458C49.0551 71.6647 49.2091 70.988 49.5171 70.428C49.8345 69.868 50.2405 69.4387 50.7351 69.14C51.2391 68.832 51.7711 68.678 52.3311 68.678C52.7418 68.678 53.1385 68.7527 53.5211 68.902C53.9131 69.042 54.2585 69.2567 54.5571 69.546C54.8651 69.826 55.1078 70.1713 55.2851 70.582C55.4718 70.9927 55.5745 71.4687 55.5931 72.01C55.5838 72.122 55.5371 72.22 55.4531 72.304C55.3691 72.3787 55.2711 72.416 55.1591 72.416H49.5451L49.3771 71.66H54.8931L54.7111 71.828V71.548C54.6738 71.1093 54.5338 70.736 54.2911 70.428C54.0485 70.12 53.7545 69.8867 53.4091 69.728C53.0638 69.5693 52.7045 69.49 52.3311 69.49C52.0511 69.49 51.7618 69.546 51.4631 69.658C51.1738 69.77 50.9078 69.9473 50.6651 70.19C50.4318 70.4233 50.2405 70.7267 50.0911 71.1C49.9418 71.464 49.8671 71.898 49.8671 72.402C49.8671 72.9527 49.9791 73.452 50.2031 73.9C50.4271 74.348 50.7491 74.7027 51.1691 74.964C51.5985 75.2253 52.1071 75.356 52.6951 75.356C53.0218 75.356 53.3158 75.3093 53.5771 75.216C53.8385 75.1227 54.0671 75.0013 54.2631 74.852C54.4591 74.6933 54.6225 74.53 54.7531 74.362C54.8558 74.278 54.9585 74.236 55.0611 74.236C55.1545 74.236 55.2338 74.2733 55.2991 74.348C55.3738 74.4227 55.4111 74.5067 55.4111 74.6C55.4111 74.712 55.3645 74.81 55.2711 74.894C54.9911 75.23 54.6271 75.524 54.1791 75.776C53.7311 76.0187 53.2411 76.14 52.7091 76.14ZM56.9852 74.866C56.9105 74.754 56.8732 74.6467 56.8732 74.544C56.8825 74.432 56.9432 74.3433 57.0552 74.278C57.1298 74.2127 57.2138 74.1847 57.3072 74.194C57.4098 74.2033 57.5032 74.25 57.5872 74.334C57.8392 74.6607 58.1425 74.9267 58.4972 75.132C58.8612 75.328 59.2905 75.426 59.7852 75.426C60.0465 75.426 60.3032 75.384 60.5552 75.3C60.8165 75.2067 61.0312 75.0713 61.1992 74.894C61.3672 74.7073 61.4512 74.474 61.4512 74.194C61.4512 73.9047 61.3672 73.6713 61.1992 73.494C61.0312 73.3167 60.8118 73.1767 60.5412 73.074C60.2798 72.9713 59.9998 72.8827 59.7012 72.808C59.3838 72.724 59.0758 72.6307 58.7772 72.528C58.4785 72.416 58.2125 72.2807 57.9792 72.122C57.7552 71.954 57.5732 71.7533 57.4332 71.52C57.2932 71.2867 57.2232 71.002 57.2232 70.666C57.2232 70.274 57.3305 69.9287 57.5452 69.63C57.7598 69.3313 58.0492 69.098 58.4132 68.93C58.7865 68.762 59.2065 68.678 59.6732 68.678C59.9065 68.678 60.1585 68.7107 60.4292 68.776C60.6998 68.832 60.9658 68.93 61.2272 69.07C61.4885 69.21 61.7218 69.4013 61.9272 69.644C62.0112 69.728 62.0532 69.826 62.0532 69.938C62.0532 70.0407 62.0065 70.134 61.9132 70.218C61.8385 70.274 61.7498 70.302 61.6472 70.302C61.5538 70.302 61.4745 70.2647 61.4092 70.19C61.1852 69.938 60.9192 69.7467 60.6112 69.616C60.3032 69.4853 59.9718 69.42 59.6172 69.42C59.3465 69.42 59.0898 69.4667 58.8472 69.56C58.6138 69.644 58.4178 69.7747 58.2592 69.952C58.1005 70.1293 58.0212 70.3627 58.0212 70.652C58.0398 70.9227 58.1332 71.142 58.3012 71.31C58.4785 71.478 58.7072 71.618 58.9872 71.73C59.2765 71.842 59.5985 71.9447 59.9532 72.038C60.2518 72.1127 60.5365 72.2013 60.8072 72.304C61.0872 72.4067 61.3298 72.5373 61.5352 72.696C61.7498 72.8453 61.9178 73.0367 62.0392 73.27C62.1698 73.5033 62.2352 73.7973 62.2352 74.152C62.2352 74.5627 62.1185 74.9173 61.8852 75.216C61.6612 75.5147 61.3578 75.7433 60.9752 75.902C60.5925 76.0607 60.1678 76.14 59.7012 76.14C59.1972 76.14 58.7072 76.042 58.2312 75.846C57.7645 75.65 57.3492 75.3233 56.9852 74.866ZM63.5477 74.866C63.473 74.754 63.4357 74.6467 63.4357 74.544C63.445 74.432 63.5057 74.3433 63.6177 74.278C63.6923 74.2127 63.7763 74.1847 63.8697 74.194C63.9723 74.2033 64.0657 74.25 64.1497 74.334C64.4017 74.6607 64.705 74.9267 65.0597 75.132C65.4237 75.328 65.853 75.426 66.3477 75.426C66.609 75.426 66.8657 75.384 67.1177 75.3C67.379 75.2067 67.5937 75.0713 67.7617 74.894C67.9297 74.7073 68.0137 74.474 68.0137 74.194C68.0137 73.9047 67.9297 73.6713 67.7617 73.494C67.5937 73.3167 67.3743 73.1767 67.1037 73.074C66.8423 72.9713 66.5623 72.8827 66.2637 72.808C65.9463 72.724 65.6383 72.6307 65.3397 72.528C65.041 72.416 64.775 72.2807 64.5417 72.122C64.3177 71.954 64.1357 71.7533 63.9957 71.52C63.8557 71.2867 63.7857 71.002 63.7857 70.666C63.7857 70.274 63.893 69.9287 64.1077 69.63C64.3223 69.3313 64.6117 69.098 64.9757 68.93C65.349 68.762 65.769 68.678 66.2357 68.678C66.469 68.678 66.721 68.7107 66.9917 68.776C67.2623 68.832 67.5283 68.93 67.7897 69.07C68.051 69.21 68.2843 69.4013 68.4897 69.644C68.5737 69.728 68.6157 69.826 68.6157 69.938C68.6157 70.0407 68.569 70.134 68.4757 70.218C68.401 70.274 68.3123 70.302 68.2097 70.302C68.1163 70.302 68.037 70.2647 67.9717 70.19C67.7477 69.938 67.4817 69.7467 67.1737 69.616C66.8657 69.4853 66.5343 69.42 66.1797 69.42C65.909 69.42 65.6523 69.4667 65.4097 69.56C65.1763 69.644 64.9803 69.7747 64.8217 69.952C64.663 70.1293 64.5837 70.3627 64.5837 70.652C64.6023 70.9227 64.6957 71.142 64.8637 71.31C65.041 71.478 65.2697 71.618 65.5497 71.73C65.839 71.842 66.161 71.9447 66.5157 72.038C66.8143 72.1127 67.099 72.2013 67.3697 72.304C67.6497 72.4067 67.8923 72.5373 68.0977 72.696C68.3123 72.8453 68.4803 73.0367 68.6017 73.27C68.7323 73.5033 68.7977 73.7973 68.7977 74.152C68.7977 74.5627 68.681 74.9173 68.4477 75.216C68.2237 75.5147 67.9203 75.7433 67.5377 75.902C67.155 76.0607 66.7303 76.14 66.2637 76.14C65.7597 76.14 65.2697 76.042 64.7937 75.846C64.327 75.65 63.9117 75.3233 63.5477 74.866ZM73.7502 76.14C73.0315 76.14 72.3968 75.986 71.8462 75.678C71.2955 75.37 70.8662 74.9407 70.5582 74.39C70.2502 73.8393 70.0962 73.1953 70.0962 72.458C70.0962 71.6647 70.2502 70.988 70.5582 70.428C70.8755 69.868 71.2815 69.4387 71.7762 69.14C72.2802 68.832 72.8122 68.678 73.3722 68.678C73.7828 68.678 74.1795 68.7527 74.5622 68.902C74.9542 69.042 75.2995 69.2567 75.5982 69.546C75.9062 69.826 76.1488 70.1713 76.3262 70.582C76.5128 70.9927 76.6155 71.4687 76.6342 72.01C76.6248 72.122 76.5782 72.22 76.4942 72.304C76.4102 72.3787 76.3122 72.416 76.2002 72.416H70.5862L70.4182 71.66H75.9342L75.7522 71.828V71.548C75.7148 71.1093 75.5748 70.736 75.3322 70.428C75.0895 70.12 74.7955 69.8867 74.4502 69.728C74.1048 69.5693 73.7455 69.49 73.3722 69.49C73.0922 69.49 72.8028 69.546 72.5042 69.658C72.2148 69.77 71.9488 69.9473 71.7062 70.19C71.4728 70.4233 71.2815 70.7267 71.1322 71.1C70.9828 71.464 70.9082 71.898 70.9082 72.402C70.9082 72.9527 71.0202 73.452 71.2442 73.9C71.4682 74.348 71.7902 74.7027 72.2102 74.964C72.6395 75.2253 73.1482 75.356 73.7362 75.356C74.0628 75.356 74.3568 75.3093 74.6182 75.216C74.8795 75.1227 75.1082 75.0013 75.3042 74.852C75.5002 74.6933 75.6635 74.53 75.7942 74.362C75.8968 74.278 75.9995 74.236 76.1022 74.236C76.1955 74.236 76.2748 74.2733 76.3402 74.348C76.4148 74.4227 76.4522 74.5067 76.4522 74.6C76.4522 74.712 76.4055 74.81 76.3122 74.894C76.0322 75.23 75.6682 75.524 75.2202 75.776C74.7722 76.0187 74.2822 76.14 73.7502 76.14ZM78.8522 76C78.7215 76 78.6188 75.958 78.5442 75.874C78.4695 75.79 78.4322 75.692 78.4322 75.58V69.308C78.4322 69.196 78.4695 69.098 78.5442 69.014C78.6282 68.93 78.7308 68.888 78.8522 68.888C78.9735 68.888 79.0715 68.93 79.1462 69.014C79.2302 69.098 79.2722 69.196 79.2722 69.308V71.408L79.0622 71.45C79.0902 71.1233 79.1695 70.8013 79.3002 70.484C79.4402 70.1573 79.6268 69.8587 79.8602 69.588C80.0935 69.3173 80.3688 69.098 80.6862 68.93C81.0128 68.762 81.3768 68.678 81.7782 68.678C81.9462 68.678 82.1095 68.7153 82.2682 68.79C82.4268 68.8553 82.5062 68.9673 82.5062 69.126C82.5062 69.266 82.4688 69.3733 82.3942 69.448C82.3195 69.5227 82.2308 69.56 82.1282 69.56C82.0442 69.56 81.9508 69.5367 81.8482 69.49C81.7548 69.4433 81.6288 69.42 81.4702 69.42C81.2088 69.42 80.9475 69.4993 80.6862 69.658C80.4248 69.8073 80.1868 70.0127 79.9722 70.274C79.7575 70.5353 79.5848 70.8293 79.4542 71.156C79.3328 71.4733 79.2722 71.7953 79.2722 72.122V75.58C79.2722 75.692 79.2302 75.79 79.1462 75.874C79.0622 75.958 78.9642 76 78.8522 76ZM83.9309 72.038C83.8189 72.038 83.7209 71.996 83.6369 71.912C83.5622 71.828 83.5249 71.7253 83.5249 71.604C83.5249 71.492 83.5622 71.3987 83.6369 71.324C83.7209 71.24 83.8189 71.198 83.9309 71.198H86.9549C87.0669 71.198 87.1649 71.24 87.2489 71.324C87.3329 71.408 87.3749 71.5107 87.3749 71.632C87.3749 71.744 87.3329 71.842 87.2489 71.926C87.1649 72.0007 87.0669 72.038 86.9549 72.038H83.9309ZM89.778 76C89.6566 76 89.554 75.958 89.47 75.874C89.3953 75.79 89.358 75.692 89.358 75.58V66.06C89.358 65.948 89.3953 65.85 89.47 65.766C89.554 65.682 89.6566 65.64 89.778 65.64C89.8993 65.64 89.9973 65.682 90.072 65.766C90.156 65.85 90.198 65.948 90.198 66.06V75.58C90.198 75.692 90.156 75.79 90.072 75.874C89.9973 75.958 89.8993 76 89.778 76ZM94.538 68.818C94.6406 68.818 94.734 68.8647 94.818 68.958C94.902 69.042 94.944 69.1353 94.944 69.238C94.944 69.3593 94.8926 69.4667 94.79 69.56L90.086 73.564L90.044 72.57L94.244 68.958C94.328 68.8647 94.426 68.818 94.538 68.818ZM94.65 76C94.5286 76 94.426 75.9487 94.342 75.846L91.15 72.458L91.78 71.884L94.944 75.258C95.028 75.3513 95.07 75.4587 95.07 75.58C95.07 75.7107 95.0186 75.8133 94.916 75.888C94.8133 75.9627 94.7246 76 94.65 76ZM100.14 68.678C100.756 68.678 101.246 68.804 101.61 69.056C101.983 69.2987 102.249 69.6347 102.408 70.064C102.576 70.484 102.66 70.9507 102.66 71.464V75.58C102.66 75.692 102.618 75.79 102.534 75.874C102.45 75.958 102.352 76 102.24 76C102.109 76 102.007 75.958 101.932 75.874C101.857 75.79 101.82 75.692 101.82 75.58V71.506C101.82 71.1327 101.759 70.792 101.638 70.484C101.517 70.176 101.316 69.9287 101.036 69.742C100.765 69.5553 100.406 69.462 99.9582 69.462C99.5568 69.462 99.1742 69.5553 98.8102 69.742C98.4555 69.9287 98.1662 70.176 97.9422 70.484C97.7182 70.792 97.6062 71.1327 97.6062 71.506V75.58C97.6062 75.692 97.5642 75.79 97.4802 75.874C97.3962 75.958 97.2982 76 97.1862 76C97.0555 76 96.9528 75.958 96.8782 75.874C96.8035 75.79 96.7662 75.692 96.7662 75.58V69.308C96.7662 69.196 96.8035 69.098 96.8782 69.014C96.9622 68.93 97.0648 68.888 97.1862 68.888C97.3075 68.888 97.4055 68.93 97.4802 69.014C97.5642 69.098 97.6062 69.196 97.6062 69.308V70.484L97.2842 70.988C97.3028 70.6893 97.3962 70.4047 97.5642 70.134C97.7415 69.854 97.9655 69.6067 98.2362 69.392C98.5068 69.168 98.8055 68.9953 99.1322 68.874C99.4682 68.7433 99.8042 68.678 100.14 68.678ZM111.524 72.416C111.524 73.1253 111.37 73.7647 111.062 74.334C110.754 74.894 110.334 75.3373 109.802 75.664C109.27 75.9813 108.663 76.14 107.982 76.14C107.319 76.14 106.717 75.9813 106.176 75.664C105.644 75.3373 105.219 74.894 104.902 74.334C104.594 73.7647 104.44 73.1253 104.44 72.416C104.44 71.6973 104.594 71.058 104.902 70.498C105.219 69.938 105.644 69.4947 106.176 69.168C106.717 68.8413 107.319 68.678 107.982 68.678C108.663 68.678 109.27 68.8413 109.802 69.168C110.334 69.4947 110.754 69.938 111.062 70.498C111.37 71.058 111.524 71.6973 111.524 72.416ZM110.684 72.416C110.684 71.8467 110.567 71.3427 110.334 70.904C110.101 70.456 109.779 70.106 109.368 69.854C108.967 69.5927 108.505 69.462 107.982 69.462C107.478 69.462 107.021 69.5927 106.61 69.854C106.199 70.106 105.873 70.456 105.63 70.904C105.397 71.3427 105.28 71.8467 105.28 72.416C105.28 72.9853 105.397 73.4893 105.63 73.928C105.873 74.3667 106.199 74.7167 106.61 74.978C107.021 75.23 107.478 75.356 107.982 75.356C108.505 75.356 108.967 75.23 109.368 74.978C109.779 74.7167 110.101 74.3667 110.334 73.928C110.567 73.4893 110.684 72.9853 110.684 72.416ZM121.807 68.692C121.91 68.692 122.003 68.7293 122.087 68.804C122.18 68.8787 122.227 68.9813 122.227 69.112C122.227 69.14 122.222 69.1727 122.213 69.21C122.204 69.2473 122.194 69.2753 122.185 69.294L120.029 75.734C119.992 75.818 119.931 75.888 119.847 75.944C119.772 75.9907 119.693 76.0093 119.609 76C119.441 75.9907 119.315 75.902 119.231 75.734L117.257 71.086L117.509 71.142L115.759 75.734C115.684 75.902 115.558 75.9907 115.381 76C115.297 76.0093 115.213 75.9907 115.129 75.944C115.045 75.888 114.989 75.818 114.961 75.734L112.749 69.294C112.721 69.2287 112.707 69.168 112.707 69.112C112.707 68.9907 112.744 68.8927 112.819 68.818C112.903 68.734 113.01 68.692 113.141 68.692C113.225 68.692 113.3 68.7153 113.365 68.762C113.44 68.8087 113.491 68.8787 113.519 68.972L115.507 74.936L115.241 74.922L117.047 70.372C117.122 70.1947 117.252 70.106 117.439 70.106C117.532 70.106 117.612 70.1293 117.677 70.176C117.742 70.2227 117.794 70.288 117.831 70.372L119.749 74.936L119.441 74.95L121.415 68.972C121.471 68.7853 121.602 68.692 121.807 68.692ZM127.21 68.678C127.826 68.678 128.316 68.804 128.68 69.056C129.054 69.2987 129.32 69.6347 129.478 70.064C129.646 70.484 129.73 70.9507 129.73 71.464V75.58C129.73 75.692 129.688 75.79 129.604 75.874C129.52 75.958 129.422 76 129.31 76C129.18 76 129.077 75.958 129.002 75.874C128.928 75.79 128.89 75.692 128.89 75.58V71.506C128.89 71.1327 128.83 70.792 128.708 70.484C128.587 70.176 128.386 69.9287 128.106 69.742C127.836 69.5553 127.476 69.462 127.028 69.462C126.627 69.462 126.244 69.5553 125.88 69.742C125.526 69.9287 125.236 70.176 125.012 70.484C124.788 70.792 124.676 71.1327 124.676 71.506V75.58C124.676 75.692 124.634 75.79 124.55 75.874C124.466 75.958 124.368 76 124.256 76C124.126 76 124.023 75.958 123.948 75.874C123.874 75.79 123.836 75.692 123.836 75.58V69.308C123.836 69.196 123.874 69.098 123.948 69.014C124.032 68.93 124.135 68.888 124.256 68.888C124.378 68.888 124.476 68.93 124.55 69.014C124.634 69.098 124.676 69.196 124.676 69.308V70.484L124.354 70.988C124.373 70.6893 124.466 70.4047 124.634 70.134C124.812 69.854 125.036 69.6067 125.306 69.392C125.577 69.168 125.876 68.9953 126.202 68.874C126.538 68.7433 126.874 68.678 127.21 68.678ZM141.106 68.888C141.228 68.888 141.326 68.93 141.4 69.014C141.484 69.098 141.526 69.196 141.526 69.308V73.256C141.526 74.18 141.265 74.8847 140.742 75.37C140.22 75.8553 139.515 76.098 138.628 76.098C137.751 76.098 137.051 75.8553 136.528 75.37C136.015 74.8847 135.758 74.18 135.758 73.256V69.308C135.758 69.196 135.796 69.098 135.87 69.014C135.954 68.93 136.057 68.888 136.178 68.888C136.3 68.888 136.398 68.93 136.472 69.014C136.556 69.098 136.598 69.196 136.598 69.308V73.256C136.598 73.928 136.776 74.4413 137.13 74.796C137.494 75.1413 137.994 75.314 138.628 75.314C139.272 75.314 139.776 75.1413 140.14 74.796C140.504 74.4413 140.686 73.928 140.686 73.256V69.308C140.686 69.196 140.724 69.098 140.798 69.014C140.873 68.93 140.976 68.888 141.106 68.888ZM143.323 74.866C143.248 74.754 143.211 74.6467 143.211 74.544C143.22 74.432 143.281 74.3433 143.393 74.278C143.468 74.2127 143.552 74.1847 143.645 74.194C143.748 74.2033 143.841 74.25 143.925 74.334C144.177 74.6607 144.48 74.9267 144.835 75.132C145.199 75.328 145.628 75.426 146.123 75.426C146.384 75.426 146.641 75.384 146.893 75.3C147.154 75.2067 147.369 75.0713 147.537 74.894C147.705 74.7073 147.789 74.474 147.789 74.194C147.789 73.9047 147.705 73.6713 147.537 73.494C147.369 73.3167 147.15 73.1767 146.879 73.074C146.618 72.9713 146.338 72.8827 146.039 72.808C145.722 72.724 145.414 72.6307 145.115 72.528C144.816 72.416 144.55 72.2807 144.317 72.122C144.093 71.954 143.911 71.7533 143.771 71.52C143.631 71.2867 143.561 71.002 143.561 70.666C143.561 70.274 143.668 69.9287 143.883 69.63C144.098 69.3313 144.387 69.098 144.751 68.93C145.124 68.762 145.544 68.678 146.011 68.678C146.244 68.678 146.496 68.7107 146.767 68.776C147.038 68.832 147.304 68.93 147.565 69.07C147.826 69.21 148.06 69.4013 148.265 69.644C148.349 69.728 148.391 69.826 148.391 69.938C148.391 70.0407 148.344 70.134 148.251 70.218C148.176 70.274 148.088 70.302 147.985 70.302C147.892 70.302 147.812 70.2647 147.747 70.19C147.523 69.938 147.257 69.7467 146.949 69.616C146.641 69.4853 146.31 69.42 145.955 69.42C145.684 69.42 145.428 69.4667 145.185 69.56C144.952 69.644 144.756 69.7747 144.597 69.952C144.438 70.1293 144.359 70.3627 144.359 70.652C144.378 70.9227 144.471 71.142 144.639 71.31C144.816 71.478 145.045 71.618 145.325 71.73C145.614 71.842 145.936 71.9447 146.291 72.038C146.59 72.1127 146.874 72.2013 147.145 72.304C147.425 72.4067 147.668 72.5373 147.873 72.696C148.088 72.8453 148.256 73.0367 148.377 73.27C148.508 73.5033 148.573 73.7973 148.573 74.152C148.573 74.5627 148.456 74.9173 148.223 75.216C147.999 75.5147 147.696 75.7433 147.313 75.902C146.93 76.0607 146.506 76.14 146.039 76.14C145.535 76.14 145.045 76.042 144.569 75.846C144.102 75.65 143.687 75.3233 143.323 74.866ZM153.526 76.14C152.807 76.14 152.172 75.986 151.622 75.678C151.071 75.37 150.642 74.9407 150.334 74.39C150.026 73.8393 149.872 73.1953 149.872 72.458C149.872 71.6647 150.026 70.988 150.334 70.428C150.651 69.868 151.057 69.4387 151.552 69.14C152.056 68.832 152.588 68.678 153.148 68.678C153.558 68.678 153.955 68.7527 154.338 68.902C154.73 69.042 155.075 69.2567 155.374 69.546C155.682 69.826 155.924 70.1713 156.102 70.582C156.288 70.9927 156.391 71.4687 156.41 72.01C156.4 72.122 156.354 72.22 156.27 72.304C156.186 72.3787 156.088 72.416 155.976 72.416H150.362L150.194 71.66H155.71L155.528 71.828V71.548C155.49 71.1093 155.35 70.736 155.108 70.428C154.865 70.12 154.571 69.8867 154.226 69.728C153.88 69.5693 153.521 69.49 153.148 69.49C152.868 69.49 152.578 69.546 152.28 69.658C151.99 69.77 151.724 69.9473 151.482 70.19C151.248 70.4233 151.057 70.7267 150.908 71.1C150.758 71.464 150.684 71.898 150.684 72.402C150.684 72.9527 150.796 73.452 151.02 73.9C151.244 74.348 151.566 74.7027 151.986 74.964C152.415 75.2253 152.924 75.356 153.512 75.356C153.838 75.356 154.132 75.3093 154.394 75.216C154.655 75.1227 154.884 75.0013 155.08 74.852C155.276 74.6933 155.439 74.53 155.57 74.362C155.672 74.278 155.775 74.236 155.878 74.236C155.971 74.236 156.05 74.2733 156.116 74.348C156.19 74.4227 156.228 74.5067 156.228 74.6C156.228 74.712 156.181 74.81 156.088 74.894C155.808 75.23 155.444 75.524 154.996 75.776C154.548 76.0187 154.058 76.14 153.526 76.14ZM158.628 76C158.497 76 158.394 75.958 158.32 75.874C158.245 75.79 158.208 75.692 158.208 75.58V69.308C158.208 69.196 158.245 69.098 158.32 69.014C158.404 68.93 158.506 68.888 158.628 68.888C158.749 68.888 158.847 68.93 158.922 69.014C159.006 69.098 159.048 69.196 159.048 69.308V71.408L158.838 71.45C158.866 71.1233 158.945 70.8013 159.076 70.484C159.216 70.1573 159.402 69.8587 159.636 69.588C159.869 69.3173 160.144 69.098 160.462 68.93C160.788 68.762 161.152 68.678 161.554 68.678C161.722 68.678 161.885 68.7153 162.044 68.79C162.202 68.8553 162.282 68.9673 162.282 69.126C162.282 69.266 162.244 69.3733 162.17 69.448C162.095 69.5227 162.006 69.56 161.904 69.56C161.82 69.56 161.726 69.5367 161.624 69.49C161.53 69.4433 161.404 69.42 161.246 69.42C160.984 69.42 160.723 69.4993 160.462 69.658C160.2 69.8073 159.962 70.0127 159.748 70.274C159.533 70.5353 159.36 70.8293 159.23 71.156C159.108 71.4733 159.048 71.7953 159.048 72.122V75.58C159.048 75.692 159.006 75.79 158.922 75.874C158.838 75.958 158.74 76 158.628 76ZM163.188 74.866C163.114 74.754 163.076 74.6467 163.076 74.544C163.086 74.432 163.146 74.3433 163.258 74.278C163.333 74.2127 163.417 74.1847 163.51 74.194C163.613 74.2033 163.706 74.25 163.79 74.334C164.042 74.6607 164.346 74.9267 164.7 75.132C165.064 75.328 165.494 75.426 165.988 75.426C166.25 75.426 166.506 75.384 166.758 75.3C167.02 75.2067 167.234 75.0713 167.402 74.894C167.57 74.7073 167.654 74.474 167.654 74.194C167.654 73.9047 167.57 73.6713 167.402 73.494C167.234 73.3167 167.015 73.1767 166.744 73.074C166.483 72.9713 166.203 72.8827 165.904 72.808C165.587 72.724 165.279 72.6307 164.98 72.528C164.682 72.416 164.416 72.2807 164.182 72.122C163.958 71.954 163.776 71.7533 163.636 71.52C163.496 71.2867 163.426 71.002 163.426 70.666C163.426 70.274 163.534 69.9287 163.748 69.63C163.963 69.3313 164.252 69.098 164.616 68.93C164.99 68.762 165.41 68.678 165.876 68.678C166.11 68.678 166.362 68.7107 166.632 68.776C166.903 68.832 167.169 68.93 167.43 69.07C167.692 69.21 167.925 69.4013 168.13 69.644C168.214 69.728 168.256 69.826 168.256 69.938C168.256 70.0407 168.21 70.134 168.116 70.218C168.042 70.274 167.953 70.302 167.85 70.302C167.757 70.302 167.678 70.2647 167.612 70.19C167.388 69.938 167.122 69.7467 166.814 69.616C166.506 69.4853 166.175 69.42 165.82 69.42C165.55 69.42 165.293 69.4667 165.05 69.56C164.817 69.644 164.621 69.7747 164.462 69.952C164.304 70.1293 164.224 70.3627 164.224 70.652C164.243 70.9227 164.336 71.142 164.504 71.31C164.682 71.478 164.91 71.618 165.19 71.73C165.48 71.842 165.802 71.9447 166.156 72.038C166.455 72.1127 166.74 72.2013 167.01 72.304C167.29 72.4067 167.533 72.5373 167.738 72.696C167.953 72.8453 168.121 73.0367 168.242 73.27C168.373 73.5033 168.438 73.7973 168.438 74.152C168.438 74.5627 168.322 74.9173 168.088 75.216C167.864 75.5147 167.561 75.7433 167.178 75.902C166.796 76.0607 166.371 76.14 165.904 76.14C165.4 76.14 164.91 76.042 164.434 75.846C163.968 75.65 163.552 75.3233 163.188 74.866Z" fill="black"/>
<defs>
<filter id="filter0_d_449_15" x="0" y="0" width="201" height="118" filterUnits="userSpaceOnUse" color-interpolation-filters="sRGB">
<feFlood flood-opacity="0" result="BackgroundImageFix"/>
<feColorMatrix in="SourceAlpha" type="matrix" values="0 0 0 0 0 0 0 0 0 0 0 0 0 0 0 0 0 0 127 0" result="hardAlpha"/>
<feMorphology radius="7" operator="erode" in="SourceAlpha" result="effect1_dropShadow_449_15"/>
<feOffset dy="4"/>
<feGaussianBlur stdDeviation="12"/>
<feComposite in2="hardAlpha" operator="out"/>
<feColorMatrix type="matrix" values="0 0 0 0 0 0 0 0 0 0 0 0 0 0 0 0 0 0 0.25 0"/>
<feBlend mode="normal" in2="BackgroundImageFix" result="effect1_dropShadow_449_15"/>
<feBlend mode="normal" in="SourceGraphic" in2="effect1_dropShadow_449_15" result="shape"/>
</filter>
</defs>
</svg>
