<svg width="201" height="118" viewBox="0 0 201 118" fill="none" xmlns="http://www.w3.org/2000/svg">
<g filter="url(#filter0_d_449_14)">
<rect x="17" y="13" width="167" height="84" rx="19" fill="#F6FDFE"/>
</g>
<path d="M73.0998 41.16C72.2891 41.1707 71.5851 41.0427 70.9878 40.776C70.3905 40.5093 69.8198 40.1093 69.2758 39.576C69.2225 39.5333 69.1745 39.48 69.1318 39.416C69.0998 39.352 69.0838 39.2773 69.0838 39.192C69.0838 39.064 69.1318 38.9467 69.2278 38.84C69.3345 38.7333 69.4518 38.68 69.5798 38.68C69.7078 38.68 69.8251 38.7333 69.9318 38.84C70.3478 39.288 70.8171 39.6293 71.3398 39.864C71.8731 40.0987 72.4438 40.216 73.0518 40.216C73.5638 40.216 74.0171 40.136 74.4118 39.976C74.8171 39.816 75.1371 39.5867 75.3718 39.288C75.6065 38.9893 75.7238 38.6427 75.7238 38.248C75.7238 37.7573 75.5905 37.3627 75.3238 37.064C75.0571 36.7547 74.7051 36.504 74.2678 36.312C73.8305 36.1093 73.3451 35.928 72.8118 35.768C72.3745 35.64 71.9585 35.496 71.5638 35.336C71.1691 35.1653 70.8171 34.9627 70.5078 34.728C70.1985 34.4827 69.9585 34.184 69.7878 33.832C69.6171 33.48 69.5318 33.0533 69.5318 32.552C69.5318 31.9867 69.6811 31.4853 69.9798 31.048C70.2785 30.6107 70.6998 30.2693 71.2438 30.024C71.7985 29.768 72.4385 29.64 73.1638 29.64C73.7931 29.64 74.3958 29.7467 74.9718 29.96C75.5585 30.1733 76.0225 30.488 76.3638 30.904C76.5238 31.0747 76.6038 31.2293 76.6038 31.368C76.6038 31.4747 76.5505 31.5813 76.4438 31.688C76.3371 31.7947 76.2198 31.848 76.0918 31.848C75.9851 31.848 75.8945 31.8107 75.8198 31.736C75.6385 31.512 75.4091 31.3147 75.1318 31.144C74.8545 30.9627 74.5451 30.824 74.2038 30.728C73.8731 30.632 73.5265 30.584 73.1638 30.584C72.6625 30.584 72.2091 30.664 71.8038 30.824C71.4091 30.9733 71.0945 31.192 70.8598 31.48C70.6358 31.768 70.5238 32.1147 70.5238 32.52C70.5238 32.968 70.6518 33.336 70.9078 33.624C71.1638 33.912 71.4998 34.152 71.9158 34.344C72.3318 34.5253 72.7745 34.696 73.2438 34.856C73.7025 34.984 74.1398 35.1333 74.5558 35.304C74.9825 35.464 75.3558 35.6667 75.6758 35.912C76.0065 36.1573 76.2625 36.4667 76.4438 36.84C76.6358 37.2133 76.7318 37.6827 76.7318 38.248C76.7318 38.792 76.5771 39.2827 76.2678 39.72C75.9585 40.1573 75.5318 40.504 74.9878 40.76C74.4545 41.016 73.8251 41.1493 73.0998 41.16ZM78.2282 32.856H81.9562C82.0842 32.856 82.1909 32.904 82.2762 33C82.3615 33.0853 82.4042 33.192 82.4042 33.32C82.4042 33.4373 82.3615 33.5387 82.2762 33.624C82.1909 33.7093 82.0842 33.752 81.9562 33.752H78.2282C78.1002 33.752 77.9882 33.7093 77.8922 33.624C77.8069 33.528 77.7642 33.4213 77.7642 33.304C77.7642 33.176 77.8069 33.0693 77.8922 32.984C77.9882 32.8987 78.1002 32.856 78.2282 32.856ZM79.8762 30.6C80.0149 30.6 80.1269 30.648 80.2122 30.744C80.3082 30.84 80.3562 30.952 80.3562 31.08V39.112C80.3562 39.4107 80.3935 39.6347 80.4682 39.784C80.5535 39.9333 80.6602 40.0347 80.7882 40.088C80.9162 40.1307 81.0442 40.152 81.1722 40.152C81.2575 40.152 81.3322 40.1413 81.3962 40.12C81.4709 40.088 81.5509 40.072 81.6362 40.072C81.7322 40.072 81.8122 40.1093 81.8762 40.184C81.9509 40.2587 81.9882 40.3547 81.9882 40.472C81.9882 40.6213 81.9029 40.7493 81.7322 40.856C81.5615 40.952 81.3589 41 81.1242 41C81.0282 41 80.8842 40.9947 80.6922 40.984C80.5002 40.9627 80.3029 40.904 80.1002 40.808C79.8975 40.7013 79.7269 40.52 79.5882 40.264C79.4602 40.008 79.3962 39.64 79.3962 39.16V31.08C79.3962 30.952 79.4389 30.84 79.5242 30.744C79.6202 30.648 79.7375 30.6 79.8762 30.6ZM84.6581 41C84.5087 41 84.3914 40.952 84.3061 40.856C84.2207 40.76 84.1781 40.648 84.1781 40.52V33.352C84.1781 33.224 84.2207 33.112 84.3061 33.016C84.4021 32.92 84.5194 32.872 84.6581 32.872C84.7967 32.872 84.9087 32.92 84.9941 33.016C85.0901 33.112 85.1381 33.224 85.1381 33.352V35.752L84.8981 35.8C84.9301 35.4267 85.0207 35.0587 85.1701 34.696C85.3301 34.3227 85.5434 33.9813 85.8101 33.672C86.0767 33.3627 86.3914 33.112 86.7541 32.92C87.1274 32.728 87.5434 32.632 88.0021 32.632C88.1941 32.632 88.3807 32.6747 88.5621 32.76C88.7434 32.8347 88.8341 32.9627 88.8341 33.144C88.8341 33.304 88.7914 33.4267 88.7061 33.512C88.6207 33.5973 88.5194 33.64 88.4021 33.64C88.3061 33.64 88.1994 33.6133 88.0821 33.56C87.9754 33.5067 87.8314 33.48 87.6501 33.48C87.3514 33.48 87.0527 33.5707 86.7541 33.752C86.4554 33.9227 86.1834 34.1573 85.9381 34.456C85.6927 34.7547 85.4954 35.0907 85.3461 35.464C85.2074 35.8267 85.1381 36.1947 85.1381 36.568V40.52C85.1381 40.648 85.0901 40.76 84.9941 40.856C84.8981 40.952 84.7861 41 84.6581 41ZM97.5909 36.904C97.5909 37.7147 97.4149 38.4453 97.0629 39.096C96.7109 39.736 96.2309 40.2427 95.6229 40.616C95.0149 40.9787 94.3216 41.16 93.5429 41.16C92.7856 41.16 92.0976 40.9787 91.4789 40.616C90.8709 40.2427 90.3856 39.736 90.0229 39.096C89.6709 38.4453 89.4949 37.7147 89.4949 36.904C89.4949 36.0827 89.6709 35.352 90.0229 34.712C90.3856 34.072 90.8709 33.5653 91.4789 33.192C92.0976 32.8187 92.7856 32.632 93.5429 32.632C94.3216 32.632 95.0149 32.8187 95.6229 33.192C96.2309 33.5653 96.7109 34.072 97.0629 34.712C97.4149 35.352 97.5909 36.0827 97.5909 36.904ZM96.6309 36.904C96.6309 36.2533 96.4976 35.6773 96.2309 35.176C95.9643 34.664 95.5963 34.264 95.1269 33.976C94.6683 33.6773 94.1403 33.528 93.5429 33.528C92.9669 33.528 92.4443 33.6773 91.9749 33.976C91.5056 34.264 91.1323 34.664 90.8549 35.176C90.5883 35.6773 90.4549 36.2533 90.4549 36.904C90.4549 37.5547 90.5883 38.1307 90.8549 38.632C91.1323 39.1333 91.5056 39.5333 91.9749 39.832C92.4443 40.12 92.9669 40.264 93.5429 40.264C94.1403 40.264 94.6683 40.12 95.1269 39.832C95.5963 39.5333 95.9643 39.1333 96.2309 38.632C96.4976 38.1307 96.6309 37.5547 96.6309 36.904ZM103.487 32.632C104.191 32.632 104.751 32.776 105.167 33.064C105.594 33.3413 105.898 33.7253 106.079 34.216C106.271 34.696 106.367 35.2293 106.367 35.816V40.52C106.367 40.648 106.319 40.76 106.223 40.856C106.127 40.952 106.015 41 105.887 41C105.738 41 105.621 40.952 105.535 40.856C105.45 40.76 105.407 40.648 105.407 40.52V35.864C105.407 35.4373 105.338 35.048 105.199 34.696C105.061 34.344 104.831 34.0613 104.511 33.848C104.202 33.6347 103.791 33.528 103.279 33.528C102.821 33.528 102.383 33.6347 101.967 33.848C101.562 34.0613 101.231 34.344 100.975 34.696C100.719 35.048 100.591 35.4373 100.591 35.864V40.52C100.591 40.648 100.543 40.76 100.447 40.856C100.351 40.952 100.239 41 100.111 41C99.9619 41 99.8445 40.952 99.7592 40.856C99.6739 40.76 99.6312 40.648 99.6312 40.52V33.352C99.6312 33.224 99.6739 33.112 99.7592 33.016C99.8552 32.92 99.9725 32.872 100.111 32.872C100.25 32.872 100.362 32.92 100.447 33.016C100.543 33.112 100.591 33.224 100.591 33.352V34.696L100.223 35.272C100.245 34.9307 100.351 34.6053 100.543 34.296C100.746 33.976 101.002 33.6933 101.311 33.448C101.621 33.192 101.962 32.9947 102.335 32.856C102.719 32.7067 103.103 32.632 103.487 32.632ZM112.289 32.632C112.769 32.632 113.212 32.7173 113.617 32.888C114.023 33.048 114.375 33.2613 114.673 33.528C114.983 33.784 115.223 34.0613 115.393 34.36C115.564 34.648 115.649 34.9253 115.649 35.192L115.377 34.808V33.32C115.377 33.1813 115.42 33.064 115.505 32.968C115.601 32.872 115.719 32.824 115.857 32.824C116.007 32.824 116.124 32.872 116.209 32.968C116.295 33.064 116.337 33.1813 116.337 33.32V40.248C116.337 41.1013 116.161 41.8213 115.809 42.408C115.457 42.9947 114.977 43.4373 114.369 43.736C113.772 44.0453 113.089 44.2 112.321 44.2C111.948 44.2 111.553 44.152 111.137 44.056C110.732 43.96 110.38 43.8373 110.081 43.688C109.793 43.5387 109.633 43.384 109.601 43.224C109.516 43.128 109.473 43.032 109.473 42.936C109.484 42.8507 109.532 42.776 109.617 42.712C109.724 42.6373 109.836 42.6267 109.953 42.68C110.071 42.744 110.247 42.824 110.481 42.92C110.588 42.952 110.732 43 110.913 43.064C111.095 43.128 111.308 43.1813 111.553 43.224C111.809 43.2773 112.076 43.304 112.353 43.304C113.313 43.304 114.055 43.0267 114.577 42.472C115.111 41.928 115.377 41.208 115.377 40.312V38.776L115.553 38.824C115.457 39.208 115.297 39.544 115.073 39.832C114.86 40.12 114.604 40.3653 114.305 40.568C114.007 40.76 113.681 40.904 113.329 41C112.988 41.1067 112.647 41.16 112.305 41.16C111.569 41.16 110.908 40.9733 110.321 40.6C109.735 40.2267 109.265 39.72 108.913 39.08C108.572 38.44 108.401 37.7093 108.401 36.888C108.401 36.0773 108.572 35.352 108.913 34.712C109.265 34.0613 109.729 33.5547 110.305 33.192C110.892 32.8187 111.553 32.632 112.289 32.632ZM112.401 33.528C111.815 33.528 111.287 33.6773 110.817 33.976C110.359 34.264 109.996 34.664 109.729 35.176C109.473 35.6773 109.345 36.248 109.345 36.888C109.345 37.528 109.473 38.104 109.729 38.616C109.996 39.128 110.359 39.5333 110.817 39.832C111.287 40.12 111.815 40.264 112.401 40.264C112.988 40.264 113.511 40.12 113.969 39.832C114.428 39.544 114.791 39.1493 115.057 38.648C115.324 38.136 115.457 37.5493 115.457 36.888C115.457 36.2267 115.324 35.6453 115.057 35.144C114.791 34.632 114.428 34.2373 113.969 33.96C113.511 33.672 112.988 33.528 112.401 33.528ZM122.249 41.16C121.428 41.16 120.702 40.984 120.073 40.632C119.444 40.28 118.953 39.7893 118.601 39.16C118.249 38.5307 118.073 37.7947 118.073 36.952C118.073 36.0453 118.249 35.272 118.601 34.632C118.964 33.992 119.428 33.5013 119.993 33.16C120.569 32.808 121.177 32.632 121.817 32.632C122.286 32.632 122.74 32.7173 123.177 32.888C123.625 33.048 124.02 33.2933 124.361 33.624C124.713 33.944 124.99 34.3387 125.193 34.808C125.406 35.2773 125.524 35.8213 125.545 36.44C125.534 36.568 125.481 36.68 125.385 36.776C125.289 36.8613 125.177 36.904 125.049 36.904H118.633L118.441 36.04H124.745L124.537 36.232V35.912C124.494 35.4107 124.334 34.984 124.057 34.632C123.78 34.28 123.444 34.0133 123.049 33.832C122.654 33.6507 122.244 33.56 121.817 33.56C121.497 33.56 121.166 33.624 120.825 33.752C120.494 33.88 120.19 34.0827 119.913 34.36C119.646 34.6267 119.428 34.9733 119.257 35.4C119.086 35.816 119.001 36.312 119.001 36.888C119.001 37.5173 119.129 38.088 119.385 38.6C119.641 39.112 120.009 39.5173 120.489 39.816C120.98 40.1147 121.561 40.264 122.233 40.264C122.606 40.264 122.942 40.2107 123.241 40.104C123.54 39.9973 123.801 39.8587 124.025 39.688C124.249 39.5067 124.436 39.32 124.585 39.128C124.702 39.032 124.82 38.984 124.937 38.984C125.044 38.984 125.134 39.0267 125.209 39.112C125.294 39.1973 125.337 39.2933 125.337 39.4C125.337 39.528 125.284 39.64 125.177 39.736C124.857 40.12 124.441 40.456 123.929 40.744C123.417 41.0213 122.857 41.16 122.249 41.16ZM128.08 41C127.931 41 127.813 40.952 127.728 40.856C127.643 40.76 127.6 40.648 127.6 40.52V33.352C127.6 33.224 127.643 33.112 127.728 33.016C127.824 32.92 127.941 32.872 128.08 32.872C128.219 32.872 128.331 32.92 128.416 33.016C128.512 33.112 128.56 33.224 128.56 33.352V35.752L128.32 35.8C128.352 35.4267 128.443 35.0587 128.592 34.696C128.752 34.3227 128.965 33.9813 129.232 33.672C129.499 33.3627 129.813 33.112 130.176 32.92C130.549 32.728 130.965 32.632 131.424 32.632C131.616 32.632 131.803 32.6747 131.984 32.76C132.165 32.8347 132.256 32.9627 132.256 33.144C132.256 33.304 132.213 33.4267 132.128 33.512C132.043 33.5973 131.941 33.64 131.824 33.64C131.728 33.64 131.621 33.6133 131.504 33.56C131.397 33.5067 131.253 33.48 131.072 33.48C130.773 33.48 130.475 33.5707 130.176 33.752C129.877 33.9227 129.605 34.1573 129.36 34.456C129.115 34.7547 128.917 35.0907 128.768 35.464C128.629 35.8267 128.56 36.1947 128.56 36.568V40.52C128.56 40.648 128.512 40.76 128.416 40.856C128.32 40.952 128.208 41 128.08 41ZM36.1946 52.824C36.3332 52.824 36.4452 52.872 36.5306 52.968C36.6266 53.064 36.6746 53.1813 36.6746 53.32V60.52C36.6746 60.648 36.6266 60.76 36.5306 60.856C36.4346 60.952 36.3226 61 36.1946 61C36.0559 61 35.9386 60.952 35.8426 60.856C35.7572 60.76 35.7146 60.648 35.7146 60.52V58.616L35.9866 58.488C35.9866 58.7867 35.9012 59.0907 35.7306 59.4C35.5706 59.7093 35.3466 59.9973 35.0586 60.264C34.7706 60.5307 34.4292 60.7493 34.0346 60.92C33.6506 61.08 33.2346 61.16 32.7866 61.16C32.0612 61.16 31.4106 60.9733 30.8346 60.6C30.2692 60.2267 29.8212 59.7147 29.4906 59.064C29.1706 58.4133 29.0106 57.6827 29.0106 56.872C29.0106 56.04 29.1759 55.3093 29.5066 54.68C29.8372 54.04 30.2852 53.5387 30.8506 53.176C31.4159 52.8133 32.0559 52.632 32.7706 52.632C33.2292 52.632 33.6559 52.712 34.0506 52.872C34.4559 53.032 34.8079 53.2507 35.1066 53.528C35.4052 53.8053 35.6346 54.1253 35.7946 54.488C35.9652 54.84 36.0506 55.208 36.0506 55.592L35.7146 55.352V53.32C35.7146 53.1813 35.7572 53.064 35.8426 52.968C35.9386 52.872 36.0559 52.824 36.1946 52.824ZM32.8666 60.264C33.4319 60.264 33.9332 60.12 34.3706 59.832C34.8079 59.5333 35.1492 59.128 35.3946 58.616C35.6506 58.0933 35.7786 57.512 35.7786 56.872C35.7786 56.2427 35.6506 55.6773 35.3946 55.176C35.1492 54.6747 34.8079 54.2747 34.3706 53.976C33.9332 53.6773 33.4319 53.528 32.8666 53.528C32.3119 53.528 31.8106 53.672 31.3626 53.96C30.9252 54.248 30.5786 54.6427 30.3226 55.144C30.0772 55.6453 29.9546 56.2213 29.9546 56.872C29.9546 57.512 30.0772 58.0933 30.3226 58.616C30.5786 59.128 30.9252 59.5333 31.3626 59.832C31.7999 60.12 32.3012 60.264 32.8666 60.264ZM40.2497 60.52C40.2497 60.648 40.2017 60.76 40.1057 60.856C40.0097 60.952 39.8977 61 39.7697 61C39.631 61 39.5137 60.952 39.4177 60.856C39.3324 60.76 39.2897 60.648 39.2897 60.52V49.64C39.2897 49.512 39.3377 49.4 39.4337 49.304C39.5297 49.208 39.6417 49.16 39.7697 49.16C39.9084 49.16 40.0204 49.208 40.1057 49.304C40.2017 49.4 40.2497 49.512 40.2497 49.64V60.52ZM46.1329 52.632C46.6129 52.632 47.0556 52.7173 47.4609 52.888C47.8663 53.048 48.2183 53.2613 48.5169 53.528C48.8263 53.784 49.0663 54.0613 49.2369 54.36C49.4076 54.648 49.4929 54.9253 49.4929 55.192L49.2209 54.808V53.32C49.2209 53.1813 49.2636 53.064 49.3489 52.968C49.4449 52.872 49.5623 52.824 49.7009 52.824C49.8503 52.824 49.9676 52.872 50.0529 52.968C50.1383 53.064 50.1809 53.1813 50.1809 53.32V60.248C50.1809 61.1013 50.0049 61.8213 49.6529 62.408C49.3009 62.9947 48.8209 63.4373 48.2129 63.736C47.6156 64.0453 46.9329 64.2 46.1649 64.2C45.7916 64.2 45.3969 64.152 44.9809 64.056C44.5756 63.96 44.2236 63.8373 43.9249 63.688C43.6369 63.5387 43.4769 63.384 43.4449 63.224C43.3596 63.128 43.3169 63.032 43.3169 62.936C43.3276 62.8507 43.3756 62.776 43.4609 62.712C43.5676 62.6373 43.6796 62.6267 43.7969 62.68C43.9143 62.744 44.0903 62.824 44.3249 62.92C44.4316 62.952 44.5756 63 44.7569 63.064C44.9383 63.128 45.1516 63.1813 45.3969 63.224C45.6529 63.2773 45.9196 63.304 46.1969 63.304C47.1569 63.304 47.8983 63.0267 48.4209 62.472C48.9543 61.928 49.2209 61.208 49.2209 60.312V58.776L49.3969 58.824C49.3009 59.208 49.1409 59.544 48.9169 59.832C48.7036 60.12 48.4476 60.3653 48.1489 60.568C47.8503 60.76 47.5249 60.904 47.1729 61C46.8316 61.1067 46.4903 61.16 46.1489 61.16C45.4129 61.16 44.7516 60.9733 44.1649 60.6C43.5783 60.2267 43.1089 59.72 42.7569 59.08C42.4156 58.44 42.2449 57.7093 42.2449 56.888C42.2449 56.0773 42.4156 55.352 42.7569 54.712C43.1089 54.0613 43.5729 53.5547 44.1489 53.192C44.7356 52.8187 45.3969 52.632 46.1329 52.632ZM46.2449 53.528C45.6583 53.528 45.1303 53.6773 44.6609 53.976C44.2023 54.264 43.8396 54.664 43.5729 55.176C43.3169 55.6773 43.1889 56.248 43.1889 56.888C43.1889 57.528 43.3169 58.104 43.5729 58.616C43.8396 59.128 44.2023 59.5333 44.6609 59.832C45.1303 60.12 45.6583 60.264 46.2449 60.264C46.8316 60.264 47.3543 60.12 47.8129 59.832C48.2716 59.544 48.6343 59.1493 48.9009 58.648C49.1676 58.136 49.3009 57.5493 49.3009 56.888C49.3009 56.2267 49.1676 55.6453 48.9009 55.144C48.6343 54.632 48.2716 54.2373 47.8129 53.96C47.3543 53.672 46.8316 53.528 46.2449 53.528ZM60.0128 56.904C60.0128 57.7147 59.8368 58.4453 59.4848 59.096C59.1328 59.736 58.6528 60.2427 58.0448 60.616C57.4368 60.9787 56.7435 61.16 55.9648 61.16C55.2075 61.16 54.5195 60.9787 53.9008 60.616C53.2928 60.2427 52.8075 59.736 52.4448 59.096C52.0928 58.4453 51.9168 57.7147 51.9168 56.904C51.9168 56.0827 52.0928 55.352 52.4448 54.712C52.8075 54.072 53.2928 53.5653 53.9008 53.192C54.5195 52.8187 55.2075 52.632 55.9648 52.632C56.7435 52.632 57.4368 52.8187 58.0448 53.192C58.6528 53.5653 59.1328 54.072 59.4848 54.712C59.8368 55.352 60.0128 56.0827 60.0128 56.904ZM59.0528 56.904C59.0528 56.2533 58.9195 55.6773 58.6528 55.176C58.3861 54.664 58.0181 54.264 57.5488 53.976C57.0901 53.6773 56.5621 53.528 55.9648 53.528C55.3888 53.528 54.8661 53.6773 54.3968 53.976C53.9275 54.264 53.5541 54.664 53.2768 55.176C53.0101 55.6773 52.8768 56.2533 52.8768 56.904C52.8768 57.5547 53.0101 58.1307 53.2768 58.632C53.5541 59.1333 53.9275 59.5333 54.3968 59.832C54.8661 60.12 55.3888 60.264 55.9648 60.264C56.5621 60.264 57.0901 60.12 57.5488 59.832C58.0181 59.5333 58.3861 59.1333 58.6528 58.632C58.9195 58.1307 59.0528 57.5547 59.0528 56.904ZM62.5331 61C62.3837 61 62.2664 60.952 62.1811 60.856C62.0957 60.76 62.0531 60.648 62.0531 60.52V53.352C62.0531 53.224 62.0957 53.112 62.1811 53.016C62.2771 52.92 62.3944 52.872 62.5331 52.872C62.6717 52.872 62.7837 52.92 62.8691 53.016C62.9651 53.112 63.0131 53.224 63.0131 53.352V55.752L62.7731 55.8C62.8051 55.4267 62.8957 55.0587 63.0451 54.696C63.2051 54.3227 63.4184 53.9813 63.6851 53.672C63.9517 53.3627 64.2664 53.112 64.6291 52.92C65.0024 52.728 65.4184 52.632 65.8771 52.632C66.0691 52.632 66.2557 52.6747 66.4371 52.76C66.6184 52.8347 66.7091 52.9627 66.7091 53.144C66.7091 53.304 66.6664 53.4267 66.5811 53.512C66.4957 53.5973 66.3944 53.64 66.2771 53.64C66.1811 53.64 66.0744 53.6133 65.9571 53.56C65.8504 53.5067 65.7064 53.48 65.5251 53.48C65.2264 53.48 64.9277 53.5707 64.6291 53.752C64.3304 53.9227 64.0584 54.1573 63.8131 54.456C63.5677 54.7547 63.3704 55.0907 63.2211 55.464C63.0824 55.8267 63.0131 56.1947 63.0131 56.568V60.52C63.0131 60.648 62.9651 60.76 62.8691 60.856C62.7731 60.952 62.6611 61 62.5331 61ZM69.1373 60.52C69.1373 60.648 69.0893 60.76 68.9933 60.856C68.8973 60.952 68.7853 61 68.6573 61C68.5186 61 68.4013 60.952 68.3053 60.856C68.22 60.76 68.1773 60.648 68.1773 60.52V53.16C68.1773 53.032 68.22 52.92 68.3053 52.824C68.4013 52.728 68.5186 52.68 68.6573 52.68C68.796 52.68 68.908 52.728 68.9933 52.824C69.0893 52.92 69.1373 53.032 69.1373 53.16V60.52ZM68.6573 51.608C68.4333 51.608 68.2626 51.56 68.1453 51.464C68.0386 51.3573 67.9853 51.208 67.9853 51.016V50.856C67.9853 50.664 68.044 50.52 68.1613 50.424C68.2893 50.3173 68.46 50.264 68.6733 50.264C68.876 50.264 69.0306 50.3173 69.1373 50.424C69.2546 50.52 69.3133 50.664 69.3133 50.856V51.016C69.3133 51.208 69.2546 51.3573 69.1373 51.464C69.0306 51.56 68.8706 51.608 68.6573 51.608ZM71.1032 52.856H74.8312C74.9592 52.856 75.0659 52.904 75.1512 53C75.2365 53.0853 75.2792 53.192 75.2792 53.32C75.2792 53.4373 75.2365 53.5387 75.1512 53.624C75.0659 53.7093 74.9592 53.752 74.8312 53.752H71.1032C70.9752 53.752 70.8632 53.7093 70.7672 53.624C70.6819 53.528 70.6392 53.4213 70.6392 53.304C70.6392 53.176 70.6819 53.0693 70.7672 52.984C70.8632 52.8987 70.9752 52.856 71.1032 52.856ZM72.7512 50.6C72.8899 50.6 73.0019 50.648 73.0872 50.744C73.1832 50.84 73.2312 50.952 73.2312 51.08V59.112C73.2312 59.4107 73.2685 59.6347 73.3432 59.784C73.4285 59.9333 73.5352 60.0347 73.6632 60.088C73.7912 60.1307 73.9192 60.152 74.0472 60.152C74.1325 60.152 74.2072 60.1413 74.2712 60.12C74.3459 60.088 74.4259 60.072 74.5112 60.072C74.6072 60.072 74.6872 60.1093 74.7512 60.184C74.8259 60.2587 74.8632 60.3547 74.8632 60.472C74.8632 60.6213 74.7779 60.7493 74.6072 60.856C74.4365 60.952 74.2339 61 73.9992 61C73.9032 61 73.7592 60.9947 73.5672 60.984C73.3752 60.9627 73.1779 60.904 72.9752 60.808C72.7725 60.7013 72.6019 60.52 72.4632 60.264C72.3352 60.008 72.2712 59.64 72.2712 59.16V51.08C72.2712 50.952 72.3139 50.84 72.3992 50.744C72.4952 50.648 72.6125 50.6 72.7512 50.6ZM80.7811 52.76C81.4531 52.76 81.9971 52.904 82.4131 53.192C82.8291 53.48 83.1331 53.8693 83.3251 54.36C83.5277 54.8507 83.6291 55.3947 83.6291 55.992V60.52C83.6291 60.648 83.5811 60.76 83.4851 60.856C83.3891 60.952 83.2771 61 83.1491 61C82.9997 61 82.8824 60.952 82.7971 60.856C82.7117 60.76 82.6691 60.648 82.6691 60.52V55.992C82.6691 55.5547 82.5997 55.16 82.4611 54.808C82.3331 54.456 82.1197 54.1787 81.8211 53.976C81.5224 53.7627 81.1224 53.656 80.6211 53.656C80.1731 53.656 79.7464 53.7627 79.3411 53.976C78.9464 54.1787 78.6264 54.456 78.3811 54.808C78.1357 55.16 78.0131 55.5547 78.0131 55.992V60.52C78.0131 60.648 77.9651 60.76 77.8691 60.856C77.7731 60.952 77.6611 61 77.5331 61C77.3837 61 77.2664 60.952 77.1811 60.856C77.0957 60.76 77.0531 60.648 77.0531 60.52V49.64C77.0531 49.512 77.0957 49.4 77.1811 49.304C77.2771 49.208 77.3944 49.16 77.5331 49.16C77.6717 49.16 77.7837 49.208 77.8691 49.304C77.9651 49.4 78.0131 49.512 78.0131 49.64V54.824L77.6451 55.384C77.6664 55.0533 77.7677 54.7333 77.9491 54.424C78.1411 54.104 78.3864 53.8213 78.6851 53.576C78.9837 53.32 79.3144 53.1227 79.6771 52.984C80.0397 52.8347 80.4077 52.76 80.7811 52.76ZM89.8268 52.76C90.4881 52.76 91.0535 52.936 91.5228 53.288C91.9921 53.6293 92.3121 54.1413 92.4828 54.824L92.2588 54.888L92.3548 54.6C92.4935 54.28 92.7228 53.9813 93.0428 53.704C93.3735 53.416 93.7468 53.1867 94.1628 53.016C94.5788 52.8453 95.0001 52.76 95.4268 52.76C96.0988 52.76 96.6375 52.904 97.0428 53.192C97.4588 53.48 97.7575 53.8693 97.9388 54.36C98.1308 54.84 98.2268 55.384 98.2268 55.992V60.52C98.2268 60.648 98.1788 60.76 98.0828 60.856C97.9975 60.952 97.8855 61 97.7468 61C97.6081 61 97.4908 60.952 97.3948 60.856C97.3095 60.76 97.2668 60.648 97.2668 60.52V56.04C97.2668 55.6027 97.1975 55.2027 97.0588 54.84C96.9201 54.4773 96.7015 54.1893 96.4028 53.976C96.1041 53.7627 95.7041 53.656 95.2028 53.656C94.7655 53.656 94.3441 53.7627 93.9388 53.976C93.5441 54.1893 93.2188 54.4773 92.9628 54.84C92.7175 55.2027 92.5948 55.6027 92.5948 56.04V60.52C92.5948 60.648 92.5468 60.76 92.4508 60.856C92.3655 60.952 92.2535 61 92.1148 61C91.9761 61 91.8588 60.952 91.7628 60.856C91.6775 60.76 91.6348 60.648 91.6348 60.52V55.992C91.6348 55.5547 91.5708 55.16 91.4428 54.808C91.3148 54.456 91.1068 54.1787 90.8188 53.976C90.5308 53.7627 90.1415 53.656 89.6508 53.656C89.2135 53.656 88.7975 53.7627 88.4028 53.976C88.0188 54.1787 87.7041 54.456 87.4588 54.808C87.2241 55.16 87.1068 55.5547 87.1068 55.992V60.52C87.1068 60.648 87.0588 60.76 86.9628 60.856C86.8668 60.952 86.7548 61 86.6268 61C86.4775 61 86.3601 60.952 86.2748 60.856C86.1895 60.76 86.1468 60.648 86.1468 60.52V53.352C86.1468 53.224 86.1895 53.112 86.2748 53.016C86.3708 52.92 86.4881 52.872 86.6268 52.872C86.7655 52.872 86.8775 52.92 86.9628 53.016C87.0588 53.112 87.1068 53.224 87.1068 53.352V54.84L86.6748 55.432C86.7068 55.112 86.8081 54.792 86.9788 54.472C87.1601 54.152 87.3948 53.864 87.6828 53.608C87.9708 53.352 88.2961 53.1493 88.6588 53C89.0321 52.84 89.4215 52.76 89.8268 52.76ZM101.669 60.52C101.669 60.648 101.621 60.76 101.525 60.856C101.429 60.952 101.317 61 101.189 61C101.05 61 100.933 60.952 100.837 60.856C100.751 60.76 100.709 60.648 100.709 60.52V53.16C100.709 53.032 100.751 52.92 100.837 52.824C100.933 52.728 101.05 52.68 101.189 52.68C101.327 52.68 101.439 52.728 101.525 52.824C101.621 52.92 101.669 53.032 101.669 53.16V60.52ZM101.189 51.608C100.965 51.608 100.794 51.56 100.677 51.464C100.57 51.3573 100.517 51.208 100.517 51.016V50.856C100.517 50.664 100.575 50.52 100.693 50.424C100.821 50.3173 100.991 50.264 101.205 50.264C101.407 50.264 101.562 50.3173 101.669 50.424C101.786 50.52 101.845 50.664 101.845 50.856V51.016C101.845 51.208 101.786 51.3573 101.669 51.464C101.562 51.56 101.402 51.608 101.189 51.608ZM107.762 52.632C108.274 52.632 108.744 52.6907 109.17 52.808C109.597 52.9147 109.938 53.064 110.194 53.256C110.461 53.448 110.594 53.656 110.594 53.88C110.594 53.9867 110.557 54.0933 110.482 54.2C110.408 54.296 110.306 54.344 110.178 54.344C110.05 54.344 109.944 54.312 109.858 54.248C109.784 54.184 109.704 54.1093 109.618 54.024C109.544 53.9387 109.432 53.8587 109.282 53.784C109.144 53.72 108.946 53.6613 108.69 53.608C108.434 53.5547 108.141 53.528 107.81 53.528C107.213 53.528 106.674 53.6773 106.194 53.976C105.714 54.2747 105.336 54.68 105.058 55.192C104.781 55.6933 104.642 56.2587 104.642 56.888C104.642 57.528 104.776 58.104 105.042 58.616C105.309 59.128 105.677 59.5333 106.146 59.832C106.616 60.12 107.165 60.264 107.794 60.264C108.221 60.264 108.552 60.2267 108.786 60.152C109.021 60.0773 109.224 59.992 109.394 59.896C109.597 59.7787 109.741 59.6667 109.826 59.56C109.922 59.4427 110.045 59.384 110.194 59.384C110.333 59.384 110.434 59.4267 110.498 59.512C110.573 59.5867 110.61 59.688 110.61 59.816C110.61 59.9867 110.482 60.1787 110.226 60.392C109.981 60.5947 109.64 60.776 109.202 60.936C108.765 61.0853 108.264 61.16 107.698 61.16C106.898 61.16 106.194 60.9733 105.586 60.6C104.989 60.2267 104.52 59.72 104.178 59.08C103.848 58.4293 103.682 57.6987 103.682 56.888C103.682 56.1093 103.853 55.4 104.194 54.76C104.536 54.12 105.01 53.608 105.618 53.224C106.237 52.8293 106.952 52.632 107.762 52.632ZM117.299 61C117.149 61 117.032 60.952 116.947 60.856C116.861 60.76 116.819 60.648 116.819 60.52V53.352C116.819 53.224 116.861 53.112 116.947 53.016C117.043 52.92 117.16 52.872 117.299 52.872C117.437 52.872 117.549 52.92 117.635 53.016C117.731 53.112 117.779 53.224 117.779 53.352V55.752L117.539 55.8C117.571 55.4267 117.661 55.0587 117.811 54.696C117.971 54.3227 118.184 53.9813 118.451 53.672C118.717 53.3627 119.032 53.112 119.395 52.92C119.768 52.728 120.184 52.632 120.643 52.632C120.835 52.632 121.021 52.6747 121.203 52.76C121.384 52.8347 121.475 52.9627 121.475 53.144C121.475 53.304 121.432 53.4267 121.347 53.512C121.261 53.5973 121.16 53.64 121.043 53.64C120.947 53.64 120.84 53.6133 120.723 53.56C120.616 53.5067 120.472 53.48 120.291 53.48C119.992 53.48 119.693 53.5707 119.395 53.752C119.096 53.9227 118.824 54.1573 118.579 54.456C118.333 54.7547 118.136 55.0907 117.987 55.464C117.848 55.8267 117.779 56.1947 117.779 56.568V60.52C117.779 60.648 117.731 60.76 117.635 60.856C117.539 60.952 117.427 61 117.299 61ZM126.312 61.16C125.49 61.16 124.765 60.984 124.136 60.632C123.506 60.28 123.016 59.7893 122.664 59.16C122.312 58.5307 122.136 57.7947 122.136 56.952C122.136 56.0453 122.312 55.272 122.664 54.632C123.026 53.992 123.49 53.5013 124.056 53.16C124.632 52.808 125.24 52.632 125.88 52.632C126.349 52.632 126.802 52.7173 127.24 52.888C127.688 53.048 128.082 53.2933 128.424 53.624C128.776 53.944 129.053 54.3387 129.256 54.808C129.469 55.2773 129.586 55.8213 129.608 56.44C129.597 56.568 129.544 56.68 129.448 56.776C129.352 56.8613 129.24 56.904 129.112 56.904H122.696L122.504 56.04H128.808L128.6 56.232V55.912C128.557 55.4107 128.397 54.984 128.12 54.632C127.842 54.28 127.506 54.0133 127.112 53.832C126.717 53.6507 126.306 53.56 125.88 53.56C125.56 53.56 125.229 53.624 124.888 53.752C124.557 53.88 124.253 54.0827 123.976 54.36C123.709 54.6267 123.49 54.9733 123.32 55.4C123.149 55.816 123.064 56.312 123.064 56.888C123.064 57.5173 123.192 58.088 123.448 58.6C123.704 59.112 124.072 59.5173 124.552 59.816C125.042 60.1147 125.624 60.264 126.296 60.264C126.669 60.264 127.005 60.2107 127.304 60.104C127.602 59.9973 127.864 59.8587 128.088 59.688C128.312 59.5067 128.498 59.32 128.648 59.128C128.765 59.032 128.882 58.984 129 58.984C129.106 58.984 129.197 59.0267 129.272 59.112C129.357 59.1973 129.4 59.2933 129.4 59.4C129.4 59.528 129.346 59.64 129.24 59.736C128.92 60.12 128.504 60.456 127.992 60.744C127.48 61.0213 126.92 61.16 126.312 61.16ZM138.429 52.824C138.568 52.824 138.68 52.872 138.765 52.968C138.861 53.064 138.909 53.1813 138.909 53.32V60.52C138.909 60.648 138.861 60.76 138.765 60.856C138.669 60.952 138.557 61 138.429 61C138.29 61 138.173 60.952 138.077 60.856C137.992 60.76 137.949 60.648 137.949 60.52V58.616L138.221 58.488C138.221 58.7867 138.136 59.0907 137.965 59.4C137.805 59.7093 137.581 59.9973 137.293 60.264C137.005 60.5307 136.664 60.7493 136.269 60.92C135.885 61.08 135.469 61.16 135.021 61.16C134.296 61.16 133.645 60.9733 133.069 60.6C132.504 60.2267 132.056 59.7147 131.725 59.064C131.405 58.4133 131.245 57.6827 131.245 56.872C131.245 56.04 131.41 55.3093 131.741 54.68C132.072 54.04 132.52 53.5387 133.085 53.176C133.65 52.8133 134.29 52.632 135.005 52.632C135.464 52.632 135.89 52.712 136.285 52.872C136.69 53.032 137.042 53.2507 137.341 53.528C137.64 53.8053 137.869 54.1253 138.029 54.488C138.2 54.84 138.285 55.208 138.285 55.592L137.949 55.352V53.32C137.949 53.1813 137.992 53.064 138.077 52.968C138.173 52.872 138.29 52.824 138.429 52.824ZM135.101 60.264C135.666 60.264 136.168 60.12 136.605 59.832C137.042 59.5333 137.384 59.128 137.629 58.616C137.885 58.0933 138.013 57.512 138.013 56.872C138.013 56.2427 137.885 55.6773 137.629 55.176C137.384 54.6747 137.042 54.2747 136.605 53.976C136.168 53.6773 135.666 53.528 135.101 53.528C134.546 53.528 134.045 53.672 133.597 53.96C133.16 54.248 132.813 54.6427 132.557 55.144C132.312 55.6453 132.189 56.2213 132.189 56.872C132.189 57.512 132.312 58.0933 132.557 58.616C132.813 59.128 133.16 59.5333 133.597 59.832C134.034 60.12 134.536 60.264 135.101 60.264ZM145.028 52.632C145.54 52.632 146.009 52.6907 146.436 52.808C146.863 52.9147 147.204 53.064 147.46 53.256C147.727 53.448 147.86 53.656 147.86 53.88C147.86 53.9867 147.823 54.0933 147.748 54.2C147.673 54.296 147.572 54.344 147.444 54.344C147.316 54.344 147.209 54.312 147.124 54.248C147.049 54.184 146.969 54.1093 146.884 54.024C146.809 53.9387 146.697 53.8587 146.548 53.784C146.409 53.72 146.212 53.6613 145.956 53.608C145.7 53.5547 145.407 53.528 145.076 53.528C144.479 53.528 143.94 53.6773 143.46 53.976C142.98 54.2747 142.601 54.68 142.324 55.192C142.047 55.6933 141.908 56.2587 141.908 56.888C141.908 57.528 142.041 58.104 142.308 58.616C142.575 59.128 142.943 59.5333 143.412 59.832C143.881 60.12 144.431 60.264 145.06 60.264C145.487 60.264 145.817 60.2267 146.052 60.152C146.287 60.0773 146.489 59.992 146.66 59.896C146.863 59.7787 147.007 59.6667 147.092 59.56C147.188 59.4427 147.311 59.384 147.46 59.384C147.599 59.384 147.7 59.4267 147.764 59.512C147.839 59.5867 147.876 59.688 147.876 59.816C147.876 59.9867 147.748 60.1787 147.492 60.392C147.247 60.5947 146.905 60.776 146.468 60.936C146.031 61.0853 145.529 61.16 144.964 61.16C144.164 61.16 143.46 60.9733 142.852 60.6C142.255 60.2267 141.785 59.72 141.444 59.08C141.113 58.4293 140.948 57.6987 140.948 56.888C140.948 56.1093 141.119 55.4 141.46 54.76C141.801 54.12 142.276 53.608 142.884 53.224C143.503 52.8293 144.217 52.632 145.028 52.632ZM153.437 52.76C154.109 52.76 154.653 52.904 155.069 53.192C155.485 53.48 155.789 53.8693 155.981 54.36C156.184 54.8507 156.285 55.3947 156.285 55.992V60.52C156.285 60.648 156.237 60.76 156.141 60.856C156.045 60.952 155.933 61 155.805 61C155.656 61 155.539 60.952 155.453 60.856C155.368 60.76 155.325 60.648 155.325 60.52V55.992C155.325 55.5547 155.256 55.16 155.117 54.808C154.989 54.456 154.776 54.1787 154.477 53.976C154.179 53.7627 153.779 53.656 153.277 53.656C152.829 53.656 152.403 53.7627 151.997 53.976C151.603 54.1787 151.283 54.456 151.037 54.808C150.792 55.16 150.669 55.5547 150.669 55.992V60.52C150.669 60.648 150.621 60.76 150.525 60.856C150.429 60.952 150.317 61 150.189 61C150.04 61 149.923 60.952 149.837 60.856C149.752 60.76 149.709 60.648 149.709 60.52V49.64C149.709 49.512 149.752 49.4 149.837 49.304C149.933 49.208 150.051 49.16 150.189 49.16C150.328 49.16 150.44 49.208 150.525 49.304C150.621 49.4 150.669 49.512 150.669 49.64V54.824L150.301 55.384C150.323 55.0533 150.424 54.7333 150.605 54.424C150.797 54.104 151.043 53.8213 151.341 53.576C151.64 53.32 151.971 53.1227 152.333 52.984C152.696 52.8347 153.064 52.76 153.437 52.76ZM166.266 61.16C165.509 61.16 164.837 60.984 164.25 60.632C163.663 60.28 163.205 59.8267 162.874 59.272C162.554 58.7173 162.394 58.1307 162.394 57.512C162.394 57.0427 162.485 56.5893 162.666 56.152C162.858 55.7147 163.141 55.3253 163.514 54.984C163.898 54.632 164.383 54.3547 164.97 54.152L165.658 54.84C164.826 55.032 164.239 55.3627 163.898 55.832C163.557 56.3013 163.386 56.8187 163.386 57.384C163.386 57.864 163.498 58.3227 163.722 58.76C163.946 59.1867 164.282 59.5387 164.73 59.816C165.178 60.0933 165.727 60.232 166.378 60.232C167.071 60.232 167.663 60.12 168.154 59.896C168.655 59.6613 169.077 59.3573 169.418 58.984C169.759 58.6 170.031 58.1733 170.234 57.704C170.437 57.224 170.586 56.7387 170.682 56.248C170.703 56.1413 170.746 56.0613 170.81 56.008C170.885 55.944 170.986 55.912 171.114 55.912C171.263 55.912 171.381 55.9653 171.466 56.072C171.551 56.1787 171.583 56.312 171.562 56.472C171.466 57.048 171.29 57.6133 171.034 58.168C170.778 58.7227 170.431 59.2293 169.994 59.688C169.557 60.136 169.029 60.4933 168.41 60.76C167.791 61.0267 167.077 61.16 166.266 61.16ZM171.946 60.952C171.893 60.952 171.839 60.9467 171.786 60.936C171.743 60.9147 171.701 60.8933 171.658 60.872C171.007 60.36 170.378 59.8693 169.77 59.4C169.173 58.92 168.575 58.4027 167.978 57.848C167.391 57.2933 166.773 56.6533 166.122 55.928C165.749 55.5013 165.413 55.0853 165.114 54.68C164.815 54.264 164.575 53.8587 164.394 53.464C164.213 53.0587 164.122 52.6587 164.122 52.264C164.122 51.7733 164.245 51.3307 164.49 50.936C164.735 50.5307 165.082 50.216 165.53 49.992C165.978 49.7573 166.511 49.64 167.13 49.64C167.898 49.64 168.533 49.784 169.034 50.072C169.535 50.36 169.887 50.7013 170.09 51.096C170.101 51.1067 170.117 51.144 170.138 51.208C170.159 51.2613 170.17 51.3253 170.17 51.4C170.17 51.496 170.127 51.5867 170.042 51.672C169.967 51.7573 169.861 51.8 169.722 51.8C169.637 51.8 169.562 51.784 169.498 51.752C169.445 51.72 169.402 51.6773 169.37 51.624C169.157 51.304 168.874 51.0427 168.522 50.84C168.181 50.6267 167.717 50.52 167.13 50.52C166.479 50.52 165.983 50.6853 165.642 51.016C165.301 51.336 165.13 51.752 165.13 52.264C165.13 52.5947 165.221 52.9467 165.402 53.32C165.583 53.6827 165.813 54.0507 166.09 54.424C166.378 54.7973 166.677 55.16 166.986 55.512C167.413 55.992 167.861 56.4613 168.33 56.92C168.81 57.368 169.279 57.7893 169.738 58.184C170.207 58.5787 170.65 58.936 171.066 59.256C171.482 59.576 171.85 59.8587 172.17 60.104C172.245 60.1573 172.298 60.216 172.33 60.28C172.362 60.344 172.378 60.4187 172.378 60.504C172.378 60.5893 172.341 60.6853 172.266 60.792C172.191 60.8987 172.085 60.952 171.946 60.952Z" fill="black"/>
<path d="M55.2961 69.16C55.4348 69.16 55.5468 69.208 55.6321 69.304C55.7281 69.3893 55.7761 69.5013 55.7761 69.64V80.52C55.7761 80.648 55.7281 80.76 55.6321 80.856C55.5361 80.952 55.4241 81 55.2961 81C55.1575 81 55.0401 80.952 54.9441 80.856C54.8588 80.76 54.8161 80.648 54.8161 80.52V78.616L55.0881 78.392C55.0881 78.6907 55.0081 79.0053 54.8481 79.336C54.6881 79.656 54.4588 79.9547 54.1601 80.232C53.8721 80.5093 53.5308 80.7333 53.1361 80.904C52.7521 81.0747 52.3361 81.16 51.8881 81.16C51.1735 81.16 50.5281 80.9733 49.9521 80.6C49.3868 80.2267 48.9388 79.72 48.6081 79.08C48.2775 78.44 48.1121 77.7093 48.1121 76.888C48.1121 76.0773 48.2775 75.352 48.6081 74.712C48.9388 74.0613 49.3868 73.5547 49.9521 73.192C50.5175 72.8187 51.1575 72.632 51.8721 72.632C52.3095 72.632 52.7255 72.712 53.1201 72.872C53.5148 73.032 53.8615 73.2507 54.1601 73.528C54.4695 73.8053 54.7095 74.1253 54.8801 74.488C55.0615 74.84 55.1521 75.208 55.1521 75.592L54.8161 75.352V69.64C54.8161 69.512 54.8588 69.4 54.9441 69.304C55.0401 69.208 55.1575 69.16 55.2961 69.16ZM51.9681 80.264C52.5441 80.264 53.0455 80.12 53.4721 79.832C53.9095 79.5333 54.2508 79.1333 54.4961 78.632C54.7521 78.12 54.8801 77.5387 54.8801 76.888C54.8801 76.248 54.7521 75.6773 54.4961 75.176C54.2508 74.664 53.9095 74.264 53.4721 73.976C53.0348 73.6773 52.5335 73.528 51.9681 73.528C51.4135 73.528 50.9121 73.6773 50.4641 73.976C50.0268 74.264 49.6801 74.664 49.4241 75.176C49.1788 75.6773 49.0561 76.248 49.0561 76.888C49.0561 77.528 49.1788 78.104 49.4241 78.616C49.6801 79.128 50.0268 79.5333 50.4641 79.832C50.9121 80.12 51.4135 80.264 51.9681 80.264ZM59.2233 80.52C59.2233 80.648 59.1753 80.76 59.0793 80.856C58.9833 80.952 58.8713 81 58.7433 81C58.6046 81 58.4873 80.952 58.3913 80.856C58.3059 80.76 58.2633 80.648 58.2633 80.52V73.16C58.2633 73.032 58.3059 72.92 58.3913 72.824C58.4873 72.728 58.6046 72.68 58.7433 72.68C58.8819 72.68 58.9939 72.728 59.0793 72.824C59.1753 72.92 59.2233 73.032 59.2233 73.16V80.52ZM58.7433 71.608C58.5193 71.608 58.3486 71.56 58.2313 71.464C58.1246 71.3573 58.0713 71.208 58.0713 71.016V70.856C58.0713 70.664 58.1299 70.52 58.2473 70.424C58.3753 70.3173 58.5459 70.264 58.7593 70.264C58.9619 70.264 59.1166 70.3173 59.2233 70.424C59.3406 70.52 59.3993 70.664 59.3993 70.856V71.016C59.3993 71.208 59.3406 71.3573 59.2233 71.464C59.1166 71.56 58.9566 71.608 58.7433 71.608ZM61.2531 79.704C61.1678 79.576 61.1251 79.4533 61.1251 79.336C61.1358 79.208 61.2051 79.1067 61.3331 79.032C61.4185 78.9573 61.5145 78.9253 61.6211 78.936C61.7385 78.9467 61.8451 79 61.9411 79.096C62.2291 79.4693 62.5758 79.7733 62.9811 80.008C63.3971 80.232 63.8878 80.344 64.4531 80.344C64.7518 80.344 65.0451 80.296 65.3331 80.2C65.6318 80.0933 65.8771 79.9387 66.0691 79.736C66.2611 79.5227 66.3571 79.256 66.3571 78.936C66.3571 78.6053 66.2611 78.3387 66.0691 78.136C65.8771 77.9333 65.6265 77.7733 65.3171 77.656C65.0185 77.5387 64.6985 77.4373 64.3571 77.352C63.9945 77.256 63.6425 77.1493 63.3011 77.032C62.9598 76.904 62.6558 76.7493 62.3891 76.568C62.1331 76.376 61.9251 76.1467 61.7651 75.88C61.6051 75.6133 61.5251 75.288 61.5251 74.904C61.5251 74.456 61.6478 74.0613 61.8931 73.72C62.1385 73.3787 62.4691 73.112 62.8851 72.92C63.3118 72.728 63.7918 72.632 64.3251 72.632C64.5918 72.632 64.8798 72.6693 65.1891 72.744C65.4985 72.808 65.8025 72.92 66.1011 73.08C66.3998 73.24 66.6665 73.4587 66.9011 73.736C66.9971 73.832 67.0451 73.944 67.0451 74.072C67.0451 74.1893 66.9918 74.296 66.8851 74.392C66.7998 74.456 66.6985 74.488 66.5811 74.488C66.4745 74.488 66.3838 74.4453 66.3091 74.36C66.0531 74.072 65.7491 73.8533 65.3971 73.704C65.0451 73.5547 64.6665 73.48 64.2611 73.48C63.9518 73.48 63.6585 73.5333 63.3811 73.64C63.1145 73.736 62.8905 73.8853 62.7091 74.088C62.5278 74.2907 62.4371 74.5573 62.4371 74.888C62.4585 75.1973 62.5651 75.448 62.7571 75.64C62.9598 75.832 63.2211 75.992 63.5411 76.12C63.8718 76.248 64.2398 76.3653 64.6451 76.472C64.9865 76.5573 65.3118 76.6587 65.6211 76.776C65.9411 76.8933 66.2185 77.0427 66.4531 77.224C66.6985 77.3947 66.8905 77.6133 67.0291 77.88C67.1785 78.1467 67.2531 78.4827 67.2531 78.888C67.2531 79.3573 67.1198 79.7627 66.8531 80.104C66.5971 80.4453 66.2505 80.7067 65.8131 80.888C65.3758 81.0693 64.8905 81.16 64.3571 81.16C63.7811 81.16 63.2211 81.048 62.6771 80.824C62.1438 80.6 61.6691 80.2267 61.2531 79.704ZM72.8171 72.632C73.3291 72.632 73.7985 72.6907 74.2251 72.808C74.6518 72.9147 74.9931 73.064 75.2491 73.256C75.5158 73.448 75.6491 73.656 75.6491 73.88C75.6491 73.9867 75.6118 74.0933 75.5371 74.2C75.4625 74.296 75.3611 74.344 75.2331 74.344C75.1051 74.344 74.9985 74.312 74.9131 74.248C74.8385 74.184 74.7585 74.1093 74.6731 74.024C74.5985 73.9387 74.4865 73.8587 74.3371 73.784C74.1985 73.72 74.0011 73.6613 73.7451 73.608C73.4891 73.5547 73.1958 73.528 72.8651 73.528C72.2678 73.528 71.7291 73.6773 71.2491 73.976C70.7691 74.2747 70.3905 74.68 70.1131 75.192C69.8358 75.6933 69.6971 76.2587 69.6971 76.888C69.6971 77.528 69.8305 78.104 70.0971 78.616C70.3638 79.128 70.7318 79.5333 71.2011 79.832C71.6705 80.12 72.2198 80.264 72.8491 80.264C73.2758 80.264 73.6065 80.2267 73.8411 80.152C74.0758 80.0773 74.2785 79.992 74.4491 79.896C74.6518 79.7787 74.7958 79.6667 74.8811 79.56C74.9771 79.4427 75.0998 79.384 75.2491 79.384C75.3878 79.384 75.4891 79.4267 75.5531 79.512C75.6278 79.5867 75.6651 79.688 75.6651 79.816C75.6651 79.9867 75.5371 80.1787 75.2811 80.392C75.0358 80.5947 74.6945 80.776 74.2571 80.936C73.8198 81.0853 73.3185 81.16 72.7531 81.16C71.9531 81.16 71.2491 80.9733 70.6411 80.6C70.0438 80.2267 69.5745 79.72 69.2331 79.08C68.9025 78.4293 68.7371 77.6987 68.7371 76.888C68.7371 76.1093 68.9078 75.4 69.2491 74.76C69.5905 74.12 70.0651 73.608 70.6731 73.224C71.2918 72.8293 72.0065 72.632 72.8171 72.632ZM85.1144 76.904C85.1144 77.7147 84.9384 78.4453 84.5864 79.096C84.2344 79.736 83.7544 80.2427 83.1464 80.616C82.5384 80.9787 81.845 81.16 81.0664 81.16C80.309 81.16 79.621 80.9787 79.0024 80.616C78.3944 80.2427 77.909 79.736 77.5464 79.096C77.1944 78.4453 77.0184 77.7147 77.0184 76.904C77.0184 76.0827 77.1944 75.352 77.5464 74.712C77.909 74.072 78.3944 73.5653 79.0024 73.192C79.621 72.8187 80.309 72.632 81.0664 72.632C81.845 72.632 82.5384 72.8187 83.1464 73.192C83.7544 73.5653 84.2344 74.072 84.5864 74.712C84.9384 75.352 85.1144 76.0827 85.1144 76.904ZM84.1544 76.904C84.1544 76.2533 84.021 75.6773 83.7544 75.176C83.4877 74.664 83.1197 74.264 82.6504 73.976C82.1917 73.6773 81.6637 73.528 81.0664 73.528C80.4904 73.528 79.9677 73.6773 79.4984 73.976C79.029 74.264 78.6557 74.664 78.3784 75.176C78.1117 75.6773 77.9784 76.2533 77.9784 76.904C77.9784 77.5547 78.1117 78.1307 78.3784 78.632C78.6557 79.1333 79.029 79.5333 79.4984 79.832C79.9677 80.12 80.4904 80.264 81.0664 80.264C81.6637 80.264 82.1917 80.12 82.6504 79.832C83.1197 79.5333 83.4877 79.1333 83.7544 78.632C84.021 78.1307 84.1544 77.5547 84.1544 76.904ZM86.8845 72.648C86.9698 72.648 87.0552 72.6747 87.1405 72.728C87.2258 72.7813 87.2898 72.8613 87.3325 72.968L90.1325 79.624L89.9245 79.752L92.7885 72.968C92.8738 72.7547 93.0285 72.6533 93.2525 72.664C93.3592 72.664 93.4605 72.7013 93.5565 72.776C93.6525 72.84 93.7005 72.936 93.7005 73.064C93.7005 73.128 93.6898 73.1813 93.6685 73.224C93.6578 73.256 93.6472 73.2933 93.6365 73.336L90.5005 80.696C90.4152 80.888 90.2712 80.9893 90.0685 81C89.9725 81.0107 89.8765 80.9893 89.7805 80.936C89.6952 80.872 89.6312 80.792 89.5885 80.696L86.4365 73.336C86.4258 73.3147 86.4152 73.2827 86.4045 73.24C86.3938 73.1973 86.3885 73.1547 86.3885 73.112C86.3885 72.9947 86.4312 72.888 86.5165 72.792C86.6018 72.696 86.7245 72.648 86.8845 72.648ZM99.1631 81.16C98.3418 81.16 97.6165 80.984 96.9871 80.632C96.3578 80.28 95.8671 79.7893 95.5151 79.16C95.1631 78.5307 94.9871 77.7947 94.9871 76.952C94.9871 76.0453 95.1631 75.272 95.5151 74.632C95.8778 73.992 96.3418 73.5013 96.9071 73.16C97.4831 72.808 98.0911 72.632 98.7311 72.632C99.2005 72.632 99.6538 72.7173 100.091 72.888C100.539 73.048 100.934 73.2933 101.275 73.624C101.627 73.944 101.904 74.3387 102.107 74.808C102.32 75.2773 102.438 75.8213 102.459 76.44C102.448 76.568 102.395 76.68 102.299 76.776C102.203 76.8613 102.091 76.904 101.963 76.904H95.5471L95.3551 76.04H101.659L101.451 76.232V75.912C101.408 75.4107 101.248 74.984 100.971 74.632C100.694 74.28 100.358 74.0133 99.9631 73.832C99.5685 73.6507 99.1578 73.56 98.7311 73.56C98.4111 73.56 98.0805 73.624 97.7391 73.752C97.4085 73.88 97.1045 74.0827 96.8271 74.36C96.5605 74.6267 96.3418 74.9733 96.1711 75.4C96.0005 75.816 95.9151 76.312 95.9151 76.888C95.9151 77.5173 96.0431 78.088 96.2991 78.6C96.5551 79.112 96.9231 79.5173 97.4031 79.816C97.8938 80.1147 98.4751 80.264 99.1471 80.264C99.5205 80.264 99.8565 80.2107 100.155 80.104C100.454 79.9973 100.715 79.8587 100.939 79.688C101.163 79.5067 101.35 79.32 101.499 79.128C101.616 79.032 101.734 78.984 101.851 78.984C101.958 78.984 102.048 79.0267 102.123 79.112C102.208 79.1973 102.251 79.2933 102.251 79.4C102.251 79.528 102.198 79.64 102.091 79.736C101.771 80.12 101.355 80.456 100.843 80.744C100.331 81.0213 99.7711 81.16 99.1631 81.16ZM104.994 81C104.845 81 104.727 80.952 104.642 80.856C104.557 80.76 104.514 80.648 104.514 80.52V73.352C104.514 73.224 104.557 73.112 104.642 73.016C104.738 72.92 104.855 72.872 104.994 72.872C105.133 72.872 105.245 72.92 105.33 73.016C105.426 73.112 105.474 73.224 105.474 73.352V75.752L105.234 75.8C105.266 75.4267 105.357 75.0587 105.506 74.696C105.666 74.3227 105.879 73.9813 106.146 73.672C106.413 73.3627 106.727 73.112 107.09 72.92C107.463 72.728 107.879 72.632 108.338 72.632C108.53 72.632 108.717 72.6747 108.898 72.76C109.079 72.8347 109.17 72.9627 109.17 73.144C109.17 73.304 109.127 73.4267 109.042 73.512C108.957 73.5973 108.855 73.64 108.738 73.64C108.642 73.64 108.535 73.6133 108.418 73.56C108.311 73.5067 108.167 73.48 107.986 73.48C107.687 73.48 107.389 73.5707 107.09 73.752C106.791 73.9227 106.519 74.1573 106.274 74.456C106.029 74.7547 105.831 75.0907 105.682 75.464C105.543 75.8267 105.474 76.1947 105.474 76.568V80.52C105.474 80.648 105.426 80.76 105.33 80.856C105.234 80.952 105.122 81 104.994 81ZM117.187 72.824C117.325 72.824 117.437 72.872 117.523 72.968C117.619 73.064 117.667 73.1813 117.667 73.32V80.52C117.667 80.648 117.619 80.76 117.523 80.856C117.427 80.952 117.315 81 117.187 81C117.048 81 116.931 80.952 116.835 80.856C116.749 80.76 116.707 80.648 116.707 80.52V78.616L116.979 78.488C116.979 78.7867 116.893 79.0907 116.723 79.4C116.563 79.7093 116.339 79.9973 116.051 80.264C115.763 80.5307 115.421 80.7493 115.027 80.92C114.643 81.08 114.227 81.16 113.779 81.16C113.053 81.16 112.403 80.9733 111.827 80.6C111.261 80.2267 110.813 79.7147 110.483 79.064C110.163 78.4133 110.003 77.6827 110.003 76.872C110.003 76.04 110.168 75.3093 110.499 74.68C110.829 74.04 111.277 73.5387 111.843 73.176C112.408 72.8133 113.048 72.632 113.763 72.632C114.221 72.632 114.648 72.712 115.043 72.872C115.448 73.032 115.8 73.2507 116.099 73.528C116.397 73.8053 116.627 74.1253 116.787 74.488C116.957 74.84 117.043 75.208 117.043 75.592L116.707 75.352V73.32C116.707 73.1813 116.749 73.064 116.835 72.968C116.931 72.872 117.048 72.824 117.187 72.824ZM113.859 80.264C114.424 80.264 114.925 80.12 115.363 79.832C115.8 79.5333 116.141 79.128 116.387 78.616C116.643 78.0933 116.771 77.512 116.771 76.872C116.771 76.2427 116.643 75.6773 116.387 75.176C116.141 74.6747 115.8 74.2747 115.363 73.976C114.925 73.6773 114.424 73.528 113.859 73.528C113.304 73.528 112.803 73.672 112.355 73.96C111.917 74.248 111.571 74.6427 111.315 75.144C111.069 75.6453 110.947 76.2213 110.947 76.872C110.947 77.512 111.069 78.0933 111.315 78.616C111.571 79.128 111.917 79.5333 112.355 79.832C112.792 80.12 113.293 80.264 113.859 80.264ZM124.074 72.632C124.799 72.632 125.439 72.8133 125.994 73.176C126.559 73.5387 127.007 74.04 127.338 74.68C127.669 75.3093 127.834 76.04 127.834 76.872C127.834 77.6827 127.669 78.4133 127.338 79.064C127.007 79.7147 126.559 80.2267 125.994 80.6C125.429 80.9733 124.794 81.16 124.09 81.16C123.717 81.16 123.359 81.1013 123.018 80.984C122.687 80.8667 122.383 80.712 122.106 80.52C121.829 80.3173 121.583 80.0827 121.37 79.816C121.157 79.5493 120.986 79.2613 120.858 78.952L121.146 78.744V80.552C121.146 80.6907 121.098 80.808 121.002 80.904C120.917 80.9893 120.805 81.032 120.666 81.032C120.527 81.032 120.41 80.9893 120.314 80.904C120.229 80.808 120.186 80.6907 120.186 80.552V69.656C120.186 69.5173 120.229 69.4053 120.314 69.32C120.399 69.224 120.517 69.176 120.666 69.176C120.805 69.176 120.917 69.224 121.002 69.32C121.098 69.4053 121.146 69.5173 121.146 69.656V75.016L120.922 74.888C121.029 74.5573 121.183 74.2587 121.386 73.992C121.599 73.7147 121.845 73.4747 122.122 73.272C122.399 73.0693 122.703 72.9147 123.034 72.808C123.365 72.6907 123.711 72.632 124.074 72.632ZM123.994 73.528C123.418 73.528 122.911 73.672 122.474 73.96C122.037 74.248 121.69 74.6427 121.434 75.144C121.189 75.6453 121.066 76.2213 121.066 76.872C121.066 77.512 121.189 78.0933 121.434 78.616C121.69 79.128 122.037 79.5333 122.474 79.832C122.911 80.12 123.418 80.264 123.994 80.264C124.559 80.264 125.055 80.1147 125.482 79.816C125.919 79.5173 126.266 79.112 126.522 78.6C126.778 78.0773 126.906 77.5013 126.906 76.872C126.906 76.2213 126.778 75.6453 126.522 75.144C126.266 74.6427 125.919 74.248 125.482 73.96C125.055 73.672 124.559 73.528 123.994 73.528ZM130.817 80.52C130.817 80.648 130.769 80.76 130.673 80.856C130.577 80.952 130.465 81 130.337 81C130.198 81 130.081 80.952 129.985 80.856C129.9 80.76 129.857 80.648 129.857 80.52V73.16C129.857 73.032 129.9 72.92 129.985 72.824C130.081 72.728 130.198 72.68 130.337 72.68C130.476 72.68 130.588 72.728 130.673 72.824C130.769 72.92 130.817 73.032 130.817 73.16V80.52ZM130.337 71.608C130.113 71.608 129.942 71.56 129.825 71.464C129.718 71.3573 129.665 71.208 129.665 71.016V70.856C129.665 70.664 129.724 70.52 129.841 70.424C129.969 70.3173 130.14 70.264 130.353 70.264C130.556 70.264 130.71 70.3173 130.817 70.424C130.934 70.52 130.993 70.664 130.993 70.856V71.016C130.993 71.208 130.934 71.3573 130.817 71.464C130.71 71.56 130.55 71.608 130.337 71.608ZM134.367 80.52C134.367 80.648 134.319 80.76 134.223 80.856C134.127 80.952 134.015 81 133.887 81C133.748 81 133.631 80.952 133.535 80.856C133.45 80.76 133.407 80.648 133.407 80.52V69.64C133.407 69.512 133.455 69.4 133.551 69.304C133.647 69.208 133.759 69.16 133.887 69.16C134.026 69.16 134.138 69.208 134.223 69.304C134.319 69.4 134.367 69.512 134.367 69.64V80.52ZM137.926 80.52C137.926 80.648 137.878 80.76 137.782 80.856C137.686 80.952 137.574 81 137.446 81C137.308 81 137.19 80.952 137.094 80.856C137.009 80.76 136.966 80.648 136.966 80.52V73.16C136.966 73.032 137.009 72.92 137.094 72.824C137.19 72.728 137.308 72.68 137.446 72.68C137.585 72.68 137.697 72.728 137.782 72.824C137.878 72.92 137.926 73.032 137.926 73.16V80.52ZM137.446 71.608C137.222 71.608 137.052 71.56 136.934 71.464C136.828 71.3573 136.774 71.208 136.774 71.016V70.856C136.774 70.664 136.833 70.52 136.95 70.424C137.078 70.3173 137.249 70.264 137.462 70.264C137.665 70.264 137.82 70.3173 137.926 70.424C138.044 70.52 138.102 70.664 138.102 70.856V71.016C138.102 71.208 138.044 71.3573 137.926 71.464C137.82 71.56 137.66 71.608 137.446 71.608ZM139.892 72.856H143.62C143.748 72.856 143.855 72.904 143.94 73C144.026 73.0853 144.068 73.192 144.068 73.32C144.068 73.4373 144.026 73.5387 143.94 73.624C143.855 73.7093 143.748 73.752 143.62 73.752H139.892C139.764 73.752 139.652 73.7093 139.556 73.624C139.471 73.528 139.428 73.4213 139.428 73.304C139.428 73.176 139.471 73.0693 139.556 72.984C139.652 72.8987 139.764 72.856 139.892 72.856ZM141.54 70.6C141.679 70.6 141.791 70.648 141.876 70.744C141.972 70.84 142.02 70.952 142.02 71.08V79.112C142.02 79.4107 142.058 79.6347 142.132 79.784C142.218 79.9333 142.324 80.0347 142.452 80.088C142.58 80.1307 142.708 80.152 142.836 80.152C142.922 80.152 142.996 80.1413 143.06 80.12C143.135 80.088 143.215 80.072 143.3 80.072C143.396 80.072 143.476 80.1093 143.54 80.184C143.615 80.2587 143.652 80.3547 143.652 80.472C143.652 80.6213 143.567 80.7493 143.396 80.856C143.226 80.952 143.023 81 142.788 81C142.692 81 142.548 80.9947 142.356 80.984C142.164 80.9627 141.967 80.904 141.764 80.808C141.562 80.7013 141.391 80.52 141.252 80.264C141.124 80.008 141.06 79.64 141.06 79.16V71.08C141.06 70.952 141.103 70.84 141.188 70.744C141.284 70.648 141.402 70.6 141.54 70.6ZM151.938 72.68C152.077 72.68 152.189 72.728 152.274 72.824C152.37 72.92 152.418 73.032 152.418 73.16V80.216C152.418 81.08 152.247 81.8053 151.906 82.392C151.565 82.9893 151.106 83.4373 150.53 83.736C149.954 84.0453 149.298 84.2 148.562 84.2C148.103 84.2 147.677 84.1467 147.282 84.04C146.898 83.944 146.583 83.816 146.338 83.656C146.21 83.5813 146.114 83.4907 146.05 83.384C145.986 83.2773 145.981 83.1653 146.034 83.048C146.087 82.8987 146.167 82.7973 146.274 82.744C146.391 82.7013 146.509 82.7067 146.626 82.76C146.807 82.856 147.069 82.9733 147.41 83.112C147.751 83.2507 148.141 83.32 148.578 83.32C149.165 83.32 149.671 83.1973 150.098 82.952C150.535 82.7067 150.871 82.3493 151.106 81.88C151.341 81.4213 151.458 80.872 151.458 80.232V79.08L151.57 79.464C151.41 79.7947 151.181 80.088 150.882 80.344C150.594 80.6 150.258 80.8027 149.874 80.952C149.501 81.0907 149.101 81.16 148.674 81.16C148.034 81.16 147.501 81.032 147.074 80.776C146.658 80.5093 146.349 80.1467 146.146 79.688C145.943 79.2293 145.842 78.6907 145.842 78.072V73.16C145.842 73.032 145.885 72.92 145.97 72.824C146.055 72.728 146.173 72.68 146.322 72.68C146.461 72.68 146.573 72.728 146.658 72.824C146.754 72.92 146.802 73.032 146.802 73.16V77.928C146.802 78.6747 146.962 79.2507 147.282 79.656C147.613 80.0613 148.146 80.264 148.882 80.264C149.341 80.264 149.762 80.1573 150.146 79.944C150.53 79.72 150.845 79.432 151.09 79.08C151.335 78.7173 151.458 78.3333 151.458 77.928V73.16C151.458 73.032 151.501 72.92 151.586 72.824C151.682 72.728 151.799 72.68 151.938 72.68Z" fill="#D658D6"/>
<defs>
<filter id="filter0_d_449_14" x="0" y="0" width="201" height="118" filterUnits="userSpaceOnUse" color-interpolation-filters="sRGB">
<feFlood flood-opacity="0" result="BackgroundImageFix"/>
<feColorMatrix in="SourceAlpha" type="matrix" values="0 0 0 0 0 0 0 0 0 0 0 0 0 0 0 0 0 0 127 0" result="hardAlpha"/>
<feMorphology radius="7" operator="erode" in="SourceAlpha" result="effect1_dropShadow_449_14"/>
<feOffset dy="4"/>
<feGaussianBlur stdDeviation="12"/>
<feComposite in2="hardAlpha" operator="out"/>
<feColorMatrix type="matrix" values="0 0 0 0 0 0 0 0 0 0 0 0 0 0 0 0 0 0 0.25 0"/>
<feBlend mode="normal" in2="BackgroundImageFix" result="effect1_dropShadow_449_14"/>
<feBlend mode="normal" in="SourceGraphic" in2="effect1_dropShadow_449_14" result="shape"/>
</filter>
</defs>
</svg>
