<svg width="201" height="118" viewBox="0 0 201 118" fill="none" xmlns="http://www.w3.org/2000/svg">
<g filter="url(#filter0_d_449_23)">
<rect x="17" y="13" width="167" height="84" rx="19" fill="#F6FDFE"/>
</g>
<path d="M28.5325 32.2C29.0552 32.2 29.5172 32.3213 29.9185 32.564C30.3198 32.7973 30.6372 33.124 30.8705 33.544C31.1038 33.964 31.2205 34.4447 31.2205 34.986C31.2205 35.5273 31.1038 36.0173 30.8705 36.456C30.6372 36.8853 30.3198 37.226 29.9185 37.478C29.5172 37.73 29.0552 37.856 28.5325 37.856H25.5645L25.6345 37.716V41.58C25.6345 41.692 25.5925 41.79 25.5085 41.874C25.4245 41.958 25.3265 42 25.2145 42C25.0838 42 24.9812 41.958 24.9065 41.874C24.8318 41.79 24.7945 41.692 24.7945 41.58V32.62C24.7945 32.508 24.8365 32.41 24.9205 32.326C25.0045 32.242 25.1025 32.2 25.2145 32.2H28.5325ZM28.5325 37.044C28.8965 37.044 29.2138 36.9553 29.4845 36.778C29.7552 36.5913 29.9652 36.344 30.1145 36.036C30.2732 35.7187 30.3525 35.3687 30.3525 34.986C30.3525 34.6033 30.2732 34.2673 30.1145 33.978C29.9652 33.6793 29.7552 33.446 29.4845 33.278C29.2138 33.11 28.8965 33.026 28.5325 33.026H25.5645L25.6345 32.9V37.128L25.5505 37.044H28.5325ZM33.3444 42C33.2137 42 33.111 41.958 33.0364 41.874C32.9617 41.79 32.9244 41.692 32.9244 41.58V35.308C32.9244 35.196 32.9617 35.098 33.0364 35.014C33.1204 34.93 33.223 34.888 33.3444 34.888C33.4657 34.888 33.5637 34.93 33.6384 35.014C33.7224 35.098 33.7644 35.196 33.7644 35.308V37.408L33.5544 37.45C33.5824 37.1233 33.6617 36.8013 33.7924 36.484C33.9324 36.1573 34.119 35.8587 34.3524 35.588C34.5857 35.3173 34.861 35.098 35.1784 34.93C35.505 34.762 35.869 34.678 36.2704 34.678C36.4384 34.678 36.6017 34.7153 36.7604 34.79C36.919 34.8553 36.9984 34.9673 36.9984 35.126C36.9984 35.266 36.961 35.3733 36.8864 35.448C36.8117 35.5227 36.723 35.56 36.6204 35.56C36.5364 35.56 36.443 35.5367 36.3404 35.49C36.247 35.4433 36.121 35.42 35.9624 35.42C35.701 35.42 35.4397 35.4993 35.1784 35.658C34.917 35.8073 34.679 36.0127 34.4644 36.274C34.2497 36.5353 34.077 36.8293 33.9464 37.156C33.825 37.4733 33.7644 37.7953 33.7644 38.122V41.58C33.7644 41.692 33.7224 41.79 33.6384 41.874C33.5544 41.958 33.4564 42 33.3444 42ZM39.1231 41.58C39.1231 41.692 39.0811 41.79 38.9971 41.874C38.9131 41.958 38.8151 42 38.7031 42C38.5817 42 38.4791 41.958 38.3951 41.874C38.3204 41.79 38.2831 41.692 38.2831 41.58V35.14C38.2831 35.028 38.3204 34.93 38.3951 34.846C38.4791 34.762 38.5817 34.72 38.7031 34.72C38.8244 34.72 38.9224 34.762 38.9971 34.846C39.0811 34.93 39.1231 35.028 39.1231 35.14V41.58ZM38.7031 33.782C38.5071 33.782 38.3577 33.74 38.2551 33.656C38.1617 33.5627 38.1151 33.432 38.1151 33.264V33.124C38.1151 32.956 38.1664 32.83 38.2691 32.746C38.3811 32.6527 38.5304 32.606 38.7171 32.606C38.8944 32.606 39.0297 32.6527 39.1231 32.746C39.2257 32.83 39.2771 32.956 39.2771 33.124V33.264C39.2771 33.432 39.2257 33.5627 39.1231 33.656C39.0297 33.74 38.8897 33.782 38.7031 33.782ZM47.9692 38.416C47.9692 39.1253 47.8152 39.7647 47.5072 40.334C47.1992 40.894 46.7792 41.3373 46.2472 41.664C45.7152 41.9813 45.1086 42.14 44.4272 42.14C43.7646 42.14 43.1626 41.9813 42.6212 41.664C42.0892 41.3373 41.6646 40.894 41.3472 40.334C41.0392 39.7647 40.8852 39.1253 40.8852 38.416C40.8852 37.6973 41.0392 37.058 41.3472 36.498C41.6646 35.938 42.0892 35.4947 42.6212 35.168C43.1626 34.8413 43.7646 34.678 44.4272 34.678C45.1086 34.678 45.7152 34.8413 46.2472 35.168C46.7792 35.4947 47.1992 35.938 47.5072 36.498C47.8152 37.058 47.9692 37.6973 47.9692 38.416ZM47.1292 38.416C47.1292 37.8467 47.0126 37.3427 46.7792 36.904C46.5459 36.456 46.2239 36.106 45.8132 35.854C45.4119 35.5927 44.9499 35.462 44.4272 35.462C43.9232 35.462 43.4659 35.5927 43.0552 35.854C42.6446 36.106 42.3179 36.456 42.0752 36.904C41.8419 37.3427 41.7252 37.8467 41.7252 38.416C41.7252 38.9853 41.8419 39.4893 42.0752 39.928C42.3179 40.3667 42.6446 40.7167 43.0552 40.978C43.4659 41.23 43.9232 41.356 44.4272 41.356C44.9499 41.356 45.4119 41.23 45.8132 40.978C46.2239 40.7167 46.5459 40.3667 46.7792 39.928C47.0126 39.4893 47.1292 38.9853 47.1292 38.416ZM50.1744 42C50.0438 42 49.9411 41.958 49.8664 41.874C49.7918 41.79 49.7544 41.692 49.7544 41.58V35.308C49.7544 35.196 49.7918 35.098 49.8664 35.014C49.9504 34.93 50.0531 34.888 50.1744 34.888C50.2958 34.888 50.3938 34.93 50.4684 35.014C50.5524 35.098 50.5944 35.196 50.5944 35.308V37.408L50.3844 37.45C50.4124 37.1233 50.4918 36.8013 50.6224 36.484C50.7624 36.1573 50.9491 35.8587 51.1824 35.588C51.4158 35.3173 51.6911 35.098 52.0084 34.93C52.3351 34.762 52.6991 34.678 53.1004 34.678C53.2684 34.678 53.4318 34.7153 53.5904 34.79C53.7491 34.8553 53.8284 34.9673 53.8284 35.126C53.8284 35.266 53.7911 35.3733 53.7164 35.448C53.6418 35.5227 53.5531 35.56 53.4504 35.56C53.3664 35.56 53.2731 35.5367 53.1704 35.49C53.0771 35.4433 52.9511 35.42 52.7924 35.42C52.5311 35.42 52.2698 35.4993 52.0084 35.658C51.7471 35.8073 51.5091 36.0127 51.2944 36.274C51.0798 36.5353 50.9071 36.8293 50.7764 37.156C50.6551 37.4733 50.5944 37.7953 50.5944 38.122V41.58C50.5944 41.692 50.5524 41.79 50.4684 41.874C50.3844 41.958 50.2864 42 50.1744 42ZM55.9532 41.58C55.9532 41.692 55.9112 41.79 55.8272 41.874C55.7432 41.958 55.6452 42 55.5332 42C55.4118 42 55.3092 41.958 55.2252 41.874C55.1505 41.79 55.1132 41.692 55.1132 41.58V35.14C55.1132 35.028 55.1505 34.93 55.2252 34.846C55.3092 34.762 55.4118 34.72 55.5332 34.72C55.6545 34.72 55.7525 34.762 55.8272 34.846C55.9112 34.93 55.9532 35.028 55.9532 35.14V41.58ZM55.5332 33.782C55.3372 33.782 55.1878 33.74 55.0852 33.656C54.9918 33.5627 54.9452 33.432 54.9452 33.264V33.124C54.9452 32.956 54.9965 32.83 55.0992 32.746C55.2112 32.6527 55.3605 32.606 55.5472 32.606C55.7245 32.606 55.8598 32.6527 55.9532 32.746C56.0558 32.83 56.1072 32.956 56.1072 33.124V33.264C56.1072 33.432 56.0558 33.5627 55.9532 33.656C55.8598 33.74 55.7198 33.782 55.5332 33.782ZM57.6733 34.874H60.9353C61.0473 34.874 61.1406 34.916 61.2153 35C61.29 35.0747 61.3273 35.168 61.3273 35.28C61.3273 35.3827 61.29 35.4713 61.2153 35.546C61.1406 35.6207 61.0473 35.658 60.9353 35.658H57.6733C57.5613 35.658 57.4633 35.6207 57.3793 35.546C57.3046 35.462 57.2673 35.3687 57.2673 35.266C57.2673 35.154 57.3046 35.0607 57.3793 34.986C57.4633 34.9113 57.5613 34.874 57.6733 34.874ZM59.1153 32.9C59.2366 32.9 59.3346 32.942 59.4093 33.026C59.4933 33.11 59.5353 33.208 59.5353 33.32V40.348C59.5353 40.6093 59.568 40.8053 59.6333 40.936C59.708 41.0667 59.8013 41.1553 59.9133 41.202C60.0253 41.2393 60.1373 41.258 60.2493 41.258C60.324 41.258 60.3893 41.2487 60.4453 41.23C60.5106 41.202 60.5806 41.188 60.6553 41.188C60.7393 41.188 60.8093 41.2207 60.8653 41.286C60.9306 41.3513 60.9633 41.4353 60.9633 41.538C60.9633 41.6687 60.8886 41.7807 60.7393 41.874C60.59 41.958 60.4126 42 60.2073 42C60.1233 42 59.9973 41.9953 59.8293 41.986C59.6613 41.9673 59.4886 41.916 59.3113 41.832C59.134 41.7387 58.9846 41.58 58.8633 41.356C58.7513 41.132 58.6953 40.81 58.6953 40.39V33.32C58.6953 33.208 58.7326 33.11 58.8073 33.026C58.8913 32.942 58.994 32.9 59.1153 32.9ZM63.6914 41.58C63.6914 41.692 63.6494 41.79 63.5654 41.874C63.4814 41.958 63.3834 42 63.2714 42C63.1501 42 63.0474 41.958 62.9634 41.874C62.8888 41.79 62.8514 41.692 62.8514 41.58V35.14C62.8514 35.028 62.8888 34.93 62.9634 34.846C63.0474 34.762 63.1501 34.72 63.2714 34.72C63.3928 34.72 63.4908 34.762 63.5654 34.846C63.6494 34.93 63.6914 35.028 63.6914 35.14V41.58ZM63.2714 33.782C63.0754 33.782 62.9261 33.74 62.8234 33.656C62.7301 33.5627 62.6834 33.432 62.6834 33.264V33.124C62.6834 32.956 62.7348 32.83 62.8374 32.746C62.9494 32.6527 63.0988 32.606 63.2854 32.606C63.4628 32.606 63.5981 32.6527 63.6914 32.746C63.7941 32.83 63.8454 32.956 63.8454 33.124V33.264C63.8454 33.432 63.7941 33.5627 63.6914 33.656C63.5981 33.74 63.4581 33.782 63.2714 33.782ZM70.3536 41.216C70.4656 41.216 70.5589 41.258 70.6336 41.342C70.7176 41.4167 70.7596 41.5053 70.7596 41.608C70.7596 41.72 70.7176 41.8133 70.6336 41.888C70.5589 41.9627 70.4656 42 70.3536 42H65.8036C65.6822 42 65.5842 41.9533 65.5096 41.86C65.4349 41.7667 65.3976 41.678 65.3976 41.594C65.3976 41.538 65.4069 41.4867 65.4256 41.44C65.4442 41.384 65.4769 41.328 65.5236 41.272L69.7656 35.406L69.8216 35.532H66.1536C66.0416 35.532 65.9436 35.4947 65.8596 35.42C65.7849 35.336 65.7476 35.2427 65.7476 35.14C65.7476 35.028 65.7849 34.9347 65.8596 34.86C65.9436 34.7853 66.0416 34.748 66.1536 34.748H70.4516C70.5542 34.748 70.6429 34.79 70.7176 34.874C70.8016 34.958 70.8436 35.056 70.8436 35.168C70.8436 35.224 70.8342 35.2753 70.8156 35.322C70.7969 35.3687 70.7689 35.42 70.7316 35.476L66.5176 41.286L66.3496 41.216H70.3536ZM78.4388 34.846C78.5601 34.846 78.6581 34.888 78.7328 34.972C78.8168 35.056 78.8588 35.1587 78.8588 35.28V41.58C78.8588 41.692 78.8168 41.79 78.7328 41.874C78.6488 41.958 78.5508 42 78.4388 42C78.3175 42 78.2148 41.958 78.1308 41.874C78.0561 41.79 78.0188 41.692 78.0188 41.58V39.914L78.2568 39.802C78.2568 40.0633 78.1821 40.3293 78.0328 40.6C77.8928 40.8707 77.6968 41.1227 77.4448 41.356C77.1928 41.5893 76.8941 41.7807 76.5488 41.93C76.2128 42.07 75.8488 42.14 75.4568 42.14C74.8221 42.14 74.2528 41.9767 73.7488 41.65C73.2541 41.3233 72.8621 40.8753 72.5728 40.306C72.2928 39.7367 72.1528 39.0973 72.1528 38.388C72.1528 37.66 72.2975 37.0207 72.5868 36.47C72.8761 35.91 73.2681 35.4713 73.7628 35.154C74.2575 34.8367 74.8175 34.678 75.4428 34.678C75.8441 34.678 76.2175 34.748 76.5628 34.888C76.9175 35.028 77.2255 35.2193 77.4868 35.462C77.7481 35.7047 77.9488 35.9847 78.0888 36.302C78.2381 36.61 78.3128 36.932 78.3128 37.268L78.0188 37.058V35.28C78.0188 35.1587 78.0561 35.056 78.1308 34.972C78.2148 34.888 78.3175 34.846 78.4388 34.846ZM75.5268 41.356C76.0215 41.356 76.4601 41.23 76.8428 40.978C77.2255 40.7167 77.5241 40.362 77.7388 39.914C77.9628 39.4567 78.0748 38.948 78.0748 38.388C78.0748 37.8373 77.9628 37.3427 77.7388 36.904C77.5241 36.4653 77.2255 36.1153 76.8428 35.854C76.4601 35.5927 76.0215 35.462 75.5268 35.462C75.0415 35.462 74.6028 35.588 74.2108 35.84C73.8281 36.092 73.5248 36.4373 73.3008 36.876C73.0861 37.3147 72.9788 37.8187 72.9788 38.388C72.9788 38.948 73.0861 39.4567 73.3008 39.914C73.5248 40.362 73.8281 40.7167 74.2108 40.978C74.5935 41.23 75.0321 41.356 75.5268 41.356ZM80.601 34.874H83.863C83.975 34.874 84.0684 34.916 84.143 35C84.2177 35.0747 84.255 35.168 84.255 35.28C84.255 35.3827 84.2177 35.4713 84.143 35.546C84.0684 35.6207 83.975 35.658 83.863 35.658H80.601C80.489 35.658 80.391 35.6207 80.307 35.546C80.2324 35.462 80.195 35.3687 80.195 35.266C80.195 35.154 80.2324 35.0607 80.307 34.986C80.391 34.9113 80.489 34.874 80.601 34.874ZM82.043 32.9C82.1644 32.9 82.2624 32.942 82.337 33.026C82.421 33.11 82.463 33.208 82.463 33.32V40.348C82.463 40.6093 82.4957 40.8053 82.561 40.936C82.6357 41.0667 82.729 41.1553 82.841 41.202C82.953 41.2393 83.065 41.258 83.177 41.258C83.2517 41.258 83.317 41.2487 83.373 41.23C83.4384 41.202 83.5084 41.188 83.583 41.188C83.667 41.188 83.737 41.2207 83.793 41.286C83.8584 41.3513 83.891 41.4353 83.891 41.538C83.891 41.6687 83.8164 41.7807 83.667 41.874C83.5177 41.958 83.3404 42 83.135 42C83.051 42 82.925 41.9953 82.757 41.986C82.589 41.9673 82.4164 41.916 82.239 41.832C82.0617 41.7387 81.9124 41.58 81.791 41.356C81.679 41.132 81.623 40.81 81.623 40.39V33.32C81.623 33.208 81.6604 33.11 81.735 33.026C81.819 32.942 81.9217 32.9 82.043 32.9ZM86.6192 41.58C86.6192 41.692 86.5772 41.79 86.4932 41.874C86.4092 41.958 86.3112 42 86.1992 42C86.0778 42 85.9752 41.958 85.8912 41.874C85.8165 41.79 85.7792 41.692 85.7792 41.58V35.14C85.7792 35.028 85.8165 34.93 85.8912 34.846C85.9752 34.762 86.0778 34.72 86.1992 34.72C86.3205 34.72 86.4185 34.762 86.4932 34.846C86.5772 34.93 86.6192 35.028 86.6192 35.14V41.58ZM86.1992 33.782C86.0032 33.782 85.8538 33.74 85.7512 33.656C85.6578 33.5627 85.6112 33.432 85.6112 33.264V33.124C85.6112 32.956 85.6625 32.83 85.7652 32.746C85.8772 32.6527 86.0265 32.606 86.2132 32.606C86.3905 32.606 86.5258 32.6527 86.6192 32.746C86.7218 32.83 86.7732 32.956 86.7732 33.124V33.264C86.7732 33.432 86.7218 33.5627 86.6192 33.656C86.5258 33.74 86.3858 33.782 86.1992 33.782ZM95.4653 38.416C95.4653 39.1253 95.3113 39.7647 95.0033 40.334C94.6953 40.894 94.2753 41.3373 93.7433 41.664C93.2113 41.9813 92.6046 42.14 91.9233 42.14C91.2606 42.14 90.6586 41.9813 90.1173 41.664C89.5853 41.3373 89.1606 40.894 88.8433 40.334C88.5353 39.7647 88.3813 39.1253 88.3813 38.416C88.3813 37.6973 88.5353 37.058 88.8433 36.498C89.1606 35.938 89.5853 35.4947 90.1173 35.168C90.6586 34.8413 91.2606 34.678 91.9233 34.678C92.6046 34.678 93.2113 34.8413 93.7433 35.168C94.2753 35.4947 94.6953 35.938 95.0033 36.498C95.3113 37.058 95.4653 37.6973 95.4653 38.416ZM94.6253 38.416C94.6253 37.8467 94.5086 37.3427 94.2753 36.904C94.042 36.456 93.72 36.106 93.3093 35.854C92.908 35.5927 92.446 35.462 91.9233 35.462C91.4193 35.462 90.962 35.5927 90.5513 35.854C90.1406 36.106 89.814 36.456 89.5713 36.904C89.338 37.3427 89.2213 37.8467 89.2213 38.416C89.2213 38.9853 89.338 39.4893 89.5713 39.928C89.814 40.3667 90.1406 40.7167 90.5513 40.978C90.962 41.23 91.4193 41.356 91.9233 41.356C92.446 41.356 92.908 41.23 93.3093 40.978C93.72 40.7167 94.042 40.3667 94.2753 39.928C94.5086 39.4893 94.6253 38.9853 94.6253 38.416ZM100.625 34.678C101.241 34.678 101.731 34.804 102.095 35.056C102.468 35.2987 102.734 35.6347 102.893 36.064C103.061 36.484 103.145 36.9507 103.145 37.464V41.58C103.145 41.692 103.103 41.79 103.019 41.874C102.935 41.958 102.837 42 102.725 42C102.594 42 102.491 41.958 102.417 41.874C102.342 41.79 102.305 41.692 102.305 41.58V37.506C102.305 37.1327 102.244 36.792 102.123 36.484C102.001 36.176 101.801 35.9287 101.521 35.742C101.25 35.5553 100.891 35.462 100.443 35.462C100.041 35.462 99.6585 35.5553 99.2945 35.742C98.9399 35.9287 98.6505 36.176 98.4265 36.484C98.2025 36.792 98.0905 37.1327 98.0905 37.506V41.58C98.0905 41.692 98.0485 41.79 97.9645 41.874C97.8805 41.958 97.7825 42 97.6705 42C97.5399 42 97.4372 41.958 97.3625 41.874C97.2879 41.79 97.2505 41.692 97.2505 41.58V35.308C97.2505 35.196 97.2879 35.098 97.3625 35.014C97.4465 34.93 97.5492 34.888 97.6705 34.888C97.7919 34.888 97.8899 34.93 97.9645 35.014C98.0485 35.098 98.0905 35.196 98.0905 35.308V36.484L97.7685 36.988C97.7872 36.6893 97.8805 36.4047 98.0485 36.134C98.2259 35.854 98.4499 35.6067 98.7205 35.392C98.9912 35.168 99.2899 34.9953 99.6165 34.874C99.9525 34.7433 100.289 34.678 100.625 34.678ZM111.874 42.14C111.212 42.14 110.624 41.986 110.11 41.678C109.597 41.37 109.196 40.9733 108.906 40.488C108.626 40.0027 108.486 39.4893 108.486 38.948C108.486 38.5373 108.566 38.1407 108.724 37.758C108.892 37.3753 109.14 37.0347 109.466 36.736C109.802 36.428 110.227 36.1853 110.74 36.008L111.342 36.61C110.614 36.778 110.101 37.0673 109.802 37.478C109.504 37.8887 109.354 38.3413 109.354 38.836C109.354 39.256 109.452 39.6573 109.648 40.04C109.844 40.4133 110.138 40.7213 110.53 40.964C110.922 41.2067 111.403 41.328 111.972 41.328C112.579 41.328 113.097 41.23 113.526 41.034C113.965 40.8287 114.334 40.5627 114.632 40.236C114.931 39.9 115.169 39.5267 115.346 39.116C115.524 38.696 115.654 38.2713 115.738 37.842C115.757 37.7487 115.794 37.6787 115.85 37.632C115.916 37.576 116.004 37.548 116.116 37.548C116.247 37.548 116.35 37.5947 116.424 37.688C116.499 37.7813 116.527 37.898 116.508 38.038C116.424 38.542 116.27 39.0367 116.046 39.522C115.822 40.0073 115.519 40.4507 115.136 40.852C114.754 41.244 114.292 41.5567 113.75 41.79C113.209 42.0233 112.584 42.14 111.874 42.14ZM116.844 41.958C116.798 41.958 116.751 41.9533 116.704 41.944C116.667 41.9253 116.63 41.9067 116.592 41.888C116.023 41.44 115.472 41.0107 114.94 40.6C114.418 40.18 113.895 39.7273 113.372 39.242C112.859 38.7567 112.318 38.1967 111.748 37.562C111.422 37.1887 111.128 36.8247 110.866 36.47C110.605 36.106 110.395 35.7513 110.236 35.406C110.078 35.0513 109.998 34.7013 109.998 34.356C109.998 33.9267 110.106 33.5393 110.32 33.194C110.535 32.8393 110.838 32.564 111.23 32.368C111.622 32.1627 112.089 32.06 112.63 32.06C113.302 32.06 113.858 32.186 114.296 32.438C114.735 32.69 115.043 32.9887 115.22 33.334C115.23 33.3433 115.244 33.376 115.262 33.432C115.281 33.4787 115.29 33.5347 115.29 33.6C115.29 33.684 115.253 33.7633 115.178 33.838C115.113 33.9127 115.02 33.95 114.898 33.95C114.824 33.95 114.758 33.936 114.702 33.908C114.656 33.88 114.618 33.8427 114.59 33.796C114.404 33.516 114.156 33.2873 113.848 33.11C113.55 32.9233 113.144 32.83 112.63 32.83C112.061 32.83 111.627 32.9747 111.328 33.264C111.03 33.544 110.88 33.908 110.88 34.356C110.88 34.6453 110.96 34.9533 111.118 35.28C111.277 35.5973 111.478 35.9193 111.72 36.246C111.972 36.5727 112.234 36.89 112.504 37.198C112.878 37.618 113.27 38.0287 113.68 38.43C114.1 38.822 114.511 39.1907 114.912 39.536C115.323 39.8813 115.71 40.194 116.074 40.474C116.438 40.754 116.76 41.0013 117.04 41.216C117.106 41.2627 117.152 41.314 117.18 41.37C117.208 41.426 117.222 41.4913 117.222 41.566C117.222 41.6407 117.19 41.7247 117.124 41.818C117.059 41.9113 116.966 41.958 116.844 41.958ZM38.9084 74.038C38.7964 74.038 38.6984 73.996 38.6144 73.912C38.5398 73.828 38.5024 73.7253 38.5024 73.604C38.5024 73.492 38.5398 73.3987 38.6144 73.324C38.6984 73.24 38.7964 73.198 38.9084 73.198H41.9324C42.0444 73.198 42.1424 73.24 42.2264 73.324C42.3104 73.408 42.3524 73.5107 42.3524 73.632C42.3524 73.744 42.3104 73.842 42.2264 73.926C42.1424 74.0007 42.0444 74.038 41.9324 74.038H38.9084ZM47.6736 76.866C47.599 76.754 47.5616 76.6467 47.5616 76.544C47.571 76.432 47.6316 76.3433 47.7436 76.278C47.8183 76.2127 47.9023 76.1847 47.9956 76.194C48.0983 76.2033 48.1916 76.25 48.2756 76.334C48.5276 76.6607 48.831 76.9267 49.1856 77.132C49.5496 77.328 49.979 77.426 50.4736 77.426C50.735 77.426 50.9916 77.384 51.2436 77.3C51.505 77.2067 51.7196 77.0713 51.8876 76.894C52.0556 76.7073 52.1396 76.474 52.1396 76.194C52.1396 75.9047 52.0556 75.6713 51.8876 75.494C51.7196 75.3167 51.5003 75.1767 51.2296 75.074C50.9683 74.9713 50.6883 74.8827 50.3896 74.808C50.0723 74.724 49.7643 74.6307 49.4656 74.528C49.167 74.416 48.901 74.2807 48.6676 74.122C48.4436 73.954 48.2616 73.7533 48.1216 73.52C47.9816 73.2867 47.9116 73.002 47.9116 72.666C47.9116 72.274 48.019 71.9287 48.2336 71.63C48.4483 71.3313 48.7376 71.098 49.1016 70.93C49.475 70.762 49.895 70.678 50.3616 70.678C50.595 70.678 50.847 70.7107 51.1176 70.776C51.3883 70.832 51.6543 70.93 51.9156 71.07C52.177 71.21 52.4103 71.4013 52.6156 71.644C52.6996 71.728 52.7416 71.826 52.7416 71.938C52.7416 72.0407 52.695 72.134 52.6016 72.218C52.527 72.274 52.4383 72.302 52.3356 72.302C52.2423 72.302 52.163 72.2647 52.0976 72.19C51.8736 71.938 51.6076 71.7467 51.2996 71.616C50.9916 71.4853 50.6603 71.42 50.3056 71.42C50.035 71.42 49.7783 71.4667 49.5356 71.56C49.3023 71.644 49.1063 71.7747 48.9476 71.952C48.789 72.1293 48.7096 72.3627 48.7096 72.652C48.7283 72.9227 48.8216 73.142 48.9896 73.31C49.167 73.478 49.3956 73.618 49.6756 73.73C49.965 73.842 50.287 73.9447 50.6416 74.038C50.9403 74.1127 51.225 74.2013 51.4956 74.304C51.7756 74.4067 52.0183 74.5373 52.2236 74.696C52.4383 74.8453 52.6063 75.0367 52.7276 75.27C52.8583 75.5033 52.9236 75.7973 52.9236 76.152C52.9236 76.5627 52.807 76.9173 52.5736 77.216C52.3496 77.5147 52.0463 77.7433 51.6636 77.902C51.281 78.0607 50.8563 78.14 50.3896 78.14C49.8856 78.14 49.3956 78.042 48.9196 77.846C48.453 77.65 48.0376 77.3233 47.6736 76.866ZM57.9041 70.79C58.4921 70.79 58.9681 70.916 59.3321 71.168C59.6961 71.42 59.9621 71.7607 60.1301 72.19C60.3075 72.6193 60.3961 73.0953 60.3961 73.618V77.58C60.3961 77.692 60.3541 77.79 60.2701 77.874C60.1861 77.958 60.0881 78 59.9761 78C59.8455 78 59.7428 77.958 59.6681 77.874C59.5935 77.79 59.5561 77.692 59.5561 77.58V73.618C59.5561 73.2353 59.4955 72.89 59.3741 72.582C59.2621 72.274 59.0755 72.0313 58.8141 71.854C58.5528 71.6673 58.2028 71.574 57.7641 71.574C57.3721 71.574 56.9988 71.6673 56.6441 71.854C56.2988 72.0313 56.0188 72.274 55.8041 72.582C55.5895 72.89 55.4821 73.2353 55.4821 73.618V77.58C55.4821 77.692 55.4401 77.79 55.3561 77.874C55.2721 77.958 55.1741 78 55.0621 78C54.9315 78 54.8288 77.958 54.7541 77.874C54.6795 77.79 54.6421 77.692 54.6421 77.58V68.06C54.6421 67.948 54.6795 67.85 54.7541 67.766C54.8381 67.682 54.9408 67.64 55.0621 67.64C55.1835 67.64 55.2815 67.682 55.3561 67.766C55.4401 67.85 55.4821 67.948 55.4821 68.06V72.596L55.1601 73.086C55.1788 72.7967 55.2675 72.5167 55.4261 72.246C55.5941 71.966 55.8088 71.7187 56.0701 71.504C56.3315 71.28 56.6208 71.1073 56.9381 70.986C57.2555 70.8553 57.5775 70.79 57.9041 70.79ZM69.2632 74.416C69.2632 75.1253 69.1092 75.7647 68.8012 76.334C68.4932 76.894 68.0732 77.3373 67.5412 77.664C67.0092 77.9813 66.4025 78.14 65.7212 78.14C65.0585 78.14 64.4565 77.9813 63.9152 77.664C63.3832 77.3373 62.9585 76.894 62.6412 76.334C62.3332 75.7647 62.1792 75.1253 62.1792 74.416C62.1792 73.6973 62.3332 73.058 62.6412 72.498C62.9585 71.938 63.3832 71.4947 63.9152 71.168C64.4565 70.8413 65.0585 70.678 65.7212 70.678C66.4025 70.678 67.0092 70.8413 67.5412 71.168C68.0732 71.4947 68.4932 71.938 68.8012 72.498C69.1092 73.058 69.2632 73.6973 69.2632 74.416ZM68.4232 74.416C68.4232 73.8467 68.3065 73.3427 68.0732 72.904C67.8398 72.456 67.5178 72.106 67.1072 71.854C66.7058 71.5927 66.2438 71.462 65.7212 71.462C65.2172 71.462 64.7598 71.5927 64.3492 71.854C63.9385 72.106 63.6118 72.456 63.3692 72.904C63.1358 73.3427 63.0192 73.8467 63.0192 74.416C63.0192 74.9853 63.1358 75.4893 63.3692 75.928C63.6118 76.3667 63.9385 76.7167 64.3492 76.978C64.7598 77.23 65.2172 77.356 65.7212 77.356C66.2438 77.356 66.7058 77.23 67.1072 76.978C67.5178 76.7167 67.8398 76.3667 68.0732 75.928C68.3065 75.4893 68.4232 74.9853 68.4232 74.416ZM71.4684 78C71.3377 78 71.235 77.958 71.1604 77.874C71.0857 77.79 71.0484 77.692 71.0484 77.58V71.308C71.0484 71.196 71.0857 71.098 71.1604 71.014C71.2444 70.93 71.347 70.888 71.4684 70.888C71.5897 70.888 71.6877 70.93 71.7624 71.014C71.8464 71.098 71.8884 71.196 71.8884 71.308V73.408L71.6784 73.45C71.7064 73.1233 71.7857 72.8013 71.9164 72.484C72.0564 72.1573 72.243 71.8587 72.4764 71.588C72.7097 71.3173 72.985 71.098 73.3024 70.93C73.629 70.762 73.993 70.678 74.3944 70.678C74.5624 70.678 74.7257 70.7153 74.8844 70.79C75.043 70.8553 75.1224 70.9673 75.1224 71.126C75.1224 71.266 75.085 71.3733 75.0104 71.448C74.9357 71.5227 74.847 71.56 74.7444 71.56C74.6604 71.56 74.567 71.5367 74.4644 71.49C74.371 71.4433 74.245 71.42 74.0864 71.42C73.825 71.42 73.5637 71.4993 73.3024 71.658C73.041 71.8073 72.803 72.0127 72.5884 72.274C72.3737 72.5353 72.201 72.8293 72.0704 73.156C71.949 73.4733 71.8884 73.7953 71.8884 74.122V77.58C71.8884 77.692 71.8464 77.79 71.7624 77.874C71.6784 77.958 71.5804 78 71.4684 78ZM75.9731 70.874H79.2351C79.3471 70.874 79.4404 70.916 79.5151 71C79.5898 71.0747 79.6271 71.168 79.6271 71.28C79.6271 71.3827 79.5898 71.4713 79.5151 71.546C79.4404 71.6207 79.3471 71.658 79.2351 71.658H75.9731C75.8611 71.658 75.7631 71.6207 75.6791 71.546C75.6044 71.462 75.5671 71.3687 75.5671 71.266C75.5671 71.154 75.6044 71.0607 75.6791 70.986C75.7631 70.9113 75.8611 70.874 75.9731 70.874ZM77.4151 68.9C77.5364 68.9 77.6344 68.942 77.7091 69.026C77.7931 69.11 77.8351 69.208 77.8351 69.32V76.348C77.8351 76.6093 77.8678 76.8053 77.9331 76.936C78.0078 77.0667 78.1011 77.1553 78.2131 77.202C78.3251 77.2393 78.4371 77.258 78.5491 77.258C78.6238 77.258 78.6891 77.2487 78.7451 77.23C78.8104 77.202 78.8804 77.188 78.9551 77.188C79.0391 77.188 79.1091 77.2207 79.1651 77.286C79.2304 77.3513 79.2631 77.4353 79.2631 77.538C79.2631 77.6687 79.1884 77.7807 79.0391 77.874C78.8898 77.958 78.7124 78 78.5071 78C78.4231 78 78.2971 77.9953 78.1291 77.986C77.9611 77.9673 77.7884 77.916 77.6111 77.832C77.4338 77.7387 77.2844 77.58 77.1631 77.356C77.0511 77.132 76.9951 76.81 76.9951 76.39V69.32C76.9951 69.208 77.0324 69.11 77.1071 69.026C77.1911 68.942 77.2938 68.9 77.4151 68.9ZM81.2912 74.038C81.1792 74.038 81.0812 73.996 80.9972 73.912C80.9226 73.828 80.8852 73.7253 80.8852 73.604C80.8852 73.492 80.9226 73.3987 80.9972 73.324C81.0812 73.24 81.1792 73.198 81.2912 73.198H84.3152C84.4272 73.198 84.5252 73.24 84.6092 73.324C84.6932 73.408 84.7352 73.5107 84.7352 73.632C84.7352 73.744 84.6932 73.842 84.6092 73.926C84.5252 74.0007 84.4272 74.038 84.3152 74.038H81.2912ZM89.2243 67.696C89.3643 67.696 89.5137 67.71 89.6723 67.738C89.8403 67.766 89.985 67.8173 90.1063 67.892C90.2277 67.9573 90.2883 68.06 90.2883 68.2C90.2883 68.3027 90.251 68.396 90.1763 68.48C90.1017 68.5547 90.0177 68.592 89.9243 68.592C89.831 68.592 89.7143 68.5687 89.5743 68.522C89.4343 68.466 89.285 68.438 89.1263 68.438C88.9303 68.438 88.7623 68.4847 88.6223 68.578C88.4823 68.662 88.375 68.788 88.3003 68.956C88.2257 69.1147 88.1883 69.3107 88.1883 69.544V77.58C88.1883 77.692 88.1463 77.79 88.0623 77.874C87.9877 77.958 87.8897 78 87.7683 78C87.647 78 87.5443 77.958 87.4603 77.874C87.3857 77.79 87.3483 77.692 87.3483 77.58V69.544C87.3483 68.9467 87.521 68.4893 87.8663 68.172C88.221 67.8547 88.6737 67.696 89.2243 67.696ZM89.7563 70.986C89.8683 70.986 89.9617 71.0233 90.0363 71.098C90.111 71.1727 90.1483 71.266 90.1483 71.378C90.1483 71.49 90.111 71.5833 90.0363 71.658C89.9617 71.7327 89.8683 71.77 89.7563 71.77H86.3263C86.2237 71.77 86.1303 71.7327 86.0463 71.658C85.9717 71.574 85.9343 71.4807 85.9343 71.378C85.9343 71.2567 85.9717 71.1633 86.0463 71.098C86.1303 71.0233 86.2237 70.986 86.3263 70.986H89.7563ZM97.8237 74.416C97.8237 75.1253 97.6697 75.7647 97.3617 76.334C97.0537 76.894 96.6337 77.3373 96.1017 77.664C95.5697 77.9813 94.963 78.14 94.2817 78.14C93.619 78.14 93.017 77.9813 92.4757 77.664C91.9437 77.3373 91.519 76.894 91.2017 76.334C90.8937 75.7647 90.7397 75.1253 90.7397 74.416C90.7397 73.6973 90.8937 73.058 91.2017 72.498C91.519 71.938 91.9437 71.4947 92.4757 71.168C93.017 70.8413 93.619 70.678 94.2817 70.678C94.963 70.678 95.5697 70.8413 96.1017 71.168C96.6337 71.4947 97.0537 71.938 97.3617 72.498C97.6697 73.058 97.8237 73.6973 97.8237 74.416ZM96.9837 74.416C96.9837 73.8467 96.867 73.3427 96.6337 72.904C96.4004 72.456 96.0784 72.106 95.6677 71.854C95.2664 71.5927 94.8044 71.462 94.2817 71.462C93.7777 71.462 93.3204 71.5927 92.9097 71.854C92.499 72.106 92.1724 72.456 91.9297 72.904C91.6964 73.3427 91.5797 73.8467 91.5797 74.416C91.5797 74.9853 91.6964 75.4893 91.9297 75.928C92.1724 76.3667 92.499 76.7167 92.9097 76.978C93.3204 77.23 93.7777 77.356 94.2817 77.356C94.8044 77.356 95.2664 77.23 95.6677 76.978C96.0784 76.7167 96.4004 76.3667 96.6337 75.928C96.867 75.4893 96.9837 74.9853 96.9837 74.416ZM100.029 78C99.8983 78 99.7956 77.958 99.7209 77.874C99.6463 77.79 99.6089 77.692 99.6089 77.58V71.308C99.6089 71.196 99.6463 71.098 99.7209 71.014C99.8049 70.93 99.9076 70.888 100.029 70.888C100.15 70.888 100.248 70.93 100.323 71.014C100.407 71.098 100.449 71.196 100.449 71.308V73.408L100.239 73.45C100.267 73.1233 100.346 72.8013 100.477 72.484C100.617 72.1573 100.804 71.8587 101.037 71.588C101.27 71.3173 101.546 71.098 101.863 70.93C102.19 70.762 102.554 70.678 102.955 70.678C103.123 70.678 103.286 70.7153 103.445 70.79C103.604 70.8553 103.683 70.9673 103.683 71.126C103.683 71.266 103.646 71.3733 103.571 71.448C103.496 71.5227 103.408 71.56 103.305 71.56C103.221 71.56 103.128 71.5367 103.025 71.49C102.932 71.4433 102.806 71.42 102.647 71.42C102.386 71.42 102.124 71.4993 101.863 71.658C101.602 71.8073 101.364 72.0127 101.149 72.274C100.934 72.5353 100.762 72.8293 100.631 73.156C100.51 73.4733 100.449 73.7953 100.449 74.122V77.58C100.449 77.692 100.407 77.79 100.323 77.874C100.239 77.958 100.141 78 100.029 78ZM108.216 70.79C108.794 70.79 109.289 70.944 109.7 71.252C110.11 71.5507 110.39 71.9987 110.54 72.596L110.344 72.652L110.428 72.4C110.549 72.12 110.75 71.8587 111.03 71.616C111.319 71.364 111.646 71.1633 112.01 71.014C112.374 70.8647 112.742 70.79 113.116 70.79C113.704 70.79 114.175 70.916 114.53 71.168C114.894 71.42 115.155 71.7607 115.314 72.19C115.482 72.61 115.566 73.086 115.566 73.618V77.58C115.566 77.692 115.524 77.79 115.44 77.874C115.365 77.958 115.267 78 115.146 78C115.024 78 114.922 77.958 114.838 77.874C114.763 77.79 114.726 77.692 114.726 77.58V73.66C114.726 73.2773 114.665 72.9273 114.544 72.61C114.422 72.2927 114.231 72.0407 113.97 71.854C113.708 71.6673 113.358 71.574 112.92 71.574C112.537 71.574 112.168 71.6673 111.814 71.854C111.468 72.0407 111.184 72.2927 110.96 72.61C110.745 72.9273 110.638 73.2773 110.638 73.66V77.58C110.638 77.692 110.596 77.79 110.512 77.874C110.437 77.958 110.339 78 110.218 78C110.096 78 109.994 77.958 109.91 77.874C109.835 77.79 109.798 77.692 109.798 77.58V73.618C109.798 73.2353 109.742 72.89 109.63 72.582C109.518 72.274 109.336 72.0313 109.084 71.854C108.832 71.6673 108.491 71.574 108.062 71.574C107.679 71.574 107.315 71.6673 106.97 71.854C106.634 72.0313 106.358 72.274 106.144 72.582C105.938 72.89 105.836 73.2353 105.836 73.618V77.58C105.836 77.692 105.794 77.79 105.71 77.874C105.626 77.958 105.528 78 105.416 78C105.285 78 105.182 77.958 105.108 77.874C105.033 77.79 104.996 77.692 104.996 77.58V71.308C104.996 71.196 105.033 71.098 105.108 71.014C105.192 70.93 105.294 70.888 105.416 70.888C105.537 70.888 105.635 70.93 105.71 71.014C105.794 71.098 105.836 71.196 105.836 71.308V72.61L105.458 73.128C105.486 72.848 105.574 72.568 105.724 72.288C105.882 72.008 106.088 71.756 106.34 71.532C106.592 71.308 106.876 71.1307 107.194 71C107.52 70.86 107.861 70.79 108.216 70.79ZM121.425 70.692C121.5 70.692 121.575 70.7153 121.649 70.762C121.724 70.8087 121.78 70.8787 121.817 70.972L124.267 76.796L124.085 76.908L126.591 70.972C126.666 70.7853 126.801 70.6967 126.997 70.706C127.091 70.706 127.179 70.7387 127.263 70.804C127.347 70.86 127.389 70.944 127.389 71.056C127.389 71.112 127.38 71.1587 127.361 71.196C127.352 71.224 127.343 71.2567 127.333 71.294L124.589 77.734C124.515 77.902 124.389 77.9907 124.211 78C124.127 78.0093 124.043 77.9907 123.959 77.944C123.885 77.888 123.829 77.818 123.791 77.734L121.033 71.294C121.024 71.2753 121.015 71.2473 121.005 71.21C120.996 71.1727 120.991 71.1353 120.991 71.098C120.991 70.9953 121.029 70.902 121.103 70.818C121.178 70.734 121.285 70.692 121.425 70.692ZM129.815 77.58C129.815 77.692 129.773 77.79 129.689 77.874C129.605 77.958 129.507 78 129.395 78C129.274 78 129.171 77.958 129.087 77.874C129.013 77.79 128.975 77.692 128.975 77.58V71.14C128.975 71.028 129.013 70.93 129.087 70.846C129.171 70.762 129.274 70.72 129.395 70.72C129.517 70.72 129.615 70.762 129.689 70.846C129.773 70.93 129.815 71.028 129.815 71.14V77.58ZM129.395 69.782C129.199 69.782 129.05 69.74 128.947 69.656C128.854 69.5627 128.807 69.432 128.807 69.264V69.124C128.807 68.956 128.859 68.83 128.961 68.746C129.073 68.6527 129.223 68.606 129.409 68.606C129.587 68.606 129.722 68.6527 129.815 68.746C129.918 68.83 129.969 68.956 129.969 69.124V69.264C129.969 69.432 129.918 69.5627 129.815 69.656C129.722 69.74 129.582 69.782 129.395 69.782ZM137.864 67.64C137.985 67.64 138.083 67.682 138.158 67.766C138.242 67.8407 138.284 67.9387 138.284 68.06V77.58C138.284 77.692 138.242 77.79 138.158 77.874C138.074 77.958 137.976 78 137.864 78C137.742 78 137.64 77.958 137.556 77.874C137.481 77.79 137.444 77.692 137.444 77.58V75.914L137.682 75.718C137.682 75.9793 137.612 76.2547 137.472 76.544C137.332 76.824 137.131 77.0853 136.87 77.328C136.618 77.5707 136.319 77.7667 135.974 77.916C135.638 78.0653 135.274 78.14 134.882 78.14C134.256 78.14 133.692 77.9767 133.188 77.65C132.693 77.3233 132.301 76.88 132.012 76.32C131.722 75.76 131.578 75.1207 131.578 74.402C131.578 73.6927 131.722 73.058 132.012 72.498C132.301 71.9287 132.693 71.4853 133.188 71.168C133.682 70.8413 134.242 70.678 134.868 70.678C135.25 70.678 135.614 70.748 135.96 70.888C136.305 71.028 136.608 71.2193 136.87 71.462C137.14 71.7047 137.35 71.9847 137.5 72.302C137.658 72.61 137.738 72.932 137.738 73.268L137.444 73.058V68.06C137.444 67.948 137.481 67.85 137.556 67.766C137.64 67.682 137.742 67.64 137.864 67.64ZM134.952 77.356C135.456 77.356 135.894 77.23 136.268 76.978C136.65 76.7167 136.949 76.3667 137.164 75.928C137.388 75.48 137.5 74.9713 137.5 74.402C137.5 73.842 137.388 73.3427 137.164 72.904C136.949 72.456 136.65 72.106 136.268 71.854C135.885 71.5927 135.446 71.462 134.952 71.462C134.466 71.462 134.028 71.5927 133.636 71.854C133.253 72.106 132.95 72.456 132.726 72.904C132.511 73.3427 132.404 73.842 132.404 74.402C132.404 74.962 132.511 75.466 132.726 75.914C132.95 76.362 133.253 76.7167 133.636 76.978C134.028 77.23 134.466 77.356 134.952 77.356ZM143.722 78.14C143.003 78.14 142.369 77.986 141.818 77.678C141.267 77.37 140.838 76.9407 140.53 76.39C140.222 75.8393 140.068 75.1953 140.068 74.458C140.068 73.6647 140.222 72.988 140.53 72.428C140.847 71.868 141.253 71.4387 141.748 71.14C142.252 70.832 142.784 70.678 143.344 70.678C143.755 70.678 144.151 70.7527 144.534 70.902C144.926 71.042 145.271 71.2567 145.57 71.546C145.878 71.826 146.121 72.1713 146.298 72.582C146.485 72.9927 146.587 73.4687 146.606 74.01C146.597 74.122 146.55 74.22 146.466 74.304C146.382 74.3787 146.284 74.416 146.172 74.416H140.558L140.39 73.66H145.906L145.724 73.828V73.548C145.687 73.1093 145.547 72.736 145.304 72.428C145.061 72.12 144.767 71.8867 144.422 71.728C144.077 71.5693 143.717 71.49 143.344 71.49C143.064 71.49 142.775 71.546 142.476 71.658C142.187 71.77 141.921 71.9473 141.678 72.19C141.445 72.4233 141.253 72.7267 141.104 73.1C140.955 73.464 140.88 73.898 140.88 74.402C140.88 74.9527 140.992 75.452 141.216 75.9C141.44 76.348 141.762 76.7027 142.182 76.964C142.611 77.2253 143.12 77.356 143.708 77.356C144.035 77.356 144.329 77.3093 144.59 77.216C144.851 77.1227 145.08 77.0013 145.276 76.852C145.472 76.6933 145.635 76.53 145.766 76.362C145.869 76.278 145.971 76.236 146.074 76.236C146.167 76.236 146.247 76.2733 146.312 76.348C146.387 76.4227 146.424 76.5067 146.424 76.6C146.424 76.712 146.377 76.81 146.284 76.894C146.004 77.23 145.64 77.524 145.192 77.776C144.744 78.0187 144.254 78.14 143.722 78.14ZM155.068 74.416C155.068 75.1253 154.914 75.7647 154.606 76.334C154.298 76.894 153.878 77.3373 153.346 77.664C152.814 77.9813 152.207 78.14 151.526 78.14C150.863 78.14 150.261 77.9813 149.72 77.664C149.188 77.3373 148.763 76.894 148.446 76.334C148.138 75.7647 147.984 75.1253 147.984 74.416C147.984 73.6973 148.138 73.058 148.446 72.498C148.763 71.938 149.188 71.4947 149.72 71.168C150.261 70.8413 150.863 70.678 151.526 70.678C152.207 70.678 152.814 70.8413 153.346 71.168C153.878 71.4947 154.298 71.938 154.606 72.498C154.914 73.058 155.068 73.6973 155.068 74.416ZM154.228 74.416C154.228 73.8467 154.111 73.3427 153.878 72.904C153.645 72.456 153.323 72.106 152.912 71.854C152.511 71.5927 152.049 71.462 151.526 71.462C151.022 71.462 150.565 71.5927 150.154 71.854C149.743 72.106 149.417 72.456 149.174 72.904C148.941 73.3427 148.824 73.8467 148.824 74.416C148.824 74.9853 148.941 75.4893 149.174 75.928C149.417 76.3667 149.743 76.7167 150.154 76.978C150.565 77.23 151.022 77.356 151.526 77.356C152.049 77.356 152.511 77.23 152.912 76.978C153.323 76.7167 153.645 76.3667 153.878 75.928C154.111 75.4893 154.228 74.9853 154.228 74.416ZM156.447 76.866C156.372 76.754 156.335 76.6467 156.335 76.544C156.344 76.432 156.405 76.3433 156.517 76.278C156.592 76.2127 156.676 76.1847 156.769 76.194C156.872 76.2033 156.965 76.25 157.049 76.334C157.301 76.6607 157.604 76.9267 157.959 77.132C158.323 77.328 158.752 77.426 159.247 77.426C159.508 77.426 159.765 77.384 160.017 77.3C160.278 77.2067 160.493 77.0713 160.661 76.894C160.829 76.7073 160.913 76.474 160.913 76.194C160.913 75.9047 160.829 75.6713 160.661 75.494C160.493 75.3167 160.274 75.1767 160.003 75.074C159.742 74.9713 159.462 74.8827 159.163 74.808C158.846 74.724 158.538 74.6307 158.239 74.528C157.94 74.416 157.674 74.2807 157.441 74.122C157.217 73.954 157.035 73.7533 156.895 73.52C156.755 73.2867 156.685 73.002 156.685 72.666C156.685 72.274 156.792 71.9287 157.007 71.63C157.222 71.3313 157.511 71.098 157.875 70.93C158.248 70.762 158.668 70.678 159.135 70.678C159.368 70.678 159.62 70.7107 159.891 70.776C160.162 70.832 160.428 70.93 160.689 71.07C160.95 71.21 161.184 71.4013 161.389 71.644C161.473 71.728 161.515 71.826 161.515 71.938C161.515 72.0407 161.468 72.134 161.375 72.218C161.3 72.274 161.212 72.302 161.109 72.302C161.016 72.302 160.936 72.2647 160.871 72.19C160.647 71.938 160.381 71.7467 160.073 71.616C159.765 71.4853 159.434 71.42 159.079 71.42C158.808 71.42 158.552 71.4667 158.309 71.56C158.076 71.644 157.88 71.7747 157.721 71.952C157.562 72.1293 157.483 72.3627 157.483 72.652C157.502 72.9227 157.595 73.142 157.763 73.31C157.94 73.478 158.169 73.618 158.449 73.73C158.738 73.842 159.06 73.9447 159.415 74.038C159.714 74.1127 159.998 74.2013 160.269 74.304C160.549 74.4067 160.792 74.5373 160.997 74.696C161.212 74.8453 161.38 75.0367 161.501 75.27C161.632 75.5033 161.697 75.7973 161.697 76.152C161.697 76.5627 161.58 76.9173 161.347 77.216C161.123 77.5147 160.82 77.7433 160.437 77.902C160.054 78.0607 159.63 78.14 159.163 78.14C158.659 78.14 158.169 78.042 157.693 77.846C157.226 77.65 156.811 77.3233 156.447 76.866Z" fill="black"/>
<path d="M125.092 31.696C125.232 31.696 125.382 31.71 125.54 31.738C125.708 31.766 125.853 31.8173 125.974 31.892C126.096 31.9573 126.156 32.06 126.156 32.2C126.156 32.3027 126.119 32.396 126.044 32.48C125.97 32.5547 125.886 32.592 125.792 32.592C125.699 32.592 125.582 32.5687 125.442 32.522C125.302 32.466 125.153 32.438 124.994 32.438C124.798 32.438 124.63 32.4847 124.49 32.578C124.35 32.662 124.243 32.788 124.168 32.956C124.094 33.1147 124.056 33.3107 124.056 33.544V41.58C124.056 41.692 124.014 41.79 123.93 41.874C123.856 41.958 123.758 42 123.636 42C123.515 42 123.412 41.958 123.328 41.874C123.254 41.79 123.216 41.692 123.216 41.58V33.544C123.216 32.9467 123.389 32.4893 123.734 32.172C124.089 31.8547 124.542 31.696 125.092 31.696ZM125.624 34.986C125.736 34.986 125.83 35.0233 125.904 35.098C125.979 35.1727 126.016 35.266 126.016 35.378C126.016 35.49 125.979 35.5833 125.904 35.658C125.83 35.7327 125.736 35.77 125.624 35.77H122.194C122.092 35.77 121.998 35.7327 121.914 35.658C121.84 35.574 121.802 35.4807 121.802 35.378C121.802 35.2567 121.84 35.1633 121.914 35.098C121.998 35.0233 122.092 34.986 122.194 34.986H125.624ZM133.692 38.416C133.692 39.1253 133.538 39.7647 133.23 40.334C132.922 40.894 132.502 41.3373 131.97 41.664C131.438 41.9813 130.831 42.14 130.15 42.14C129.487 42.14 128.885 41.9813 128.344 41.664C127.812 41.3373 127.387 40.894 127.07 40.334C126.762 39.7647 126.608 39.1253 126.608 38.416C126.608 37.6973 126.762 37.058 127.07 36.498C127.387 35.938 127.812 35.4947 128.344 35.168C128.885 34.8413 129.487 34.678 130.15 34.678C130.831 34.678 131.438 34.8413 131.97 35.168C132.502 35.4947 132.922 35.938 133.23 36.498C133.538 37.058 133.692 37.6973 133.692 38.416ZM132.852 38.416C132.852 37.8467 132.735 37.3427 132.502 36.904C132.269 36.456 131.947 36.106 131.536 35.854C131.135 35.5927 130.673 35.462 130.15 35.462C129.646 35.462 129.189 35.5927 128.778 35.854C128.367 36.106 128.041 36.456 127.798 36.904C127.565 37.3427 127.448 37.8467 127.448 38.416C127.448 38.9853 127.565 39.4893 127.798 39.928C128.041 40.3667 128.367 40.7167 128.778 40.978C129.189 41.23 129.646 41.356 130.15 41.356C130.673 41.356 131.135 41.23 131.536 40.978C131.947 40.7167 132.269 40.3667 132.502 39.928C132.735 39.4893 132.852 38.9853 132.852 38.416ZM138.627 34.678C139.075 34.678 139.486 34.7293 139.859 34.832C140.232 34.9253 140.531 35.056 140.755 35.224C140.988 35.392 141.105 35.574 141.105 35.77C141.105 35.8633 141.072 35.9567 141.007 36.05C140.942 36.134 140.853 36.176 140.741 36.176C140.629 36.176 140.536 36.148 140.461 36.092C140.396 36.036 140.326 35.9707 140.251 35.896C140.186 35.8213 140.088 35.7513 139.957 35.686C139.836 35.63 139.663 35.5787 139.439 35.532C139.215 35.4853 138.958 35.462 138.669 35.462C138.146 35.462 137.675 35.5927 137.255 35.854C136.835 36.1153 136.504 36.47 136.261 36.918C136.018 37.3567 135.897 37.8513 135.897 38.402C135.897 38.962 136.014 39.466 136.247 39.914C136.48 40.362 136.802 40.7167 137.213 40.978C137.624 41.23 138.104 41.356 138.655 41.356C139.028 41.356 139.318 41.3233 139.523 41.258C139.728 41.1927 139.906 41.118 140.055 41.034C140.232 40.9313 140.358 40.8333 140.433 40.74C140.517 40.6373 140.624 40.586 140.755 40.586C140.876 40.586 140.965 40.6233 141.021 40.698C141.086 40.7633 141.119 40.852 141.119 40.964C141.119 41.1133 141.007 41.2813 140.783 41.468C140.568 41.6453 140.27 41.804 139.887 41.944C139.504 42.0747 139.066 42.14 138.571 42.14C137.871 42.14 137.255 41.9767 136.723 41.65C136.2 41.3233 135.79 40.88 135.491 40.32C135.202 39.7507 135.057 39.1113 135.057 38.402C135.057 37.7207 135.206 37.1 135.505 36.54C135.804 35.98 136.219 35.532 136.751 35.196C137.292 34.8507 137.918 34.678 138.627 34.678ZM148.071 34.888C148.193 34.888 148.291 34.93 148.365 35.014C148.449 35.098 148.491 35.196 148.491 35.308V39.256C148.491 40.18 148.23 40.8847 147.707 41.37C147.185 41.8553 146.48 42.098 145.593 42.098C144.716 42.098 144.016 41.8553 143.493 41.37C142.98 40.8847 142.723 40.18 142.723 39.256V35.308C142.723 35.196 142.761 35.098 142.835 35.014C142.919 34.93 143.022 34.888 143.143 34.888C143.265 34.888 143.363 34.93 143.437 35.014C143.521 35.098 143.563 35.196 143.563 35.308V39.256C143.563 39.928 143.741 40.4413 144.095 40.796C144.459 41.1413 144.959 41.314 145.593 41.314C146.237 41.314 146.741 41.1413 147.105 40.796C147.469 40.4413 147.651 39.928 147.651 39.256V35.308C147.651 35.196 147.689 35.098 147.763 35.014C147.838 34.93 147.941 34.888 148.071 34.888ZM150.288 40.866C150.213 40.754 150.176 40.6467 150.176 40.544C150.185 40.432 150.246 40.3433 150.358 40.278C150.433 40.2127 150.517 40.1847 150.61 40.194C150.713 40.2033 150.806 40.25 150.89 40.334C151.142 40.6607 151.445 40.9267 151.8 41.132C152.164 41.328 152.593 41.426 153.088 41.426C153.349 41.426 153.606 41.384 153.858 41.3C154.119 41.2067 154.334 41.0713 154.502 40.894C154.67 40.7073 154.754 40.474 154.754 40.194C154.754 39.9047 154.67 39.6713 154.502 39.494C154.334 39.3167 154.115 39.1767 153.844 39.074C153.583 38.9713 153.303 38.8827 153.004 38.808C152.687 38.724 152.379 38.6307 152.08 38.528C151.781 38.416 151.515 38.2807 151.282 38.122C151.058 37.954 150.876 37.7533 150.736 37.52C150.596 37.2867 150.526 37.002 150.526 36.666C150.526 36.274 150.633 35.9287 150.848 35.63C151.063 35.3313 151.352 35.098 151.716 34.93C152.089 34.762 152.509 34.678 152.976 34.678C153.209 34.678 153.461 34.7107 153.732 34.776C154.003 34.832 154.269 34.93 154.53 35.07C154.791 35.21 155.025 35.4013 155.23 35.644C155.314 35.728 155.356 35.826 155.356 35.938C155.356 36.0407 155.309 36.134 155.216 36.218C155.141 36.274 155.053 36.302 154.95 36.302C154.857 36.302 154.777 36.2647 154.712 36.19C154.488 35.938 154.222 35.7467 153.914 35.616C153.606 35.4853 153.275 35.42 152.92 35.42C152.649 35.42 152.393 35.4667 152.15 35.56C151.917 35.644 151.721 35.7747 151.562 35.952C151.403 36.1293 151.324 36.3627 151.324 36.652C151.343 36.9227 151.436 37.142 151.604 37.31C151.781 37.478 152.01 37.618 152.29 37.73C152.579 37.842 152.901 37.9447 153.256 38.038C153.555 38.1127 153.839 38.2013 154.11 38.304C154.39 38.4067 154.633 38.5373 154.838 38.696C155.053 38.8453 155.221 39.0367 155.342 39.27C155.473 39.5033 155.538 39.7973 155.538 40.152C155.538 40.5627 155.421 40.9173 155.188 41.216C154.964 41.5147 154.661 41.7433 154.278 41.902C153.895 42.0607 153.471 42.14 153.004 42.14C152.5 42.14 152.01 42.042 151.534 41.846C151.067 41.65 150.652 41.3233 150.288 40.866ZM167.749 38.416C167.749 39.1253 167.595 39.7647 167.287 40.334C166.979 40.894 166.559 41.3373 166.027 41.664C165.495 41.9813 164.888 42.14 164.207 42.14C163.544 42.14 162.942 41.9813 162.401 41.664C161.869 41.3373 161.444 40.894 161.127 40.334C160.819 39.7647 160.665 39.1253 160.665 38.416C160.665 37.6973 160.819 37.058 161.127 36.498C161.444 35.938 161.869 35.4947 162.401 35.168C162.942 34.8413 163.544 34.678 164.207 34.678C164.888 34.678 165.495 34.8413 166.027 35.168C166.559 35.4947 166.979 35.938 167.287 36.498C167.595 37.058 167.749 37.6973 167.749 38.416ZM166.909 38.416C166.909 37.8467 166.792 37.3427 166.559 36.904C166.325 36.456 166.003 36.106 165.593 35.854C165.191 35.5927 164.729 35.462 164.207 35.462C163.703 35.462 163.245 35.5927 162.835 35.854C162.424 36.106 162.097 36.456 161.855 36.904C161.621 37.3427 161.505 37.8467 161.505 38.416C161.505 38.9853 161.621 39.4893 161.855 39.928C162.097 40.3667 162.424 40.7167 162.835 40.978C163.245 41.23 163.703 41.356 164.207 41.356C164.729 41.356 165.191 41.23 165.593 40.978C166.003 40.7167 166.325 40.3667 166.559 39.928C166.792 39.4893 166.909 38.9853 166.909 38.416ZM172.908 34.678C173.524 34.678 174.014 34.804 174.378 35.056C174.751 35.2987 175.017 35.6347 175.176 36.064C175.344 36.484 175.428 36.9507 175.428 37.464V41.58C175.428 41.692 175.386 41.79 175.302 41.874C175.218 41.958 175.12 42 175.008 42C174.877 42 174.774 41.958 174.7 41.874C174.625 41.79 174.588 41.692 174.588 41.58V37.506C174.588 37.1327 174.527 36.792 174.406 36.484C174.284 36.176 174.084 35.9287 173.804 35.742C173.533 35.5553 173.174 35.462 172.726 35.462C172.324 35.462 171.942 35.5553 171.578 35.742C171.223 35.9287 170.934 36.176 170.71 36.484C170.486 36.792 170.374 37.1327 170.374 37.506V41.58C170.374 41.692 170.332 41.79 170.248 41.874C170.164 41.958 170.066 42 169.954 42C169.823 42 169.72 41.958 169.646 41.874C169.571 41.79 169.534 41.692 169.534 41.58V35.308C169.534 35.196 169.571 35.098 169.646 35.014C169.73 34.93 169.832 34.888 169.954 34.888C170.075 34.888 170.173 34.93 170.248 35.014C170.332 35.098 170.374 35.196 170.374 35.308V36.484L170.052 36.988C170.07 36.6893 170.164 36.4047 170.332 36.134C170.509 35.854 170.733 35.6067 171.004 35.392C171.274 35.168 171.573 34.9953 171.9 34.874C172.236 34.7433 172.572 34.678 172.908 34.678ZM40.9624 56.416C40.9624 57.1253 40.8084 57.7647 40.5004 58.334C40.1924 58.894 39.7724 59.3373 39.2404 59.664C38.7084 59.9813 38.1017 60.14 37.4204 60.14C36.7577 60.14 36.1557 59.9813 35.6144 59.664C35.0824 59.3373 34.6577 58.894 34.3404 58.334C34.0324 57.7647 33.8784 57.1253 33.8784 56.416C33.8784 55.6973 34.0324 55.058 34.3404 54.498C34.6577 53.938 35.0824 53.4947 35.6144 53.168C36.1557 52.8413 36.7577 52.678 37.4204 52.678C38.1017 52.678 38.7084 52.8413 39.2404 53.168C39.7724 53.4947 40.1924 53.938 40.5004 54.498C40.8084 55.058 40.9624 55.6973 40.9624 56.416ZM40.1224 56.416C40.1224 55.8467 40.0057 55.3427 39.7724 54.904C39.539 54.456 39.217 54.106 38.8064 53.854C38.405 53.5927 37.943 53.462 37.4204 53.462C36.9164 53.462 36.459 53.5927 36.0484 53.854C35.6377 54.106 35.311 54.456 35.0684 54.904C34.835 55.3427 34.7184 55.8467 34.7184 56.416C34.7184 56.9853 34.835 57.4893 35.0684 57.928C35.311 58.3667 35.6377 58.7167 36.0484 58.978C36.459 59.23 36.9164 59.356 37.4204 59.356C37.943 59.356 38.405 59.23 38.8064 58.978C39.217 58.7167 39.539 58.3667 39.7724 57.928C40.0057 57.4893 40.1224 56.9853 40.1224 56.416ZM46.1216 52.678C46.7376 52.678 47.2276 52.804 47.5916 53.056C47.9649 53.2987 48.2309 53.6347 48.3896 54.064C48.5576 54.484 48.6416 54.9507 48.6416 55.464V59.58C48.6416 59.692 48.5996 59.79 48.5156 59.874C48.4316 59.958 48.3336 60 48.2216 60C48.0909 60 47.9883 59.958 47.9136 59.874C47.8389 59.79 47.8016 59.692 47.8016 59.58V55.506C47.8016 55.1327 47.7409 54.792 47.6196 54.484C47.4983 54.176 47.2976 53.9287 47.0176 53.742C46.7469 53.5553 46.3876 53.462 45.9396 53.462C45.5383 53.462 45.1556 53.5553 44.7916 53.742C44.4369 53.9287 44.1476 54.176 43.9236 54.484C43.6996 54.792 43.5876 55.1327 43.5876 55.506V59.58C43.5876 59.692 43.5456 59.79 43.4616 59.874C43.3776 59.958 43.2796 60 43.1676 60C43.0369 60 42.9343 59.958 42.8596 59.874C42.7849 59.79 42.7476 59.692 42.7476 59.58V53.308C42.7476 53.196 42.7849 53.098 42.8596 53.014C42.9436 52.93 43.0463 52.888 43.1676 52.888C43.2889 52.888 43.3869 52.93 43.4616 53.014C43.5456 53.098 43.5876 53.196 43.5876 53.308V54.484L43.2656 54.988C43.2843 54.6893 43.3776 54.4047 43.5456 54.134C43.7229 53.854 43.9469 53.6067 44.2176 53.392C44.4883 53.168 44.7869 52.9953 45.1136 52.874C45.4496 52.7433 45.7856 52.678 46.1216 52.678ZM54.0754 60.14C53.3567 60.14 52.722 59.986 52.1714 59.678C51.6207 59.37 51.1914 58.9407 50.8834 58.39C50.5754 57.8393 50.4214 57.1953 50.4214 56.458C50.4214 55.6647 50.5754 54.988 50.8834 54.428C51.2007 53.868 51.6067 53.4387 52.1014 53.14C52.6054 52.832 53.1374 52.678 53.6974 52.678C54.108 52.678 54.5047 52.7527 54.8874 52.902C55.2794 53.042 55.6247 53.2567 55.9234 53.546C56.2314 53.826 56.474 54.1713 56.6514 54.582C56.838 54.9927 56.9407 55.4687 56.9594 56.01C56.95 56.122 56.9034 56.22 56.8194 56.304C56.7354 56.3787 56.6374 56.416 56.5254 56.416H50.9114L50.7434 55.66H56.2594L56.0774 55.828V55.548C56.04 55.1093 55.9 54.736 55.6574 54.428C55.4147 54.12 55.1207 53.8867 54.7754 53.728C54.43 53.5693 54.0707 53.49 53.6974 53.49C53.4174 53.49 53.128 53.546 52.8294 53.658C52.54 53.77 52.274 53.9473 52.0314 54.19C51.798 54.4233 51.6067 54.7267 51.4574 55.1C51.308 55.464 51.2334 55.898 51.2334 56.402C51.2334 56.9527 51.3454 57.452 51.5694 57.9C51.7934 58.348 52.1154 58.7027 52.5354 58.964C52.9647 59.2253 53.4734 59.356 54.0614 59.356C54.388 59.356 54.682 59.3093 54.9434 59.216C55.2047 59.1227 55.4334 59.0013 55.6294 58.852C55.8254 58.6933 55.9887 58.53 56.1194 58.362C56.222 58.278 56.3247 58.236 56.4274 58.236C56.5207 58.236 56.6 58.2733 56.6654 58.348C56.74 58.4227 56.7774 58.5067 56.7774 58.6C56.7774 58.712 56.7307 58.81 56.6374 58.894C56.3574 59.23 55.9934 59.524 55.5454 59.776C55.0974 60.0187 54.6074 60.14 54.0754 60.14ZM65.1755 49.696C65.3155 49.696 65.4648 49.71 65.6235 49.738C65.7915 49.766 65.9362 49.8173 66.0575 49.892C66.1788 49.9573 66.2395 50.06 66.2395 50.2C66.2395 50.3027 66.2022 50.396 66.1275 50.48C66.0528 50.5547 65.9688 50.592 65.8755 50.592C65.7822 50.592 65.6655 50.5687 65.5255 50.522C65.3855 50.466 65.2362 50.438 65.0775 50.438C64.8815 50.438 64.7135 50.4847 64.5735 50.578C64.4335 50.662 64.3262 50.788 64.2515 50.956C64.1768 51.1147 64.1395 51.3107 64.1395 51.544V59.58C64.1395 59.692 64.0975 59.79 64.0135 59.874C63.9388 59.958 63.8408 60 63.7195 60C63.5982 60 63.4955 59.958 63.4115 59.874C63.3368 59.79 63.2995 59.692 63.2995 59.58V51.544C63.2995 50.9467 63.4722 50.4893 63.8175 50.172C64.1722 49.8547 64.6248 49.696 65.1755 49.696ZM65.7075 52.986C65.8195 52.986 65.9128 53.0233 65.9875 53.098C66.0622 53.1727 66.0995 53.266 66.0995 53.378C66.0995 53.49 66.0622 53.5833 65.9875 53.658C65.9128 53.7327 65.8195 53.77 65.7075 53.77H62.2775C62.1748 53.77 62.0815 53.7327 61.9975 53.658C61.9228 53.574 61.8855 53.4807 61.8855 53.378C61.8855 53.2567 61.9228 53.1633 61.9975 53.098C62.0815 53.0233 62.1748 52.986 62.2775 52.986H65.7075ZM73.7749 56.416C73.7749 57.1253 73.6209 57.7647 73.3129 58.334C73.0049 58.894 72.5849 59.3373 72.0529 59.664C71.5209 59.9813 70.9142 60.14 70.2329 60.14C69.5702 60.14 68.9682 59.9813 68.4269 59.664C67.8949 59.3373 67.4702 58.894 67.1529 58.334C66.8449 57.7647 66.6909 57.1253 66.6909 56.416C66.6909 55.6973 66.8449 55.058 67.1529 54.498C67.4702 53.938 67.8949 53.4947 68.4269 53.168C68.9682 52.8413 69.5702 52.678 70.2329 52.678C70.9142 52.678 71.5209 52.8413 72.0529 53.168C72.5849 53.4947 73.0049 53.938 73.3129 54.498C73.6209 55.058 73.7749 55.6973 73.7749 56.416ZM72.9349 56.416C72.9349 55.8467 72.8182 55.3427 72.5849 54.904C72.3515 54.456 72.0295 54.106 71.6189 53.854C71.2175 53.5927 70.7555 53.462 70.2329 53.462C69.7289 53.462 69.2715 53.5927 68.8609 53.854C68.4502 54.106 68.1235 54.456 67.8809 54.904C67.6475 55.3427 67.5309 55.8467 67.5309 56.416C67.5309 56.9853 67.6475 57.4893 67.8809 57.928C68.1235 58.3667 68.4502 58.7167 68.8609 58.978C69.2715 59.23 69.7289 59.356 70.2329 59.356C70.7555 59.356 71.2175 59.23 71.6189 58.978C72.0295 58.7167 72.3515 58.3667 72.5849 57.928C72.8182 57.4893 72.9349 56.9853 72.9349 56.416ZM75.9801 60C75.8494 60 75.7468 59.958 75.6721 59.874C75.5974 59.79 75.5601 59.692 75.5601 59.58V53.308C75.5601 53.196 75.5974 53.098 75.6721 53.014C75.7561 52.93 75.8588 52.888 75.9801 52.888C76.1014 52.888 76.1994 52.93 76.2741 53.014C76.3581 53.098 76.4001 53.196 76.4001 53.308V55.408L76.1901 55.45C76.2181 55.1233 76.2974 54.8013 76.4281 54.484C76.5681 54.1573 76.7548 53.8587 76.9881 53.588C77.2214 53.3173 77.4968 53.098 77.8141 52.93C78.1408 52.762 78.5048 52.678 78.9061 52.678C79.0741 52.678 79.2374 52.7153 79.3961 52.79C79.5548 52.8553 79.6341 52.9673 79.6341 53.126C79.6341 53.266 79.5968 53.3733 79.5221 53.448C79.4474 53.5227 79.3588 53.56 79.2561 53.56C79.1721 53.56 79.0788 53.5367 78.9761 53.49C78.8828 53.4433 78.7568 53.42 78.5981 53.42C78.3368 53.42 78.0754 53.4993 77.8141 53.658C77.5528 53.8073 77.3148 54.0127 77.1001 54.274C76.8854 54.5353 76.7128 54.8293 76.5821 55.156C76.4608 55.4733 76.4001 55.7953 76.4001 56.122V59.58C76.4001 59.692 76.3581 59.79 76.2741 59.874C76.1901 59.958 76.0921 60 75.9801 60ZM84.1668 52.79C84.7455 52.79 85.2402 52.944 85.6508 53.252C86.0615 53.5507 86.3415 53.9987 86.4908 54.596L86.2948 54.652L86.3788 54.4C86.5002 54.12 86.7008 53.8587 86.9808 53.616C87.2702 53.364 87.5968 53.1633 87.9608 53.014C88.3248 52.8647 88.6935 52.79 89.0668 52.79C89.6548 52.79 90.1262 52.916 90.4808 53.168C90.8448 53.42 91.1062 53.7607 91.2648 54.19C91.4328 54.61 91.5168 55.086 91.5168 55.618V59.58C91.5168 59.692 91.4748 59.79 91.3908 59.874C91.3162 59.958 91.2182 60 91.0968 60C90.9755 60 90.8728 59.958 90.7888 59.874C90.7142 59.79 90.6768 59.692 90.6768 59.58V55.66C90.6768 55.2773 90.6162 54.9273 90.4948 54.61C90.3735 54.2927 90.1822 54.0407 89.9208 53.854C89.6595 53.6673 89.3095 53.574 88.8708 53.574C88.4882 53.574 88.1195 53.6673 87.7648 53.854C87.4195 54.0407 87.1348 54.2927 86.9108 54.61C86.6962 54.9273 86.5888 55.2773 86.5888 55.66V59.58C86.5888 59.692 86.5468 59.79 86.4628 59.874C86.3882 59.958 86.2902 60 86.1688 60C86.0475 60 85.9448 59.958 85.8608 59.874C85.7862 59.79 85.7488 59.692 85.7488 59.58V55.618C85.7488 55.2353 85.6928 54.89 85.5808 54.582C85.4688 54.274 85.2868 54.0313 85.0348 53.854C84.7828 53.6673 84.4422 53.574 84.0128 53.574C83.6302 53.574 83.2662 53.6673 82.9208 53.854C82.5848 54.0313 82.3095 54.274 82.0948 54.582C81.8895 54.89 81.7868 55.2353 81.7868 55.618V59.58C81.7868 59.692 81.7448 59.79 81.6608 59.874C81.5768 59.958 81.4788 60 81.3668 60C81.2362 60 81.1335 59.958 81.0588 59.874C80.9842 59.79 80.9468 59.692 80.9468 59.58V53.308C80.9468 53.196 80.9842 53.098 81.0588 53.014C81.1428 52.93 81.2455 52.888 81.3668 52.888C81.4882 52.888 81.5862 52.93 81.6608 53.014C81.7448 53.098 81.7868 53.196 81.7868 53.308V54.61L81.4088 55.128C81.4368 54.848 81.5255 54.568 81.6748 54.288C81.8335 54.008 82.0388 53.756 82.2908 53.532C82.5428 53.308 82.8275 53.1307 83.1448 53C83.4715 52.86 83.8122 52.79 84.1668 52.79ZM104.208 56.416C104.208 57.1253 104.054 57.7647 103.746 58.334C103.438 58.894 103.018 59.3373 102.486 59.664C101.954 59.9813 101.348 60.14 100.666 60.14C100.004 60.14 99.4018 59.9813 98.8605 59.664C98.3285 59.3373 97.9038 58.894 97.5865 58.334C97.2785 57.7647 97.1245 57.1253 97.1245 56.416C97.1245 55.6973 97.2785 55.058 97.5865 54.498C97.9038 53.938 98.3285 53.4947 98.8605 53.168C99.4018 52.8413 100.004 52.678 100.666 52.678C101.348 52.678 101.954 52.8413 102.486 53.168C103.018 53.4947 103.438 53.938 103.746 54.498C104.054 55.058 104.208 55.6973 104.208 56.416ZM103.368 56.416C103.368 55.8467 103.252 55.3427 103.018 54.904C102.785 54.456 102.463 54.106 102.052 53.854C101.651 53.5927 101.189 53.462 100.666 53.462C100.162 53.462 99.7051 53.5927 99.2945 53.854C98.8838 54.106 98.5571 54.456 98.3145 54.904C98.0811 55.3427 97.9645 55.8467 97.9645 56.416C97.9645 56.9853 98.0811 57.4893 98.3145 57.928C98.5571 58.3667 98.8838 58.7167 99.2945 58.978C99.7051 59.23 100.162 59.356 100.666 59.356C101.189 59.356 101.651 59.23 102.052 58.978C102.463 58.7167 102.785 58.3667 103.018 57.928C103.252 57.4893 103.368 56.9853 103.368 56.416ZM108.584 49.696C108.724 49.696 108.873 49.71 109.032 49.738C109.2 49.766 109.344 49.8173 109.466 49.892C109.587 49.9573 109.648 50.06 109.648 50.2C109.648 50.3027 109.61 50.396 109.536 50.48C109.461 50.5547 109.377 50.592 109.284 50.592C109.19 50.592 109.074 50.5687 108.934 50.522C108.794 50.466 108.644 50.438 108.486 50.438C108.29 50.438 108.122 50.4847 107.982 50.578C107.842 50.662 107.734 50.788 107.66 50.956C107.585 51.1147 107.548 51.3107 107.548 51.544V59.58C107.548 59.692 107.506 59.79 107.422 59.874C107.347 59.958 107.249 60 107.128 60C107.006 60 106.904 59.958 106.82 59.874C106.745 59.79 106.708 59.692 106.708 59.58V51.544C106.708 50.9467 106.88 50.4893 107.226 50.172C107.58 49.8547 108.033 49.696 108.584 49.696ZM109.116 52.986C109.228 52.986 109.321 53.0233 109.396 53.098C109.47 53.1727 109.508 53.266 109.508 53.378C109.508 53.49 109.47 53.5833 109.396 53.658C109.321 53.7327 109.228 53.77 109.116 53.77H105.686C105.583 53.77 105.49 53.7327 105.406 53.658C105.331 53.574 105.294 53.4807 105.294 53.378C105.294 53.2567 105.331 53.1633 105.406 53.098C105.49 53.0233 105.583 52.986 105.686 52.986H109.116ZM118.017 52.678C118.465 52.678 118.875 52.7293 119.249 52.832C119.622 52.9253 119.921 53.056 120.145 53.224C120.378 53.392 120.495 53.574 120.495 53.77C120.495 53.8633 120.462 53.9567 120.397 54.05C120.331 54.134 120.243 54.176 120.131 54.176C120.019 54.176 119.925 54.148 119.851 54.092C119.785 54.036 119.715 53.9707 119.641 53.896C119.575 53.8213 119.477 53.7513 119.347 53.686C119.225 53.63 119.053 53.5787 118.829 53.532C118.605 53.4853 118.348 53.462 118.059 53.462C117.536 53.462 117.065 53.5927 116.645 53.854C116.225 54.1153 115.893 54.47 115.651 54.918C115.408 55.3567 115.287 55.8513 115.287 56.402C115.287 56.962 115.403 57.466 115.637 57.914C115.87 58.362 116.192 58.7167 116.603 58.978C117.013 59.23 117.494 59.356 118.045 59.356C118.418 59.356 118.707 59.3233 118.913 59.258C119.118 59.1927 119.295 59.118 119.445 59.034C119.622 58.9313 119.748 58.8333 119.823 58.74C119.907 58.6373 120.014 58.586 120.145 58.586C120.266 58.586 120.355 58.6233 120.411 58.698C120.476 58.7633 120.509 58.852 120.509 58.964C120.509 59.1133 120.397 59.2813 120.173 59.468C119.958 59.6453 119.659 59.804 119.277 59.944C118.894 60.0747 118.455 60.14 117.961 60.14C117.261 60.14 116.645 59.9767 116.113 59.65C115.59 59.3233 115.179 58.88 114.881 58.32C114.591 57.7507 114.447 57.1113 114.447 56.402C114.447 55.7207 114.596 55.1 114.895 54.54C115.193 53.98 115.609 53.532 116.141 53.196C116.682 52.8507 117.307 52.678 118.017 52.678ZM128.777 56.416C128.777 57.1253 128.623 57.7647 128.315 58.334C128.007 58.894 127.587 59.3373 127.055 59.664C126.523 59.9813 125.916 60.14 125.235 60.14C124.572 60.14 123.97 59.9813 123.429 59.664C122.897 59.3373 122.472 58.894 122.155 58.334C121.847 57.7647 121.693 57.1253 121.693 56.416C121.693 55.6973 121.847 55.058 122.155 54.498C122.472 53.938 122.897 53.4947 123.429 53.168C123.97 52.8413 124.572 52.678 125.235 52.678C125.916 52.678 126.523 52.8413 127.055 53.168C127.587 53.4947 128.007 53.938 128.315 54.498C128.623 55.058 128.777 55.6973 128.777 56.416ZM127.937 56.416C127.937 55.8467 127.82 55.3427 127.587 54.904C127.354 54.456 127.032 54.106 126.621 53.854C126.22 53.5927 125.758 53.462 125.235 53.462C124.731 53.462 124.274 53.5927 123.863 53.854C123.452 54.106 123.126 54.456 122.883 54.904C122.65 55.3427 122.533 55.8467 122.533 56.416C122.533 56.9853 122.65 57.4893 122.883 57.928C123.126 58.3667 123.452 58.7167 123.863 58.978C124.274 59.23 124.731 59.356 125.235 59.356C125.758 59.356 126.22 59.23 126.621 58.978C127.032 58.7167 127.354 58.3667 127.587 57.928C127.82 57.4893 127.937 56.9853 127.937 56.416ZM133.936 52.678C134.552 52.678 135.042 52.804 135.406 53.056C135.779 53.2987 136.045 53.6347 136.204 54.064C136.372 54.484 136.456 54.9507 136.456 55.464V59.58C136.456 59.692 136.414 59.79 136.33 59.874C136.246 59.958 136.148 60 136.036 60C135.905 60 135.803 59.958 135.728 59.874C135.653 59.79 135.616 59.692 135.616 59.58V55.506C135.616 55.1327 135.555 54.792 135.434 54.484C135.313 54.176 135.112 53.9287 134.832 53.742C134.561 53.5553 134.202 53.462 133.754 53.462C133.353 53.462 132.97 53.5553 132.606 53.742C132.251 53.9287 131.962 54.176 131.738 54.484C131.514 54.792 131.402 55.1327 131.402 55.506V59.58C131.402 59.692 131.36 59.79 131.276 59.874C131.192 59.958 131.094 60 130.982 60C130.851 60 130.749 59.958 130.674 59.874C130.599 59.79 130.562 59.692 130.562 59.58V53.308C130.562 53.196 130.599 53.098 130.674 53.014C130.758 52.93 130.861 52.888 130.982 52.888C131.103 52.888 131.201 52.93 131.276 53.014C131.36 53.098 131.402 53.196 131.402 53.308V54.484L131.08 54.988C131.099 54.6893 131.192 54.4047 131.36 54.134C131.537 53.854 131.761 53.6067 132.032 53.392C132.303 53.168 132.601 52.9953 132.928 52.874C133.264 52.7433 133.6 52.678 133.936 52.678ZM138.194 52.874H141.456C141.568 52.874 141.661 52.916 141.736 53C141.81 53.0747 141.848 53.168 141.848 53.28C141.848 53.3827 141.81 53.4713 141.736 53.546C141.661 53.6207 141.568 53.658 141.456 53.658H138.194C138.082 53.658 137.984 53.6207 137.9 53.546C137.825 53.462 137.788 53.3687 137.788 53.266C137.788 53.154 137.825 53.0607 137.9 52.986C137.984 52.9113 138.082 52.874 138.194 52.874ZM139.636 50.9C139.757 50.9 139.855 50.942 139.93 51.026C140.014 51.11 140.056 51.208 140.056 51.32V58.348C140.056 58.6093 140.088 58.8053 140.154 58.936C140.228 59.0667 140.322 59.1553 140.434 59.202C140.546 59.2393 140.658 59.258 140.77 59.258C140.844 59.258 140.91 59.2487 140.966 59.23C141.031 59.202 141.101 59.188 141.176 59.188C141.26 59.188 141.33 59.2207 141.386 59.286C141.451 59.3513 141.484 59.4353 141.484 59.538C141.484 59.6687 141.409 59.7807 141.26 59.874C141.11 59.958 140.933 60 140.728 60C140.644 60 140.518 59.9953 140.35 59.986C140.182 59.9673 140.009 59.916 139.832 59.832C139.654 59.7387 139.505 59.58 139.384 59.356C139.272 59.132 139.216 58.81 139.216 58.39V51.32C139.216 51.208 139.253 51.11 139.328 51.026C139.412 50.942 139.514 50.9 139.636 50.9ZM146.566 60.14C145.847 60.14 145.212 59.986 144.662 59.678C144.111 59.37 143.682 58.9407 143.374 58.39C143.066 57.8393 142.912 57.1953 142.912 56.458C142.912 55.6647 143.066 54.988 143.374 54.428C143.691 53.868 144.097 53.4387 144.592 53.14C145.096 52.832 145.628 52.678 146.188 52.678C146.598 52.678 146.995 52.7527 147.378 52.902C147.77 53.042 148.115 53.2567 148.414 53.546C148.722 53.826 148.964 54.1713 149.142 54.582C149.328 54.9927 149.431 55.4687 149.45 56.01C149.44 56.122 149.394 56.22 149.31 56.304C149.226 56.3787 149.128 56.416 149.016 56.416H143.402L143.234 55.66H148.75L148.568 55.828V55.548C148.53 55.1093 148.39 54.736 148.148 54.428C147.905 54.12 147.611 53.8867 147.266 53.728C146.92 53.5693 146.561 53.49 146.188 53.49C145.908 53.49 145.618 53.546 145.32 53.658C145.03 53.77 144.764 53.9473 144.522 54.19C144.288 54.4233 144.097 54.7267 143.948 55.1C143.798 55.464 143.724 55.898 143.724 56.402C143.724 56.9527 143.836 57.452 144.06 57.9C144.284 58.348 144.606 58.7027 145.026 58.964C145.455 59.2253 145.964 59.356 146.552 59.356C146.878 59.356 147.172 59.3093 147.434 59.216C147.695 59.1227 147.924 59.0013 148.12 58.852C148.316 58.6933 148.479 58.53 148.61 58.362C148.712 58.278 148.815 58.236 148.918 58.236C149.011 58.236 149.09 58.2733 149.156 58.348C149.23 58.4227 149.268 58.5067 149.268 58.6C149.268 58.712 149.221 58.81 149.128 58.894C148.848 59.23 148.484 59.524 148.036 59.776C147.588 60.0187 147.098 60.14 146.566 60.14ZM154.622 52.678C155.238 52.678 155.728 52.804 156.092 53.056C156.465 53.2987 156.731 53.6347 156.89 54.064C157.058 54.484 157.142 54.9507 157.142 55.464V59.58C157.142 59.692 157.1 59.79 157.016 59.874C156.932 59.958 156.834 60 156.722 60C156.591 60 156.488 59.958 156.414 59.874C156.339 59.79 156.302 59.692 156.302 59.58V55.506C156.302 55.1327 156.241 54.792 156.12 54.484C155.998 54.176 155.798 53.9287 155.518 53.742C155.247 53.5553 154.888 53.462 154.44 53.462C154.038 53.462 153.656 53.5553 153.292 53.742C152.937 53.9287 152.648 54.176 152.424 54.484C152.2 54.792 152.088 55.1327 152.088 55.506V59.58C152.088 59.692 152.046 59.79 151.962 59.874C151.878 59.958 151.78 60 151.668 60C151.537 60 151.434 59.958 151.36 59.874C151.285 59.79 151.248 59.692 151.248 59.58V53.308C151.248 53.196 151.285 53.098 151.36 53.014C151.444 52.93 151.546 52.888 151.668 52.888C151.789 52.888 151.887 52.93 151.962 53.014C152.046 53.098 152.088 53.196 152.088 53.308V54.484L151.766 54.988C151.784 54.6893 151.878 54.4047 152.046 54.134C152.223 53.854 152.447 53.6067 152.718 53.392C152.988 53.168 153.287 52.9953 153.614 52.874C153.95 52.7433 154.286 52.678 154.622 52.678ZM158.879 52.874H162.141C162.253 52.874 162.347 52.916 162.421 53C162.496 53.0747 162.533 53.168 162.533 53.28C162.533 53.3827 162.496 53.4713 162.421 53.546C162.347 53.6207 162.253 53.658 162.141 53.658H158.879C158.767 53.658 158.669 53.6207 158.585 53.546C158.511 53.462 158.473 53.3687 158.473 53.266C158.473 53.154 158.511 53.0607 158.585 52.986C158.669 52.9113 158.767 52.874 158.879 52.874ZM160.321 50.9C160.443 50.9 160.541 50.942 160.615 51.026C160.699 51.11 160.741 51.208 160.741 51.32V58.348C160.741 58.6093 160.774 58.8053 160.839 58.936C160.914 59.0667 161.007 59.1553 161.119 59.202C161.231 59.2393 161.343 59.258 161.455 59.258C161.53 59.258 161.595 59.2487 161.651 59.23C161.717 59.202 161.787 59.188 161.861 59.188C161.945 59.188 162.015 59.2207 162.071 59.286C162.137 59.3513 162.169 59.4353 162.169 59.538C162.169 59.6687 162.095 59.7807 161.945 59.874C161.796 59.958 161.619 60 161.413 60C161.329 60 161.203 59.9953 161.035 59.986C160.867 59.9673 160.695 59.916 160.517 59.832C160.34 59.7387 160.191 59.58 160.069 59.356C159.957 59.132 159.901 58.81 159.901 58.39V51.32C159.901 51.208 159.939 51.11 160.013 51.026C160.097 50.942 160.2 50.9 160.321 50.9Z" fill="#D658D6"/>
<defs>
<filter id="filter0_d_449_23" x="0" y="0" width="201" height="118" filterUnits="userSpaceOnUse" color-interpolation-filters="sRGB">
<feFlood flood-opacity="0" result="BackgroundImageFix"/>
<feColorMatrix in="SourceAlpha" type="matrix" values="0 0 0 0 0 0 0 0 0 0 0 0 0 0 0 0 0 0 127 0" result="hardAlpha"/>
<feMorphology radius="7" operator="erode" in="SourceAlpha" result="effect1_dropShadow_449_23"/>
<feOffset dy="4"/>
<feGaussianBlur stdDeviation="12"/>
<feComposite in2="hardAlpha" operator="out"/>
<feColorMatrix type="matrix" values="0 0 0 0 0 0 0 0 0 0 0 0 0 0 0 0 0 0 0.25 0"/>
<feBlend mode="normal" in2="BackgroundImageFix" result="effect1_dropShadow_449_23"/>
<feBlend mode="normal" in="SourceGraphic" in2="effect1_dropShadow_449_23" result="shape"/>
</filter>
</defs>
</svg>
