<svg width="201" height="118" viewBox="0 0 201 118" fill="none" xmlns="http://www.w3.org/2000/svg">
<g filter="url(#filter0_d_449_27)">
<rect x="17" y="13" width="167" height="84" rx="19" fill="#F6FDFE"/>
</g>
<path d="M27.488 41.566C27.4787 41.6873 27.4274 41.79 27.334 41.874C27.25 41.958 27.152 42 27.04 42C26.9094 42 26.802 41.958 26.718 41.874C26.6434 41.79 26.606 41.6873 26.606 41.566V32.634C26.606 32.5127 26.648 32.41 26.732 32.326C26.816 32.242 26.9234 32.2 27.054 32.2C27.166 32.2 27.264 32.242 27.348 32.326C27.4414 32.41 27.488 32.5127 27.488 32.634V41.566ZM33.27 34.678C33.886 34.678 34.376 34.804 34.74 35.056C35.1134 35.2987 35.3794 35.6347 35.538 36.064C35.706 36.484 35.79 36.9507 35.79 37.464V41.58C35.79 41.692 35.748 41.79 35.664 41.874C35.58 41.958 35.482 42 35.37 42C35.2394 42 35.1367 41.958 35.062 41.874C34.9874 41.79 34.95 41.692 34.95 41.58V37.506C34.95 37.1327 34.8894 36.792 34.768 36.484C34.6467 36.176 34.446 35.9287 34.166 35.742C33.8954 35.5553 33.536 35.462 33.088 35.462C32.6867 35.462 32.304 35.5553 31.94 35.742C31.5854 35.9287 31.296 36.176 31.072 36.484C30.848 36.792 30.736 37.1327 30.736 37.506V41.58C30.736 41.692 30.694 41.79 30.61 41.874C30.526 41.958 30.428 42 30.316 42C30.1854 42 30.0827 41.958 30.008 41.874C29.9334 41.79 29.896 41.692 29.896 41.58V35.308C29.896 35.196 29.9334 35.098 30.008 35.014C30.092 34.93 30.1947 34.888 30.316 34.888C30.4374 34.888 30.5354 34.93 30.61 35.014C30.694 35.098 30.736 35.196 30.736 35.308V36.484L30.414 36.988C30.4327 36.6893 30.526 36.4047 30.694 36.134C30.8714 35.854 31.0954 35.6067 31.366 35.392C31.6367 35.168 31.9354 34.9953 32.262 34.874C32.598 34.7433 32.934 34.678 33.27 34.678ZM38.1018 38.038C37.9898 38.038 37.8918 37.996 37.8078 37.912C37.7331 37.828 37.6958 37.7253 37.6958 37.604C37.6958 37.492 37.7331 37.3987 37.8078 37.324C37.8918 37.24 37.9898 37.198 38.1018 37.198H41.1258C41.2378 37.198 41.3358 37.24 41.4198 37.324C41.5038 37.408 41.5458 37.5107 41.5458 37.632C41.5458 37.744 41.5038 37.842 41.4198 37.926C41.3358 38.0007 41.2378 38.038 41.1258 38.038H38.1018ZM46.7069 34.79C47.2949 34.79 47.7709 34.916 48.1349 35.168C48.4989 35.42 48.7649 35.7607 48.9329 36.19C49.1102 36.6193 49.1989 37.0953 49.1989 37.618V41.58C49.1989 41.692 49.1569 41.79 49.0729 41.874C48.9889 41.958 48.8909 42 48.7789 42C48.6482 42 48.5455 41.958 48.4709 41.874C48.3962 41.79 48.3589 41.692 48.3589 41.58V37.618C48.3589 37.2353 48.2982 36.89 48.1769 36.582C48.0649 36.274 47.8782 36.0313 47.6169 35.854C47.3555 35.6673 47.0055 35.574 46.5669 35.574C46.1749 35.574 45.8015 35.6673 45.4469 35.854C45.1015 36.0313 44.8215 36.274 44.6069 36.582C44.3922 36.89 44.2849 37.2353 44.2849 37.618V41.58C44.2849 41.692 44.2429 41.79 44.1589 41.874C44.0749 41.958 43.9769 42 43.8649 42C43.7342 42 43.6315 41.958 43.5569 41.874C43.4822 41.79 43.4449 41.692 43.4449 41.58V32.06C43.4449 31.948 43.4822 31.85 43.5569 31.766C43.6409 31.682 43.7435 31.64 43.8649 31.64C43.9862 31.64 44.0842 31.682 44.1589 31.766C44.2429 31.85 44.2849 31.948 44.2849 32.06V36.596L43.9629 37.086C43.9815 36.7967 44.0702 36.5167 44.2289 36.246C44.3969 35.966 44.6115 35.7187 44.8729 35.504C45.1342 35.28 45.4235 35.1073 45.7409 34.986C46.0582 34.8553 46.3802 34.79 46.7069 34.79ZM58.0659 38.416C58.0659 39.1253 57.9119 39.7647 57.6039 40.334C57.2959 40.894 56.8759 41.3373 56.3439 41.664C55.8119 41.9813 55.2052 42.14 54.5239 42.14C53.8612 42.14 53.2592 41.9813 52.7179 41.664C52.1859 41.3373 51.7612 40.894 51.4439 40.334C51.1359 39.7647 50.9819 39.1253 50.9819 38.416C50.9819 37.6973 51.1359 37.058 51.4439 36.498C51.7612 35.938 52.1859 35.4947 52.7179 35.168C53.2592 34.8413 53.8612 34.678 54.5239 34.678C55.2052 34.678 55.8119 34.8413 56.3439 35.168C56.8759 35.4947 57.2959 35.938 57.6039 36.498C57.9119 37.058 58.0659 37.6973 58.0659 38.416ZM57.2259 38.416C57.2259 37.8467 57.1092 37.3427 56.8759 36.904C56.6426 36.456 56.3206 36.106 55.9099 35.854C55.5086 35.5927 55.0466 35.462 54.5239 35.462C54.0199 35.462 53.5626 35.5927 53.1519 35.854C52.7412 36.106 52.4146 36.456 52.1719 36.904C51.9386 37.3427 51.8219 37.8467 51.8219 38.416C51.8219 38.9853 51.9386 39.4893 52.1719 39.928C52.4146 40.3667 52.7412 40.7167 53.1519 40.978C53.5626 41.23 54.0199 41.356 54.5239 41.356C55.0466 41.356 55.5086 41.23 55.9099 40.978C56.3206 40.7167 56.6426 40.3667 56.8759 39.928C57.1092 39.4893 57.2259 38.9853 57.2259 38.416ZM65.1991 34.888C65.3205 34.888 65.4185 34.93 65.4931 35.014C65.5771 35.098 65.6191 35.196 65.6191 35.308V39.256C65.6191 40.18 65.3578 40.8847 64.8351 41.37C64.3125 41.8553 63.6078 42.098 62.7211 42.098C61.8438 42.098 61.1438 41.8553 60.6211 41.37C60.1078 40.8847 59.8511 40.18 59.8511 39.256V35.308C59.8511 35.196 59.8885 35.098 59.9631 35.014C60.0471 34.93 60.1498 34.888 60.2711 34.888C60.3925 34.888 60.4905 34.93 60.5651 35.014C60.6491 35.098 60.6911 35.196 60.6911 35.308V39.256C60.6911 39.928 60.8685 40.4413 61.2231 40.796C61.5871 41.1413 62.0865 41.314 62.7211 41.314C63.3651 41.314 63.8691 41.1413 64.2331 40.796C64.5971 40.4413 64.7791 39.928 64.7791 39.256V35.308C64.7791 35.196 64.8165 35.098 64.8911 35.014C64.9658 34.93 65.0685 34.888 65.1991 34.888ZM67.4158 40.866C67.3412 40.754 67.3038 40.6467 67.3038 40.544C67.3132 40.432 67.3738 40.3433 67.4858 40.278C67.5605 40.2127 67.6445 40.1847 67.7378 40.194C67.8405 40.2033 67.9338 40.25 68.0178 40.334C68.2698 40.6607 68.5732 40.9267 68.9278 41.132C69.2918 41.328 69.7212 41.426 70.2158 41.426C70.4772 41.426 70.7338 41.384 70.9858 41.3C71.2472 41.2067 71.4618 41.0713 71.6298 40.894C71.7978 40.7073 71.8818 40.474 71.8818 40.194C71.8818 39.9047 71.7978 39.6713 71.6298 39.494C71.4618 39.3167 71.2425 39.1767 70.9718 39.074C70.7105 38.9713 70.4305 38.8827 70.1318 38.808C69.8145 38.724 69.5065 38.6307 69.2078 38.528C68.9092 38.416 68.6432 38.2807 68.4098 38.122C68.1858 37.954 68.0038 37.7533 67.8638 37.52C67.7238 37.2867 67.6538 37.002 67.6538 36.666C67.6538 36.274 67.7612 35.9287 67.9758 35.63C68.1905 35.3313 68.4798 35.098 68.8438 34.93C69.2172 34.762 69.6372 34.678 70.1038 34.678C70.3372 34.678 70.5892 34.7107 70.8598 34.776C71.1305 34.832 71.3965 34.93 71.6578 35.07C71.9192 35.21 72.1525 35.4013 72.3578 35.644C72.4418 35.728 72.4838 35.826 72.4838 35.938C72.4838 36.0407 72.4372 36.134 72.3438 36.218C72.2692 36.274 72.1805 36.302 72.0778 36.302C71.9845 36.302 71.9052 36.2647 71.8398 36.19C71.6158 35.938 71.3498 35.7467 71.0418 35.616C70.7338 35.4853 70.4025 35.42 70.0478 35.42C69.7772 35.42 69.5205 35.4667 69.2778 35.56C69.0445 35.644 68.8485 35.7747 68.6898 35.952C68.5312 36.1293 68.4518 36.3627 68.4518 36.652C68.4705 36.9227 68.5638 37.142 68.7318 37.31C68.9092 37.478 69.1378 37.618 69.4178 37.73C69.7072 37.842 70.0292 37.9447 70.3838 38.038C70.6825 38.1127 70.9672 38.2013 71.2378 38.304C71.5178 38.4067 71.7605 38.5373 71.9658 38.696C72.1805 38.8453 72.3485 39.0367 72.4698 39.27C72.6005 39.5033 72.6658 39.7973 72.6658 40.152C72.6658 40.5627 72.5492 40.9173 72.3158 41.216C72.0918 41.5147 71.7885 41.7433 71.4058 41.902C71.0232 42.0607 70.5985 42.14 70.1318 42.14C69.6278 42.14 69.1378 42.042 68.6618 41.846C68.1952 41.65 67.7798 41.3233 67.4158 40.866ZM77.6183 42.14C76.8997 42.14 76.265 41.986 75.7143 41.678C75.1637 41.37 74.7343 40.9407 74.4263 40.39C74.1183 39.8393 73.9643 39.1953 73.9643 38.458C73.9643 37.6647 74.1183 36.988 74.4263 36.428C74.7437 35.868 75.1497 35.4387 75.6443 35.14C76.1483 34.832 76.6803 34.678 77.2403 34.678C77.651 34.678 78.0477 34.7527 78.4303 34.902C78.8223 35.042 79.1677 35.2567 79.4663 35.546C79.7743 35.826 80.017 36.1713 80.1943 36.582C80.381 36.9927 80.4837 37.4687 80.5023 38.01C80.493 38.122 80.4463 38.22 80.3623 38.304C80.2783 38.3787 80.1803 38.416 80.0683 38.416H74.4543L74.2863 37.66H79.8023L79.6203 37.828V37.548C79.583 37.1093 79.443 36.736 79.2003 36.428C78.9577 36.12 78.6637 35.8867 78.3183 35.728C77.973 35.5693 77.6137 35.49 77.2403 35.49C76.9603 35.49 76.671 35.546 76.3723 35.658C76.083 35.77 75.817 35.9473 75.5743 36.19C75.341 36.4233 75.1497 36.7267 75.0003 37.1C74.851 37.464 74.7763 37.898 74.7763 38.402C74.7763 38.9527 74.8883 39.452 75.1123 39.9C75.3363 40.348 75.6583 40.7027 76.0783 40.964C76.5077 41.2253 77.0163 41.356 77.6043 41.356C77.931 41.356 78.225 41.3093 78.4863 41.216C78.7477 41.1227 78.9763 41.0013 79.1723 40.852C79.3683 40.6933 79.5317 40.53 79.6623 40.362C79.765 40.278 79.8677 40.236 79.9703 40.236C80.0637 40.236 80.143 40.2733 80.2083 40.348C80.283 40.4227 80.3203 40.5067 80.3203 40.6C80.3203 40.712 80.2737 40.81 80.1803 40.894C79.9003 41.23 79.5363 41.524 79.0883 41.776C78.6403 42.0187 78.1503 42.14 77.6183 42.14ZM89.2785 34.678C89.7265 34.678 90.1371 34.7293 90.5105 34.832C90.8838 34.9253 91.1825 35.056 91.4065 35.224C91.6398 35.392 91.7565 35.574 91.7565 35.77C91.7565 35.8633 91.7238 35.9567 91.6585 36.05C91.5931 36.134 91.5045 36.176 91.3925 36.176C91.2805 36.176 91.1871 36.148 91.1125 36.092C91.0471 36.036 90.9771 35.9707 90.9025 35.896C90.8371 35.8213 90.7391 35.7513 90.6085 35.686C90.4871 35.63 90.3145 35.5787 90.0905 35.532C89.8665 35.4853 89.6098 35.462 89.3205 35.462C88.7978 35.462 88.3265 35.5927 87.9065 35.854C87.4865 36.1153 87.1551 36.47 86.9125 36.918C86.6698 37.3567 86.5485 37.8513 86.5485 38.402C86.5485 38.962 86.6651 39.466 86.8985 39.914C87.1318 40.362 87.4538 40.7167 87.8645 40.978C88.2751 41.23 88.7558 41.356 89.3065 41.356C89.6798 41.356 89.9691 41.3233 90.1745 41.258C90.3798 41.1927 90.5571 41.118 90.7065 41.034C90.8838 40.9313 91.0098 40.8333 91.0845 40.74C91.1685 40.6373 91.2758 40.586 91.4065 40.586C91.5278 40.586 91.6165 40.6233 91.6725 40.698C91.7378 40.7633 91.7705 40.852 91.7705 40.964C91.7705 41.1133 91.6585 41.2813 91.4345 41.468C91.2198 41.6453 90.9211 41.804 90.5385 41.944C90.1558 42.0747 89.7171 42.14 89.2225 42.14C88.5225 42.14 87.9065 41.9767 87.3745 41.65C86.8518 41.3233 86.4411 40.88 86.1425 40.32C85.8531 39.7507 85.7085 39.1113 85.7085 38.402C85.7085 37.7207 85.8578 37.1 86.1565 36.54C86.4551 35.98 86.8705 35.532 87.4025 35.196C87.9438 34.8507 88.5691 34.678 89.2785 34.678ZM93.7946 42C93.6639 42 93.5612 41.958 93.4866 41.874C93.4119 41.79 93.3746 41.692 93.3746 41.58V35.308C93.3746 35.196 93.4119 35.098 93.4866 35.014C93.5706 34.93 93.6732 34.888 93.7946 34.888C93.9159 34.888 94.0139 34.93 94.0886 35.014C94.1726 35.098 94.2146 35.196 94.2146 35.308V37.408L94.0046 37.45C94.0326 37.1233 94.1119 36.8013 94.2426 36.484C94.3826 36.1573 94.5692 35.8587 94.8026 35.588C95.0359 35.3173 95.3112 35.098 95.6286 34.93C95.9552 34.762 96.3192 34.678 96.7206 34.678C96.8886 34.678 97.0519 34.7153 97.2106 34.79C97.3692 34.8553 97.4486 34.9673 97.4486 35.126C97.4486 35.266 97.4112 35.3733 97.3366 35.448C97.2619 35.5227 97.1732 35.56 97.0706 35.56C96.9866 35.56 96.8932 35.5367 96.7906 35.49C96.6972 35.4433 96.5712 35.42 96.4126 35.42C96.1512 35.42 95.8899 35.4993 95.6286 35.658C95.3672 35.8073 95.1292 36.0127 94.9146 36.274C94.6999 36.5353 94.5272 36.8293 94.3966 37.156C94.2752 37.4733 94.2146 37.7953 94.2146 38.122V41.58C94.2146 41.692 94.1726 41.79 94.0886 41.874C94.0046 41.958 93.9066 42 93.7946 42ZM101.681 42.14C100.962 42.14 100.327 41.986 99.7768 41.678C99.2262 41.37 98.7968 40.9407 98.4888 40.39C98.1808 39.8393 98.0268 39.1953 98.0268 38.458C98.0268 37.6647 98.1808 36.988 98.4888 36.428C98.8062 35.868 99.2122 35.4387 99.7068 35.14C100.211 34.832 100.743 34.678 101.303 34.678C101.713 34.678 102.11 34.7527 102.493 34.902C102.885 35.042 103.23 35.2567 103.529 35.546C103.837 35.826 104.079 36.1713 104.257 36.582C104.443 36.9927 104.546 37.4687 104.565 38.01C104.555 38.122 104.509 38.22 104.425 38.304C104.341 38.3787 104.243 38.416 104.131 38.416H98.5168L98.3488 37.66H103.865L103.683 37.828V37.548C103.645 37.1093 103.505 36.736 103.263 36.428C103.02 36.12 102.726 35.8867 102.381 35.728C102.035 35.5693 101.676 35.49 101.303 35.49C101.023 35.49 100.733 35.546 100.435 35.658C100.145 35.77 99.8795 35.9473 99.6368 36.19C99.4035 36.4233 99.2122 36.7267 99.0628 37.1C98.9135 37.464 98.8388 37.898 98.8388 38.402C98.8388 38.9527 98.9508 39.452 99.1748 39.9C99.3988 40.348 99.7208 40.7027 100.141 40.964C100.57 41.2253 101.079 41.356 101.667 41.356C101.993 41.356 102.287 41.3093 102.549 41.216C102.81 41.1227 103.039 41.0013 103.235 40.852C103.431 40.6933 103.594 40.53 103.725 40.362C103.827 40.278 103.93 40.236 104.033 40.236C104.126 40.236 104.205 40.2733 104.271 40.348C104.345 40.4227 104.383 40.5067 104.383 40.6C104.383 40.712 104.336 40.81 104.243 40.894C103.963 41.23 103.599 41.524 103.151 41.776C102.703 42.0187 102.213 42.14 101.681 42.14ZM112.284 34.846C112.405 34.846 112.503 34.888 112.578 34.972C112.662 35.056 112.704 35.1587 112.704 35.28V41.58C112.704 41.692 112.662 41.79 112.578 41.874C112.494 41.958 112.396 42 112.284 42C112.162 42 112.06 41.958 111.976 41.874C111.901 41.79 111.864 41.692 111.864 41.58V39.914L112.102 39.802C112.102 40.0633 112.027 40.3293 111.878 40.6C111.738 40.8707 111.542 41.1227 111.29 41.356C111.038 41.5893 110.739 41.7807 110.394 41.93C110.058 42.07 109.694 42.14 109.302 42.14C108.667 42.14 108.098 41.9767 107.594 41.65C107.099 41.3233 106.707 40.8753 106.418 40.306C106.138 39.7367 105.998 39.0973 105.998 38.388C105.998 37.66 106.142 37.0207 106.432 36.47C106.721 35.91 107.113 35.4713 107.608 35.154C108.102 34.8367 108.662 34.678 109.288 34.678C109.689 34.678 110.062 34.748 110.408 34.888C110.762 35.028 111.07 35.2193 111.332 35.462C111.593 35.7047 111.794 35.9847 111.934 36.302C112.083 36.61 112.158 36.932 112.158 37.268L111.864 37.058V35.28C111.864 35.1587 111.901 35.056 111.976 34.972C112.06 34.888 112.162 34.846 112.284 34.846ZM109.372 41.356C109.866 41.356 110.305 41.23 110.688 40.978C111.07 40.7167 111.369 40.362 111.584 39.914C111.808 39.4567 111.92 38.948 111.92 38.388C111.92 37.8373 111.808 37.3427 111.584 36.904C111.369 36.4653 111.07 36.1153 110.688 35.854C110.305 35.5927 109.866 35.462 109.372 35.462C108.886 35.462 108.448 35.588 108.056 35.84C107.673 36.092 107.37 36.4373 107.146 36.876C106.931 37.3147 106.824 37.8187 106.824 38.388C106.824 38.948 106.931 39.4567 107.146 39.914C107.37 40.362 107.673 40.7167 108.056 40.978C108.438 41.23 108.877 41.356 109.372 41.356ZM114.446 34.874H117.708C117.82 34.874 117.913 34.916 117.988 35C118.062 35.0747 118.1 35.168 118.1 35.28C118.1 35.3827 118.062 35.4713 117.988 35.546C117.913 35.6207 117.82 35.658 117.708 35.658H114.446C114.334 35.658 114.236 35.6207 114.152 35.546C114.077 35.462 114.04 35.3687 114.04 35.266C114.04 35.154 114.077 35.0607 114.152 34.986C114.236 34.9113 114.334 34.874 114.446 34.874ZM115.888 32.9C116.009 32.9 116.107 32.942 116.182 33.026C116.266 33.11 116.308 33.208 116.308 33.32V40.348C116.308 40.6093 116.34 40.8053 116.406 40.936C116.48 41.0667 116.574 41.1553 116.686 41.202C116.798 41.2393 116.91 41.258 117.022 41.258C117.096 41.258 117.162 41.2487 117.218 41.23C117.283 41.202 117.353 41.188 117.428 41.188C117.512 41.188 117.582 41.2207 117.638 41.286C117.703 41.3513 117.736 41.4353 117.736 41.538C117.736 41.6687 117.661 41.7807 117.512 41.874C117.362 41.958 117.185 42 116.98 42C116.896 42 116.77 41.9953 116.602 41.986C116.434 41.9673 116.261 41.916 116.084 41.832C115.906 41.7387 115.757 41.58 115.636 41.356C115.524 41.132 115.468 40.81 115.468 40.39V33.32C115.468 33.208 115.505 33.11 115.58 33.026C115.664 32.942 115.766 32.9 115.888 32.9ZM120.464 41.58C120.464 41.692 120.422 41.79 120.338 41.874C120.254 41.958 120.156 42 120.044 42C119.923 42 119.82 41.958 119.736 41.874C119.661 41.79 119.624 41.692 119.624 41.58V35.14C119.624 35.028 119.661 34.93 119.736 34.846C119.82 34.762 119.923 34.72 120.044 34.72C120.165 34.72 120.263 34.762 120.338 34.846C120.422 34.93 120.464 35.028 120.464 35.14V41.58ZM120.044 33.782C119.848 33.782 119.699 33.74 119.596 33.656C119.503 33.5627 119.456 33.432 119.456 33.264V33.124C119.456 32.956 119.507 32.83 119.61 32.746C119.722 32.6527 119.871 32.606 120.058 32.606C120.235 32.606 120.371 32.6527 120.464 32.746C120.567 32.83 120.618 32.956 120.618 33.124V33.264C120.618 33.432 120.567 33.5627 120.464 33.656C120.371 33.74 120.231 33.782 120.044 33.782ZM122.478 34.692C122.553 34.692 122.627 34.7153 122.702 34.762C122.777 34.8087 122.833 34.8787 122.87 34.972L125.32 40.796L125.138 40.908L127.644 34.972C127.719 34.7853 127.854 34.6967 128.05 34.706C128.143 34.706 128.232 34.7387 128.316 34.804C128.4 34.86 128.442 34.944 128.442 35.056C128.442 35.112 128.433 35.1587 128.414 35.196C128.405 35.224 128.395 35.2567 128.386 35.294L125.642 41.734C125.567 41.902 125.441 41.9907 125.264 42C125.18 42.0093 125.096 41.9907 125.012 41.944C124.937 41.888 124.881 41.818 124.844 41.734L122.086 35.294C122.077 35.2753 122.067 35.2473 122.058 35.21C122.049 35.1727 122.044 35.1353 122.044 35.098C122.044 34.9953 122.081 34.902 122.156 34.818C122.231 34.734 122.338 34.692 122.478 34.692ZM133.222 42.14C132.503 42.14 131.869 41.986 131.318 41.678C130.767 41.37 130.338 40.9407 130.03 40.39C129.722 39.8393 129.568 39.1953 129.568 38.458C129.568 37.6647 129.722 36.988 130.03 36.428C130.347 35.868 130.753 35.4387 131.248 35.14C131.752 34.832 132.284 34.678 132.844 34.678C133.255 34.678 133.651 34.7527 134.034 34.902C134.426 35.042 134.771 35.2567 135.07 35.546C135.378 35.826 135.621 36.1713 135.798 36.582C135.985 36.9927 136.087 37.4687 136.106 38.01C136.097 38.122 136.05 38.22 135.966 38.304C135.882 38.3787 135.784 38.416 135.672 38.416H130.058L129.89 37.66H135.406L135.224 37.828V37.548C135.187 37.1093 135.047 36.736 134.804 36.428C134.561 36.12 134.267 35.8867 133.922 35.728C133.577 35.5693 133.217 35.49 132.844 35.49C132.564 35.49 132.275 35.546 131.976 35.658C131.687 35.77 131.421 35.9473 131.178 36.19C130.945 36.4233 130.753 36.7267 130.604 37.1C130.455 37.464 130.38 37.898 130.38 38.402C130.38 38.9527 130.492 39.452 130.716 39.9C130.94 40.348 131.262 40.7027 131.682 40.964C132.111 41.2253 132.62 41.356 133.208 41.356C133.535 41.356 133.829 41.3093 134.09 41.216C134.351 41.1227 134.58 41.0013 134.776 40.852C134.972 40.6933 135.135 40.53 135.266 40.362C135.369 40.278 135.471 40.236 135.574 40.236C135.667 40.236 135.747 40.2733 135.812 40.348C135.887 40.4227 135.924 40.5067 135.924 40.6C135.924 40.712 135.877 40.81 135.784 40.894C135.504 41.23 135.14 41.524 134.692 41.776C134.244 42.0187 133.754 42.14 133.222 42.14ZM141.27 34.874H144.532C144.644 34.874 144.737 34.916 144.812 35C144.887 35.0747 144.924 35.168 144.924 35.28C144.924 35.3827 144.887 35.4713 144.812 35.546C144.737 35.6207 144.644 35.658 144.532 35.658H141.27C141.158 35.658 141.06 35.6207 140.976 35.546C140.901 35.462 140.864 35.3687 140.864 35.266C140.864 35.154 140.901 35.0607 140.976 34.986C141.06 34.9113 141.158 34.874 141.27 34.874ZM142.712 32.9C142.833 32.9 142.931 32.942 143.006 33.026C143.09 33.11 143.132 33.208 143.132 33.32V40.348C143.132 40.6093 143.165 40.8053 143.23 40.936C143.305 41.0667 143.398 41.1553 143.51 41.202C143.622 41.2393 143.734 41.258 143.846 41.258C143.921 41.258 143.986 41.2487 144.042 41.23C144.107 41.202 144.177 41.188 144.252 41.188C144.336 41.188 144.406 41.2207 144.462 41.286C144.527 41.3513 144.56 41.4353 144.56 41.538C144.56 41.6687 144.485 41.7807 144.336 41.874C144.187 41.958 144.009 42 143.804 42C143.72 42 143.594 41.9953 143.426 41.986C143.258 41.9673 143.085 41.916 142.908 41.832C142.731 41.7387 142.581 41.58 142.46 41.356C142.348 41.132 142.292 40.81 142.292 40.39V33.32C142.292 33.208 142.329 33.11 142.404 33.026C142.488 32.942 142.591 32.9 142.712 32.9ZM153.072 38.416C153.072 39.1253 152.918 39.7647 152.61 40.334C152.302 40.894 151.882 41.3373 151.35 41.664C150.818 41.9813 150.211 42.14 149.53 42.14C148.867 42.14 148.265 41.9813 147.724 41.664C147.192 41.3373 146.767 40.894 146.45 40.334C146.142 39.7647 145.988 39.1253 145.988 38.416C145.988 37.6973 146.142 37.058 146.45 36.498C146.767 35.938 147.192 35.4947 147.724 35.168C148.265 34.8413 148.867 34.678 149.53 34.678C150.211 34.678 150.818 34.8413 151.35 35.168C151.882 35.4947 152.302 35.938 152.61 36.498C152.918 37.058 153.072 37.6973 153.072 38.416ZM152.232 38.416C152.232 37.8467 152.115 37.3427 151.882 36.904C151.648 36.456 151.326 36.106 150.916 35.854C150.514 35.5927 150.052 35.462 149.53 35.462C149.026 35.462 148.568 35.5927 148.158 35.854C147.747 36.106 147.42 36.456 147.178 36.904C146.944 37.3427 146.828 37.8467 146.828 38.416C146.828 38.9853 146.944 39.4893 147.178 39.928C147.42 40.3667 147.747 40.7167 148.158 40.978C148.568 41.23 149.026 41.356 149.53 41.356C150.052 41.356 150.514 41.23 150.916 40.978C151.326 40.7167 151.648 40.3667 151.882 39.928C152.115 39.4893 152.232 38.9853 152.232 38.416ZM161.521 38.416C161.521 39.1253 161.367 39.7647 161.059 40.334C160.751 40.894 160.331 41.3373 159.799 41.664C159.267 41.9813 158.66 42.14 157.979 42.14C157.316 42.14 156.714 41.9813 156.173 41.664C155.641 41.3373 155.216 40.894 154.899 40.334C154.591 39.7647 154.437 39.1253 154.437 38.416C154.437 37.6973 154.591 37.058 154.899 36.498C155.216 35.938 155.641 35.4947 156.173 35.168C156.714 34.8413 157.316 34.678 157.979 34.678C158.66 34.678 159.267 34.8413 159.799 35.168C160.331 35.4947 160.751 35.938 161.059 36.498C161.367 37.058 161.521 37.6973 161.521 38.416ZM160.681 38.416C160.681 37.8467 160.564 37.3427 160.331 36.904C160.098 36.456 159.776 36.106 159.365 35.854C158.964 35.5927 158.502 35.462 157.979 35.462C157.475 35.462 157.018 35.5927 156.607 35.854C156.196 36.106 155.87 36.456 155.627 36.904C155.394 37.3427 155.277 37.8467 155.277 38.416C155.277 38.9853 155.394 39.4893 155.627 39.928C155.87 40.3667 156.196 40.7167 156.607 40.978C157.018 41.23 157.475 41.356 157.979 41.356C158.502 41.356 158.964 41.23 159.365 40.978C159.776 40.7167 160.098 40.3667 160.331 39.928C160.564 39.4893 160.681 38.9853 160.681 38.416ZM164.23 41.58C164.23 41.692 164.188 41.79 164.104 41.874C164.02 41.958 163.922 42 163.81 42C163.689 42 163.586 41.958 163.502 41.874C163.428 41.79 163.39 41.692 163.39 41.58V32.06C163.39 31.948 163.432 31.85 163.516 31.766C163.6 31.682 163.698 31.64 163.81 31.64C163.932 31.64 164.03 31.682 164.104 31.766C164.188 31.85 164.23 31.948 164.23 32.06V41.58ZM166.127 40.866C166.052 40.754 166.015 40.6467 166.015 40.544C166.024 40.432 166.085 40.3433 166.197 40.278C166.271 40.2127 166.355 40.1847 166.449 40.194C166.551 40.2033 166.645 40.25 166.729 40.334C166.981 40.6607 167.284 40.9267 167.639 41.132C168.003 41.328 168.432 41.426 168.927 41.426C169.188 41.426 169.445 41.384 169.697 41.3C169.958 41.2067 170.173 41.0713 170.341 40.894C170.509 40.7073 170.593 40.474 170.593 40.194C170.593 39.9047 170.509 39.6713 170.341 39.494C170.173 39.3167 169.953 39.1767 169.683 39.074C169.421 38.9713 169.141 38.8827 168.843 38.808C168.525 38.724 168.217 38.6307 167.919 38.528C167.62 38.416 167.354 38.2807 167.121 38.122C166.897 37.954 166.715 37.7533 166.575 37.52C166.435 37.2867 166.365 37.002 166.365 36.666C166.365 36.274 166.472 35.9287 166.687 35.63C166.901 35.3313 167.191 35.098 167.555 34.93C167.928 34.762 168.348 34.678 168.815 34.678C169.048 34.678 169.3 34.7107 169.571 34.776C169.841 34.832 170.107 34.93 170.369 35.07C170.63 35.21 170.863 35.4013 171.069 35.644C171.153 35.728 171.195 35.826 171.195 35.938C171.195 36.0407 171.148 36.134 171.055 36.218C170.98 36.274 170.891 36.302 170.789 36.302C170.695 36.302 170.616 36.2647 170.551 36.19C170.327 35.938 170.061 35.7467 169.753 35.616C169.445 35.4853 169.113 35.42 168.759 35.42C168.488 35.42 168.231 35.4667 167.989 35.56C167.755 35.644 167.559 35.7747 167.401 35.952C167.242 36.1293 167.163 36.3627 167.163 36.652C167.181 36.9227 167.275 37.142 167.443 37.31C167.62 37.478 167.849 37.618 168.129 37.73C168.418 37.842 168.74 37.9447 169.095 38.038C169.393 38.1127 169.678 38.2013 169.949 38.304C170.229 38.4067 170.471 38.5373 170.677 38.696C170.891 38.8453 171.059 39.0367 171.181 39.27C171.311 39.5033 171.377 39.7973 171.377 40.152C171.377 40.5627 171.26 40.9173 171.027 41.216C170.803 41.5147 170.499 41.7433 170.117 41.902C169.734 42.0607 169.309 42.14 168.843 42.14C168.339 42.14 167.849 42.042 167.373 41.846C166.906 41.65 166.491 41.3233 166.127 40.866Z" fill="#D658D6"/>
<path d="M174.215 42.112C174.215 42.364 174.141 42.6067 173.991 42.84C173.842 43.0827 173.66 43.2787 173.445 43.428C173.231 43.5867 173.021 43.666 172.815 43.666C172.741 43.666 172.666 43.6427 172.591 43.596C172.526 43.5493 172.493 43.4607 172.493 43.33C172.493 43.1993 172.535 43.1247 172.619 43.106C172.713 43.0967 172.825 43.0547 172.955 42.98C173.114 42.9053 173.235 42.812 173.319 42.7C173.403 42.588 173.445 42.4573 173.445 42.308C173.445 42.1867 173.408 42.0933 173.333 42.028C173.268 41.9627 173.189 41.93 173.095 41.93C173.03 41.93 172.965 41.9393 172.899 41.958C172.834 41.9767 172.773 42.0047 172.717 42.042C172.671 41.9953 172.629 41.944 172.591 41.888C172.554 41.832 172.54 41.762 172.549 41.678C172.568 41.5193 172.652 41.384 172.801 41.272C172.96 41.1507 173.142 41.09 173.347 41.09C173.599 41.09 173.805 41.1927 173.963 41.398C174.131 41.6033 174.215 41.8413 174.215 42.112ZM37.8947 60.14C37.176 60.14 36.5414 59.986 35.9907 59.678C35.44 59.37 35.0107 58.9407 34.7027 58.39C34.3947 57.8393 34.2407 57.1953 34.2407 56.458C34.2407 55.6647 34.3947 54.988 34.7027 54.428C35.02 53.868 35.426 53.4387 35.9207 53.14C36.4247 52.832 36.9567 52.678 37.5167 52.678C37.9274 52.678 38.324 52.7527 38.7067 52.902C39.0987 53.042 39.444 53.2567 39.7427 53.546C40.0507 53.826 40.2934 54.1713 40.4707 54.582C40.6574 54.9927 40.76 55.4687 40.7787 56.01C40.7694 56.122 40.7227 56.22 40.6387 56.304C40.5547 56.3787 40.4567 56.416 40.3447 56.416H34.7307L34.5627 55.66H40.0787L39.8967 55.828V55.548C39.8594 55.1093 39.7194 54.736 39.4767 54.428C39.234 54.12 38.94 53.8867 38.5947 53.728C38.2494 53.5693 37.89 53.49 37.5167 53.49C37.2367 53.49 36.9474 53.546 36.6487 53.658C36.3594 53.77 36.0934 53.9473 35.8507 54.19C35.6174 54.4233 35.426 54.7267 35.2767 55.1C35.1274 55.464 35.0527 55.898 35.0527 56.402C35.0527 56.9527 35.1647 57.452 35.3887 57.9C35.6127 58.348 35.9347 58.7027 36.3547 58.964C36.784 59.2253 37.2927 59.356 37.8807 59.356C38.2074 59.356 38.5014 59.3093 38.7627 59.216C39.024 59.1227 39.2527 59.0013 39.4487 58.852C39.6447 58.6933 39.808 58.53 39.9387 58.362C40.0414 58.278 40.144 58.236 40.2467 58.236C40.34 58.236 40.4194 58.2733 40.4847 58.348C40.5594 58.4227 40.5967 58.5067 40.5967 58.6C40.5967 58.712 40.55 58.81 40.4567 58.894C40.1767 59.23 39.8127 59.524 39.3647 59.776C38.9167 60.0187 38.4267 60.14 37.8947 60.14ZM45.1667 49.696C45.3067 49.696 45.456 49.71 45.6147 49.738C45.7827 49.766 45.9274 49.8173 46.0487 49.892C46.17 49.9573 46.2307 50.06 46.2307 50.2C46.2307 50.3027 46.1934 50.396 46.1187 50.48C46.044 50.5547 45.96 50.592 45.8667 50.592C45.7734 50.592 45.6567 50.5687 45.5167 50.522C45.3767 50.466 45.2274 50.438 45.0687 50.438C44.8727 50.438 44.7047 50.4847 44.5647 50.578C44.4247 50.662 44.3174 50.788 44.2427 50.956C44.168 51.1147 44.1307 51.3107 44.1307 51.544V59.58C44.1307 59.692 44.0887 59.79 44.0047 59.874C43.93 59.958 43.832 60 43.7107 60C43.5894 60 43.4867 59.958 43.4027 59.874C43.328 59.79 43.2907 59.692 43.2907 59.58V51.544C43.2907 50.9467 43.4634 50.4893 43.8087 50.172C44.1634 49.8547 44.616 49.696 45.1667 49.696ZM45.6987 52.986C45.8107 52.986 45.904 53.0233 45.9787 53.098C46.0534 53.1727 46.0907 53.266 46.0907 53.378C46.0907 53.49 46.0534 53.5833 45.9787 53.658C45.904 53.7327 45.8107 53.77 45.6987 53.77H42.2687C42.166 53.77 42.0727 53.7327 41.9887 53.658C41.914 53.574 41.8767 53.4807 41.8767 53.378C41.8767 53.2567 41.914 53.1633 41.9887 53.098C42.0727 53.0233 42.166 52.986 42.2687 52.986H45.6987ZM50.2067 49.696C50.3467 49.696 50.496 49.71 50.6547 49.738C50.8227 49.766 50.9674 49.8173 51.0887 49.892C51.21 49.9573 51.2707 50.06 51.2707 50.2C51.2707 50.3027 51.2334 50.396 51.1587 50.48C51.084 50.5547 51 50.592 50.9067 50.592C50.8134 50.592 50.6967 50.5687 50.5567 50.522C50.4167 50.466 50.2674 50.438 50.1087 50.438C49.9127 50.438 49.7447 50.4847 49.6047 50.578C49.4647 50.662 49.3574 50.788 49.2827 50.956C49.208 51.1147 49.1707 51.3107 49.1707 51.544V59.58C49.1707 59.692 49.1287 59.79 49.0447 59.874C48.97 59.958 48.872 60 48.7507 60C48.6294 60 48.5267 59.958 48.4427 59.874C48.368 59.79 48.3307 59.692 48.3307 59.58V51.544C48.3307 50.9467 48.5034 50.4893 48.8487 50.172C49.2034 49.8547 49.656 49.696 50.2067 49.696ZM50.7387 52.986C50.8507 52.986 50.944 53.0233 51.0187 53.098C51.0934 53.1727 51.1307 53.266 51.1307 53.378C51.1307 53.49 51.0934 53.5833 51.0187 53.658C50.944 53.7327 50.8507 53.77 50.7387 53.77H47.3087C47.206 53.77 47.1127 53.7327 47.0287 53.658C46.954 53.574 46.9167 53.4807 46.9167 53.378C46.9167 53.2567 46.954 53.1633 47.0287 53.098C47.1127 53.0233 47.206 52.986 47.3087 52.986H50.7387ZM55.8869 60.14C55.1682 60.14 54.5335 59.986 53.9829 59.678C53.4322 59.37 53.0029 58.9407 52.6949 58.39C52.3869 57.8393 52.2329 57.1953 52.2329 56.458C52.2329 55.6647 52.3869 54.988 52.6949 54.428C53.0122 53.868 53.4182 53.4387 53.9129 53.14C54.4169 52.832 54.9489 52.678 55.5089 52.678C55.9195 52.678 56.3162 52.7527 56.6989 52.902C57.0909 53.042 57.4362 53.2567 57.7349 53.546C58.0429 53.826 58.2855 54.1713 58.4629 54.582C58.6495 54.9927 58.7522 55.4687 58.7709 56.01C58.7615 56.122 58.7149 56.22 58.6309 56.304C58.5469 56.3787 58.4489 56.416 58.3369 56.416H52.7229L52.5549 55.66H58.0709L57.8889 55.828V55.548C57.8515 55.1093 57.7115 54.736 57.4689 54.428C57.2262 54.12 56.9322 53.8867 56.5869 53.728C56.2415 53.5693 55.8822 53.49 55.5089 53.49C55.2289 53.49 54.9395 53.546 54.6409 53.658C54.3515 53.77 54.0855 53.9473 53.8429 54.19C53.6095 54.4233 53.4182 54.7267 53.2689 55.1C53.1195 55.464 53.0449 55.898 53.0449 56.402C53.0449 56.9527 53.1569 57.452 53.3809 57.9C53.6049 58.348 53.9269 58.7027 54.3469 58.964C54.7762 59.2253 55.2849 59.356 55.8729 59.356C56.1995 59.356 56.4935 59.3093 56.7549 59.216C57.0162 59.1227 57.2449 59.0013 57.4409 58.852C57.6369 58.6933 57.8002 58.53 57.9309 58.362C58.0335 58.278 58.1362 58.236 58.2389 58.236C58.3322 58.236 58.4115 58.2733 58.4769 58.348C58.5515 58.4227 58.5889 58.5067 58.5889 58.6C58.5889 58.712 58.5422 58.81 58.4489 58.894C58.1689 59.23 57.8049 59.524 57.3569 59.776C56.9089 60.0187 56.4189 60.14 55.8869 60.14ZM63.7189 52.678C64.1669 52.678 64.5776 52.7293 64.9509 52.832C65.3242 52.9253 65.6229 53.056 65.8469 53.224C66.0802 53.392 66.1969 53.574 66.1969 53.77C66.1969 53.8633 66.1642 53.9567 66.0989 54.05C66.0336 54.134 65.9449 54.176 65.8329 54.176C65.7209 54.176 65.6276 54.148 65.5529 54.092C65.4876 54.036 65.4176 53.9707 65.3429 53.896C65.2776 53.8213 65.1796 53.7513 65.0489 53.686C64.9276 53.63 64.7549 53.5787 64.5309 53.532C64.3069 53.4853 64.0502 53.462 63.7609 53.462C63.2382 53.462 62.7669 53.5927 62.3469 53.854C61.9269 54.1153 61.5956 54.47 61.3529 54.918C61.1102 55.3567 60.9889 55.8513 60.9889 56.402C60.9889 56.962 61.1056 57.466 61.3389 57.914C61.5722 58.362 61.8942 58.7167 62.3049 58.978C62.7156 59.23 63.1962 59.356 63.7469 59.356C64.1202 59.356 64.4096 59.3233 64.6149 59.258C64.8202 59.1927 64.9976 59.118 65.1469 59.034C65.3242 58.9313 65.4502 58.8333 65.5249 58.74C65.6089 58.6373 65.7162 58.586 65.8469 58.586C65.9682 58.586 66.0569 58.6233 66.1129 58.698C66.1782 58.7633 66.2109 58.852 66.2109 58.964C66.2109 59.1133 66.0989 59.2813 65.8749 59.468C65.6602 59.6453 65.3616 59.804 64.9789 59.944C64.5962 60.0747 64.1576 60.14 63.6629 60.14C62.9629 60.14 62.3469 59.9767 61.8149 59.65C61.2922 59.3233 60.8816 58.88 60.5829 58.32C60.2936 57.7507 60.1489 57.1113 60.1489 56.402C60.1489 55.7207 60.2982 55.1 60.5969 54.54C60.8956 53.98 61.3109 53.532 61.8429 53.196C62.3842 52.8507 63.0096 52.678 63.7189 52.678ZM67.353 52.874H70.615C70.727 52.874 70.8203 52.916 70.895 53C70.9697 53.0747 71.007 53.168 71.007 53.28C71.007 53.3827 70.9697 53.4713 70.895 53.546C70.8203 53.6207 70.727 53.658 70.615 53.658H67.353C67.241 53.658 67.143 53.6207 67.059 53.546C66.9843 53.462 66.947 53.3687 66.947 53.266C66.947 53.154 66.9843 53.0607 67.059 52.986C67.143 52.9113 67.241 52.874 67.353 52.874ZM68.795 50.9C68.9163 50.9 69.0143 50.942 69.089 51.026C69.173 51.11 69.215 51.208 69.215 51.32V58.348C69.215 58.6093 69.2477 58.8053 69.313 58.936C69.3877 59.0667 69.481 59.1553 69.593 59.202C69.705 59.2393 69.817 59.258 69.929 59.258C70.0037 59.258 70.069 59.2487 70.125 59.23C70.1903 59.202 70.2603 59.188 70.335 59.188C70.419 59.188 70.489 59.2207 70.545 59.286C70.6103 59.3513 70.643 59.4353 70.643 59.538C70.643 59.6687 70.5683 59.7807 70.419 59.874C70.2697 59.958 70.0923 60 69.887 60C69.803 60 69.677 59.9953 69.509 59.986C69.341 59.9673 69.1683 59.916 68.991 59.832C68.8137 59.7387 68.6643 59.58 68.543 59.356C68.431 59.132 68.375 58.81 68.375 58.39V51.32C68.375 51.208 68.4123 51.11 68.487 51.026C68.571 50.942 68.6737 50.9 68.795 50.9ZM72.4266 58.866C72.3519 58.754 72.3146 58.6467 72.3146 58.544C72.3239 58.432 72.3846 58.3433 72.4966 58.278C72.5712 58.2127 72.6552 58.1847 72.7486 58.194C72.8512 58.2033 72.9446 58.25 73.0286 58.334C73.2806 58.6607 73.5839 58.9267 73.9386 59.132C74.3026 59.328 74.7319 59.426 75.2266 59.426C75.4879 59.426 75.7446 59.384 75.9966 59.3C76.2579 59.2067 76.4726 59.0713 76.6406 58.894C76.8086 58.7073 76.8926 58.474 76.8926 58.194C76.8926 57.9047 76.8086 57.6713 76.6406 57.494C76.4726 57.3167 76.2532 57.1767 75.9826 57.074C75.7212 56.9713 75.4412 56.8827 75.1426 56.808C74.8252 56.724 74.5172 56.6307 74.2186 56.528C73.9199 56.416 73.6539 56.2807 73.4206 56.122C73.1966 55.954 73.0146 55.7533 72.8746 55.52C72.7346 55.2867 72.6646 55.002 72.6646 54.666C72.6646 54.274 72.7719 53.9287 72.9866 53.63C73.2012 53.3313 73.4906 53.098 73.8546 52.93C74.2279 52.762 74.6479 52.678 75.1146 52.678C75.3479 52.678 75.5999 52.7107 75.8706 52.776C76.1412 52.832 76.4072 52.93 76.6686 53.07C76.9299 53.21 77.1632 53.4013 77.3686 53.644C77.4526 53.728 77.4946 53.826 77.4946 53.938C77.4946 54.0407 77.4479 54.134 77.3546 54.218C77.2799 54.274 77.1912 54.302 77.0886 54.302C76.9952 54.302 76.9159 54.2647 76.8506 54.19C76.6266 53.938 76.3606 53.7467 76.0526 53.616C75.7446 53.4853 75.4132 53.42 75.0586 53.42C74.7879 53.42 74.5312 53.4667 74.2886 53.56C74.0552 53.644 73.8592 53.7747 73.7006 53.952C73.5419 54.1293 73.4626 54.3627 73.4626 54.652C73.4812 54.9227 73.5746 55.142 73.7426 55.31C73.9199 55.478 74.1486 55.618 74.4286 55.73C74.7179 55.842 75.0399 55.9447 75.3946 56.038C75.6932 56.1127 75.9779 56.2013 76.2486 56.304C76.5286 56.4067 76.7712 56.5373 76.9766 56.696C77.1912 56.8453 77.3592 57.0367 77.4806 57.27C77.6112 57.5033 77.6766 57.7973 77.6766 58.152C77.6766 58.5627 77.5599 58.9173 77.3266 59.216C77.1026 59.5147 76.7992 59.7433 76.4166 59.902C76.0339 60.0607 75.6092 60.14 75.1426 60.14C74.6386 60.14 74.1486 60.042 73.6726 59.846C73.2059 59.65 72.7906 59.3233 72.4266 58.866ZM80.5151 60.112C80.5151 60.364 80.4404 60.6067 80.2911 60.84C80.1417 61.0827 79.9597 61.2787 79.7451 61.428C79.5304 61.5867 79.3204 61.666 79.1151 61.666C79.0404 61.666 78.9657 61.6427 78.8911 61.596C78.8257 61.5493 78.7931 61.4607 78.7931 61.33C78.7931 61.1993 78.8351 61.1247 78.9191 61.106C79.0124 61.0967 79.1244 61.0547 79.2551 60.98C79.4137 60.9053 79.5351 60.812 79.6191 60.7C79.7031 60.588 79.7451 60.4573 79.7451 60.308C79.7451 60.1867 79.7077 60.0933 79.6331 60.028C79.5677 59.9627 79.4884 59.93 79.3951 59.93C79.3297 59.93 79.2644 59.9393 79.1991 59.958C79.1337 59.9767 79.0731 60.0047 79.0171 60.042C78.9704 59.9953 78.9284 59.944 78.8911 59.888C78.8537 59.832 78.8397 59.762 78.8491 59.678C78.8677 59.5193 78.9517 59.384 79.1011 59.272C79.2597 59.1507 79.4417 59.09 79.6471 59.09C79.8991 59.09 80.1044 59.1927 80.2631 59.398C80.4311 59.6033 80.5151 59.8413 80.5151 60.112ZM91.8099 52.846C91.9312 52.846 92.0292 52.888 92.1039 52.972C92.1879 53.056 92.2299 53.1587 92.2299 53.28V59.58C92.2299 59.692 92.1879 59.79 92.1039 59.874C92.0199 59.958 91.9219 60 91.8099 60C91.6886 60 91.5859 59.958 91.5019 59.874C91.4272 59.79 91.3899 59.692 91.3899 59.58V57.914L91.6279 57.802C91.6279 58.0633 91.5532 58.3293 91.4039 58.6C91.2639 58.8707 91.0679 59.1227 90.8159 59.356C90.5639 59.5893 90.2652 59.7807 89.9199 59.93C89.5839 60.07 89.2199 60.14 88.8279 60.14C88.1932 60.14 87.6239 59.9767 87.1199 59.65C86.6252 59.3233 86.2332 58.8753 85.9439 58.306C85.6639 57.7367 85.5239 57.0973 85.5239 56.388C85.5239 55.66 85.6686 55.0207 85.9579 54.47C86.2472 53.91 86.6392 53.4713 87.1339 53.154C87.6286 52.8367 88.1886 52.678 88.8139 52.678C89.2152 52.678 89.5886 52.748 89.9339 52.888C90.2886 53.028 90.5966 53.2193 90.8579 53.462C91.1192 53.7047 91.3199 53.9847 91.4599 54.302C91.6092 54.61 91.6839 54.932 91.6839 55.268L91.3899 55.058V53.28C91.3899 53.1587 91.4272 53.056 91.5019 52.972C91.5859 52.888 91.6886 52.846 91.8099 52.846ZM88.8979 59.356C89.3926 59.356 89.8312 59.23 90.2139 58.978C90.5966 58.7167 90.8952 58.362 91.1099 57.914C91.3339 57.4567 91.4459 56.948 91.4459 56.388C91.4459 55.8373 91.3339 55.3427 91.1099 54.904C90.8952 54.4653 90.5966 54.1153 90.2139 53.854C89.8312 53.5927 89.3926 53.462 88.8979 53.462C88.4126 53.462 87.9739 53.588 87.5819 53.84C87.1992 54.092 86.8959 54.4373 86.6719 54.876C86.4572 55.3147 86.3499 55.8187 86.3499 56.388C86.3499 56.948 86.4572 57.4567 86.6719 57.914C86.8959 58.362 87.1992 58.7167 87.5819 58.978C87.9646 59.23 88.4032 59.356 88.8979 59.356ZM97.8081 52.678C98.4241 52.678 98.9141 52.804 99.2781 53.056C99.6515 53.2987 99.9175 53.6347 100.076 54.064C100.244 54.484 100.328 54.9507 100.328 55.464V59.58C100.328 59.692 100.286 59.79 100.202 59.874C100.118 59.958 100.02 60 99.9081 60C99.7775 60 99.6748 59.958 99.6001 59.874C99.5255 59.79 99.4881 59.692 99.4881 59.58V55.506C99.4881 55.1327 99.4275 54.792 99.3061 54.484C99.1848 54.176 98.9841 53.9287 98.7041 53.742C98.4335 53.5553 98.0741 53.462 97.6261 53.462C97.2248 53.462 96.8421 53.5553 96.4781 53.742C96.1235 53.9287 95.8341 54.176 95.6101 54.484C95.3861 54.792 95.2741 55.1327 95.2741 55.506V59.58C95.2741 59.692 95.2321 59.79 95.1481 59.874C95.0641 59.958 94.9661 60 94.8541 60C94.7235 60 94.6208 59.958 94.5461 59.874C94.4715 59.79 94.4341 59.692 94.4341 59.58V53.308C94.4341 53.196 94.4715 53.098 94.5461 53.014C94.6301 52.93 94.7328 52.888 94.8541 52.888C94.9755 52.888 95.0735 52.93 95.1481 53.014C95.2321 53.098 95.2741 53.196 95.2741 53.308V54.484L94.9521 54.988C94.9708 54.6893 95.0641 54.4047 95.2321 54.134C95.4095 53.854 95.6335 53.6067 95.9041 53.392C96.1748 53.168 96.4735 52.9953 96.8001 52.874C97.1361 52.7433 97.4721 52.678 97.8081 52.678ZM108.394 49.64C108.515 49.64 108.613 49.682 108.688 49.766C108.772 49.8407 108.814 49.9387 108.814 50.06V59.58C108.814 59.692 108.772 59.79 108.688 59.874C108.604 59.958 108.506 60 108.394 60C108.273 60 108.17 59.958 108.086 59.874C108.011 59.79 107.974 59.692 107.974 59.58V57.914L108.212 57.718C108.212 57.9793 108.142 58.2547 108.002 58.544C107.862 58.824 107.661 59.0853 107.4 59.328C107.148 59.5707 106.849 59.7667 106.504 59.916C106.168 60.0653 105.804 60.14 105.412 60.14C104.787 60.14 104.222 59.9767 103.718 59.65C103.223 59.3233 102.831 58.88 102.542 58.32C102.253 57.76 102.108 57.1207 102.108 56.402C102.108 55.6927 102.253 55.058 102.542 54.498C102.831 53.9287 103.223 53.4853 103.718 53.168C104.213 52.8413 104.773 52.678 105.398 52.678C105.781 52.678 106.145 52.748 106.49 52.888C106.835 53.028 107.139 53.2193 107.4 53.462C107.671 53.7047 107.881 53.9847 108.03 54.302C108.189 54.61 108.268 54.932 108.268 55.268L107.974 55.058V50.06C107.974 49.948 108.011 49.85 108.086 49.766C108.17 49.682 108.273 49.64 108.394 49.64ZM105.482 59.356C105.986 59.356 106.425 59.23 106.798 58.978C107.181 58.7167 107.479 58.3667 107.694 57.928C107.918 57.48 108.03 56.9713 108.03 56.402C108.03 55.842 107.918 55.3427 107.694 54.904C107.479 54.456 107.181 54.106 106.798 53.854C106.415 53.5927 105.977 53.462 105.482 53.462C104.997 53.462 104.558 53.5927 104.166 53.854C103.783 54.106 103.48 54.456 103.256 54.904C103.041 55.3427 102.934 55.842 102.934 56.402C102.934 56.962 103.041 57.466 103.256 57.914C103.48 58.362 103.783 58.7167 104.166 58.978C104.558 59.23 104.997 59.356 105.482 59.356ZM117.436 49.696C117.576 49.696 117.726 49.71 117.884 49.738C118.052 49.766 118.197 49.8173 118.318 49.892C118.44 49.9573 118.5 50.06 118.5 50.2C118.5 50.3027 118.463 50.396 118.388 50.48C118.314 50.5547 118.23 50.592 118.136 50.592C118.043 50.592 117.926 50.5687 117.786 50.522C117.646 50.466 117.497 50.438 117.338 50.438C117.142 50.438 116.974 50.4847 116.834 50.578C116.694 50.662 116.587 50.788 116.512 50.956C116.438 51.1147 116.4 51.3107 116.4 51.544V59.58C116.4 59.692 116.358 59.79 116.274 59.874C116.2 59.958 116.102 60 115.98 60C115.859 60 115.756 59.958 115.672 59.874C115.598 59.79 115.56 59.692 115.56 59.58V51.544C115.56 50.9467 115.733 50.4893 116.078 50.172C116.433 49.8547 116.886 49.696 117.436 49.696ZM117.968 52.986C118.08 52.986 118.174 53.0233 118.248 53.098C118.323 53.1727 118.36 53.266 118.36 53.378C118.36 53.49 118.323 53.5833 118.248 53.658C118.174 53.7327 118.08 53.77 117.968 53.77H114.538C114.436 53.77 114.342 53.7327 114.258 53.658C114.184 53.574 114.146 53.4807 114.146 53.378C114.146 53.2567 114.184 53.1633 114.258 53.098C114.342 53.0233 114.436 52.986 114.538 52.986H117.968ZM120.698 59.58C120.698 59.692 120.656 59.79 120.572 59.874C120.488 59.958 120.39 60 120.278 60C120.157 60 120.054 59.958 119.97 59.874C119.896 59.79 119.858 59.692 119.858 59.58V53.14C119.858 53.028 119.896 52.93 119.97 52.846C120.054 52.762 120.157 52.72 120.278 52.72C120.4 52.72 120.498 52.762 120.572 52.846C120.656 52.93 120.698 53.028 120.698 53.14V59.58ZM120.278 51.782C120.082 51.782 119.933 51.74 119.83 51.656C119.737 51.5627 119.69 51.432 119.69 51.264V51.124C119.69 50.956 119.742 50.83 119.844 50.746C119.956 50.6527 120.106 50.606 120.292 50.606C120.47 50.606 120.605 50.6527 120.698 50.746C120.801 50.83 120.852 50.956 120.852 51.124V51.264C120.852 51.432 120.801 51.5627 120.698 51.656C120.605 51.74 120.465 51.782 120.278 51.782ZM123.796 59.58C123.796 59.692 123.754 59.79 123.67 59.874C123.586 59.958 123.488 60 123.376 60C123.254 60 123.152 59.958 123.068 59.874C122.993 59.79 122.956 59.692 122.956 59.58V50.06C122.956 49.948 122.998 49.85 123.082 49.766C123.166 49.682 123.264 49.64 123.376 49.64C123.497 49.64 123.595 49.682 123.67 49.766C123.754 49.85 123.796 49.948 123.796 50.06V59.58ZM125.595 52.874H128.857C128.969 52.874 129.063 52.916 129.137 53C129.212 53.0747 129.249 53.168 129.249 53.28C129.249 53.3827 129.212 53.4713 129.137 53.546C129.063 53.6207 128.969 53.658 128.857 53.658H125.595C125.483 53.658 125.385 53.6207 125.301 53.546C125.227 53.462 125.189 53.3687 125.189 53.266C125.189 53.154 125.227 53.0607 125.301 52.986C125.385 52.9113 125.483 52.874 125.595 52.874ZM127.037 50.9C127.159 50.9 127.257 50.942 127.331 51.026C127.415 51.11 127.457 51.208 127.457 51.32V58.348C127.457 58.6093 127.49 58.8053 127.555 58.936C127.63 59.0667 127.723 59.1553 127.835 59.202C127.947 59.2393 128.059 59.258 128.171 59.258C128.246 59.258 128.311 59.2487 128.367 59.23C128.433 59.202 128.503 59.188 128.577 59.188C128.661 59.188 128.731 59.2207 128.787 59.286C128.853 59.3513 128.885 59.4353 128.885 59.538C128.885 59.6687 128.811 59.7807 128.661 59.874C128.512 59.958 128.335 60 128.129 60C128.045 60 127.919 59.9953 127.751 59.986C127.583 59.9673 127.411 59.916 127.233 59.832C127.056 59.7387 126.907 59.58 126.785 59.356C126.673 59.132 126.617 58.81 126.617 58.39V51.32C126.617 51.208 126.655 51.11 126.729 51.026C126.813 50.942 126.916 50.9 127.037 50.9ZM133.967 60.14C133.248 60.14 132.614 59.986 132.063 59.678C131.512 59.37 131.083 58.9407 130.775 58.39C130.467 57.8393 130.313 57.1953 130.313 56.458C130.313 55.6647 130.467 54.988 130.775 54.428C131.092 53.868 131.498 53.4387 131.993 53.14C132.497 52.832 133.029 52.678 133.589 52.678C134 52.678 134.396 52.7527 134.779 52.902C135.171 53.042 135.516 53.2567 135.815 53.546C136.123 53.826 136.366 54.1713 136.543 54.582C136.73 54.9927 136.832 55.4687 136.851 56.01C136.842 56.122 136.795 56.22 136.711 56.304C136.627 56.3787 136.529 56.416 136.417 56.416H130.803L130.635 55.66H136.151L135.969 55.828V55.548C135.932 55.1093 135.792 54.736 135.549 54.428C135.306 54.12 135.012 53.8867 134.667 53.728C134.322 53.5693 133.962 53.49 133.589 53.49C133.309 53.49 133.02 53.546 132.721 53.658C132.432 53.77 132.166 53.9473 131.923 54.19C131.69 54.4233 131.498 54.7267 131.349 55.1C131.2 55.464 131.125 55.898 131.125 56.402C131.125 56.9527 131.237 57.452 131.461 57.9C131.685 58.348 132.007 58.7027 132.427 58.964C132.856 59.2253 133.365 59.356 133.953 59.356C134.28 59.356 134.574 59.3093 134.835 59.216C135.096 59.1227 135.325 59.0013 135.521 58.852C135.717 58.6933 135.88 58.53 136.011 58.362C136.114 58.278 136.216 58.236 136.319 58.236C136.412 58.236 136.492 58.2733 136.557 58.348C136.632 58.4227 136.669 58.5067 136.669 58.6C136.669 58.712 136.622 58.81 136.529 58.894C136.249 59.23 135.885 59.524 135.437 59.776C134.989 60.0187 134.499 60.14 133.967 60.14ZM139.069 60C138.938 60 138.836 59.958 138.761 59.874C138.686 59.79 138.649 59.692 138.649 59.58V53.308C138.649 53.196 138.686 53.098 138.761 53.014C138.845 52.93 138.948 52.888 139.069 52.888C139.19 52.888 139.288 52.93 139.363 53.014C139.447 53.098 139.489 53.196 139.489 53.308V55.408L139.279 55.45C139.307 55.1233 139.386 54.8013 139.517 54.484C139.657 54.1573 139.844 53.8587 140.077 53.588C140.31 53.3173 140.586 53.098 140.903 52.93C141.23 52.762 141.594 52.678 141.995 52.678C142.163 52.678 142.326 52.7153 142.485 52.79C142.644 52.8553 142.723 52.9673 142.723 53.126C142.723 53.266 142.686 53.3733 142.611 53.448C142.536 53.5227 142.448 53.56 142.345 53.56C142.261 53.56 142.168 53.5367 142.065 53.49C141.972 53.4433 141.846 53.42 141.687 53.42C141.426 53.42 141.164 53.4993 140.903 53.658C140.642 53.8073 140.404 54.0127 140.189 54.274C139.974 54.5353 139.802 54.8293 139.671 55.156C139.55 55.4733 139.489 55.7953 139.489 56.122V59.58C139.489 59.692 139.447 59.79 139.363 59.874C139.279 59.958 139.181 60 139.069 60ZM143.63 58.866C143.555 58.754 143.518 58.6467 143.518 58.544C143.527 58.432 143.588 58.3433 143.7 58.278C143.774 58.2127 143.858 58.1847 143.952 58.194C144.054 58.2033 144.148 58.25 144.232 58.334C144.484 58.6607 144.787 58.9267 145.142 59.132C145.506 59.328 145.935 59.426 146.43 59.426C146.691 59.426 146.948 59.384 147.2 59.3C147.461 59.2067 147.676 59.0713 147.844 58.894C148.012 58.7073 148.096 58.474 148.096 58.194C148.096 57.9047 148.012 57.6713 147.844 57.494C147.676 57.3167 147.456 57.1767 147.186 57.074C146.924 56.9713 146.644 56.8827 146.346 56.808C146.028 56.724 145.72 56.6307 145.422 56.528C145.123 56.416 144.857 56.2807 144.624 56.122C144.4 55.954 144.218 55.7533 144.078 55.52C143.938 55.2867 143.868 55.002 143.868 54.666C143.868 54.274 143.975 53.9287 144.19 53.63C144.404 53.3313 144.694 53.098 145.058 52.93C145.431 52.762 145.851 52.678 146.318 52.678C146.551 52.678 146.803 52.7107 147.074 52.776C147.344 52.832 147.61 52.93 147.872 53.07C148.133 53.21 148.366 53.4013 148.572 53.644C148.656 53.728 148.698 53.826 148.698 53.938C148.698 54.0407 148.651 54.134 148.558 54.218C148.483 54.274 148.394 54.302 148.292 54.302C148.198 54.302 148.119 54.2647 148.054 54.19C147.83 53.938 147.564 53.7467 147.256 53.616C146.948 53.4853 146.616 53.42 146.262 53.42C145.991 53.42 145.734 53.4667 145.492 53.56C145.258 53.644 145.062 53.7747 144.904 53.952C144.745 54.1293 144.666 54.3627 144.666 54.652C144.684 54.9227 144.778 55.142 144.946 55.31C145.123 55.478 145.352 55.618 145.632 55.73C145.921 55.842 146.243 55.9447 146.598 56.038C146.896 56.1127 147.181 56.2013 147.452 56.304C147.732 56.4067 147.974 56.5373 148.18 56.696C148.394 56.8453 148.562 57.0367 148.684 57.27C148.814 57.5033 148.88 57.7973 148.88 58.152C148.88 58.5627 148.763 58.9173 148.53 59.216C148.306 59.5147 148.002 59.7433 147.62 59.902C147.237 60.0607 146.812 60.14 146.346 60.14C145.842 60.14 145.352 60.042 144.876 59.846C144.409 59.65 143.994 59.3233 143.63 58.866ZM153.964 52.874H157.226C157.338 52.874 157.432 52.916 157.506 53C157.581 53.0747 157.618 53.168 157.618 53.28C157.618 53.3827 157.581 53.4713 157.506 53.546C157.432 53.6207 157.338 53.658 157.226 53.658H153.964C153.852 53.658 153.754 53.6207 153.67 53.546C153.596 53.462 153.558 53.3687 153.558 53.266C153.558 53.154 153.596 53.0607 153.67 52.986C153.754 52.9113 153.852 52.874 153.964 52.874ZM155.406 50.9C155.528 50.9 155.626 50.942 155.7 51.026C155.784 51.11 155.826 51.208 155.826 51.32V58.348C155.826 58.6093 155.859 58.8053 155.924 58.936C155.999 59.0667 156.092 59.1553 156.204 59.202C156.316 59.2393 156.428 59.258 156.54 59.258C156.615 59.258 156.68 59.2487 156.736 59.23C156.802 59.202 156.872 59.188 156.946 59.188C157.03 59.188 157.1 59.2207 157.156 59.286C157.222 59.3513 157.254 59.4353 157.254 59.538C157.254 59.6687 157.18 59.7807 157.03 59.874C156.881 59.958 156.704 60 156.498 60C156.414 60 156.288 59.9953 156.12 59.986C155.952 59.9673 155.78 59.916 155.602 59.832C155.425 59.7387 155.276 59.58 155.154 59.356C155.042 59.132 154.986 58.81 154.986 58.39V51.32C154.986 51.208 155.024 51.11 155.098 51.026C155.182 50.942 155.285 50.9 155.406 50.9ZM165.766 56.416C165.766 57.1253 165.612 57.7647 165.304 58.334C164.996 58.894 164.576 59.3373 164.044 59.664C163.512 59.9813 162.905 60.14 162.224 60.14C161.561 60.14 160.959 59.9813 160.418 59.664C159.886 59.3373 159.461 58.894 159.144 58.334C158.836 57.7647 158.682 57.1253 158.682 56.416C158.682 55.6973 158.836 55.058 159.144 54.498C159.461 53.938 159.886 53.4947 160.418 53.168C160.959 52.8413 161.561 52.678 162.224 52.678C162.905 52.678 163.512 52.8413 164.044 53.168C164.576 53.4947 164.996 53.938 165.304 54.498C165.612 55.058 165.766 55.6973 165.766 56.416ZM164.926 56.416C164.926 55.8467 164.809 55.3427 164.576 54.904C164.343 54.456 164.021 54.106 163.61 53.854C163.209 53.5927 162.747 53.462 162.224 53.462C161.72 53.462 161.263 53.5927 160.852 53.854C160.441 54.106 160.115 54.456 159.872 54.904C159.639 55.3427 159.522 55.8467 159.522 56.416C159.522 56.9853 159.639 57.4893 159.872 57.928C160.115 58.3667 160.441 58.7167 160.852 58.978C161.263 59.23 161.72 59.356 162.224 59.356C162.747 59.356 163.209 59.23 163.61 58.978C164.021 58.7167 164.343 58.3667 164.576 57.928C164.809 57.4893 164.926 56.9853 164.926 56.416ZM49.9601 78.14C49.2415 78.14 48.6068 77.986 48.0561 77.678C47.5055 77.37 47.0761 76.9407 46.7681 76.39C46.4601 75.8393 46.3061 75.1953 46.3061 74.458C46.3061 73.6647 46.4601 72.988 46.7681 72.428C47.0855 71.868 47.4915 71.4387 47.9861 71.14C48.4901 70.832 49.0221 70.678 49.5821 70.678C49.9928 70.678 50.3895 70.7527 50.7721 70.902C51.1641 71.042 51.5095 71.2567 51.8081 71.546C52.1161 71.826 52.3588 72.1713 52.5361 72.582C52.7228 72.9927 52.8255 73.4687 52.8441 74.01C52.8348 74.122 52.7881 74.22 52.7041 74.304C52.6201 74.3787 52.5221 74.416 52.4101 74.416H46.7961L46.6281 73.66H52.1441L51.9621 73.828V73.548C51.9248 73.1093 51.7848 72.736 51.5421 72.428C51.2995 72.12 51.0055 71.8867 50.6601 71.728C50.3148 71.5693 49.9555 71.49 49.5821 71.49C49.3021 71.49 49.0128 71.546 48.7141 71.658C48.4248 71.77 48.1588 71.9473 47.9161 72.19C47.6828 72.4233 47.4915 72.7267 47.3421 73.1C47.1928 73.464 47.1181 73.898 47.1181 74.402C47.1181 74.9527 47.2301 75.452 47.4541 75.9C47.6781 76.348 48.0001 76.7027 48.4201 76.964C48.8495 77.2253 49.3581 77.356 49.9461 77.356C50.2728 77.356 50.5668 77.3093 50.8281 77.216C51.0895 77.1227 51.3181 77.0013 51.5141 76.852C51.7101 76.6933 51.8735 76.53 52.0041 76.362C52.1068 76.278 52.2095 76.236 52.3121 76.236C52.4055 76.236 52.4848 76.2733 52.5501 76.348C52.6248 76.4227 52.6621 76.5067 52.6621 76.6C52.6621 76.712 52.6155 76.81 52.5221 76.894C52.2421 77.23 51.8781 77.524 51.4301 77.776C50.9821 78.0187 50.4921 78.14 49.9601 78.14ZM58.0161 70.678C58.6321 70.678 59.1221 70.804 59.4861 71.056C59.8595 71.2987 60.1255 71.6347 60.2841 72.064C60.4521 72.484 60.5361 72.9507 60.5361 73.464V77.58C60.5361 77.692 60.4941 77.79 60.4101 77.874C60.3261 77.958 60.2281 78 60.1161 78C59.9855 78 59.8828 77.958 59.8081 77.874C59.7335 77.79 59.6961 77.692 59.6961 77.58V73.506C59.6961 73.1327 59.6355 72.792 59.5141 72.484C59.3928 72.176 59.1921 71.9287 58.9121 71.742C58.6415 71.5553 58.2821 71.462 57.8341 71.462C57.4328 71.462 57.0501 71.5553 56.6861 71.742C56.3315 71.9287 56.0421 72.176 55.8181 72.484C55.5941 72.792 55.4821 73.1327 55.4821 73.506V77.58C55.4821 77.692 55.4401 77.79 55.3561 77.874C55.2721 77.958 55.1741 78 55.0621 78C54.9315 78 54.8288 77.958 54.7541 77.874C54.6795 77.79 54.6421 77.692 54.6421 77.58V71.308C54.6421 71.196 54.6795 71.098 54.7541 71.014C54.8381 70.93 54.9408 70.888 55.0621 70.888C55.1835 70.888 55.2815 70.93 55.3561 71.014C55.4401 71.098 55.4821 71.196 55.4821 71.308V72.484L55.1601 72.988C55.1788 72.6893 55.2721 72.4047 55.4401 72.134C55.6175 71.854 55.8415 71.6067 56.1121 71.392C56.3828 71.168 56.6815 70.9953 57.0081 70.874C57.3441 70.7433 57.6801 70.678 58.0161 70.678ZM65.9979 70.79C66.5859 70.79 67.0619 70.916 67.4259 71.168C67.7899 71.42 68.0559 71.7607 68.2239 72.19C68.4012 72.6193 68.4899 73.0953 68.4899 73.618V77.58C68.4899 77.692 68.4479 77.79 68.3639 77.874C68.2799 77.958 68.1819 78 68.0699 78C67.9392 78 67.8365 77.958 67.7619 77.874C67.6872 77.79 67.6499 77.692 67.6499 77.58V73.618C67.6499 73.2353 67.5892 72.89 67.4679 72.582C67.3559 72.274 67.1692 72.0313 66.9079 71.854C66.6465 71.6673 66.2965 71.574 65.8579 71.574C65.4659 71.574 65.0925 71.6673 64.7379 71.854C64.3925 72.0313 64.1125 72.274 63.8979 72.582C63.6832 72.89 63.5759 73.2353 63.5759 73.618V77.58C63.5759 77.692 63.5339 77.79 63.4499 77.874C63.3659 77.958 63.2679 78 63.1559 78C63.0252 78 62.9225 77.958 62.8479 77.874C62.7732 77.79 62.7359 77.692 62.7359 77.58V68.06C62.7359 67.948 62.7732 67.85 62.8479 67.766C62.9319 67.682 63.0345 67.64 63.1559 67.64C63.2772 67.64 63.3752 67.682 63.4499 67.766C63.5339 67.85 63.5759 67.948 63.5759 68.06V72.596L63.2539 73.086C63.2725 72.7967 63.3612 72.5167 63.5199 72.246C63.6879 71.966 63.9025 71.7187 64.1639 71.504C64.4252 71.28 64.7145 71.1073 65.0319 70.986C65.3492 70.8553 65.6712 70.79 65.9979 70.79ZM76.5589 70.846C76.6802 70.846 76.7782 70.888 76.8529 70.972C76.9369 71.056 76.9789 71.1587 76.9789 71.28V77.58C76.9789 77.692 76.9369 77.79 76.8529 77.874C76.7689 77.958 76.6709 78 76.5589 78C76.4376 78 76.3349 77.958 76.2509 77.874C76.1762 77.79 76.1389 77.692 76.1389 77.58V75.914L76.3769 75.802C76.3769 76.0633 76.3022 76.3293 76.1529 76.6C76.0129 76.8707 75.8169 77.1227 75.5649 77.356C75.3129 77.5893 75.0142 77.7807 74.6689 77.93C74.3329 78.07 73.9689 78.14 73.5769 78.14C72.9422 78.14 72.3729 77.9767 71.8689 77.65C71.3742 77.3233 70.9822 76.8753 70.6929 76.306C70.4129 75.7367 70.2729 75.0973 70.2729 74.388C70.2729 73.66 70.4176 73.0207 70.7069 72.47C70.9962 71.91 71.3882 71.4713 71.8829 71.154C72.3776 70.8367 72.9376 70.678 73.5629 70.678C73.9642 70.678 74.3376 70.748 74.6829 70.888C75.0376 71.028 75.3456 71.2193 75.6069 71.462C75.8682 71.7047 76.0689 71.9847 76.2089 72.302C76.3582 72.61 76.4329 72.932 76.4329 73.268L76.1389 73.058V71.28C76.1389 71.1587 76.1762 71.056 76.2509 70.972C76.3349 70.888 76.4376 70.846 76.5589 70.846ZM73.6469 77.356C74.1416 77.356 74.5802 77.23 74.9629 76.978C75.3456 76.7167 75.6442 76.362 75.8589 75.914C76.0829 75.4567 76.1949 74.948 76.1949 74.388C76.1949 73.8373 76.0829 73.3427 75.8589 72.904C75.6442 72.4653 75.3456 72.1153 74.9629 71.854C74.5802 71.5927 74.1416 71.462 73.6469 71.462C73.1616 71.462 72.7229 71.588 72.3309 71.84C71.9482 72.092 71.6449 72.4373 71.4209 72.876C71.2062 73.3147 71.0989 73.8187 71.0989 74.388C71.0989 74.948 71.2062 75.4567 71.4209 75.914C71.6449 76.362 71.9482 76.7167 72.3309 76.978C72.7136 77.23 73.1522 77.356 73.6469 77.356ZM82.5571 70.678C83.1731 70.678 83.6631 70.804 84.0271 71.056C84.4005 71.2987 84.6665 71.6347 84.8251 72.064C84.9931 72.484 85.0771 72.9507 85.0771 73.464V77.58C85.0771 77.692 85.0351 77.79 84.9511 77.874C84.8671 77.958 84.7691 78 84.6571 78C84.5265 78 84.4238 77.958 84.3491 77.874C84.2745 77.79 84.2371 77.692 84.2371 77.58V73.506C84.2371 73.1327 84.1765 72.792 84.0551 72.484C83.9338 72.176 83.7331 71.9287 83.4531 71.742C83.1825 71.5553 82.8231 71.462 82.3751 71.462C81.9738 71.462 81.5911 71.5553 81.2271 71.742C80.8725 71.9287 80.5831 72.176 80.3591 72.484C80.1351 72.792 80.0231 73.1327 80.0231 73.506V77.58C80.0231 77.692 79.9811 77.79 79.8971 77.874C79.8131 77.958 79.7151 78 79.6031 78C79.4725 78 79.3698 77.958 79.2951 77.874C79.2205 77.79 79.1831 77.692 79.1831 77.58V71.308C79.1831 71.196 79.2205 71.098 79.2951 71.014C79.3791 70.93 79.4818 70.888 79.6031 70.888C79.7245 70.888 79.8225 70.93 79.8971 71.014C79.9811 71.098 80.0231 71.196 80.0231 71.308V72.484L79.7011 72.988C79.7198 72.6893 79.8131 72.4047 79.9811 72.134C80.1585 71.854 80.3825 71.6067 80.6531 71.392C80.9238 71.168 81.2225 70.9953 81.5491 70.874C81.8851 70.7433 82.2211 70.678 82.5571 70.678ZM90.4269 70.678C90.8749 70.678 91.2856 70.7293 91.6589 70.832C92.0322 70.9253 92.3309 71.056 92.5549 71.224C92.7882 71.392 92.9049 71.574 92.9049 71.77C92.9049 71.8633 92.8722 71.9567 92.8069 72.05C92.7416 72.134 92.6529 72.176 92.5409 72.176C92.4289 72.176 92.3356 72.148 92.2609 72.092C92.1956 72.036 92.1256 71.9707 92.0509 71.896C91.9856 71.8213 91.8876 71.7513 91.7569 71.686C91.6356 71.63 91.4629 71.5787 91.2389 71.532C91.0149 71.4853 90.7582 71.462 90.4689 71.462C89.9462 71.462 89.4749 71.5927 89.0549 71.854C88.6349 72.1153 88.3036 72.47 88.0609 72.918C87.8182 73.3567 87.6969 73.8513 87.6969 74.402C87.6969 74.962 87.8136 75.466 88.0469 75.914C88.2802 76.362 88.6022 76.7167 89.0129 76.978C89.4236 77.23 89.9042 77.356 90.4549 77.356C90.8282 77.356 91.1176 77.3233 91.3229 77.258C91.5282 77.1927 91.7056 77.118 91.8549 77.034C92.0322 76.9313 92.1582 76.8333 92.2329 76.74C92.3169 76.6373 92.4242 76.586 92.5549 76.586C92.6762 76.586 92.7649 76.6233 92.8209 76.698C92.8862 76.7633 92.9189 76.852 92.9189 76.964C92.9189 77.1133 92.8069 77.2813 92.5829 77.468C92.3682 77.6453 92.0696 77.804 91.6869 77.944C91.3042 78.0747 90.8656 78.14 90.3709 78.14C89.6709 78.14 89.0549 77.9767 88.5229 77.65C88.0002 77.3233 87.5896 76.88 87.2909 76.32C87.0016 75.7507 86.8569 75.1113 86.8569 74.402C86.8569 73.7207 87.0062 73.1 87.3049 72.54C87.6036 71.98 88.0189 71.532 88.5509 71.196C89.0922 70.8507 89.7176 70.678 90.4269 70.678ZM97.757 78.14C97.0383 78.14 96.4037 77.986 95.853 77.678C95.3023 77.37 94.873 76.9407 94.565 76.39C94.257 75.8393 94.103 75.1953 94.103 74.458C94.103 73.6647 94.257 72.988 94.565 72.428C94.8823 71.868 95.2883 71.4387 95.783 71.14C96.287 70.832 96.819 70.678 97.379 70.678C97.7897 70.678 98.1863 70.7527 98.569 70.902C98.961 71.042 99.3063 71.2567 99.605 71.546C99.913 71.826 100.156 72.1713 100.333 72.582C100.52 72.9927 100.622 73.4687 100.641 74.01C100.632 74.122 100.585 74.22 100.501 74.304C100.417 74.3787 100.319 74.416 100.207 74.416H94.593L94.425 73.66H99.941L99.759 73.828V73.548C99.7217 73.1093 99.5817 72.736 99.339 72.428C99.0963 72.12 98.8023 71.8867 98.457 71.728C98.1117 71.5693 97.7523 71.49 97.379 71.49C97.099 71.49 96.8097 71.546 96.511 71.658C96.2217 71.77 95.9557 71.9473 95.713 72.19C95.4797 72.4233 95.2883 72.7267 95.139 73.1C94.9897 73.464 94.915 73.898 94.915 74.402C94.915 74.9527 95.027 75.452 95.251 75.9C95.475 76.348 95.797 76.7027 96.217 76.964C96.6463 77.2253 97.155 77.356 97.743 77.356C98.0697 77.356 98.3637 77.3093 98.625 77.216C98.8863 77.1227 99.115 77.0013 99.311 76.852C99.507 76.6933 99.6703 76.53 99.801 76.362C99.9037 76.278 100.006 76.236 100.109 76.236C100.202 76.236 100.282 76.2733 100.347 76.348C100.422 76.4227 100.459 76.5067 100.459 76.6C100.459 76.712 100.412 76.81 100.319 76.894C100.039 77.23 99.675 77.524 99.227 77.776C98.779 78.0187 98.289 78.14 97.757 78.14ZM109.417 70.678C109.865 70.678 110.276 70.7293 110.649 70.832C111.022 70.9253 111.321 71.056 111.545 71.224C111.778 71.392 111.895 71.574 111.895 71.77C111.895 71.8633 111.862 71.9567 111.797 72.05C111.732 72.134 111.643 72.176 111.531 72.176C111.419 72.176 111.326 72.148 111.251 72.092C111.186 72.036 111.116 71.9707 111.041 71.896C110.976 71.8213 110.878 71.7513 110.747 71.686C110.626 71.63 110.453 71.5787 110.229 71.532C110.005 71.4853 109.748 71.462 109.459 71.462C108.936 71.462 108.465 71.5927 108.045 71.854C107.625 72.1153 107.294 72.47 107.051 72.918C106.808 73.3567 106.687 73.8513 106.687 74.402C106.687 74.962 106.804 75.466 107.037 75.914C107.27 76.362 107.592 76.7167 108.003 76.978C108.414 77.23 108.894 77.356 109.445 77.356C109.818 77.356 110.108 77.3233 110.313 77.258C110.518 77.1927 110.696 77.118 110.845 77.034C111.022 76.9313 111.148 76.8333 111.223 76.74C111.307 76.6373 111.414 76.586 111.545 76.586C111.666 76.586 111.755 76.6233 111.811 76.698C111.876 76.7633 111.909 76.852 111.909 76.964C111.909 77.1133 111.797 77.2813 111.573 77.468C111.358 77.6453 111.06 77.804 110.677 77.944C110.294 78.0747 109.856 78.14 109.361 78.14C108.661 78.14 108.045 77.9767 107.513 77.65C106.99 77.3233 106.58 76.88 106.281 76.32C105.992 75.7507 105.847 75.1113 105.847 74.402C105.847 73.7207 105.996 73.1 106.295 72.54C106.594 71.98 107.009 71.532 107.541 71.196C108.082 70.8507 108.708 70.678 109.417 70.678ZM120.177 74.416C120.177 75.1253 120.023 75.7647 119.715 76.334C119.407 76.894 118.987 77.3373 118.455 77.664C117.923 77.9813 117.317 78.14 116.635 78.14C115.973 78.14 115.371 77.9813 114.829 77.664C114.297 77.3373 113.873 76.894 113.555 76.334C113.247 75.7647 113.093 75.1253 113.093 74.416C113.093 73.6973 113.247 73.058 113.555 72.498C113.873 71.938 114.297 71.4947 114.829 71.168C115.371 70.8413 115.973 70.678 116.635 70.678C117.317 70.678 117.923 70.8413 118.455 71.168C118.987 71.4947 119.407 71.938 119.715 72.498C120.023 73.058 120.177 73.6973 120.177 74.416ZM119.337 74.416C119.337 73.8467 119.221 73.3427 118.987 72.904C118.754 72.456 118.432 72.106 118.021 71.854C117.62 71.5927 117.158 71.462 116.635 71.462C116.131 71.462 115.674 71.5927 115.263 71.854C114.853 72.106 114.526 72.456 114.283 72.904C114.05 73.3427 113.933 73.8467 113.933 74.416C113.933 74.9853 114.05 75.4893 114.283 75.928C114.526 76.3667 114.853 76.7167 115.263 76.978C115.674 77.23 116.131 77.356 116.635 77.356C117.158 77.356 117.62 77.23 118.021 76.978C118.432 76.7167 118.754 76.3667 118.987 75.928C119.221 75.4893 119.337 74.9853 119.337 74.416ZM125.336 70.678C125.952 70.678 126.442 70.804 126.806 71.056C127.18 71.2987 127.446 71.6347 127.604 72.064C127.772 72.484 127.856 72.9507 127.856 73.464V77.58C127.856 77.692 127.814 77.79 127.73 77.874C127.646 77.958 127.548 78 127.436 78C127.306 78 127.203 77.958 127.128 77.874C127.054 77.79 127.016 77.692 127.016 77.58V73.506C127.016 73.1327 126.956 72.792 126.834 72.484C126.713 72.176 126.512 71.9287 126.232 71.742C125.962 71.5553 125.602 71.462 125.154 71.462C124.753 71.462 124.37 71.5553 124.006 71.742C123.652 71.9287 123.362 72.176 123.138 72.484C122.914 72.792 122.802 73.1327 122.802 73.506V77.58C122.802 77.692 122.76 77.79 122.676 77.874C122.592 77.958 122.494 78 122.382 78C122.252 78 122.149 77.958 122.074 77.874C122 77.79 121.962 77.692 121.962 77.58V71.308C121.962 71.196 122 71.098 122.074 71.014C122.158 70.93 122.261 70.888 122.382 70.888C122.504 70.888 122.602 70.93 122.676 71.014C122.76 71.098 122.802 71.196 122.802 71.308V72.484L122.48 72.988C122.499 72.6893 122.592 72.4047 122.76 72.134C122.938 71.854 123.162 71.6067 123.432 71.392C123.703 71.168 124.002 70.9953 124.328 70.874C124.664 70.7433 125 70.678 125.336 70.678ZM129.594 70.874H132.856C132.968 70.874 133.062 70.916 133.136 71C133.211 71.0747 133.248 71.168 133.248 71.28C133.248 71.3827 133.211 71.4713 133.136 71.546C133.062 71.6207 132.968 71.658 132.856 71.658H129.594C129.482 71.658 129.384 71.6207 129.3 71.546C129.226 71.462 129.188 71.3687 129.188 71.266C129.188 71.154 129.226 71.0607 129.3 70.986C129.384 70.9113 129.482 70.874 129.594 70.874ZM131.036 68.9C131.158 68.9 131.256 68.942 131.33 69.026C131.414 69.11 131.456 69.208 131.456 69.32V76.348C131.456 76.6093 131.489 76.8053 131.554 76.936C131.629 77.0667 131.722 77.1553 131.834 77.202C131.946 77.2393 132.058 77.258 132.17 77.258C132.245 77.258 132.31 77.2487 132.366 77.23C132.432 77.202 132.502 77.188 132.576 77.188C132.66 77.188 132.73 77.2207 132.786 77.286C132.852 77.3513 132.884 77.4353 132.884 77.538C132.884 77.6687 132.81 77.7807 132.66 77.874C132.511 77.958 132.334 78 132.128 78C132.044 78 131.918 77.9953 131.75 77.986C131.582 77.9673 131.41 77.916 131.232 77.832C131.055 77.7387 130.906 77.58 130.784 77.356C130.672 77.132 130.616 76.81 130.616 76.39V69.32C130.616 69.208 130.654 69.11 130.728 69.026C130.812 68.942 130.915 68.9 131.036 68.9ZM137.966 78.14C137.247 78.14 136.613 77.986 136.062 77.678C135.511 77.37 135.082 76.9407 134.774 76.39C134.466 75.8393 134.312 75.1953 134.312 74.458C134.312 73.6647 134.466 72.988 134.774 72.428C135.091 71.868 135.497 71.4387 135.992 71.14C136.496 70.832 137.028 70.678 137.588 70.678C137.999 70.678 138.395 70.7527 138.778 70.902C139.17 71.042 139.515 71.2567 139.814 71.546C140.122 71.826 140.365 72.1713 140.542 72.582C140.729 72.9927 140.831 73.4687 140.85 74.01C140.841 74.122 140.794 74.22 140.71 74.304C140.626 74.3787 140.528 74.416 140.416 74.416H134.802L134.634 73.66H140.15L139.968 73.828V73.548C139.931 73.1093 139.791 72.736 139.548 72.428C139.305 72.12 139.011 71.8867 138.666 71.728C138.321 71.5693 137.961 71.49 137.588 71.49C137.308 71.49 137.019 71.546 136.72 71.658C136.431 71.77 136.165 71.9473 135.922 72.19C135.689 72.4233 135.497 72.7267 135.348 73.1C135.199 73.464 135.124 73.898 135.124 74.402C135.124 74.9527 135.236 75.452 135.46 75.9C135.684 76.348 136.006 76.7027 136.426 76.964C136.855 77.2253 137.364 77.356 137.952 77.356C138.279 77.356 138.573 77.3093 138.834 77.216C139.095 77.1227 139.324 77.0013 139.52 76.852C139.716 76.6933 139.879 76.53 140.01 76.362C140.113 76.278 140.215 76.236 140.318 76.236C140.411 76.236 140.491 76.2733 140.556 76.348C140.631 76.4227 140.668 76.5067 140.668 76.6C140.668 76.712 140.621 76.81 140.528 76.894C140.248 77.23 139.884 77.524 139.436 77.776C138.988 78.0187 138.498 78.14 137.966 78.14ZM146.022 70.678C146.638 70.678 147.128 70.804 147.492 71.056C147.865 71.2987 148.131 71.6347 148.29 72.064C148.458 72.484 148.542 72.9507 148.542 73.464V77.58C148.542 77.692 148.5 77.79 148.416 77.874C148.332 77.958 148.234 78 148.122 78C147.991 78 147.889 77.958 147.814 77.874C147.739 77.79 147.702 77.692 147.702 77.58V73.506C147.702 73.1327 147.641 72.792 147.52 72.484C147.399 72.176 147.198 71.9287 146.918 71.742C146.647 71.5553 146.288 71.462 145.84 71.462C145.439 71.462 145.056 71.5553 144.692 71.742C144.337 71.9287 144.048 72.176 143.824 72.484C143.6 72.792 143.488 73.1327 143.488 73.506V77.58C143.488 77.692 143.446 77.79 143.362 77.874C143.278 77.958 143.18 78 143.068 78C142.937 78 142.835 77.958 142.76 77.874C142.685 77.79 142.648 77.692 142.648 77.58V71.308C142.648 71.196 142.685 71.098 142.76 71.014C142.844 70.93 142.947 70.888 143.068 70.888C143.189 70.888 143.287 70.93 143.362 71.014C143.446 71.098 143.488 71.196 143.488 71.308V72.484L143.166 72.988C143.185 72.6893 143.278 72.4047 143.446 72.134C143.623 71.854 143.847 71.6067 144.118 71.392C144.389 71.168 144.687 70.9953 145.014 70.874C145.35 70.7433 145.686 70.678 146.022 70.678ZM150.28 70.874H153.542C153.654 70.874 153.747 70.916 153.822 71C153.896 71.0747 153.934 71.168 153.934 71.28C153.934 71.3827 153.896 71.4713 153.822 71.546C153.747 71.6207 153.654 71.658 153.542 71.658H150.28C150.168 71.658 150.07 71.6207 149.986 71.546C149.911 71.462 149.874 71.3687 149.874 71.266C149.874 71.154 149.911 71.0607 149.986 70.986C150.07 70.9113 150.168 70.874 150.28 70.874ZM151.722 68.9C151.843 68.9 151.941 68.942 152.016 69.026C152.1 69.11 152.142 69.208 152.142 69.32V76.348C152.142 76.6093 152.174 76.8053 152.24 76.936C152.314 77.0667 152.408 77.1553 152.52 77.202C152.632 77.2393 152.744 77.258 152.856 77.258C152.93 77.258 152.996 77.2487 153.052 77.23C153.117 77.202 153.187 77.188 153.262 77.188C153.346 77.188 153.416 77.2207 153.472 77.286C153.537 77.3513 153.57 77.4353 153.57 77.538C153.57 77.6687 153.495 77.7807 153.346 77.874C153.196 77.958 153.019 78 152.814 78C152.73 78 152.604 77.9953 152.436 77.986C152.268 77.9673 152.095 77.916 151.918 77.832C151.74 77.7387 151.591 77.58 151.47 77.356C151.358 77.132 151.302 76.81 151.302 76.39V69.32C151.302 69.208 151.339 69.11 151.414 69.026C151.498 68.942 151.6 68.9 151.722 68.9Z" fill="black"/>
<defs>
<filter id="filter0_d_449_27" x="0" y="0" width="201" height="118" filterUnits="userSpaceOnUse" color-interpolation-filters="sRGB">
<feFlood flood-opacity="0" result="BackgroundImageFix"/>
<feColorMatrix in="SourceAlpha" type="matrix" values="0 0 0 0 0 0 0 0 0 0 0 0 0 0 0 0 0 0 127 0" result="hardAlpha"/>
<feMorphology radius="7" operator="erode" in="SourceAlpha" result="effect1_dropShadow_449_27"/>
<feOffset dy="4"/>
<feGaussianBlur stdDeviation="12"/>
<feComposite in2="hardAlpha" operator="out"/>
<feColorMatrix type="matrix" values="0 0 0 0 0 0 0 0 0 0 0 0 0 0 0 0 0 0 0.25 0"/>
<feBlend mode="normal" in2="BackgroundImageFix" result="effect1_dropShadow_449_27"/>
<feBlend mode="normal" in="SourceGraphic" in2="effect1_dropShadow_449_27" result="shape"/>
</filter>
</defs>
</svg>
