<svg width="126" height="118" viewBox="0 0 126 118" fill="none" xmlns="http://www.w3.org/2000/svg">
<g filter="url(#filter0_d_451_81)">
<rect x="17" y="13" width="92" height="84" rx="19" fill="#EBDCEC"/>
</g>
<path d="M67.1903 21H58.375V30.8468H67.1903V21Z" fill="#434343"/>
<path fill-rule="evenodd" clip-rule="evenodd" d="M99.6485 30.6847C99.6485 29.2026 98.1731 28 96.3555 28H29.293C27.4708 28 26 29.2026 26 30.6847V31.17H30.4493V72.2419L50.5 72.2374L45.5 78L40.3421 84.3918C39.5975 85.1106 40.9039 86.4483 42 87.5L48.5 81.5L58.3473 72.3129V89.912H66.9081V72.3129L80 86L81.5 87.5C82.5961 86.4527 83.5 85.5 84 84.5L74.396 72.2374H94.7738V31.17H99.6578V30.6847H99.6485ZM92 68.3369H33V31.17H63H92V68.3369Z" fill="#434343"/>
<path d="M55.3968 39C55.7435 39 56.0668 39.1 56.3668 39.3C56.6735 39.5 56.9202 39.77 57.1068 40.11C57.2935 40.45 57.3868 40.83 57.3868 41.25C57.3868 41.6633 57.2935 42.04 57.1068 42.38C56.9202 42.72 56.6735 42.9933 56.3668 43.2C56.0668 43.4 55.7435 43.5 55.3968 43.5H53.5568L53.6568 43.32V45.39C53.6568 45.5633 53.6035 45.71 53.4968 45.83C53.3902 45.9433 53.2502 46 53.0768 46C52.9102 46 52.7735 45.9433 52.6668 45.83C52.5602 45.71 52.5068 45.5633 52.5068 45.39V39.61C52.5068 39.4367 52.5635 39.2933 52.6768 39.18C52.7968 39.06 52.9435 39 53.1168 39H55.3968ZM55.3968 42.36C55.5235 42.36 55.6468 42.3067 55.7668 42.2C55.8868 42.0933 55.9868 41.9567 56.0668 41.79C56.1468 41.6167 56.1868 41.4367 56.1868 41.25C56.1868 41.0567 56.1468 40.8767 56.0668 40.71C55.9868 40.5433 55.8868 40.41 55.7668 40.31C55.6468 40.2033 55.5235 40.15 55.3968 40.15H53.5368L53.6568 39.97V42.52L53.5468 42.36H55.3968ZM59.5622 45.39C59.5622 45.5633 59.5056 45.71 59.3922 45.83C59.2789 45.9433 59.1356 46 58.9622 46C58.7889 46 58.6456 45.9433 58.5322 45.83C58.4189 45.71 58.3622 45.5633 58.3622 45.39V41.26C58.3622 41.0867 58.4189 40.9433 58.5322 40.83C58.6456 40.71 58.7889 40.65 58.9622 40.65C59.1356 40.65 59.2789 40.71 59.3922 40.83C59.5056 40.9433 59.5622 41.0867 59.5622 41.26V45.39ZM58.9522 40C58.7256 40 58.5656 39.9633 58.4722 39.89C58.3789 39.8167 58.3322 39.6867 58.3322 39.5V39.31C58.3322 39.1167 58.3822 38.9867 58.4822 38.92C58.5889 38.8467 58.7489 38.81 58.9622 38.81C59.1956 38.81 59.3589 38.8467 59.4522 38.92C59.5456 38.9933 59.5922 39.1233 59.5922 39.31V39.5C59.5922 39.6933 59.5422 39.8267 59.4422 39.9C59.3422 39.9667 59.1789 40 58.9522 40ZM60.8555 40.75H63.2255C63.3855 40.75 63.5188 40.8033 63.6255 40.91C63.7322 41.0167 63.7855 41.15 63.7855 41.31C63.7855 41.4633 63.7322 41.5933 63.6255 41.7C63.5188 41.8 63.3855 41.85 63.2255 41.85H60.8555C60.6955 41.85 60.5622 41.7967 60.4555 41.69C60.3488 41.5833 60.2955 41.45 60.2955 41.29C60.2955 41.1367 60.3488 41.01 60.4555 40.91C60.5622 40.8033 60.6955 40.75 60.8555 40.75ZM61.9255 39.5C62.0988 39.5 62.2388 39.56 62.3455 39.68C62.4588 39.7933 62.5155 39.9367 62.5155 40.11V44.56C62.5155 44.6533 62.5322 44.73 62.5655 44.79C62.6055 44.85 62.6555 44.8933 62.7155 44.92C62.7822 44.9467 62.8522 44.96 62.9255 44.96C63.0055 44.96 63.0788 44.9467 63.1455 44.92C63.2122 44.8867 63.2888 44.87 63.3755 44.87C63.4688 44.87 63.5522 44.9133 63.6255 45C63.7055 45.0867 63.7455 45.2067 63.7455 45.36C63.7455 45.5467 63.6422 45.7 63.4355 45.82C63.2355 45.94 63.0188 46 62.7855 46C62.6455 46 62.4888 45.99 62.3155 45.97C62.1488 45.9433 61.9888 45.8867 61.8355 45.8C61.6888 45.7067 61.5655 45.5667 61.4655 45.38C61.3655 45.1933 61.3155 44.9367 61.3155 44.61V40.11C61.3155 39.9367 61.3722 39.7933 61.4855 39.68C61.6055 39.56 61.7522 39.5 61.9255 39.5ZM67.2185 40.55C67.5985 40.55 67.9285 40.59 68.2085 40.67C68.4951 40.75 68.7151 40.8633 68.8685 41.01C69.0285 41.15 69.1085 41.32 69.1085 41.52C69.1085 41.6533 69.0685 41.78 68.9885 41.9C68.9085 42.0133 68.7918 42.07 68.6385 42.07C68.5318 42.07 68.4418 42.0567 68.3685 42.03C68.3018 41.9967 68.2418 41.9567 68.1885 41.91C68.1351 41.8633 68.0718 41.82 67.9985 41.78C67.9318 41.74 67.8285 41.71 67.6885 41.69C67.5551 41.6633 67.4551 41.65 67.3885 41.65C67.0485 41.65 66.7585 41.7233 66.5185 41.87C66.2851 42.0167 66.1051 42.2167 65.9785 42.47C65.8518 42.7167 65.7885 43.0033 65.7885 43.33C65.7885 43.65 65.8518 43.9367 65.9785 44.19C66.1118 44.4367 66.2918 44.6333 66.5185 44.78C66.7518 44.9267 67.0185 45 67.3185 45C67.4851 45 67.6285 44.99 67.7485 44.97C67.8685 44.95 67.9685 44.92 68.0485 44.88C68.1418 44.8267 68.2251 44.77 68.2985 44.71C68.3718 44.65 68.4818 44.62 68.6285 44.62C68.8018 44.62 68.9351 44.6767 69.0285 44.79C69.1218 44.8967 69.1685 45.03 69.1685 45.19C69.1685 45.3567 69.0751 45.51 68.8885 45.65C68.7018 45.7833 68.4551 45.8933 68.1485 45.98C67.8485 46.06 67.5218 46.1 67.1685 46.1C66.6418 46.1 66.1851 45.98 65.7985 45.74C65.4118 45.4933 65.1118 45.16 64.8985 44.74C64.6918 44.32 64.5885 43.85 64.5885 43.33C64.5885 42.7833 64.6985 42.3033 64.9185 41.89C65.1451 41.47 65.4551 41.1433 65.8485 40.91C66.2485 40.67 66.7051 40.55 67.2185 40.55ZM72.8438 40.55C73.3238 40.55 73.6871 40.6533 73.9338 40.86C74.1871 41.0667 74.3605 41.3433 74.4538 41.69C74.5471 42.03 74.5938 42.41 74.5938 42.83V45.39C74.5938 45.5633 74.5371 45.71 74.4238 45.83C74.3105 45.9433 74.1671 46 73.9938 46C73.8205 46 73.6771 45.9433 73.5638 45.83C73.4505 45.71 73.3938 45.5633 73.3938 45.39V42.83C73.3938 42.61 73.3671 42.4133 73.3138 42.24C73.2605 42.06 73.1638 41.9167 73.0238 41.81C72.8838 41.7033 72.6838 41.65 72.4238 41.65C72.1705 41.65 71.9538 41.7033 71.7738 41.81C71.5938 41.9167 71.4571 42.06 71.3638 42.24C71.2771 42.4133 71.2338 42.61 71.2338 42.83V45.39C71.2338 45.5633 71.1771 45.71 71.0638 45.83C70.9505 45.9433 70.8071 46 70.6338 46C70.4605 46 70.3171 45.9433 70.2038 45.83C70.0905 45.71 70.0338 45.5633 70.0338 45.39V39.21C70.0338 39.0367 70.0905 38.8933 70.2038 38.78C70.3171 38.66 70.4605 38.6 70.6338 38.6C70.8071 38.6 70.9505 38.66 71.0638 38.78C71.1771 38.8933 71.2338 39.0367 71.2338 39.21V41.69L71.0838 41.66C71.1438 41.5467 71.2271 41.4267 71.3338 41.3C71.4405 41.1667 71.5705 41.0433 71.7238 40.93C71.8771 40.8167 72.0471 40.7267 72.2338 40.66C72.4205 40.5867 72.6238 40.55 72.8438 40.55ZM55.2432 52C55.7232 52 56.1498 52.09 56.5232 52.27C56.8965 52.45 57.2098 52.7033 57.4632 53.03C57.7232 53.35 57.9165 53.7233 58.0432 54.15C58.1765 54.57 58.2432 55.02 58.2432 55.5C58.2432 56.1467 58.1265 56.7367 57.8932 57.27C57.6598 57.7967 57.3198 58.2167 56.8732 58.53C56.4332 58.8433 55.8898 59 55.2432 59H52.8532C52.6798 59 52.5332 58.9433 52.4132 58.83C52.2998 58.71 52.2432 58.5633 52.2432 58.39V52.61C52.2432 52.4367 52.2998 52.2933 52.4132 52.18C52.5332 52.06 52.6798 52 52.8532 52H55.2432ZM55.1432 57.85C55.5632 57.85 55.9065 57.7433 56.1732 57.53C56.4398 57.31 56.6332 57.0233 56.7532 56.67C56.8798 56.31 56.9432 55.92 56.9432 55.5C56.9432 55.1867 56.9065 54.89 56.8332 54.61C56.7665 54.3233 56.6598 54.0733 56.5132 53.86C56.3665 53.64 56.1798 53.4667 55.9532 53.34C55.7265 53.2133 55.4565 53.15 55.1432 53.15H53.3932L53.4932 53.06V57.96L53.4332 57.85H55.1432ZM61.8897 59.1C61.3231 59.1 60.8297 58.9833 60.4097 58.75C59.9964 58.51 59.6764 58.1867 59.4497 57.78C59.2297 57.3733 59.1197 56.9133 59.1197 56.4C59.1197 55.8 59.2397 55.29 59.4797 54.87C59.7264 54.4433 60.0464 54.1167 60.4397 53.89C60.8331 53.6633 61.2497 53.55 61.6897 53.55C62.0297 53.55 62.3497 53.62 62.6497 53.76C62.9564 53.9 63.2264 54.0933 63.4597 54.34C63.6931 54.58 63.8764 54.86 64.0097 55.18C64.1497 55.5 64.2197 55.84 64.2197 56.2C64.2131 56.36 64.1497 56.49 64.0297 56.59C63.9097 56.69 63.7697 56.74 63.6097 56.74H59.7897L59.4897 55.74H63.1597L62.9397 55.94V55.67C62.9264 55.4767 62.8564 55.3033 62.7297 55.15C62.6097 54.9967 62.4564 54.8767 62.2697 54.79C62.0897 54.6967 61.8964 54.65 61.6897 54.65C61.4897 54.65 61.3031 54.6767 61.1297 54.73C60.9564 54.7833 60.8064 54.8733 60.6797 55C60.5531 55.1267 60.4531 55.2967 60.3797 55.51C60.3064 55.7233 60.2697 55.9933 60.2697 56.32C60.2697 56.68 60.3431 56.9867 60.4897 57.24C60.6431 57.4867 60.8364 57.6767 61.0697 57.81C61.3097 57.9367 61.5631 58 61.8297 58C62.0764 58 62.2731 57.98 62.4197 57.94C62.5664 57.9 62.6831 57.8533 62.7697 57.8C62.8631 57.74 62.9464 57.69 63.0197 57.65C63.1397 57.59 63.2531 57.56 63.3597 57.56C63.5064 57.56 63.6264 57.61 63.7197 57.71C63.8197 57.81 63.8697 57.9267 63.8697 58.06C63.8697 58.24 63.7764 58.4033 63.5897 58.55C63.4164 58.6967 63.1731 58.8267 62.8597 58.94C62.5464 59.0467 62.2231 59.1 61.8897 59.1ZM67.6482 53.55C68.0282 53.55 68.3582 53.59 68.6382 53.67C68.9248 53.75 69.1448 53.8633 69.2982 54.01C69.4582 54.15 69.5382 54.32 69.5382 54.52C69.5382 54.6533 69.4982 54.78 69.4182 54.9C69.3382 55.0133 69.2215 55.07 69.0682 55.07C68.9615 55.07 68.8715 55.0567 68.7982 55.03C68.7315 54.9967 68.6715 54.9567 68.6182 54.91C68.5648 54.8633 68.5015 54.82 68.4282 54.78C68.3615 54.74 68.2582 54.71 68.1182 54.69C67.9848 54.6633 67.8848 54.65 67.8182 54.65C67.4782 54.65 67.1882 54.7233 66.9482 54.87C66.7148 55.0167 66.5348 55.2167 66.4082 55.47C66.2815 55.7167 66.2182 56.0033 66.2182 56.33C66.2182 56.65 66.2815 56.9367 66.4082 57.19C66.5415 57.4367 66.7215 57.6333 66.9482 57.78C67.1815 57.9267 67.4482 58 67.7482 58C67.9148 58 68.0582 57.99 68.1782 57.97C68.2982 57.95 68.3982 57.92 68.4782 57.88C68.5715 57.8267 68.6548 57.77 68.7282 57.71C68.8015 57.65 68.9115 57.62 69.0582 57.62C69.2315 57.62 69.3648 57.6767 69.4582 57.79C69.5515 57.8967 69.5982 58.03 69.5982 58.19C69.5982 58.3567 69.5048 58.51 69.3182 58.65C69.1315 58.7833 68.8848 58.8933 68.5782 58.98C68.2782 59.06 67.9515 59.1 67.5982 59.1C67.0715 59.1 66.6148 58.98 66.2282 58.74C65.8415 58.4933 65.5415 58.16 65.3282 57.74C65.1215 57.32 65.0182 56.85 65.0182 56.33C65.0182 55.7833 65.1282 55.3033 65.3482 54.89C65.5748 54.47 65.8848 54.1433 66.2782 53.91C66.6782 53.67 67.1348 53.55 67.6482 53.55ZM71.1635 59C70.9901 59 70.8468 58.9433 70.7335 58.83C70.6201 58.71 70.5635 58.5633 70.5635 58.39V52.21C70.5635 52.0367 70.6201 51.8933 70.7335 51.78C70.8468 51.66 70.9901 51.6 71.1635 51.6C71.3368 51.6 71.4801 51.66 71.5935 51.78C71.7068 51.8933 71.7635 52.0367 71.7635 52.21V58.39C71.7635 58.5633 71.7068 58.71 71.5935 58.83C71.4801 58.9433 71.3368 59 71.1635 59ZM74.3435 53.65C74.4968 53.65 74.6301 53.7133 74.7435 53.84C74.8568 53.9667 74.9135 54.09 74.9135 54.21C74.9135 54.37 74.8335 54.52 74.6735 54.66L71.6635 57.43L71.6135 56.05L73.9035 53.84C74.0301 53.7133 74.1768 53.65 74.3435 53.65ZM74.4935 58.99C74.3201 58.99 74.1735 58.9233 74.0535 58.79L72.2035 56.83L73.1135 55.99L74.9135 57.95C75.0401 58.0833 75.1035 58.2333 75.1035 58.4C75.1035 58.5733 75.0335 58.7167 74.8935 58.83C74.7601 58.9367 74.6268 58.99 74.4935 58.99Z" fill="#434343"/>
<defs>
<filter id="filter0_d_451_81" x="0" y="0" width="126" height="118" filterUnits="userSpaceOnUse" color-interpolation-filters="sRGB">
<feFlood flood-opacity="0" result="BackgroundImageFix"/>
<feColorMatrix in="SourceAlpha" type="matrix" values="0 0 0 0 0 0 0 0 0 0 0 0 0 0 0 0 0 0 127 0" result="hardAlpha"/>
<feMorphology radius="7" operator="erode" in="SourceAlpha" result="effect1_dropShadow_451_81"/>
<feOffset dy="4"/>
<feGaussianBlur stdDeviation="12"/>
<feComposite in2="hardAlpha" operator="out"/>
<feColorMatrix type="matrix" values="0 0 0 0 0 0 0 0 0 0 0 0 0 0 0 0 0 0 0.25 0"/>
<feBlend mode="normal" in2="BackgroundImageFix" result="effect1_dropShadow_451_81"/>
<feBlend mode="normal" in="SourceGraphic" in2="effect1_dropShadow_451_81" result="shape"/>
</filter>
</defs>
</svg>
