<svg width="126" height="118" viewBox="0 0 126 118" fill="none" xmlns="http://www.w3.org/2000/svg">
<g filter="url(#filter0_d_494_46)">
<rect x="17" y="13" width="92" height="84" rx="19" fill="#FFBCB4"/>
</g>
<g clip-path="url(#clip0_494_46)">
<path d="M51.2524 89.9999C58.0131 89.9999 63.5 84.9226 63.5 78.6666V67.3333H51.2524C44.4918 67.3333 39.0049 72.4106 39.0049 78.6666C39.0049 84.9226 44.4918 89.9999 51.2524 89.9999Z" fill="#0ACF83"/>
<path d="M39.0049 56.0001C39.0049 49.7441 44.4918 44.6667 51.2524 44.6667H63.5V67.3334H51.2524C44.4918 67.3334 39.0049 62.2561 39.0049 56.0001Z" fill="#A259FF"/>
<path d="M39.0049 33.3333C39.0049 27.0773 44.4918 22 51.2524 22H63.5V44.6667H51.2524C44.4918 44.6667 39.0049 39.5893 39.0049 33.3333Z" fill="#F24E1E"/>
<path d="M63.5 22H75.7475C82.5082 22 87.9951 27.0773 87.9951 33.3333C87.9951 39.5893 82.5082 44.6667 75.7475 44.6667H63.5V22Z" fill="#FF7262"/>
<path d="M87.9951 56.0001C87.9951 62.2561 82.5082 67.3334 75.7475 67.3334C68.9869 67.3334 63.5 62.2561 63.5 56.0001C63.5 49.7441 68.9869 44.6667 75.7475 44.6667C82.5082 44.6667 87.9951 49.7441 87.9951 56.0001Z" fill="#1ABCFE"/>
</g>
<defs>
<filter id="filter0_d_494_46" x="0" y="0" width="126" height="118" filterUnits="userSpaceOnUse" color-interpolation-filters="sRGB">
<feFlood flood-opacity="0" result="BackgroundImageFix"/>
<feColorMatrix in="SourceAlpha" type="matrix" values="0 0 0 0 0 0 0 0 0 0 0 0 0 0 0 0 0 0 127 0" result="hardAlpha"/>
<feMorphology radius="7" operator="erode" in="SourceAlpha" result="effect1_dropShadow_494_46"/>
<feOffset dy="4"/>
<feGaussianBlur stdDeviation="12"/>
<feComposite in2="hardAlpha" operator="out"/>
<feColorMatrix type="matrix" values="0 0 0 0 0 0 0 0 0 0 0 0 0 0 0 0 0 0 0.25 0"/>
<feBlend mode="normal" in2="BackgroundImageFix" result="effect1_dropShadow_494_46"/>
<feBlend mode="normal" in="SourceGraphic" in2="effect1_dropShadow_494_46" result="shape"/>
</filter>
<clipPath id="clip0_494_46">
<rect width="49" height="68" fill="white" transform="translate(39 22)"/>
</clipPath>
</defs>
</svg>
