<svg width="3446" height="1062" viewBox="0 0 3446 1062" fill="none" xmlns="http://www.w3.org/2000/svg">
<g filter="url(#filter0_d_452_86)">
<rect x="93" y="89" width="3260" height="876" rx="120" fill="#F4F0F0" fill-opacity="0.3" shape-rendering="crispEdges"/>
</g>
<path d="M1220.6 746.25C1222.3 746.25 1223.75 747.05 1224.95 748.65C1226.65 757.65 1227.5 767.4 1227.5 777.9V789.3C1227.5 797.8 1227.35 802.9 1227.05 804.6L1226.15 809.7C1225.75 812.5 1225.1 815.3 1224.2 818.1C1223.2 821.6 1221.65 824.9 1219.55 828C1216.55 833.6 1212.6 838 1207.7 841.2C1202.9 844.4 1197.9 846 1192.7 846C1187.8 846 1182.6 843.8 1177.1 839.4C1171.9 835.1 1167.55 829.6 1164.05 822.9C1158.85 812.8 1156.25 801.05 1156.25 787.65C1156.25 783.55 1156.95 772.4 1158.35 754.2C1159.05 752.6 1160.1 751.2 1161.5 750C1163 748.7 1164.5 748.05 1166 748.05C1168.3 748.05 1169.65 749.55 1170.05 752.55C1168.65 770.45 1167.95 781.4 1167.95 785.4C1167.95 796.4 1170.1 806.15 1174.4 814.65C1177.2 820.45 1180.55 825.2 1184.45 828.9C1188.45 832.5 1192.3 834.3 1196 834.3C1202.3 834.3 1207.7 829.4 1212.2 819.6C1214.2 816.1 1215.25 810.65 1215.35 803.25C1215.35 801.45 1215.45 800.05 1215.65 799.05L1215.95 779.25C1215.95 770.35 1215.25 761.95 1213.85 754.05C1213.85 751.85 1214.55 750 1215.95 748.5C1217.35 747 1218.9 746.25 1220.6 746.25ZM1304.87 748.5C1306.37 749.7 1307.12 751.3 1307.12 753.3C1307.12 792.4 1307.27 816.1 1307.57 824.4L1308.17 836.85C1308.17 839.05 1307.57 841.15 1306.37 843.15C1305.17 845.05 1303.82 846 1302.32 846C1300.32 846 1298.82 845.9 1297.82 845.7C1296.92 845.4 1296.07 844.85 1295.27 844.05L1293.77 842.55C1293.27 842.05 1292.22 840.35 1290.62 837.45L1288.67 833.85C1288.17 832.65 1287.52 831.35 1286.72 829.95C1286.02 828.55 1285.32 827.15 1284.62 825.75L1283.12 823.05L1275.47 808.5C1267.57 794.1 1260.22 782.65 1253.42 774.15C1253.42 806.65 1252.52 829.2 1250.72 841.8C1250.42 844.2 1248.57 845.4 1245.17 845.4C1243.47 845.4 1242.12 845 1241.12 844.2C1240.12 843.3 1239.62 842 1239.62 840.3C1239.62 837.3 1239.97 827.4 1240.67 810.6C1241.47 791.4 1241.87 780.2 1241.87 777V768.45C1241.87 761.25 1242.42 757.2 1243.52 756.3C1244.62 755.4 1245.77 754.95 1246.97 754.95C1252.47 754.95 1260.87 763.95 1272.17 781.95C1274.47 785.45 1278.67 792.8 1284.77 804C1291.07 815.4 1294.77 822.25 1295.87 824.55L1294.07 762.3C1294.07 753.7 1295.02 748.8 1296.92 747.6C1297.72 747 1298.72 746.7 1299.92 746.7C1301.72 746.7 1303.37 747.3 1304.87 748.5ZM1317.65 837.9L1317.35 825.15L1317.5 813.45L1318.85 750.75C1318.85 749.55 1319.5 748.6 1320.8 747.9C1322.1 747.2 1323.75 746.85 1325.75 746.85C1330.55 746.85 1332.95 748.55 1332.95 751.95L1331.15 777.15C1330.05 793.65 1329.5 803.05 1329.5 805.35V821.25C1329.5 828.75 1330 832.85 1331 833.55C1332.7 834.05 1334.45 834.3 1336.25 834.3L1357.85 832.8C1362.55 832.8 1364.9 834.5 1364.9 837.9C1364.9 840.5 1363.6 842.5 1361 843.9C1359 844.9 1356.95 845.55 1354.85 845.85C1352.85 846.05 1350.1 846.15 1346.6 846.15C1329.4 846.15 1320.15 845.65 1318.85 844.65C1318.25 844.15 1317.85 841.9 1317.65 837.9ZM1384.57 759.6C1391.07 750.7 1401.22 746.25 1415.02 746.25C1422.02 746.25 1427.97 748.5 1432.87 753C1442.47 761.5 1447.27 775.1 1447.27 793.8C1447.27 812.3 1441.97 826.85 1431.37 837.45C1425.67 842.85 1419.32 845.75 1412.32 846.15C1402.82 846.15 1395.42 842.9 1390.12 836.4C1385.12 830.2 1381.42 823.15 1379.02 815.25C1376.62 807.35 1375.42 799.35 1375.42 791.25C1375.42 778.35 1378.47 767.8 1384.57 759.6ZM1429.72 767.4C1426.52 761.6 1421.27 758.7 1413.97 758.7C1400.57 758.7 1392.22 765.05 1388.92 777.75C1387.92 781.25 1387.42 785.2 1387.42 789.6C1387.42 796 1388.42 802.55 1390.42 809.25C1393.12 818.65 1397.12 825.25 1402.42 829.05C1405.52 831.45 1409.27 832.65 1413.67 832.65C1418.17 832.65 1422.12 830.7 1425.52 826.8C1431.62 819.9 1434.67 808.7 1434.67 793.2C1434.67 781.8 1433.02 773.2 1429.72 767.4ZM1471.66 760.2C1480.26 752 1490.66 747.9 1502.86 747.9C1509.36 747.9 1516.76 749.2 1525.06 751.8C1526.76 753.1 1527.61 754.6 1527.61 756.3C1527.61 758 1526.86 759.5 1525.36 760.8C1523.86 762 1521.96 762.6 1519.66 762.6C1514.06 761.2 1509.01 760.5 1504.51 760.5C1493.61 760.5 1485.41 763.7 1479.91 770.1C1474.31 776.6 1471.51 786.1 1471.51 798.6C1471.51 811.3 1474.81 821.15 1481.41 828.15C1484.81 831.85 1488.86 833.7 1493.56 833.7C1498.06 833.7 1505.56 831.2 1516.06 826.2C1519.76 824.5 1522.16 823.65 1523.26 823.65C1525.86 823.65 1527.16 825 1527.16 827.7C1527.16 830.4 1525.91 832.65 1523.41 834.45C1515.21 838.75 1508.51 841.8 1503.31 843.6C1498.51 845.1 1494.36 845.85 1490.86 845.85C1483.66 845.85 1477.51 843.2 1472.41 837.9C1463.31 828.2 1458.76 814.85 1458.76 797.85C1458.76 780.85 1463.06 768.3 1471.66 760.2ZM1549.64 845.85C1546.74 845.85 1545.39 844.1 1545.59 840.6V828.9C1545.59 820.3 1545.09 807.3 1544.09 789.9C1543.19 771.1 1542.39 759.45 1541.69 754.95C1541.69 752.75 1542.44 750.85 1543.94 749.25C1545.44 747.55 1547.14 746.7 1549.04 746.7C1551.54 746.7 1553.14 748.2 1553.84 751.2C1555.34 760.5 1556.34 774.9 1556.84 794.4C1565.24 786.7 1572.19 779.6 1577.69 773.1C1582.39 767.5 1587.64 759.95 1593.44 750.45C1595.14 747.75 1597.49 746.4 1600.49 746.4C1602.09 746.4 1603.39 746.85 1604.39 747.75C1605.49 748.55 1606.04 749.55 1606.04 750.75C1606.04 753.85 1603.19 759.4 1597.49 767.4C1591.99 775.2 1586.04 782.8 1579.64 790.2C1587.94 798.5 1595.14 808.2 1601.24 819.3L1604.24 824.25L1607.39 829.5C1609.19 832.5 1610.09 835.45 1610.09 838.35C1610.09 840.55 1609.54 842.35 1608.44 843.75C1607.34 845.05 1605.94 845.7 1604.24 845.7C1602.54 845.7 1600.34 843.5 1597.64 839.1L1585.94 820.2C1581.14 812.3 1575.84 805.1 1570.04 798.6C1564.54 804 1560.34 807.75 1557.44 809.85C1557.74 816.75 1557.89 822.35 1557.89 826.65C1557.89 829.75 1557.79 832.9 1557.59 836.1C1556.99 842.6 1554.34 845.85 1549.64 845.85ZM1632.81 749.1C1635.21 749.1 1636.66 750.25 1637.16 752.55L1637.76 804.6C1637.76 818.1 1637.36 830.05 1636.56 840.45C1636.36 841.95 1635.41 843.3 1633.71 844.5C1632.11 845.6 1630.46 846.15 1628.76 846.15C1625.96 846.15 1624.56 844.7 1624.56 841.8C1625.56 832.2 1626.06 819.8 1626.06 804.6L1625.16 754.2C1625.36 753 1626.26 751.85 1627.86 750.75C1629.56 749.65 1631.21 749.1 1632.81 749.1ZM1719.86 748.5C1721.36 749.7 1722.11 751.3 1722.11 753.3C1722.11 792.4 1722.26 816.1 1722.56 824.4L1723.16 836.85C1723.16 839.05 1722.56 841.15 1721.36 843.15C1720.16 845.05 1718.81 846 1717.31 846C1715.31 846 1713.81 845.9 1712.81 845.7C1711.91 845.4 1711.06 844.85 1710.26 844.05L1708.76 842.55C1708.26 842.05 1707.21 840.35 1705.61 837.45L1703.66 833.85C1703.16 832.65 1702.51 831.35 1701.71 829.95C1701.01 828.55 1700.31 827.15 1699.61 825.75L1698.11 823.05L1690.46 808.5C1682.56 794.1 1675.21 782.65 1668.41 774.15C1668.41 806.65 1667.51 829.2 1665.71 841.8C1665.41 844.2 1663.56 845.4 1660.16 845.4C1658.46 845.4 1657.11 845 1656.11 844.2C1655.11 843.3 1654.61 842 1654.61 840.3C1654.61 837.3 1654.96 827.4 1655.66 810.6C1656.46 791.4 1656.86 780.2 1656.86 777V768.45C1656.86 761.25 1657.41 757.2 1658.51 756.3C1659.61 755.4 1660.76 754.95 1661.96 754.95C1667.46 754.95 1675.86 763.95 1687.16 781.95C1689.46 785.45 1693.66 792.8 1699.76 804C1706.06 815.4 1709.76 822.25 1710.86 824.55L1709.06 762.3C1709.06 753.7 1710.01 748.8 1711.91 747.6C1712.71 747 1713.71 746.7 1714.91 746.7C1716.71 746.7 1718.36 747.3 1719.86 748.5ZM1747.64 760.65C1755.94 751.15 1766.04 746.4 1777.94 746.4C1782.84 746.4 1787.59 747.6 1792.19 750C1796.99 752.4 1799.39 755.1 1799.39 758.1C1799.39 762.7 1797.49 765 1793.69 765C1792.29 765 1789.84 764.1 1786.34 762.3C1782.94 760.5 1779.99 759.6 1777.49 759.6C1768.99 759.6 1761.79 763.45 1755.89 771.15C1750.19 778.75 1747.34 788.55 1747.34 800.55C1747.34 809.35 1749.29 817.15 1753.19 823.95C1757.09 830.65 1761.69 834 1766.99 834C1772.19 834 1776.34 832.3 1779.44 828.9C1782.64 825.4 1784.24 821.3 1784.24 816.6C1784.44 812.8 1783.89 809.8 1782.59 807.6C1781.29 805.4 1778.94 804.15 1775.54 803.85C1773.04 803.85 1770.79 803.35 1768.79 802.35C1766.89 801.25 1765.94 799.9 1765.94 798.3C1765.94 796.5 1766.44 794.9 1767.44 793.5C1768.44 792 1769.79 791.1 1771.49 790.8C1778.29 790.8 1782.84 791.5 1785.14 792.9C1787.24 794.1 1789.04 795.25 1790.54 796.35C1791.84 797.35 1792.84 798.85 1793.54 800.85C1794.54 803.35 1795.19 805.3 1795.49 806.7C1795.89 808 1796.19 810.05 1796.39 812.85C1796.59 819.85 1796.69 825.95 1796.69 831.15C1796.69 838.05 1796.19 842.3 1795.19 843.9C1794.39 845.1 1792.89 845.8 1790.69 846C1788.59 846 1787.14 845.55 1786.34 844.65C1785.54 843.65 1785.04 841.65 1784.84 838.65C1782.44 840.75 1779.39 842.55 1775.69 844.05C1772.09 845.45 1768.89 846.15 1766.09 846.15C1757.29 846.15 1749.89 841.5 1743.89 832.2C1737.89 822.7 1734.89 811.4 1734.89 798.3C1734.89 791.3 1736.04 784.45 1738.34 777.75C1740.64 770.95 1743.74 765.25 1747.64 760.65ZM1854.59 749.1C1856.99 749.1 1858.44 750.25 1858.94 752.55L1859.54 804.6C1859.54 818.1 1859.14 830.05 1858.34 840.45C1858.14 841.95 1857.19 843.3 1855.49 844.5C1853.89 845.6 1852.24 846.15 1850.54 846.15C1847.74 846.15 1846.34 844.7 1846.34 841.8C1847.34 832.2 1847.84 819.8 1847.84 804.6L1846.94 754.2C1847.14 753 1848.04 751.85 1849.64 750.75C1851.34 749.65 1852.99 749.1 1854.59 749.1ZM1941.64 748.5C1943.14 749.7 1943.89 751.3 1943.89 753.3C1943.89 792.4 1944.04 816.1 1944.34 824.4L1944.94 836.85C1944.94 839.05 1944.34 841.15 1943.14 843.15C1941.94 845.05 1940.59 846 1939.09 846C1937.09 846 1935.59 845.9 1934.59 845.7C1933.69 845.4 1932.84 844.85 1932.04 844.05L1930.54 842.55C1930.04 842.05 1928.99 840.35 1927.39 837.45L1925.44 833.85C1924.94 832.65 1924.29 831.35 1923.49 829.95C1922.79 828.55 1922.09 827.15 1921.39 825.75L1919.89 823.05L1912.24 808.5C1904.34 794.1 1896.99 782.65 1890.19 774.15C1890.19 806.65 1889.29 829.2 1887.49 841.8C1887.19 844.2 1885.34 845.4 1881.94 845.4C1880.24 845.4 1878.89 845 1877.89 844.2C1876.89 843.3 1876.39 842 1876.39 840.3C1876.39 837.3 1876.74 827.4 1877.44 810.6C1878.24 791.4 1878.64 780.2 1878.64 777V768.45C1878.64 761.25 1879.19 757.2 1880.29 756.3C1881.39 755.4 1882.54 754.95 1883.74 754.95C1889.24 754.95 1897.64 763.95 1908.94 781.95C1911.24 785.45 1915.44 792.8 1921.54 804C1927.84 815.4 1931.54 822.25 1932.64 824.55L1930.84 762.3C1930.84 753.7 1931.79 748.8 1933.69 747.6C1934.49 747 1935.49 746.7 1936.69 746.7C1938.49 746.7 1940.14 747.3 1941.64 748.5ZM1964.92 753.3C1971.42 748.9 1979.77 746.7 1989.97 746.7C1996.57 746.7 2002.07 747.8 2006.47 750C2011.07 752.2 2013.37 755 2013.37 758.4C2013.37 759.9 2012.97 761.2 2012.17 762.3C2011.37 763.4 2010.27 763.95 2008.87 763.95C2007.37 763.95 2004.27 762.85 1999.57 760.65C1994.67 758.35 1990.27 757.2 1986.37 757.2C1982.37 757.2 1978.32 758.45 1974.22 760.95C1970.02 763.45 1967.92 766.5 1967.92 770.1C1967.92 775 1970.47 778.6 1975.57 780.9C1979.67 782.7 1985.12 784.25 1991.92 785.55C2008.02 788.45 2016.07 797.45 2016.07 812.55C2016.07 825.25 2012.22 834.7 2004.52 840.9C2000.22 844.3 1994.12 846 1986.22 846C1978.32 846 1970.52 843.85 1962.82 839.55C1957.72 836.85 1955.17 834.15 1955.17 831.45C1955.17 830.45 1955.62 829.35 1956.52 828.15C1957.42 826.95 1958.57 825.95 1959.97 825.15C1960.77 824.75 1961.57 824.55 1962.37 824.55C1963.17 824.55 1963.72 824.65 1964.02 824.85C1964.32 824.95 1966.37 825.9 1970.17 827.7C1973.97 829.5 1976.02 830.45 1976.32 830.55C1980.42 832.15 1984.37 832.95 1988.17 832.95C1991.87 832.95 1995.42 831.15 1998.82 827.55C2002.32 823.75 2004.07 819.25 2004.07 814.05C2004.07 807.05 2000.57 802.15 1993.57 799.35C1990.07 797.95 1986.22 796.9 1982.02 796.2C1972.82 794.6 1966.02 791.9 1961.62 788.1C1957.32 784.2 1955.17 778.55 1955.17 771.15C1955.17 763.65 1958.42 757.7 1964.92 753.3ZM2020.87 751.05C2022.17 749.65 2023.72 748.85 2025.52 748.65L2086.27 747.75C2089.17 748.65 2090.62 750.1 2090.62 752.1C2090.62 757.1 2088.57 759.6 2084.47 759.6C2076.07 759.6 2068.12 759.8 2060.62 760.2C2060.12 769.3 2059.87 776.85 2059.87 782.85V787.95L2060.47 840.6C2060.47 843.8 2059.67 845.6 2058.07 846C2056.97 846.4 2055.47 846.6 2053.57 846.6C2050.67 846.6 2049.07 844.95 2048.77 841.65C2048.17 833.95 2047.87 819.6 2047.87 798.6C2047.87 777.5 2048.17 764.8 2048.77 760.5L2039.47 760.65L2024.17 760.5C2022.67 760.5 2021.42 760.05 2020.42 759.15C2019.52 758.15 2019.07 756.9 2019.07 755.4C2019.07 753.9 2019.67 752.45 2020.87 751.05ZM2113.84 759.9C2118.14 751.4 2122.84 747.15 2127.94 747.15C2130.54 747.15 2132.64 748.25 2134.24 750.45C2136.04 752.95 2138.24 757.5 2140.84 764.1C2147.14 780.5 2153.29 806.05 2159.29 840.75C2159.49 841.85 2159.29 843.05 2158.69 844.35C2158.09 845.55 2156.49 846.15 2153.89 846.15C2152.29 846.15 2150.84 845.75 2149.54 844.95C2148.34 844.05 2147.54 842.65 2147.14 840.75L2144.89 829.2C2142.49 816.5 2140.89 809.9 2140.09 809.4C2138.89 808.7 2134.89 807.95 2128.09 807.15C2120.89 806.35 2116.44 805.95 2114.74 805.95C2112.54 805.95 2111.24 806.15 2110.84 806.55C2109.14 808.15 2106.69 820.3 2103.49 843C2103.09 844.9 2101.19 845.85 2097.79 845.85C2094.39 845.85 2092.69 844.4 2092.69 841.5C2092.69 834.4 2095.34 820.65 2100.64 800.25C2105.84 780.25 2110.24 766.8 2113.84 759.9ZM2133.94 778.35C2131.24 768.65 2129.04 763.8 2127.34 763.8C2125.94 763.8 2123.34 768.25 2119.54 777.15C2115.84 785.85 2113.99 791.3 2113.99 793.5C2113.99 794 2114.09 794.35 2114.29 794.55C2115.09 795.35 2118.24 796.05 2123.74 796.65C2128.74 797.25 2132.64 797.55 2135.44 797.55C2136.74 797.55 2137.49 797.45 2137.69 797.25C2137.89 796.85 2137.99 796.05 2137.99 794.85C2137.99 793.45 2136.64 787.95 2133.94 778.35ZM2181.68 760.65C2189.98 751.15 2200.08 746.4 2211.98 746.4C2216.88 746.4 2221.63 747.6 2226.23 750C2231.03 752.4 2233.43 755.1 2233.43 758.1C2233.43 762.7 2231.53 765 2227.73 765C2226.33 765 2223.88 764.1 2220.38 762.3C2216.98 760.5 2214.03 759.6 2211.53 759.6C2203.03 759.6 2195.83 763.45 2189.93 771.15C2184.23 778.75 2181.38 788.55 2181.38 800.55C2181.38 809.35 2183.33 817.15 2187.23 823.95C2191.13 830.65 2195.73 834 2201.03 834C2206.23 834 2210.38 832.3 2213.48 828.9C2216.68 825.4 2218.28 821.3 2218.28 816.6C2218.48 812.8 2217.93 809.8 2216.63 807.6C2215.33 805.4 2212.98 804.15 2209.58 803.85C2207.08 803.85 2204.83 803.35 2202.83 802.35C2200.93 801.25 2199.98 799.9 2199.98 798.3C2199.98 796.5 2200.48 794.9 2201.48 793.5C2202.48 792 2203.83 791.1 2205.53 790.8C2212.33 790.8 2216.88 791.5 2219.18 792.9C2221.28 794.1 2223.08 795.25 2224.58 796.35C2225.88 797.35 2226.88 798.85 2227.58 800.85C2228.58 803.35 2229.23 805.3 2229.53 806.7C2229.93 808 2230.23 810.05 2230.43 812.85C2230.63 819.85 2230.73 825.95 2230.73 831.15C2230.73 838.05 2230.23 842.3 2229.23 843.9C2228.43 845.1 2226.93 845.8 2224.73 846C2222.63 846 2221.18 845.55 2220.38 844.65C2219.58 843.65 2219.08 841.65 2218.88 838.65C2216.48 840.75 2213.43 842.55 2209.73 844.05C2206.13 845.45 2202.93 846.15 2200.13 846.15C2191.33 846.15 2183.93 841.5 2177.93 832.2C2171.93 822.7 2168.93 811.4 2168.93 798.3C2168.93 791.3 2170.08 784.45 2172.38 777.75C2174.68 770.95 2177.78 765.25 2181.68 760.65ZM2244.9 846.6C2242.9 846.6 2241.55 845.4 2240.85 843C2240.55 829.8 2240.4 816.65 2240.4 803.55L2239.95 765.75C2239.95 758.15 2243.3 752.95 2250 750.15C2255.3 747.65 2261.7 746.4 2269.2 746.4C2273.1 746.4 2277.15 747.35 2281.35 749.25C2285.75 751.05 2289.65 753.75 2293.05 757.35C2296.55 760.85 2298.3 764.7 2298.3 768.9C2298.5 772.8 2296.7 777.1 2292.9 781.8C2289.1 786.5 2284.3 790.8 2278.5 794.7C2272.8 798.6 2267.35 801.35 2262.15 802.95C2271.35 809.35 2279.45 816.35 2286.45 823.95C2293.35 831.25 2296.8 837 2296.8 841.2C2296.8 842.6 2296.1 843.85 2294.7 844.95C2293.4 846.05 2291.9 846.6 2290.2 846.6C2288.3 846.6 2286.7 845.8 2285.4 844.2C2283.3 839.1 2279.2 833.65 2273.1 827.85C2267.1 822.05 2259.85 816.35 2251.35 810.75L2252.25 839.55C2252.25 841.25 2251.45 842.85 2249.85 844.35C2248.25 845.85 2246.6 846.6 2244.9 846.6ZM2265.45 758.55C2259.95 758.55 2255.4 759.25 2251.8 760.65C2251.7 764.05 2251.65 775.35 2251.65 794.55C2258.35 794.25 2265.85 791.45 2274.15 786.15C2282.55 780.85 2286.75 776.1 2286.75 771.9C2286.75 767.5 2284.65 764.2 2280.45 762C2276.15 759.7 2271.15 758.55 2265.45 758.55ZM2327.26 759.9C2331.56 751.4 2336.26 747.15 2341.36 747.15C2343.96 747.15 2346.06 748.25 2347.66 750.45C2349.46 752.95 2351.66 757.5 2354.26 764.1C2360.56 780.5 2366.71 806.05 2372.71 840.75C2372.91 841.85 2372.71 843.05 2372.11 844.35C2371.51 845.55 2369.91 846.15 2367.31 846.15C2365.71 846.15 2364.26 845.75 2362.96 844.95C2361.76 844.05 2360.96 842.65 2360.56 840.75L2358.31 829.2C2355.91 816.5 2354.31 809.9 2353.51 809.4C2352.31 808.7 2348.31 807.95 2341.51 807.15C2334.31 806.35 2329.86 805.95 2328.16 805.95C2325.96 805.95 2324.66 806.15 2324.26 806.55C2322.56 808.15 2320.11 820.3 2316.91 843C2316.51 844.9 2314.61 845.85 2311.21 845.85C2307.81 845.85 2306.11 844.4 2306.11 841.5C2306.11 834.4 2308.76 820.65 2314.06 800.25C2319.26 780.25 2323.66 766.8 2327.26 759.9ZM2347.36 778.35C2344.66 768.65 2342.46 763.8 2340.76 763.8C2339.36 763.8 2336.76 768.25 2332.96 777.15C2329.26 785.85 2327.41 791.3 2327.41 793.5C2327.41 794 2327.51 794.35 2327.71 794.55C2328.51 795.35 2331.66 796.05 2337.16 796.65C2342.16 797.25 2346.06 797.55 2348.86 797.55C2350.16 797.55 2350.91 797.45 2351.11 797.25C2351.31 796.85 2351.41 796.05 2351.41 794.85C2351.41 793.45 2350.06 787.95 2347.36 778.35ZM2445.36 752.7C2446.86 748.3 2449.31 746.1 2452.71 746.1C2455.01 746.1 2456.56 747.85 2457.36 751.35C2457.86 769.55 2458.11 787.35 2458.11 804.75C2458.11 822.95 2458.01 834.05 2457.81 838.05C2457.61 841.15 2456.96 843.3 2455.86 844.5C2454.76 845.6 2452.76 846.15 2449.86 846.15C2447.26 846.15 2445.96 844.55 2445.96 841.35V807.45C2445.96 803.95 2445.86 798.3 2445.66 790.5L2445.36 779.55C2441.86 785.45 2437.36 790.25 2431.86 793.95C2426.36 797.65 2420.11 799.5 2413.11 799.5C2406.11 799.5 2400.31 796.65 2395.71 790.95C2395.51 798.95 2395.41 806.15 2395.41 812.55L2395.56 838.95C2395.56 841.25 2394.76 843.05 2393.16 844.35C2391.66 845.55 2389.76 846.15 2387.46 846.15C2384.76 846.15 2383.41 844.5 2383.41 841.2C2383.51 835.2 2383.56 820.95 2383.56 798.45V755.85C2383.56 754.05 2384.11 752.4 2385.21 750.9C2386.41 749.3 2387.76 748.5 2389.26 748.5C2390.96 748.5 2392.41 748.95 2393.61 749.85C2394.91 750.75 2395.61 752 2395.71 753.6C2396.11 764.3 2397.86 772.45 2400.96 778.05C2404.06 783.65 2407.91 786.45 2412.51 786.45C2416.71 786.45 2420.46 785.75 2423.76 784.35C2427.06 782.85 2429.71 781.15 2431.71 779.25C2433.81 777.25 2435.76 774.55 2437.56 771.15C2440.16 766.45 2442.76 760.3 2445.36 752.7ZM2485.81 733.35C2486.91 734.25 2487.46 735.55 2487.46 737.25C2487.46 742.65 2486.46 747.95 2484.46 753.15C2482.56 758.25 2479.91 760.8 2476.51 760.8C2473.21 760.8 2471.56 759.1 2471.56 755.7C2471.56 754.4 2472.41 751.9 2474.11 748.2C2475.91 744.6 2476.81 740.8 2476.81 736.8C2476.81 735.3 2477.31 734.15 2478.31 733.35C2479.41 732.45 2480.71 732 2482.21 732C2483.61 732 2484.81 732.45 2485.81 733.35ZM2512.77 753.3C2519.27 748.9 2527.62 746.7 2537.82 746.7C2544.42 746.7 2549.92 747.8 2554.32 750C2558.92 752.2 2561.22 755 2561.22 758.4C2561.22 759.9 2560.82 761.2 2560.02 762.3C2559.22 763.4 2558.12 763.95 2556.72 763.95C2555.22 763.95 2552.12 762.85 2547.42 760.65C2542.52 758.35 2538.12 757.2 2534.22 757.2C2530.22 757.2 2526.17 758.45 2522.07 760.95C2517.87 763.45 2515.77 766.5 2515.77 770.1C2515.77 775 2518.32 778.6 2523.42 780.9C2527.52 782.7 2532.97 784.25 2539.77 785.55C2555.87 788.45 2563.92 797.45 2563.92 812.55C2563.92 825.25 2560.07 834.7 2552.37 840.9C2548.07 844.3 2541.97 846 2534.07 846C2526.17 846 2518.37 843.85 2510.67 839.55C2505.57 836.85 2503.02 834.15 2503.02 831.45C2503.02 830.45 2503.47 829.35 2504.37 828.15C2505.27 826.95 2506.42 825.95 2507.82 825.15C2508.62 824.75 2509.42 824.55 2510.22 824.55C2511.02 824.55 2511.57 824.65 2511.87 824.85C2512.17 824.95 2514.22 825.9 2518.02 827.7C2521.82 829.5 2523.87 830.45 2524.17 830.55C2528.27 832.15 2532.22 832.95 2536.02 832.95C2539.72 832.95 2543.27 831.15 2546.67 827.55C2550.17 823.75 2551.92 819.25 2551.92 814.05C2551.92 807.05 2548.42 802.15 2541.42 799.35C2537.92 797.95 2534.07 796.9 2529.87 796.2C2520.67 794.6 2513.87 791.9 2509.47 788.1C2505.17 784.2 2503.02 778.55 2503.02 771.15C2503.02 763.65 2506.27 757.7 2512.77 753.3ZM2610.04 835.65C2609.94 834.65 2609.89 833 2609.89 830.7C2609.19 821 2608.84 807.1 2608.84 789C2608.84 772 2609.09 760.6 2609.59 754.8C2610.09 751.8 2612.14 749.75 2615.74 748.65C2619.44 747.45 2624.74 746.85 2631.64 746.85C2640.94 746.85 2648.84 748.9 2655.34 753C2661.84 757.1 2665.09 763.05 2665.09 770.85C2665.09 777.05 2664.24 782.4 2662.54 786.9C2660.84 791.3 2658.54 794.6 2655.64 796.8C2651.34 800.2 2644.84 801.9 2636.14 801.9C2632.14 801.9 2627.29 801.4 2621.59 800.4V803.55C2622.09 823.55 2622.29 835.1 2622.19 838.2C2622.09 843.4 2620.34 846 2616.94 846C2615.04 845.8 2613.69 845.45 2612.89 844.95C2612.19 844.45 2611.74 843.8 2611.54 843C2611.34 842.2 2611.14 841.7 2610.94 841.5C2610.74 840.9 2610.59 840.05 2610.49 838.95C2610.39 837.75 2610.24 836.65 2610.04 835.65ZM2631.94 758.1C2626.84 758.1 2623.34 758.55 2621.44 759.45C2621.04 767.25 2620.84 772.7 2620.84 775.8C2620.84 779.3 2621.04 783.75 2621.44 789.15L2626.99 789.9C2629.59 790.2 2631.79 790.35 2633.59 790.35C2636.19 790.35 2638.69 790.2 2641.09 789.9C2643.09 789.6 2644.44 789.15 2645.14 788.55C2648.14 786.35 2649.99 784.4 2650.69 782.7C2651.99 779.2 2652.64 775.4 2652.64 771.3C2652.64 767.2 2650.44 764 2646.04 761.7C2641.64 759.3 2636.94 758.1 2631.94 758.1ZM2689.01 759.6C2695.51 750.7 2705.66 746.25 2719.46 746.25C2726.46 746.25 2732.41 748.5 2737.31 753C2746.91 761.5 2751.71 775.1 2751.71 793.8C2751.71 812.3 2746.41 826.85 2735.81 837.45C2730.11 842.85 2723.76 845.75 2716.76 846.15C2707.26 846.15 2699.86 842.9 2694.56 836.4C2689.56 830.2 2685.86 823.15 2683.46 815.25C2681.06 807.35 2679.86 799.35 2679.86 791.25C2679.86 778.35 2682.91 767.8 2689.01 759.6ZM2734.16 767.4C2730.96 761.6 2725.71 758.7 2718.41 758.7C2705.01 758.7 2696.66 765.05 2693.36 777.75C2692.36 781.25 2691.86 785.2 2691.86 789.6C2691.86 796 2692.86 802.55 2694.86 809.25C2697.56 818.65 2701.56 825.25 2706.86 829.05C2709.96 831.45 2713.71 832.65 2718.11 832.65C2722.61 832.65 2726.56 830.7 2729.96 826.8C2736.06 819.9 2739.11 808.7 2739.11 793.2C2739.11 781.8 2737.46 773.2 2734.16 767.4ZM2758.86 751.05C2760.16 749.65 2761.71 748.85 2763.51 748.65L2824.26 747.75C2827.16 748.65 2828.61 750.1 2828.61 752.1C2828.61 757.1 2826.56 759.6 2822.46 759.6C2814.06 759.6 2806.11 759.8 2798.61 760.2C2798.11 769.3 2797.86 776.85 2797.86 782.85V787.95L2798.46 840.6C2798.46 843.8 2797.66 845.6 2796.06 846C2794.96 846.4 2793.46 846.6 2791.56 846.6C2788.66 846.6 2787.06 844.95 2786.76 841.65C2786.16 833.95 2785.86 819.6 2785.86 798.6C2785.86 777.5 2786.16 764.8 2786.76 760.5L2777.46 760.65L2762.16 760.5C2760.66 760.5 2759.41 760.05 2758.41 759.15C2757.51 758.15 2757.06 756.9 2757.06 755.4C2757.06 753.9 2757.66 752.45 2758.86 751.05ZM2835.92 826.95V816.45L2835.32 794.4C2833.92 793.6 2833.22 792.25 2833.22 790.35C2833.22 788.75 2833.77 787.25 2834.87 785.85C2834.47 776.95 2834.27 766.4 2834.27 754.2C2834.87 751.8 2835.77 750.05 2836.97 748.95C2838.27 747.85 2840.12 747.15 2842.52 746.85C2855.72 747.45 2870.02 747.75 2885.42 747.75C2889.22 748.55 2891.12 750.2 2891.12 752.7C2891.12 756.9 2887.02 759.35 2878.82 760.05C2877.32 760.15 2874.92 760.2 2871.62 760.2H2861.87C2860.47 760.2 2855.22 759.8 2846.12 759C2846.12 772.1 2846.32 780.7 2846.72 784.8C2850.22 784.9 2860.42 784.95 2877.32 784.95C2880.92 785.65 2882.72 787.3 2882.72 789.9C2882.72 792.4 2881.27 794.35 2878.37 795.75C2877.77 796.05 2877.22 796.25 2876.72 796.35L2850.77 795.9C2849.57 795.9 2848.27 796 2846.87 796.2L2847.47 822C2847.47 827.7 2847.32 831.85 2847.02 834.45L2881.82 834C2885.02 834.5 2886.62 835.85 2886.62 838.05C2886.62 839.55 2885.92 841.05 2884.52 842.55C2883.22 844.05 2881.67 845 2879.87 845.4L2841.47 846C2839.17 846 2837.57 845.6 2836.67 844.8C2835.77 843.9 2835.32 842.45 2835.32 840.45C2835.72 837.95 2835.92 833.45 2835.92 826.95ZM2964.83 748.5C2966.33 749.7 2967.08 751.3 2967.08 753.3C2967.08 792.4 2967.23 816.1 2967.53 824.4L2968.13 836.85C2968.13 839.05 2967.53 841.15 2966.33 843.15C2965.13 845.05 2963.78 846 2962.28 846C2960.28 846 2958.78 845.9 2957.78 845.7C2956.88 845.4 2956.03 844.85 2955.23 844.05L2953.73 842.55C2953.23 842.05 2952.18 840.35 2950.58 837.45L2948.63 833.85C2948.13 832.65 2947.48 831.35 2946.68 829.95C2945.98 828.55 2945.28 827.15 2944.58 825.75L2943.08 823.05L2935.43 808.5C2927.53 794.1 2920.18 782.65 2913.38 774.15C2913.38 806.65 2912.48 829.2 2910.68 841.8C2910.38 844.2 2908.53 845.4 2905.13 845.4C2903.43 845.4 2902.08 845 2901.08 844.2C2900.08 843.3 2899.58 842 2899.58 840.3C2899.58 837.3 2899.93 827.4 2900.63 810.6C2901.43 791.4 2901.83 780.2 2901.83 777V768.45C2901.83 761.25 2902.38 757.2 2903.48 756.3C2904.58 755.4 2905.73 754.95 2906.93 754.95C2912.43 754.95 2920.83 763.95 2932.13 781.95C2934.43 785.45 2938.63 792.8 2944.73 804C2951.03 815.4 2954.73 822.25 2955.83 824.55L2954.03 762.3C2954.03 753.7 2954.98 748.8 2956.88 747.6C2957.68 747 2958.68 746.7 2959.88 746.7C2961.68 746.7 2963.33 747.3 2964.83 748.5ZM2975.22 751.05C2976.52 749.65 2978.07 748.85 2979.87 748.65L3040.62 747.75C3043.52 748.65 3044.97 750.1 3044.97 752.1C3044.97 757.1 3042.92 759.6 3038.82 759.6C3030.42 759.6 3022.47 759.8 3014.97 760.2C3014.47 769.3 3014.22 776.85 3014.22 782.85V787.95L3014.82 840.6C3014.82 843.8 3014.02 845.6 3012.42 846C3011.32 846.4 3009.82 846.6 3007.92 846.6C3005.02 846.6 3003.42 844.95 3003.12 841.65C3002.52 833.95 3002.22 819.6 3002.22 798.6C3002.22 777.5 3002.52 764.8 3003.12 760.5L2993.82 760.65L2978.52 760.5C2977.02 760.5 2975.77 760.05 2974.77 759.15C2973.87 758.15 2973.42 756.9 2973.42 755.4C2973.42 753.9 2974.02 752.45 2975.22 751.05ZM3063.08 749.1C3065.48 749.1 3066.93 750.25 3067.43 752.55L3068.03 804.6C3068.03 818.1 3067.63 830.05 3066.83 840.45C3066.63 841.95 3065.68 843.3 3063.98 844.5C3062.38 845.6 3060.73 846.15 3059.03 846.15C3056.23 846.15 3054.83 844.7 3054.83 841.8C3055.83 832.2 3056.33 819.8 3056.33 804.6L3055.43 754.2C3055.63 753 3056.53 751.85 3058.13 750.75C3059.83 749.65 3061.48 749.1 3063.08 749.1ZM3103.48 759.9C3107.78 751.4 3112.48 747.15 3117.58 747.15C3120.18 747.15 3122.28 748.25 3123.88 750.45C3125.68 752.95 3127.88 757.5 3130.48 764.1C3136.78 780.5 3142.93 806.05 3148.93 840.75C3149.13 841.85 3148.93 843.05 3148.33 844.35C3147.73 845.55 3146.13 846.15 3143.53 846.15C3141.93 846.15 3140.48 845.75 3139.18 844.95C3137.98 844.05 3137.18 842.65 3136.78 840.75L3134.53 829.2C3132.13 816.5 3130.53 809.9 3129.73 809.4C3128.53 808.7 3124.53 807.95 3117.73 807.15C3110.53 806.35 3106.08 805.95 3104.38 805.95C3102.18 805.95 3100.88 806.15 3100.48 806.55C3098.78 808.15 3096.33 820.3 3093.13 843C3092.73 844.9 3090.83 845.85 3087.43 845.85C3084.03 845.85 3082.33 844.4 3082.33 841.5C3082.33 834.4 3084.98 820.65 3090.28 800.25C3095.48 780.25 3099.88 766.8 3103.48 759.9ZM3123.58 778.35C3120.88 768.65 3118.68 763.8 3116.98 763.8C3115.58 763.8 3112.98 768.25 3109.18 777.15C3105.48 785.85 3103.63 791.3 3103.63 793.5C3103.63 794 3103.73 794.35 3103.93 794.55C3104.73 795.35 3107.88 796.05 3113.38 796.65C3118.38 797.25 3122.28 797.55 3125.08 797.55C3126.38 797.55 3127.13 797.45 3127.33 797.25C3127.53 796.85 3127.63 796.05 3127.63 794.85C3127.63 793.45 3126.28 787.95 3123.58 778.35ZM3156.33 837.9L3156.03 825.15L3156.18 813.45L3157.53 750.75C3157.53 749.55 3158.18 748.6 3159.48 747.9C3160.78 747.2 3162.43 746.85 3164.43 746.85C3169.23 746.85 3171.63 748.55 3171.63 751.95L3169.83 777.15C3168.73 793.65 3168.18 803.05 3168.18 805.35V821.25C3168.18 828.75 3168.68 832.85 3169.68 833.55C3171.38 834.05 3173.13 834.3 3174.93 834.3L3196.53 832.8C3201.23 832.8 3203.58 834.5 3203.58 837.9C3203.58 840.5 3202.28 842.5 3199.68 843.9C3197.68 844.9 3195.63 845.55 3193.53 845.85C3191.53 846.05 3188.78 846.15 3185.28 846.15C3168.08 846.15 3158.83 845.65 3157.53 844.65C3156.93 844.15 3156.53 841.9 3156.33 837.9Z" fill="#FCA643"/>
<path d="M466.312 150C396.091 150 387.339 150.336 359.858 151.488C332.264 152.832 313.598 157.073 297.129 163.41C279.892 169.859 264.281 179.956 251.386 192.997C238.19 205.748 227.996 221.227 221.531 238.331C215.137 254.653 210.858 273.151 209.502 300.499C208.258 327.75 208 336.407 208 406C208 475.593 208.339 484.266 209.502 511.501C210.858 538.769 215.137 557.347 221.531 573.669C228.038 590.752 238.227 606.222 251.386 619.003C264.251 632.08 279.87 642.183 297.129 648.59C313.598 654.847 332.344 659.168 359.858 660.512C387.355 661.744 396.091 662 466.312 662C536.533 662 545.285 661.664 572.766 660.512C600.28 659.168 619.026 654.831 635.495 648.59C652.732 642.141 668.343 632.044 681.238 619.003C694.451 606.266 704.648 590.783 711.093 573.669C717.406 557.347 721.766 538.769 723.122 511.501C724.366 484.25 724.624 475.593 724.624 406C724.624 336.407 724.285 327.734 723.122 300.499C721.766 273.231 717.39 254.557 711.093 238.331C704.586 221.248 694.397 205.778 681.238 192.997C668.387 179.903 652.764 169.797 635.495 163.41C619.026 157.073 600.28 152.832 572.766 151.488C545.268 150.256 536.533 150 466.312 150ZM466.312 196.086C535.274 196.086 543.508 196.422 570.764 197.574C595.904 198.742 609.596 202.903 618.687 206.423C629.925 210.534 640.097 217.078 648.461 225.577C657.022 233.832 663.6 243.889 667.707 255.005C671.26 264.014 675.458 277.584 676.636 302.499C677.799 329.51 678.138 337.687 678.138 406.016C678.138 474.345 677.799 482.522 676.54 509.533C675.183 534.448 670.985 548.018 667.449 557.027C662.557 569.044 657.099 577.445 648.089 586.535C639.697 594.981 629.532 601.493 618.315 605.609C609.338 609.129 595.452 613.29 570.215 614.458C542.814 615.61 534.741 615.946 465.602 615.946C396.462 615.946 388.405 615.61 360.972 614.362C335.832 613.018 321.962 608.857 312.872 605.353C300.6 600.504 292.188 595.096 283.178 586.167C274.088 577.157 268.307 568.58 263.851 556.659C260.234 547.762 256.1 534 254.76 508.989C253.84 482.154 253.404 473.832 253.404 405.632C253.404 337.463 253.84 329.126 254.76 301.955C256.1 276.944 260.234 263.214 263.851 254.285C268.307 242.108 274.104 233.786 283.178 224.777C292.172 215.864 300.6 210.104 312.872 205.591C321.962 202.087 335.493 197.926 360.73 196.678C388.131 195.702 396.204 195.35 465.246 195.35L466.312 196.086ZM466.312 274.608C448.895 274.601 431.648 277.996 415.556 284.599C399.464 291.201 384.843 300.882 372.527 313.087C360.212 325.292 350.444 339.783 343.782 355.731C337.12 371.679 333.694 388.771 333.701 406.032C333.694 423.293 337.12 440.385 343.782 456.333C350.444 472.281 360.212 486.772 372.527 498.977C384.843 511.182 399.464 520.863 415.556 527.465C431.648 534.068 448.895 537.463 466.312 537.456C483.729 537.463 500.976 534.068 517.068 527.465C533.16 520.863 547.781 511.182 560.097 498.977C572.412 486.772 582.18 472.281 588.842 456.333C595.504 440.385 598.93 423.293 598.923 406.032C598.93 388.771 595.504 371.679 588.842 355.731C582.18 339.783 572.412 325.292 560.097 313.087C547.781 300.882 533.16 291.201 517.068 284.599C500.976 277.996 483.729 274.601 466.312 274.608V274.608ZM466.312 491.371C418.712 491.371 380.203 453.206 380.203 406.032C380.203 358.858 418.712 320.693 466.312 320.693C513.912 320.693 552.421 358.858 552.421 406.032C552.421 453.206 513.912 491.371 466.312 491.371ZM635.269 269.359C635.261 277.515 631.985 285.333 626.163 291.097C620.341 296.861 612.449 300.099 604.219 300.099C600.15 300.099 596.121 299.304 592.362 297.761C588.603 296.218 585.187 293.956 582.31 291.105C579.432 288.253 577.15 284.868 575.593 281.142C574.036 277.417 573.234 273.424 573.234 269.391C573.234 265.358 574.036 261.365 575.593 257.64C577.15 253.914 579.432 250.529 582.31 247.677C585.187 244.826 588.603 242.564 592.362 241.021C596.121 239.477 600.15 238.683 604.219 238.683C621.286 238.683 635.269 252.445 635.269 269.359V269.359Z" fill="url(#paint0_linear_452_86)"/>
<path d="M860.508 606.411C860.508 611.262 858.653 615.399 854.944 618.823C851.52 622.247 847.382 623.959 842.532 623.959C837.11 623.959 832.83 622.247 829.692 618.823C826.553 615.399 824.984 611.262 824.984 606.411V341.907C824.984 336.771 826.696 332.634 830.12 329.495C833.544 326.071 837.824 324.359 842.96 324.359C847.81 324.359 851.948 326.071 855.372 329.495C858.796 332.634 860.508 336.771 860.508 341.907V606.411ZM1039.75 397.119C1059.15 397.119 1074.42 401.114 1085.55 409.103C1096.67 417.092 1104.52 427.792 1109.09 441.203C1113.94 454.614 1116.36 469.594 1116.36 486.143V606.411C1116.36 611.262 1114.65 615.399 1111.23 618.823C1108.09 622.247 1104.09 623.959 1099.24 623.959C1094.39 623.959 1090.25 622.247 1086.83 618.823C1083.69 615.399 1082.12 611.262 1082.12 606.411V486.999C1082.12 476.156 1080.41 466.455 1076.99 457.895C1073.85 449.05 1068.43 442.059 1060.72 436.923C1053.3 431.502 1043.03 428.791 1029.91 428.791C1017.92 428.791 1006.94 431.502 996.949 436.923C986.963 442.059 978.973 449.05 972.981 457.895C966.989 466.455 963.993 476.156 963.993 486.999V606.411C963.993 611.262 962.281 615.399 958.857 618.823C955.719 622.247 951.724 623.959 946.873 623.959C942.023 623.959 937.885 622.247 934.461 618.823C931.323 615.399 929.753 611.262 929.753 606.411V419.803C929.753 414.952 931.323 410.958 934.461 407.819C937.885 404.395 942.023 402.683 946.873 402.683C952.009 402.683 956.147 404.395 959.285 407.819C962.424 410.958 963.993 414.952 963.993 419.803V450.191L955.433 459.607C956.86 452.188 960.141 444.77 965.277 437.351C970.413 429.647 976.833 422.799 984.537 416.807C992.241 410.815 1000.8 406.107 1010.22 402.683C1019.63 398.974 1029.48 397.119 1039.75 397.119ZM1167.29 588.863C1164.72 585.154 1163.58 581.302 1163.86 577.307C1164.15 573.027 1166.57 569.318 1171.14 566.179C1173.99 564.182 1177.27 563.326 1180.98 563.611C1184.98 563.896 1188.54 565.751 1191.68 569.175C1199.67 578.591 1208.8 586.152 1219.07 591.859C1229.35 597.28 1241.9 599.991 1256.74 599.991C1263.59 599.706 1270.43 598.564 1277.28 596.567C1284.13 594.57 1289.84 591.146 1294.4 586.295C1299.25 581.159 1301.68 574.454 1301.68 566.179C1301.68 558.19 1299.25 551.912 1294.4 547.347C1289.55 542.496 1283.27 538.644 1275.57 535.791C1267.87 532.652 1259.45 529.942 1250.32 527.659C1240.9 525.091 1231.63 522.238 1222.5 519.099C1213.37 515.675 1205.09 511.538 1197.67 506.687C1190.54 501.551 1184.69 495.274 1180.13 487.855C1175.85 480.151 1173.71 470.878 1173.71 460.035C1173.71 447.195 1177.13 436.067 1183.98 426.651C1191.11 417.235 1200.53 409.959 1212.23 404.823C1224.21 399.687 1237.19 397.119 1251.17 397.119C1259.16 397.119 1267.44 398.118 1276 400.115C1284.84 401.827 1293.4 404.966 1301.68 409.531C1309.95 413.811 1317.23 419.803 1323.51 427.507C1326.07 430.36 1327.5 433.927 1327.79 438.207C1328.07 442.487 1326.22 446.339 1322.22 449.763C1319.08 452.046 1315.52 453.044 1311.52 452.759C1307.81 452.474 1304.67 451.047 1302.11 448.479C1296.11 441.346 1288.55 435.924 1279.42 432.215C1270.58 428.22 1260.73 426.223 1249.89 426.223C1243.04 426.223 1236.34 427.222 1229.77 429.219C1223.21 431.216 1217.65 434.64 1213.08 439.491C1208.8 444.056 1206.66 450.476 1206.66 458.751C1206.95 466.455 1209.52 472.732 1214.37 477.583C1219.22 482.434 1225.78 486.428 1234.05 489.567C1242.33 492.42 1251.46 495.274 1261.45 498.127C1270.58 500.41 1279.28 503.12 1287.55 506.259C1296.11 509.112 1303.82 512.964 1310.67 517.815C1317.51 522.666 1322.94 528.943 1326.93 536.647C1330.93 544.066 1332.92 553.482 1332.92 564.895C1332.92 578.02 1329.21 589.434 1321.79 599.135C1314.38 608.551 1304.53 615.827 1292.26 620.963C1280.28 625.814 1267.3 628.239 1253.31 628.239C1237.62 628.239 1222.07 625.243 1206.66 619.251C1191.54 613.259 1178.41 603.13 1167.29 588.863ZM1415.37 606.411C1415.37 611.262 1413.66 615.399 1410.23 618.823C1407.09 622.247 1403.1 623.959 1398.25 623.959C1393.11 623.959 1388.98 622.247 1385.84 618.823C1382.7 615.399 1381.13 611.262 1381.13 606.411V416.379C1381.13 411.528 1382.7 407.534 1385.84 404.395C1389.26 400.971 1393.4 399.259 1398.25 399.259C1403.1 399.259 1407.09 400.971 1410.23 404.395C1413.66 407.534 1415.37 411.528 1415.37 416.379V606.411ZM1398.25 370.583C1391.12 370.583 1385.84 369.156 1382.41 366.303C1378.99 363.45 1377.28 359.027 1377.28 353.035V347.043C1377.28 341.051 1379.13 336.628 1382.84 333.775C1386.55 330.922 1391.83 329.495 1398.68 329.495C1405.53 329.495 1410.66 330.922 1414.09 333.775C1417.51 336.628 1419.22 341.051 1419.22 347.043V353.035C1419.22 359.027 1417.37 363.45 1413.66 366.303C1410.23 369.156 1405.1 370.583 1398.25 370.583ZM1569.75 397.119C1582.02 397.119 1593.43 399.259 1603.99 403.539C1614.55 407.534 1623.68 412.812 1631.38 419.375C1639.37 425.938 1645.51 432.786 1649.79 439.919C1654.35 447.052 1656.63 453.758 1656.63 460.035L1648.5 454.899V417.663C1648.5 412.812 1650.07 408.818 1653.21 405.679C1656.35 402.255 1660.49 400.543 1665.62 400.543C1670.47 400.543 1674.47 402.255 1677.61 405.679C1681.03 408.818 1682.74 412.812 1682.74 417.663V605.127C1682.74 628.524 1677.75 647.927 1667.76 663.335C1658.06 678.743 1644.94 690.299 1628.39 698.003C1611.84 705.707 1593.29 709.559 1572.75 709.559C1564.19 709.559 1554.77 708.418 1544.5 706.135C1534.23 703.852 1525.1 700.999 1517.11 697.575C1509.12 694.436 1503.98 691.155 1501.7 687.731C1497.42 684.878 1494.71 681.596 1493.57 677.887C1492.71 674.463 1493.42 671.182 1495.71 668.043C1498.27 664.048 1501.56 662.051 1505.55 662.051C1509.83 662.051 1515.11 663.335 1521.39 665.903C1523.95 666.759 1527.95 668.186 1533.37 670.183C1539.08 672.18 1545.35 673.892 1552.2 675.319C1559.34 677.031 1566.33 677.887 1573.17 677.887C1597.43 677.887 1615.97 671.467 1628.81 658.627C1641.94 646.072 1648.5 629.38 1648.5 608.551V568.747L1653.21 570.887C1651.5 578.876 1647.93 586.295 1642.51 593.143C1637.37 599.991 1630.95 606.126 1623.25 611.547C1615.83 616.683 1607.56 620.82 1598.43 623.959C1589.3 626.812 1580.02 628.239 1570.61 628.239C1550.63 628.239 1532.66 623.246 1516.68 613.259C1500.7 603.272 1488 589.576 1478.59 572.171C1469.46 554.766 1464.89 534.935 1464.89 512.679C1464.89 490.138 1469.46 470.164 1478.59 452.759C1488 435.354 1500.56 421.8 1516.25 412.099C1532.23 402.112 1550.06 397.119 1569.75 397.119ZM1574.03 428.791C1559.48 428.791 1546.35 432.5 1534.65 439.919C1523.24 447.052 1514.25 456.896 1507.69 469.451C1501.41 482.006 1498.27 496.415 1498.27 512.679C1498.27 528.372 1501.41 542.639 1507.69 555.479C1514.25 568.034 1523.24 578.02 1534.65 585.439C1546.35 592.858 1559.48 596.567 1574.03 596.567C1588.87 596.567 1601.99 593 1613.41 585.867C1624.82 578.448 1633.81 568.462 1640.37 555.907C1646.93 543.352 1650.21 528.943 1650.21 512.679C1650.21 496.13 1646.93 481.578 1640.37 469.023C1633.81 456.468 1624.82 446.624 1613.41 439.491C1601.99 432.358 1588.87 428.791 1574.03 428.791ZM1853.05 399.259C1871.88 399.259 1886.72 403.396 1897.56 411.671C1908.69 419.66 1916.53 430.503 1921.1 444.199C1925.95 457.61 1928.37 472.59 1928.37 489.139V606.411C1928.37 611.262 1926.66 615.399 1923.24 618.823C1920.1 622.247 1916.11 623.959 1911.25 623.959C1906.4 623.959 1902.27 622.247 1898.84 618.823C1895.7 615.399 1894.13 611.262 1894.13 606.411V489.139C1894.13 478.296 1892.57 468.595 1889.43 460.035C1886.29 451.19 1881.01 444.199 1873.59 439.063C1866.46 433.642 1856.61 430.931 1844.06 430.931C1832.36 430.931 1821.66 433.642 1811.96 439.063C1802.26 444.199 1794.55 451.19 1788.85 460.035C1783.14 468.595 1780.29 478.296 1780.29 489.139V606.411C1780.29 611.262 1778.57 615.399 1775.15 618.823C1772.01 622.247 1768.02 623.959 1763.17 623.959C1758.32 623.959 1754.18 622.247 1750.75 618.823C1747.62 615.399 1746.05 611.262 1746.05 606.411V324.359C1746.05 319.508 1747.62 315.514 1750.75 312.375C1754.18 308.951 1758.32 307.239 1763.17 307.239C1768.3 307.239 1772.44 308.951 1775.58 312.375C1778.72 315.514 1780.29 319.508 1780.29 324.359V452.331L1771.73 461.747C1773.15 454.328 1776.29 446.91 1781.14 439.491C1785.99 431.787 1792.13 424.939 1799.55 418.947C1806.97 412.955 1815.24 408.247 1824.37 404.823C1833.5 401.114 1843.06 399.259 1853.05 399.259ZM1983.25 403.967H2083.83C2088.4 403.967 2092.11 405.536 2094.96 408.675C2098.1 411.814 2099.67 415.523 2099.67 419.803C2099.67 424.368 2098.1 428.22 2094.96 431.359C2092.11 434.212 2088.4 435.639 2083.83 435.639H1983.25C1978.97 435.639 1975.26 434.07 1972.12 430.931C1968.99 427.792 1967.42 423.94 1967.42 419.375C1967.42 415.095 1968.99 411.528 1972.12 408.675C1975.26 405.536 1978.97 403.967 1983.25 403.967ZM2028.19 345.759C2033.04 345.759 2037.04 347.471 2040.18 350.895C2043.31 354.034 2044.88 358.028 2044.88 362.879V569.603C2044.88 576.451 2045.88 581.587 2047.88 585.011C2049.88 588.435 2052.45 590.86 2055.58 592.287C2059.01 593.428 2062.29 593.999 2065.43 593.999C2068.28 593.999 2070.71 593.571 2072.7 592.715C2074.99 591.574 2077.55 591.003 2080.41 591.003C2083.26 591.003 2085.83 592.43 2088.11 595.283C2090.68 597.851 2091.96 601.275 2091.96 605.555C2091.96 610.691 2088.97 615.114 2082.98 618.823C2076.98 622.247 2070.28 623.959 2062.86 623.959C2058.87 623.959 2053.87 623.674 2047.88 623.103C2042.17 622.532 2036.47 620.678 2030.76 617.539C2025.05 614.4 2020.2 609.264 2016.21 602.131C2012.5 594.712 2010.64 584.44 2010.64 571.315V362.879C2010.64 358.028 2012.36 354.034 2015.78 350.895C2019.2 347.471 2023.34 345.759 2028.19 345.759ZM2288.28 324.359H2440.64C2445.49 324.359 2449.63 325.928 2453.06 329.067C2456.48 332.206 2458.19 336.2 2458.19 341.051C2458.19 345.902 2456.48 349.896 2453.06 353.035C2449.63 355.888 2445.49 357.315 2440.64 357.315H2302.83L2306.68 350.039V458.323L2302.4 453.615H2421.38C2426.23 453.615 2430.37 455.184 2433.8 458.323C2437.22 461.462 2438.93 465.456 2438.93 470.307C2438.93 475.158 2437.22 479.152 2433.8 482.291C2430.37 485.144 2426.23 486.571 2421.38 486.571H2303.68L2306.68 482.719V593.571L2304.11 590.575H2440.64C2445.49 590.575 2449.63 592.287 2453.06 595.711C2456.48 599.135 2458.19 602.987 2458.19 607.267C2458.19 612.118 2456.48 616.112 2453.06 619.251C2449.63 622.39 2445.49 623.959 2440.64 623.959H2288.28C2283.42 623.959 2279.29 622.247 2275.86 618.823C2272.72 615.399 2271.16 611.262 2271.16 606.411V341.479C2271.16 336.628 2272.72 332.634 2275.86 329.495C2279.29 326.071 2283.42 324.359 2288.28 324.359ZM2689.5 307.239C2694.35 307.239 2698.34 308.951 2701.48 312.375C2704.9 315.514 2706.62 319.508 2706.62 324.359V606.411C2706.62 611.262 2704.9 615.399 2701.48 618.823C2698.34 622.247 2694.35 623.959 2689.5 623.959C2684.36 623.959 2680.22 622.247 2677.08 618.823C2673.94 615.399 2672.38 611.262 2672.38 606.411V565.751L2680.51 562.755C2680.51 569.603 2678.37 576.879 2674.09 584.583C2669.81 592.002 2663.96 598.992 2656.54 605.555C2649.12 612.118 2640.28 617.539 2630 621.819C2620.02 626.099 2609.17 628.239 2597.48 628.239C2578.36 628.239 2560.95 623.246 2545.26 613.259C2529.85 603.272 2517.58 589.576 2508.45 572.171C2499.61 554.766 2495.18 534.935 2495.18 512.679C2495.18 490.138 2499.61 470.164 2508.45 452.759C2517.58 435.354 2529.85 421.8 2545.26 412.099C2560.67 402.112 2577.79 397.119 2596.62 397.119C2608.6 397.119 2619.87 399.116 2630.43 403.111C2640.99 407.106 2650.12 412.527 2657.82 419.375C2665.81 426.223 2672.09 433.784 2676.66 442.059C2681.22 450.334 2683.5 458.608 2683.5 466.883L2672.38 464.315V324.359C2672.38 319.508 2673.94 315.514 2677.08 312.375C2680.22 308.951 2684.36 307.239 2689.5 307.239ZM2601.33 596.567C2615.59 596.567 2628.15 593 2638.99 585.867C2650.12 578.448 2658.68 568.462 2664.67 555.907C2670.95 543.067 2674.09 528.658 2674.09 512.679C2674.09 496.415 2670.95 482.006 2664.67 469.451C2658.68 456.896 2650.12 447.052 2638.99 439.919C2628.15 432.5 2615.59 428.791 2601.33 428.791C2587.35 428.791 2574.79 432.5 2563.66 439.919C2552.82 447.052 2544.26 456.896 2537.98 469.451C2531.71 482.006 2528.57 496.415 2528.57 512.679C2528.57 528.372 2531.71 542.639 2537.98 555.479C2544.26 568.034 2552.82 578.02 2563.66 585.439C2574.79 592.858 2587.35 596.567 2601.33 596.567ZM2862.95 397.119C2875.22 397.119 2886.63 399.259 2897.19 403.539C2907.74 407.534 2916.87 412.812 2924.58 419.375C2932.57 425.938 2938.7 432.786 2942.98 439.919C2947.55 447.052 2949.83 453.758 2949.83 460.035L2941.7 454.899V417.663C2941.7 412.812 2943.27 408.818 2946.41 405.679C2949.54 402.255 2953.68 400.543 2958.82 400.543C2963.67 400.543 2967.66 402.255 2970.8 405.679C2974.23 408.818 2975.94 412.812 2975.94 417.663V605.127C2975.94 628.524 2970.94 647.927 2960.96 663.335C2951.26 678.743 2938.13 690.299 2921.58 698.003C2905.03 705.707 2886.49 709.559 2865.94 709.559C2857.38 709.559 2847.97 708.418 2837.69 706.135C2827.42 703.852 2818.29 700.999 2810.3 697.575C2802.31 694.436 2797.18 691.155 2794.89 687.731C2790.61 684.878 2787.9 681.596 2786.76 677.887C2785.91 674.463 2786.62 671.182 2788.9 668.043C2791.47 664.048 2794.75 662.051 2798.75 662.051C2803.03 662.051 2808.3 663.335 2814.58 665.903C2817.15 666.759 2821.14 668.186 2826.57 670.183C2832.27 672.18 2838.55 673.892 2845.4 675.319C2852.53 677.031 2859.52 677.887 2866.37 677.887C2890.62 677.887 2909.17 671.467 2922.01 658.627C2935.14 646.072 2941.7 629.38 2941.7 608.551V568.747L2946.41 570.887C2944.69 578.876 2941.13 586.295 2935.71 593.143C2930.57 599.991 2924.15 606.126 2916.45 611.547C2909.03 616.683 2900.75 620.82 2891.62 623.959C2882.49 626.812 2873.22 628.239 2863.8 628.239C2843.83 628.239 2825.85 623.246 2809.87 613.259C2793.9 603.272 2781.2 589.576 2771.78 572.171C2762.65 554.766 2758.09 534.935 2758.09 512.679C2758.09 490.138 2762.65 470.164 2771.78 452.759C2781.2 435.354 2793.75 421.8 2809.45 412.099C2825.42 402.112 2843.26 397.119 2862.95 397.119ZM2867.23 428.791C2852.67 428.791 2839.55 432.5 2827.85 439.919C2816.44 447.052 2807.45 456.896 2800.89 469.451C2794.61 482.006 2791.47 496.415 2791.47 512.679C2791.47 528.372 2794.61 542.639 2800.89 555.479C2807.45 568.034 2816.44 578.02 2827.85 585.439C2839.55 592.858 2852.67 596.567 2867.23 596.567C2882.06 596.567 2895.19 593 2906.6 585.867C2918.02 578.448 2927 568.462 2933.57 555.907C2940.13 543.352 2943.41 528.943 2943.41 512.679C2943.41 496.13 2940.13 481.578 2933.57 469.023C2927 456.468 2918.02 446.624 2906.6 439.491C2895.19 432.358 2882.06 428.791 2867.23 428.791ZM3133.17 628.239C3110.35 628.239 3090.37 623.388 3073.25 613.687C3056.13 603.986 3042.72 590.718 3033.02 573.883C3023.61 556.763 3018.9 537.075 3018.9 514.819C3018.9 489.995 3023.75 468.88 3033.45 451.475C3043.44 433.784 3056.28 420.374 3071.97 411.243C3087.95 401.827 3104.78 397.119 3122.47 397.119C3135.6 397.119 3148.3 399.544 3160.57 404.395C3172.84 409.246 3183.68 416.379 3193.09 425.795C3202.51 434.926 3210.07 446.054 3215.78 459.179C3221.49 472.019 3224.48 486.428 3224.77 502.407C3224.77 506.972 3223.05 510.824 3219.63 513.963C3216.21 517.102 3212.21 518.671 3207.65 518.671H3038.59L3030.88 489.139H3195.66L3188.81 495.131V485.715C3187.67 474.016 3183.68 464.03 3176.83 455.755C3170.27 447.195 3162.14 440.632 3152.43 436.067C3143.02 431.502 3133.03 429.219 3122.47 429.219C3113.91 429.219 3105.35 430.788 3096.79 433.927C3088.52 436.78 3080.96 441.631 3074.11 448.479C3067.55 455.042 3062.13 463.602 3057.85 474.159C3053.85 484.716 3051.85 497.414 3051.85 512.251C3051.85 528.8 3055.14 543.352 3061.7 555.907C3068.55 568.462 3077.96 578.448 3089.95 585.867C3101.93 593 3115.91 596.567 3131.89 596.567C3141.88 596.567 3150.58 595.283 3158 592.715C3165.42 590.147 3171.84 587.008 3177.26 583.299C3182.68 579.304 3187.25 575.31 3190.95 571.315C3194.66 568.747 3198.23 567.463 3201.65 567.463C3205.93 567.463 3209.36 568.89 3211.93 571.743C3214.78 574.596 3216.21 578.02 3216.21 582.015C3216.21 586.866 3213.92 591.146 3209.36 594.855C3201.37 603.7 3190.53 611.547 3176.83 618.395C3163.13 624.958 3148.58 628.239 3133.17 628.239Z" fill="url(#paint1_linear_452_86)"/>
<defs>
<filter id="filter0_d_452_86" x="0.699997" y="0.699997" width="3444.6" height="1060.6" filterUnits="userSpaceOnUse" color-interpolation-filters="sRGB">
<feFlood flood-opacity="0" result="BackgroundImageFix"/>
<feColorMatrix in="SourceAlpha" type="matrix" values="0 0 0 0 0 0 0 0 0 0 0 0 0 0 0 0 0 0 127 0" result="hardAlpha"/>
<feMorphology radius="17" operator="erode" in="SourceAlpha" result="effect1_dropShadow_452_86"/>
<feOffset dy="4"/>
<feGaussianBlur stdDeviation="54.65"/>
<feComposite in2="hardAlpha" operator="out"/>
<feColorMatrix type="matrix" values="0 0 0 0 0 0 0 0 0 0 0 0 0 0 0 0 0 0 0.25 0"/>
<feBlend mode="normal" in2="BackgroundImageFix" result="effect1_dropShadow_452_86"/>
<feBlend mode="normal" in="SourceGraphic" in2="effect1_dropShadow_452_86" result="shape"/>
</filter>
<linearGradient id="paint0_linear_452_86" x1="208" y1="406" x2="724.624" y2="406" gradientUnits="userSpaceOnUse">
<stop stop-color="#833AB4"/>
<stop offset="0.5" stop-color="#FD1D1D"/>
<stop offset="1" stop-color="#FCB045"/>
</linearGradient>
<linearGradient id="paint1_linear_452_86" x1="600.878" y1="257.394" x2="3431" y2="257.394" gradientUnits="userSpaceOnUse">
<stop stop-color="#F12711"/>
<stop offset="1" stop-color="#F5AF19"/>
</linearGradient>
</defs>
</svg>
