<svg width="3223" height="697" viewBox="0 0 3223 697" fill="none" xmlns="http://www.w3.org/2000/svg">
<path d="M1012.6 596.25C1014.3 596.25 1015.75 597.05 1016.95 598.65C1018.65 607.65 1019.5 617.4 1019.5 627.9V639.3C1019.5 647.8 1019.35 652.9 1019.05 654.6L1018.15 659.7C1017.75 662.5 1017.1 665.3 1016.2 668.1C1015.2 671.6 1013.65 674.9 1011.55 678C1008.55 683.6 1004.6 688 999.7 691.2C994.9 694.4 989.9 696 984.7 696C979.8 696 974.6 693.8 969.1 689.4C963.9 685.1 959.55 679.6 956.05 672.9C950.85 662.8 948.25 651.05 948.25 637.65C948.25 633.55 948.95 622.4 950.35 604.2C951.05 602.6 952.1 601.2 953.5 600C955 598.7 956.5 598.05 958 598.05C960.3 598.05 961.65 599.55 962.05 602.55C960.65 620.45 959.95 631.4 959.95 635.4C959.95 646.4 962.1 656.15 966.4 664.65C969.2 670.45 972.55 675.2 976.45 678.9C980.45 682.5 984.3 684.3 988 684.3C994.3 684.3 999.7 679.4 1004.2 669.6C1006.2 666.1 1007.25 660.65 1007.35 653.25C1007.35 651.45 1007.45 650.05 1007.65 649.05L1007.95 629.25C1007.95 620.35 1007.25 611.95 1005.85 604.05C1005.85 601.85 1006.55 600 1007.95 598.5C1009.35 597 1010.9 596.25 1012.6 596.25ZM1096.87 598.5C1098.37 599.7 1099.12 601.3 1099.12 603.3C1099.12 642.4 1099.27 666.1 1099.57 674.4L1100.17 686.85C1100.17 689.05 1099.57 691.15 1098.37 693.15C1097.17 695.05 1095.82 696 1094.32 696C1092.32 696 1090.82 695.9 1089.82 695.7C1088.92 695.4 1088.07 694.85 1087.27 694.05L1085.77 692.55C1085.27 692.05 1084.22 690.35 1082.62 687.45L1080.67 683.85C1080.17 682.65 1079.52 681.35 1078.72 679.95C1078.02 678.55 1077.32 677.15 1076.62 675.75L1075.12 673.05L1067.47 658.5C1059.57 644.1 1052.22 632.65 1045.42 624.15C1045.42 656.65 1044.52 679.2 1042.72 691.8C1042.42 694.2 1040.57 695.4 1037.17 695.4C1035.47 695.4 1034.12 695 1033.12 694.2C1032.12 693.3 1031.62 692 1031.62 690.3C1031.62 687.3 1031.97 677.4 1032.67 660.6C1033.47 641.4 1033.87 630.2 1033.87 627V618.45C1033.87 611.25 1034.42 607.2 1035.52 606.3C1036.62 605.4 1037.77 604.95 1038.97 604.95C1044.47 604.95 1052.87 613.95 1064.17 631.95C1066.47 635.45 1070.67 642.8 1076.77 654C1083.07 665.4 1086.77 672.25 1087.87 674.55L1086.07 612.3C1086.07 603.7 1087.02 598.8 1088.92 597.6C1089.72 597 1090.72 596.7 1091.92 596.7C1093.72 596.7 1095.37 597.3 1096.87 598.5ZM1109.65 687.9L1109.35 675.15L1109.5 663.45L1110.85 600.75C1110.85 599.55 1111.5 598.6 1112.8 597.9C1114.1 597.2 1115.75 596.85 1117.75 596.85C1122.55 596.85 1124.95 598.55 1124.95 601.95L1123.15 627.15C1122.05 643.65 1121.5 653.05 1121.5 655.35V671.25C1121.5 678.75 1122 682.85 1123 683.55C1124.7 684.05 1126.45 684.3 1128.25 684.3L1149.85 682.8C1154.55 682.8 1156.9 684.5 1156.9 687.9C1156.9 690.5 1155.6 692.5 1153 693.9C1151 694.9 1148.95 695.55 1146.85 695.85C1144.85 696.05 1142.1 696.15 1138.6 696.15C1121.4 696.15 1112.15 695.65 1110.85 694.65C1110.25 694.15 1109.85 691.9 1109.65 687.9ZM1176.57 609.6C1183.07 600.7 1193.22 596.25 1207.02 596.25C1214.02 596.25 1219.97 598.5 1224.87 603C1234.47 611.5 1239.27 625.1 1239.27 643.8C1239.27 662.3 1233.97 676.85 1223.37 687.45C1217.67 692.85 1211.32 695.75 1204.32 696.15C1194.82 696.15 1187.42 692.9 1182.12 686.4C1177.12 680.2 1173.42 673.15 1171.02 665.25C1168.62 657.35 1167.42 649.35 1167.42 641.25C1167.42 628.35 1170.47 617.8 1176.57 609.6ZM1221.72 617.4C1218.52 611.6 1213.27 608.7 1205.97 608.7C1192.57 608.7 1184.22 615.05 1180.92 627.75C1179.92 631.25 1179.42 635.2 1179.42 639.6C1179.42 646 1180.42 652.55 1182.42 659.25C1185.12 668.65 1189.12 675.25 1194.42 679.05C1197.52 681.45 1201.27 682.65 1205.67 682.65C1210.17 682.65 1214.12 680.7 1217.52 676.8C1223.62 669.9 1226.67 658.7 1226.67 643.2C1226.67 631.8 1225.02 623.2 1221.72 617.4ZM1263.66 610.2C1272.26 602 1282.66 597.9 1294.86 597.9C1301.36 597.9 1308.76 599.2 1317.06 601.8C1318.76 603.1 1319.61 604.6 1319.61 606.3C1319.61 608 1318.86 609.5 1317.36 610.8C1315.86 612 1313.96 612.6 1311.66 612.6C1306.06 611.2 1301.01 610.5 1296.51 610.5C1285.61 610.5 1277.41 613.7 1271.91 620.1C1266.31 626.6 1263.51 636.1 1263.51 648.6C1263.51 661.3 1266.81 671.15 1273.41 678.15C1276.81 681.85 1280.86 683.7 1285.56 683.7C1290.06 683.7 1297.56 681.2 1308.06 676.2C1311.76 674.5 1314.16 673.65 1315.26 673.65C1317.86 673.65 1319.16 675 1319.16 677.7C1319.16 680.4 1317.91 682.65 1315.41 684.45C1307.21 688.75 1300.51 691.8 1295.31 693.6C1290.51 695.1 1286.36 695.85 1282.86 695.85C1275.66 695.85 1269.51 693.2 1264.41 687.9C1255.31 678.2 1250.76 664.85 1250.76 647.85C1250.76 630.85 1255.06 618.3 1263.66 610.2ZM1341.64 695.85C1338.74 695.85 1337.39 694.1 1337.59 690.6V678.9C1337.59 670.3 1337.09 657.3 1336.09 639.9C1335.19 621.1 1334.39 609.45 1333.69 604.95C1333.69 602.75 1334.44 600.85 1335.94 599.25C1337.44 597.55 1339.14 596.7 1341.04 596.7C1343.54 596.7 1345.14 598.2 1345.84 601.2C1347.34 610.5 1348.34 624.9 1348.84 644.4C1357.24 636.7 1364.19 629.6 1369.69 623.1C1374.39 617.5 1379.64 609.95 1385.44 600.45C1387.14 597.75 1389.49 596.4 1392.49 596.4C1394.09 596.4 1395.39 596.85 1396.39 597.75C1397.49 598.55 1398.04 599.55 1398.04 600.75C1398.04 603.85 1395.19 609.4 1389.49 617.4C1383.99 625.2 1378.04 632.8 1371.64 640.2C1379.94 648.5 1387.14 658.2 1393.24 669.3L1396.24 674.25L1399.39 679.5C1401.19 682.5 1402.09 685.45 1402.09 688.35C1402.09 690.55 1401.54 692.35 1400.44 693.75C1399.34 695.05 1397.94 695.7 1396.24 695.7C1394.54 695.7 1392.34 693.5 1389.64 689.1L1377.94 670.2C1373.14 662.3 1367.84 655.1 1362.04 648.6C1356.54 654 1352.34 657.75 1349.44 659.85C1349.74 666.75 1349.89 672.35 1349.89 676.65C1349.89 679.75 1349.79 682.9 1349.59 686.1C1348.99 692.6 1346.34 695.85 1341.64 695.85ZM1424.81 599.1C1427.21 599.1 1428.66 600.25 1429.16 602.55L1429.76 654.6C1429.76 668.1 1429.36 680.05 1428.56 690.45C1428.36 691.95 1427.41 693.3 1425.71 694.5C1424.11 695.6 1422.46 696.15 1420.76 696.15C1417.96 696.15 1416.56 694.7 1416.56 691.8C1417.56 682.2 1418.06 669.8 1418.06 654.6L1417.16 604.2C1417.36 603 1418.26 601.85 1419.86 600.75C1421.56 599.65 1423.21 599.1 1424.81 599.1ZM1511.86 598.5C1513.36 599.7 1514.11 601.3 1514.11 603.3C1514.11 642.4 1514.26 666.1 1514.56 674.4L1515.16 686.85C1515.16 689.05 1514.56 691.15 1513.36 693.15C1512.16 695.05 1510.81 696 1509.31 696C1507.31 696 1505.81 695.9 1504.81 695.7C1503.91 695.4 1503.06 694.85 1502.26 694.05L1500.76 692.55C1500.26 692.05 1499.21 690.35 1497.61 687.45L1495.66 683.85C1495.16 682.65 1494.51 681.35 1493.71 679.95C1493.01 678.55 1492.31 677.15 1491.61 675.75L1490.11 673.05L1482.46 658.5C1474.56 644.1 1467.21 632.65 1460.41 624.15C1460.41 656.65 1459.51 679.2 1457.71 691.8C1457.41 694.2 1455.56 695.4 1452.16 695.4C1450.46 695.4 1449.11 695 1448.11 694.2C1447.11 693.3 1446.61 692 1446.61 690.3C1446.61 687.3 1446.96 677.4 1447.66 660.6C1448.46 641.4 1448.86 630.2 1448.86 627V618.45C1448.86 611.25 1449.41 607.2 1450.51 606.3C1451.61 605.4 1452.76 604.95 1453.96 604.95C1459.46 604.95 1467.86 613.95 1479.16 631.95C1481.46 635.45 1485.66 642.8 1491.76 654C1498.06 665.4 1501.76 672.25 1502.86 674.55L1501.06 612.3C1501.06 603.7 1502.01 598.8 1503.91 597.6C1504.71 597 1505.71 596.7 1506.91 596.7C1508.71 596.7 1510.36 597.3 1511.86 598.5ZM1539.64 610.65C1547.94 601.15 1558.04 596.4 1569.94 596.4C1574.84 596.4 1579.59 597.6 1584.19 600C1588.99 602.4 1591.39 605.1 1591.39 608.1C1591.39 612.7 1589.49 615 1585.69 615C1584.29 615 1581.84 614.1 1578.34 612.3C1574.94 610.5 1571.99 609.6 1569.49 609.6C1560.99 609.6 1553.79 613.45 1547.89 621.15C1542.19 628.75 1539.34 638.55 1539.34 650.55C1539.34 659.35 1541.29 667.15 1545.19 673.95C1549.09 680.65 1553.69 684 1558.99 684C1564.19 684 1568.34 682.3 1571.44 678.9C1574.64 675.4 1576.24 671.3 1576.24 666.6C1576.44 662.8 1575.89 659.8 1574.59 657.6C1573.29 655.4 1570.94 654.15 1567.54 653.85C1565.04 653.85 1562.79 653.35 1560.79 652.35C1558.89 651.25 1557.94 649.9 1557.94 648.3C1557.94 646.5 1558.44 644.9 1559.44 643.5C1560.44 642 1561.79 641.1 1563.49 640.8C1570.29 640.8 1574.84 641.5 1577.14 642.9C1579.24 644.1 1581.04 645.25 1582.54 646.35C1583.84 647.35 1584.84 648.85 1585.54 650.85C1586.54 653.35 1587.19 655.3 1587.49 656.7C1587.89 658 1588.19 660.05 1588.39 662.85C1588.59 669.85 1588.69 675.95 1588.69 681.15C1588.69 688.05 1588.19 692.3 1587.19 693.9C1586.39 695.1 1584.89 695.8 1582.69 696C1580.59 696 1579.14 695.55 1578.34 694.65C1577.54 693.65 1577.04 691.65 1576.84 688.65C1574.44 690.75 1571.39 692.55 1567.69 694.05C1564.09 695.45 1560.89 696.15 1558.09 696.15C1549.29 696.15 1541.89 691.5 1535.89 682.2C1529.89 672.7 1526.89 661.4 1526.89 648.3C1526.89 641.3 1528.04 634.45 1530.34 627.75C1532.64 620.95 1535.74 615.25 1539.64 610.65ZM1646.59 599.1C1648.99 599.1 1650.44 600.25 1650.94 602.55L1651.54 654.6C1651.54 668.1 1651.14 680.05 1650.34 690.45C1650.14 691.95 1649.19 693.3 1647.49 694.5C1645.89 695.6 1644.24 696.15 1642.54 696.15C1639.74 696.15 1638.34 694.7 1638.34 691.8C1639.34 682.2 1639.84 669.8 1639.84 654.6L1638.94 604.2C1639.14 603 1640.04 601.85 1641.64 600.75C1643.34 599.65 1644.99 599.1 1646.59 599.1ZM1733.64 598.5C1735.14 599.7 1735.89 601.3 1735.89 603.3C1735.89 642.4 1736.04 666.1 1736.34 674.4L1736.94 686.85C1736.94 689.05 1736.34 691.15 1735.14 693.15C1733.94 695.05 1732.59 696 1731.09 696C1729.09 696 1727.59 695.9 1726.59 695.7C1725.69 695.4 1724.84 694.85 1724.04 694.05L1722.54 692.55C1722.04 692.05 1720.99 690.35 1719.39 687.45L1717.44 683.85C1716.94 682.65 1716.29 681.35 1715.49 679.95C1714.79 678.55 1714.09 677.15 1713.39 675.75L1711.89 673.05L1704.24 658.5C1696.34 644.1 1688.99 632.65 1682.19 624.15C1682.19 656.65 1681.29 679.2 1679.49 691.8C1679.19 694.2 1677.34 695.4 1673.94 695.4C1672.24 695.4 1670.89 695 1669.89 694.2C1668.89 693.3 1668.39 692 1668.39 690.3C1668.39 687.3 1668.74 677.4 1669.44 660.6C1670.24 641.4 1670.64 630.2 1670.64 627V618.45C1670.64 611.25 1671.19 607.2 1672.29 606.3C1673.39 605.4 1674.54 604.95 1675.74 604.95C1681.24 604.95 1689.64 613.95 1700.94 631.95C1703.24 635.45 1707.44 642.8 1713.54 654C1719.84 665.4 1723.54 672.25 1724.64 674.55L1722.84 612.3C1722.84 603.7 1723.79 598.8 1725.69 597.6C1726.49 597 1727.49 596.7 1728.69 596.7C1730.49 596.7 1732.14 597.3 1733.64 598.5ZM1756.92 603.3C1763.42 598.9 1771.77 596.7 1781.97 596.7C1788.57 596.7 1794.07 597.8 1798.47 600C1803.07 602.2 1805.37 605 1805.37 608.4C1805.37 609.9 1804.97 611.2 1804.17 612.3C1803.37 613.4 1802.27 613.95 1800.87 613.95C1799.37 613.95 1796.27 612.85 1791.57 610.65C1786.67 608.35 1782.27 607.2 1778.37 607.2C1774.37 607.2 1770.32 608.45 1766.22 610.95C1762.02 613.45 1759.92 616.5 1759.92 620.1C1759.92 625 1762.47 628.6 1767.57 630.9C1771.67 632.7 1777.12 634.25 1783.92 635.55C1800.02 638.45 1808.07 647.45 1808.07 662.55C1808.07 675.25 1804.22 684.7 1796.52 690.9C1792.22 694.3 1786.12 696 1778.22 696C1770.32 696 1762.52 693.85 1754.82 689.55C1749.72 686.85 1747.17 684.15 1747.17 681.45C1747.17 680.45 1747.62 679.35 1748.52 678.15C1749.42 676.95 1750.57 675.95 1751.97 675.15C1752.77 674.75 1753.57 674.55 1754.37 674.55C1755.17 674.55 1755.72 674.65 1756.02 674.85C1756.32 674.95 1758.37 675.9 1762.17 677.7C1765.97 679.5 1768.02 680.45 1768.32 680.55C1772.42 682.15 1776.37 682.95 1780.17 682.95C1783.87 682.95 1787.42 681.15 1790.82 677.55C1794.32 673.75 1796.07 669.25 1796.07 664.05C1796.07 657.05 1792.57 652.15 1785.57 649.35C1782.07 647.95 1778.22 646.9 1774.02 646.2C1764.82 644.6 1758.02 641.9 1753.62 638.1C1749.32 634.2 1747.17 628.55 1747.17 621.15C1747.17 613.65 1750.42 607.7 1756.92 603.3ZM1812.87 601.05C1814.17 599.65 1815.72 598.85 1817.52 598.65L1878.27 597.75C1881.17 598.65 1882.62 600.1 1882.62 602.1C1882.62 607.1 1880.57 609.6 1876.47 609.6C1868.07 609.6 1860.12 609.8 1852.62 610.2C1852.12 619.3 1851.87 626.85 1851.87 632.85V637.95L1852.47 690.6C1852.47 693.8 1851.67 695.6 1850.07 696C1848.97 696.4 1847.47 696.6 1845.57 696.6C1842.67 696.6 1841.07 694.95 1840.77 691.65C1840.17 683.95 1839.87 669.6 1839.87 648.6C1839.87 627.5 1840.17 614.8 1840.77 610.5L1831.47 610.65L1816.17 610.5C1814.67 610.5 1813.42 610.05 1812.42 609.15C1811.52 608.15 1811.07 606.9 1811.07 605.4C1811.07 603.9 1811.67 602.45 1812.87 601.05ZM1905.84 609.9C1910.14 601.4 1914.84 597.15 1919.94 597.15C1922.54 597.15 1924.64 598.25 1926.24 600.45C1928.04 602.95 1930.24 607.5 1932.84 614.1C1939.14 630.5 1945.29 656.05 1951.29 690.75C1951.49 691.85 1951.29 693.05 1950.69 694.35C1950.09 695.55 1948.49 696.15 1945.89 696.15C1944.29 696.15 1942.84 695.75 1941.54 694.95C1940.34 694.05 1939.54 692.65 1939.14 690.75L1936.89 679.2C1934.49 666.5 1932.89 659.9 1932.09 659.4C1930.89 658.7 1926.89 657.95 1920.09 657.15C1912.89 656.35 1908.44 655.95 1906.74 655.95C1904.54 655.95 1903.24 656.15 1902.84 656.55C1901.14 658.15 1898.69 670.3 1895.49 693C1895.09 694.9 1893.19 695.85 1889.79 695.85C1886.39 695.85 1884.69 694.4 1884.69 691.5C1884.69 684.4 1887.34 670.65 1892.64 650.25C1897.84 630.25 1902.24 616.8 1905.84 609.9ZM1925.94 628.35C1923.24 618.65 1921.04 613.8 1919.34 613.8C1917.94 613.8 1915.34 618.25 1911.54 627.15C1907.84 635.85 1905.99 641.3 1905.99 643.5C1905.99 644 1906.09 644.35 1906.29 644.55C1907.09 645.35 1910.24 646.05 1915.74 646.65C1920.74 647.25 1924.64 647.55 1927.44 647.55C1928.74 647.55 1929.49 647.45 1929.69 647.25C1929.89 646.85 1929.99 646.05 1929.99 644.85C1929.99 643.45 1928.64 637.95 1925.94 628.35ZM1973.68 610.65C1981.98 601.15 1992.08 596.4 2003.98 596.4C2008.88 596.4 2013.63 597.6 2018.23 600C2023.03 602.4 2025.43 605.1 2025.43 608.1C2025.43 612.7 2023.53 615 2019.73 615C2018.33 615 2015.88 614.1 2012.38 612.3C2008.98 610.5 2006.03 609.6 2003.53 609.6C1995.03 609.6 1987.83 613.45 1981.93 621.15C1976.23 628.75 1973.38 638.55 1973.38 650.55C1973.38 659.35 1975.33 667.15 1979.23 673.95C1983.13 680.65 1987.73 684 1993.03 684C1998.23 684 2002.38 682.3 2005.48 678.9C2008.68 675.4 2010.28 671.3 2010.28 666.6C2010.48 662.8 2009.93 659.8 2008.63 657.6C2007.33 655.4 2004.98 654.15 2001.58 653.85C1999.08 653.85 1996.83 653.35 1994.83 652.35C1992.93 651.25 1991.98 649.9 1991.98 648.3C1991.98 646.5 1992.48 644.9 1993.48 643.5C1994.48 642 1995.83 641.1 1997.53 640.8C2004.33 640.8 2008.88 641.5 2011.18 642.9C2013.28 644.1 2015.08 645.25 2016.58 646.35C2017.88 647.35 2018.88 648.85 2019.58 650.85C2020.58 653.35 2021.23 655.3 2021.53 656.7C2021.93 658 2022.23 660.05 2022.43 662.85C2022.63 669.85 2022.73 675.95 2022.73 681.15C2022.73 688.05 2022.23 692.3 2021.23 693.9C2020.43 695.1 2018.93 695.8 2016.73 696C2014.63 696 2013.18 695.55 2012.38 694.65C2011.58 693.65 2011.08 691.65 2010.88 688.65C2008.48 690.75 2005.43 692.55 2001.73 694.05C1998.13 695.45 1994.93 696.15 1992.13 696.15C1983.33 696.15 1975.93 691.5 1969.93 682.2C1963.93 672.7 1960.93 661.4 1960.93 648.3C1960.93 641.3 1962.08 634.45 1964.38 627.75C1966.68 620.95 1969.78 615.25 1973.68 610.65ZM2036.9 696.6C2034.9 696.6 2033.55 695.4 2032.85 693C2032.55 679.8 2032.4 666.65 2032.4 653.55L2031.95 615.75C2031.95 608.15 2035.3 602.95 2042 600.15C2047.3 597.65 2053.7 596.4 2061.2 596.4C2065.1 596.4 2069.15 597.35 2073.35 599.25C2077.75 601.05 2081.65 603.75 2085.05 607.35C2088.55 610.85 2090.3 614.7 2090.3 618.9C2090.5 622.8 2088.7 627.1 2084.9 631.8C2081.1 636.5 2076.3 640.8 2070.5 644.7C2064.8 648.6 2059.35 651.35 2054.15 652.95C2063.35 659.35 2071.45 666.35 2078.45 673.95C2085.35 681.25 2088.8 687 2088.8 691.2C2088.8 692.6 2088.1 693.85 2086.7 694.95C2085.4 696.05 2083.9 696.6 2082.2 696.6C2080.3 696.6 2078.7 695.8 2077.4 694.2C2075.3 689.1 2071.2 683.65 2065.1 677.85C2059.1 672.05 2051.85 666.35 2043.35 660.75L2044.25 689.55C2044.25 691.25 2043.45 692.85 2041.85 694.35C2040.25 695.85 2038.6 696.6 2036.9 696.6ZM2057.45 608.55C2051.95 608.55 2047.4 609.25 2043.8 610.65C2043.7 614.05 2043.65 625.35 2043.65 644.55C2050.35 644.25 2057.85 641.45 2066.15 636.15C2074.55 630.85 2078.75 626.1 2078.75 621.9C2078.75 617.5 2076.65 614.2 2072.45 612C2068.15 609.7 2063.15 608.55 2057.45 608.55ZM2119.26 609.9C2123.56 601.4 2128.26 597.15 2133.36 597.15C2135.96 597.15 2138.06 598.25 2139.66 600.45C2141.46 602.95 2143.66 607.5 2146.26 614.1C2152.56 630.5 2158.71 656.05 2164.71 690.75C2164.91 691.85 2164.71 693.05 2164.11 694.35C2163.51 695.55 2161.91 696.15 2159.31 696.15C2157.71 696.15 2156.26 695.75 2154.96 694.95C2153.76 694.05 2152.96 692.65 2152.56 690.75L2150.31 679.2C2147.91 666.5 2146.31 659.9 2145.51 659.4C2144.31 658.7 2140.31 657.95 2133.51 657.15C2126.31 656.35 2121.86 655.95 2120.16 655.95C2117.96 655.95 2116.66 656.15 2116.26 656.55C2114.56 658.15 2112.11 670.3 2108.91 693C2108.51 694.9 2106.61 695.85 2103.21 695.85C2099.81 695.85 2098.11 694.4 2098.11 691.5C2098.11 684.4 2100.76 670.65 2106.06 650.25C2111.26 630.25 2115.66 616.8 2119.26 609.9ZM2139.36 628.35C2136.66 618.65 2134.46 613.8 2132.76 613.8C2131.36 613.8 2128.76 618.25 2124.96 627.15C2121.26 635.85 2119.41 641.3 2119.41 643.5C2119.41 644 2119.51 644.35 2119.71 644.55C2120.51 645.35 2123.66 646.05 2129.16 646.65C2134.16 647.25 2138.06 647.55 2140.86 647.55C2142.16 647.55 2142.91 647.45 2143.11 647.25C2143.31 646.85 2143.41 646.05 2143.41 644.85C2143.41 643.45 2142.06 637.95 2139.36 628.35ZM2237.36 602.7C2238.86 598.3 2241.31 596.1 2244.71 596.1C2247.01 596.1 2248.56 597.85 2249.36 601.35C2249.86 619.55 2250.11 637.35 2250.11 654.75C2250.11 672.95 2250.01 684.05 2249.81 688.05C2249.61 691.15 2248.96 693.3 2247.86 694.5C2246.76 695.6 2244.76 696.15 2241.86 696.15C2239.26 696.15 2237.96 694.55 2237.96 691.35V657.45C2237.96 653.95 2237.86 648.3 2237.66 640.5L2237.36 629.55C2233.86 635.45 2229.36 640.25 2223.86 643.95C2218.36 647.65 2212.11 649.5 2205.11 649.5C2198.11 649.5 2192.31 646.65 2187.71 640.95C2187.51 648.95 2187.41 656.15 2187.41 662.55L2187.56 688.95C2187.56 691.25 2186.76 693.05 2185.16 694.35C2183.66 695.55 2181.76 696.15 2179.46 696.15C2176.76 696.15 2175.41 694.5 2175.41 691.2C2175.51 685.2 2175.56 670.95 2175.56 648.45V605.85C2175.56 604.05 2176.11 602.4 2177.21 600.9C2178.41 599.3 2179.76 598.5 2181.26 598.5C2182.96 598.5 2184.41 598.95 2185.61 599.85C2186.91 600.75 2187.61 602 2187.71 603.6C2188.11 614.3 2189.86 622.45 2192.96 628.05C2196.06 633.65 2199.91 636.45 2204.51 636.45C2208.71 636.45 2212.46 635.75 2215.76 634.35C2219.06 632.85 2221.71 631.15 2223.71 629.25C2225.81 627.25 2227.76 624.55 2229.56 621.15C2232.16 616.45 2234.76 610.3 2237.36 602.7ZM2277.81 583.35C2278.91 584.25 2279.46 585.55 2279.46 587.25C2279.46 592.65 2278.46 597.95 2276.46 603.15C2274.56 608.25 2271.91 610.8 2268.51 610.8C2265.21 610.8 2263.56 609.1 2263.56 605.7C2263.56 604.4 2264.41 601.9 2266.11 598.2C2267.91 594.6 2268.81 590.8 2268.81 586.8C2268.81 585.3 2269.31 584.15 2270.31 583.35C2271.41 582.45 2272.71 582 2274.21 582C2275.61 582 2276.81 582.45 2277.81 583.35ZM2304.77 603.3C2311.27 598.9 2319.62 596.7 2329.82 596.7C2336.42 596.7 2341.92 597.8 2346.32 600C2350.92 602.2 2353.22 605 2353.22 608.4C2353.22 609.9 2352.82 611.2 2352.02 612.3C2351.22 613.4 2350.12 613.95 2348.72 613.95C2347.22 613.95 2344.12 612.85 2339.42 610.65C2334.52 608.35 2330.12 607.2 2326.22 607.2C2322.22 607.2 2318.17 608.45 2314.07 610.95C2309.87 613.45 2307.77 616.5 2307.77 620.1C2307.77 625 2310.32 628.6 2315.42 630.9C2319.52 632.7 2324.97 634.25 2331.77 635.55C2347.87 638.45 2355.92 647.45 2355.92 662.55C2355.92 675.25 2352.07 684.7 2344.37 690.9C2340.07 694.3 2333.97 696 2326.07 696C2318.17 696 2310.37 693.85 2302.67 689.55C2297.57 686.85 2295.02 684.15 2295.02 681.45C2295.02 680.45 2295.47 679.35 2296.37 678.15C2297.27 676.95 2298.42 675.95 2299.82 675.15C2300.62 674.75 2301.42 674.55 2302.22 674.55C2303.02 674.55 2303.57 674.65 2303.87 674.85C2304.17 674.95 2306.22 675.9 2310.02 677.7C2313.82 679.5 2315.87 680.45 2316.17 680.55C2320.27 682.15 2324.22 682.95 2328.02 682.95C2331.72 682.95 2335.27 681.15 2338.67 677.55C2342.17 673.75 2343.92 669.25 2343.92 664.05C2343.92 657.05 2340.42 652.15 2333.42 649.35C2329.92 647.95 2326.07 646.9 2321.87 646.2C2312.67 644.6 2305.87 641.9 2301.47 638.1C2297.17 634.2 2295.02 628.55 2295.02 621.15C2295.02 613.65 2298.27 607.7 2304.77 603.3ZM2402.04 685.65C2401.94 684.65 2401.89 683 2401.89 680.7C2401.19 671 2400.84 657.1 2400.84 639C2400.84 622 2401.09 610.6 2401.59 604.8C2402.09 601.8 2404.14 599.75 2407.74 598.65C2411.44 597.45 2416.74 596.85 2423.64 596.85C2432.94 596.85 2440.84 598.9 2447.34 603C2453.84 607.1 2457.09 613.05 2457.09 620.85C2457.09 627.05 2456.24 632.4 2454.54 636.9C2452.84 641.3 2450.54 644.6 2447.64 646.8C2443.34 650.2 2436.84 651.9 2428.14 651.9C2424.14 651.9 2419.29 651.4 2413.59 650.4V653.55C2414.09 673.55 2414.29 685.1 2414.19 688.2C2414.09 693.4 2412.34 696 2408.94 696C2407.04 695.8 2405.69 695.45 2404.89 694.95C2404.19 694.45 2403.74 693.8 2403.54 693C2403.34 692.2 2403.14 691.7 2402.94 691.5C2402.74 690.9 2402.59 690.05 2402.49 688.95C2402.39 687.75 2402.24 686.65 2402.04 685.65ZM2423.94 608.1C2418.84 608.1 2415.34 608.55 2413.44 609.45C2413.04 617.25 2412.84 622.7 2412.84 625.8C2412.84 629.3 2413.04 633.75 2413.44 639.15L2418.99 639.9C2421.59 640.2 2423.79 640.35 2425.59 640.35C2428.19 640.35 2430.69 640.2 2433.09 639.9C2435.09 639.6 2436.44 639.15 2437.14 638.55C2440.14 636.35 2441.99 634.4 2442.69 632.7C2443.99 629.2 2444.64 625.4 2444.64 621.3C2444.64 617.2 2442.44 614 2438.04 611.7C2433.64 609.3 2428.94 608.1 2423.94 608.1ZM2481.01 609.6C2487.51 600.7 2497.66 596.25 2511.46 596.25C2518.46 596.25 2524.41 598.5 2529.31 603C2538.91 611.5 2543.71 625.1 2543.71 643.8C2543.71 662.3 2538.41 676.85 2527.81 687.45C2522.11 692.85 2515.76 695.75 2508.76 696.15C2499.26 696.15 2491.86 692.9 2486.56 686.4C2481.56 680.2 2477.86 673.15 2475.46 665.25C2473.06 657.35 2471.86 649.35 2471.86 641.25C2471.86 628.35 2474.91 617.8 2481.01 609.6ZM2526.16 617.4C2522.96 611.6 2517.71 608.7 2510.41 608.7C2497.01 608.7 2488.66 615.05 2485.36 627.75C2484.36 631.25 2483.86 635.2 2483.86 639.6C2483.86 646 2484.86 652.55 2486.86 659.25C2489.56 668.65 2493.56 675.25 2498.86 679.05C2501.96 681.45 2505.71 682.65 2510.11 682.65C2514.61 682.65 2518.56 680.7 2521.96 676.8C2528.06 669.9 2531.11 658.7 2531.11 643.2C2531.11 631.8 2529.46 623.2 2526.16 617.4ZM2550.86 601.05C2552.16 599.65 2553.71 598.85 2555.51 598.65L2616.26 597.75C2619.16 598.65 2620.61 600.1 2620.61 602.1C2620.61 607.1 2618.56 609.6 2614.46 609.6C2606.06 609.6 2598.11 609.8 2590.61 610.2C2590.11 619.3 2589.86 626.85 2589.86 632.85V637.95L2590.46 690.6C2590.46 693.8 2589.66 695.6 2588.06 696C2586.96 696.4 2585.46 696.6 2583.56 696.6C2580.66 696.6 2579.06 694.95 2578.76 691.65C2578.16 683.95 2577.86 669.6 2577.86 648.6C2577.86 627.5 2578.16 614.8 2578.76 610.5L2569.46 610.65L2554.16 610.5C2552.66 610.5 2551.41 610.05 2550.41 609.15C2549.51 608.15 2549.06 606.9 2549.06 605.4C2549.06 603.9 2549.66 602.45 2550.86 601.05ZM2627.92 676.95V666.45L2627.32 644.4C2625.92 643.6 2625.22 642.25 2625.22 640.35C2625.22 638.75 2625.77 637.25 2626.87 635.85C2626.47 626.95 2626.27 616.4 2626.27 604.2C2626.87 601.8 2627.77 600.05 2628.97 598.95C2630.27 597.85 2632.12 597.15 2634.52 596.85C2647.72 597.45 2662.02 597.75 2677.42 597.75C2681.22 598.55 2683.12 600.2 2683.12 602.7C2683.12 606.9 2679.02 609.35 2670.82 610.05C2669.32 610.15 2666.92 610.2 2663.62 610.2H2653.87C2652.47 610.2 2647.22 609.8 2638.12 609C2638.12 622.1 2638.32 630.7 2638.72 634.8C2642.22 634.9 2652.42 634.95 2669.32 634.95C2672.92 635.65 2674.72 637.3 2674.72 639.9C2674.72 642.4 2673.27 644.35 2670.37 645.75C2669.77 646.05 2669.22 646.25 2668.72 646.35L2642.77 645.9C2641.57 645.9 2640.27 646 2638.87 646.2L2639.47 672C2639.47 677.7 2639.32 681.85 2639.02 684.45L2673.82 684C2677.02 684.5 2678.62 685.85 2678.62 688.05C2678.62 689.55 2677.92 691.05 2676.52 692.55C2675.22 694.05 2673.67 695 2671.87 695.4L2633.47 696C2631.17 696 2629.57 695.6 2628.67 694.8C2627.77 693.9 2627.32 692.45 2627.32 690.45C2627.72 687.95 2627.92 683.45 2627.92 676.95ZM2756.83 598.5C2758.33 599.7 2759.08 601.3 2759.08 603.3C2759.08 642.4 2759.23 666.1 2759.53 674.4L2760.13 686.85C2760.13 689.05 2759.53 691.15 2758.33 693.15C2757.13 695.05 2755.78 696 2754.28 696C2752.28 696 2750.78 695.9 2749.78 695.7C2748.88 695.4 2748.03 694.85 2747.23 694.05L2745.73 692.55C2745.23 692.05 2744.18 690.35 2742.58 687.45L2740.63 683.85C2740.13 682.65 2739.48 681.35 2738.68 679.95C2737.98 678.55 2737.28 677.15 2736.58 675.75L2735.08 673.05L2727.43 658.5C2719.53 644.1 2712.18 632.65 2705.38 624.15C2705.38 656.65 2704.48 679.2 2702.68 691.8C2702.38 694.2 2700.53 695.4 2697.13 695.4C2695.43 695.4 2694.08 695 2693.08 694.2C2692.08 693.3 2691.58 692 2691.58 690.3C2691.58 687.3 2691.93 677.4 2692.63 660.6C2693.43 641.4 2693.83 630.2 2693.83 627V618.45C2693.83 611.25 2694.38 607.2 2695.48 606.3C2696.58 605.4 2697.73 604.95 2698.93 604.95C2704.43 604.95 2712.83 613.95 2724.13 631.95C2726.43 635.45 2730.63 642.8 2736.73 654C2743.03 665.4 2746.73 672.25 2747.83 674.55L2746.03 612.3C2746.03 603.7 2746.98 598.8 2748.88 597.6C2749.68 597 2750.68 596.7 2751.88 596.7C2753.68 596.7 2755.33 597.3 2756.83 598.5ZM2767.22 601.05C2768.52 599.65 2770.07 598.85 2771.87 598.65L2832.62 597.75C2835.52 598.65 2836.97 600.1 2836.97 602.1C2836.97 607.1 2834.92 609.6 2830.82 609.6C2822.42 609.6 2814.47 609.8 2806.97 610.2C2806.47 619.3 2806.22 626.85 2806.22 632.85V637.95L2806.82 690.6C2806.82 693.8 2806.02 695.6 2804.42 696C2803.32 696.4 2801.82 696.6 2799.92 696.6C2797.02 696.6 2795.42 694.95 2795.12 691.65C2794.52 683.95 2794.22 669.6 2794.22 648.6C2794.22 627.5 2794.52 614.8 2795.12 610.5L2785.82 610.65L2770.52 610.5C2769.02 610.5 2767.77 610.05 2766.77 609.15C2765.87 608.15 2765.42 606.9 2765.42 605.4C2765.42 603.9 2766.02 602.45 2767.22 601.05ZM2855.08 599.1C2857.48 599.1 2858.93 600.25 2859.43 602.55L2860.03 654.6C2860.03 668.1 2859.63 680.05 2858.83 690.45C2858.63 691.95 2857.68 693.3 2855.98 694.5C2854.38 695.6 2852.73 696.15 2851.03 696.15C2848.23 696.15 2846.83 694.7 2846.83 691.8C2847.83 682.2 2848.33 669.8 2848.33 654.6L2847.43 604.2C2847.63 603 2848.53 601.85 2850.13 600.75C2851.83 599.65 2853.48 599.1 2855.08 599.1ZM2895.48 609.9C2899.78 601.4 2904.48 597.15 2909.58 597.15C2912.18 597.15 2914.28 598.25 2915.88 600.45C2917.68 602.95 2919.88 607.5 2922.48 614.1C2928.78 630.5 2934.93 656.05 2940.93 690.75C2941.13 691.85 2940.93 693.05 2940.33 694.35C2939.73 695.55 2938.13 696.15 2935.53 696.15C2933.93 696.15 2932.48 695.75 2931.18 694.95C2929.98 694.05 2929.18 692.65 2928.78 690.75L2926.53 679.2C2924.13 666.5 2922.53 659.9 2921.73 659.4C2920.53 658.7 2916.53 657.95 2909.73 657.15C2902.53 656.35 2898.08 655.95 2896.38 655.95C2894.18 655.95 2892.88 656.15 2892.48 656.55C2890.78 658.15 2888.33 670.3 2885.13 693C2884.73 694.9 2882.83 695.85 2879.43 695.85C2876.03 695.85 2874.33 694.4 2874.33 691.5C2874.33 684.4 2876.98 670.65 2882.28 650.25C2887.48 630.25 2891.88 616.8 2895.48 609.9ZM2915.58 628.35C2912.88 618.65 2910.68 613.8 2908.98 613.8C2907.58 613.8 2904.98 618.25 2901.18 627.15C2897.48 635.85 2895.63 641.3 2895.63 643.5C2895.63 644 2895.73 644.35 2895.93 644.55C2896.73 645.35 2899.88 646.05 2905.38 646.65C2910.38 647.25 2914.28 647.55 2917.08 647.55C2918.38 647.55 2919.13 647.45 2919.33 647.25C2919.53 646.85 2919.63 646.05 2919.63 644.85C2919.63 643.45 2918.28 637.95 2915.58 628.35ZM2948.33 687.9L2948.03 675.15L2948.18 663.45L2949.53 600.75C2949.53 599.55 2950.18 598.6 2951.48 597.9C2952.78 597.2 2954.43 596.85 2956.43 596.85C2961.23 596.85 2963.63 598.55 2963.63 601.95L2961.83 627.15C2960.73 643.65 2960.18 653.05 2960.18 655.35V671.25C2960.18 678.75 2960.68 682.85 2961.68 683.55C2963.38 684.05 2965.13 684.3 2966.93 684.3L2988.53 682.8C2993.23 682.8 2995.58 684.5 2995.58 687.9C2995.58 690.5 2994.28 692.5 2991.68 693.9C2989.68 694.9 2987.63 695.55 2985.53 695.85C2983.53 696.05 2980.78 696.15 2977.28 696.15C2960.08 696.15 2950.83 695.65 2949.53 694.65C2948.93 694.15 2948.53 691.9 2948.33 687.9Z" fill="#F51F27"/>
<path d="M258.312 0C188.091 0 179.339 0.336042 151.858 1.48819C124.264 2.83235 105.598 7.07288 89.1288 13.4097C71.8917 19.8588 56.2813 29.956 43.3857 42.9974C30.1898 55.7477 19.9958 71.227 13.5308 88.331C7.13676 104.653 2.85793 123.151 1.50163 150.499C0.258344 177.75 0 186.407 0 256C0 325.593 0.339077 334.266 1.50163 361.501C2.85793 388.769 7.13676 407.347 13.5308 423.669C20.0382 440.752 30.2265 456.222 43.3857 469.003C56.2512 482.08 71.8703 492.183 89.1288 498.59C105.598 504.847 124.344 509.168 151.858 510.512C179.355 511.744 188.091 512 258.312 512C328.533 512 337.285 511.664 364.766 510.512C392.28 509.168 411.026 504.831 427.495 498.59C444.732 492.141 460.343 482.044 473.238 469.003C486.451 456.266 496.648 440.783 503.093 423.669C509.406 407.347 513.766 388.769 515.122 361.501C516.366 334.25 516.624 325.593 516.624 256C516.624 186.407 516.285 177.734 515.122 150.499C513.766 123.231 509.39 104.557 503.093 88.331C496.586 71.2483 486.397 55.7776 473.238 42.9974C460.387 29.9028 444.764 19.7974 427.495 13.4097C411.026 7.07288 392.28 2.83235 364.766 1.48819C337.268 0.256032 328.533 0 258.312 0ZM258.312 46.0858C327.274 46.0858 335.508 46.4218 362.764 47.5739C387.904 48.7421 401.596 52.9026 410.687 56.4231C421.925 60.5343 432.097 67.078 440.461 75.5775C449.022 83.8317 455.6 93.8893 459.707 105.005C463.26 114.014 467.458 127.584 468.636 152.499C469.799 179.51 470.138 187.687 470.138 256.016C470.138 324.345 469.799 332.522 468.54 359.533C467.183 384.448 462.985 398.018 459.449 407.027C454.557 419.044 449.099 427.445 440.089 436.535C431.697 444.981 421.532 451.493 410.315 455.609C401.338 459.129 387.452 463.29 362.215 464.458C334.814 465.61 326.741 465.946 257.602 465.946C188.462 465.946 180.405 465.61 152.972 464.362C127.832 463.018 113.962 458.857 104.872 455.353C92.6003 450.504 84.1879 445.096 75.1782 436.167C66.0877 427.157 60.3072 418.58 55.8508 406.659C52.234 397.762 48.1005 384 46.7603 358.989C45.84 332.154 45.404 323.832 45.404 255.632C45.404 187.463 45.84 179.126 46.7603 151.955C48.1005 126.944 52.234 113.214 55.8508 104.285C60.3072 92.1075 66.1038 83.7865 75.1782 74.7773C84.1718 65.8642 92.6003 60.1035 104.872 55.591C113.962 52.0865 127.493 47.926 152.73 46.6778C180.131 45.7017 188.204 45.3497 257.246 45.3497L258.312 46.0858ZM258.312 124.608C240.895 124.601 223.648 127.996 207.556 134.599C191.464 141.201 176.843 150.882 164.527 163.087C152.212 175.292 142.444 189.783 135.782 205.731C129.12 221.679 125.694 238.771 125.701 256.032C125.694 273.293 129.12 290.385 135.782 306.333C142.444 322.281 152.212 336.772 164.527 348.977C176.843 361.182 191.464 370.863 207.556 377.465C223.648 384.068 240.895 387.463 258.312 387.456C275.729 387.463 292.976 384.068 309.068 377.465C325.16 370.863 339.781 361.182 352.097 348.977C364.412 336.772 374.18 322.281 380.842 306.333C387.504 290.385 390.93 273.293 390.923 256.032C390.93 238.771 387.504 221.679 380.842 205.731C374.18 189.783 364.412 175.292 352.097 163.087C339.781 150.882 325.16 141.201 309.068 134.599C292.976 127.996 275.729 124.601 258.312 124.608V124.608ZM258.312 341.371C210.712 341.371 172.203 303.206 172.203 256.032C172.203 208.858 210.712 170.693 258.312 170.693C305.912 170.693 344.421 208.858 344.421 256.032C344.421 303.206 305.912 341.371 258.312 341.371ZM427.269 119.359C427.261 127.515 423.985 135.333 418.163 141.097C412.341 146.861 404.449 150.099 396.219 150.099C392.15 150.099 388.121 149.304 384.362 147.761C380.603 146.218 377.187 143.956 374.31 141.105C371.432 138.253 369.15 134.868 367.593 131.142C366.036 127.417 365.234 123.424 365.234 119.391C365.234 115.358 366.036 111.365 367.593 107.64C369.15 103.914 371.432 100.529 374.31 97.6772C377.187 94.8257 380.603 92.5638 384.362 91.0206C388.121 89.4774 392.15 88.6831 396.219 88.6831C413.286 88.6831 427.269 102.445 427.269 119.359V119.359Z" fill="url(#paint0_linear_452_86)"/>
<path d="M652.508 456.411C652.508 461.262 650.653 465.399 646.944 468.823C643.52 472.247 639.382 473.959 634.532 473.959C629.11 473.959 624.83 472.247 621.692 468.823C618.553 465.399 616.984 461.262 616.984 456.411V191.907C616.984 186.771 618.696 182.634 622.12 179.495C625.544 176.071 629.824 174.359 634.96 174.359C639.81 174.359 643.948 176.071 647.372 179.495C650.796 182.634 652.508 186.771 652.508 191.907V456.411ZM831.749 247.119C851.152 247.119 866.417 251.114 877.545 259.103C888.673 267.092 896.52 277.792 901.085 291.203C905.936 304.614 908.361 319.594 908.361 336.143V456.411C908.361 461.262 906.649 465.399 903.225 468.823C900.087 472.247 896.092 473.959 891.241 473.959C886.391 473.959 882.253 472.247 878.829 468.823C875.691 465.399 874.121 461.262 874.121 456.411V336.999C874.121 326.156 872.409 316.455 868.985 307.895C865.847 299.05 860.425 292.059 852.721 286.923C845.303 281.502 835.031 278.791 821.905 278.791C809.921 278.791 798.936 281.502 788.949 286.923C778.963 292.059 770.973 299.05 764.981 307.895C758.989 316.455 755.993 326.156 755.993 336.999V456.411C755.993 461.262 754.281 465.399 750.857 468.823C747.719 472.247 743.724 473.959 738.873 473.959C734.023 473.959 729.885 472.247 726.461 468.823C723.323 465.399 721.753 461.262 721.753 456.411V269.803C721.753 264.952 723.323 260.958 726.461 257.819C729.885 254.395 734.023 252.683 738.873 252.683C744.009 252.683 748.147 254.395 751.285 257.819C754.424 260.958 755.993 264.952 755.993 269.803V300.191L747.433 309.607C748.86 302.188 752.141 294.77 757.277 287.351C762.413 279.647 768.833 272.799 776.537 266.807C784.241 260.815 792.801 256.107 802.217 252.683C811.633 248.974 821.477 247.119 831.749 247.119ZM959.287 438.863C956.719 435.154 955.577 431.302 955.863 427.307C956.148 423.027 958.573 419.318 963.139 416.179C965.992 414.182 969.273 413.326 972.983 413.611C976.977 413.896 980.544 415.751 983.683 419.175C991.672 428.591 1000.8 436.152 1011.07 441.859C1021.35 447.28 1033.9 449.991 1048.74 449.991C1055.59 449.706 1062.43 448.564 1069.28 446.567C1076.13 444.57 1081.84 441.146 1086.4 436.295C1091.25 431.159 1093.68 424.454 1093.68 416.179C1093.68 408.19 1091.25 401.912 1086.4 397.347C1081.55 392.496 1075.27 388.644 1067.57 385.791C1059.87 382.652 1051.45 379.942 1042.32 377.659C1032.9 375.091 1023.63 372.238 1014.5 369.099C1005.37 365.675 997.093 361.538 989.675 356.687C982.541 351.551 976.692 345.274 972.127 337.855C967.847 330.151 965.707 320.878 965.707 310.035C965.707 297.195 969.131 286.067 975.979 276.651C983.112 267.235 992.528 259.959 1004.23 254.823C1016.21 249.687 1029.19 247.119 1043.17 247.119C1051.16 247.119 1059.44 248.118 1068 250.115C1076.84 251.827 1085.4 254.966 1093.68 259.531C1101.95 263.811 1109.23 269.803 1115.51 277.507C1118.07 280.36 1119.5 283.927 1119.79 288.207C1120.07 292.487 1118.22 296.339 1114.22 299.763C1111.08 302.046 1107.52 303.044 1103.52 302.759C1099.81 302.474 1096.67 301.047 1094.11 298.479C1088.11 291.346 1080.55 285.924 1071.42 282.215C1062.58 278.22 1052.73 276.223 1041.89 276.223C1035.04 276.223 1028.34 277.222 1021.77 279.219C1015.21 281.216 1009.65 284.64 1005.08 289.491C1000.8 294.056 998.663 300.476 998.663 308.751C998.948 316.455 1001.52 322.732 1006.37 327.583C1011.22 332.434 1017.78 336.428 1026.05 339.567C1034.33 342.42 1043.46 345.274 1053.45 348.127C1062.58 350.41 1071.28 353.12 1079.55 356.259C1088.11 359.112 1095.82 362.964 1102.67 367.815C1109.51 372.666 1114.94 378.943 1118.93 386.647C1122.93 394.066 1124.92 403.482 1124.92 414.895C1124.92 428.02 1121.21 439.434 1113.79 449.135C1106.38 458.551 1096.53 465.827 1084.26 470.963C1072.28 475.814 1059.3 478.239 1045.31 478.239C1029.62 478.239 1014.07 475.243 998.663 469.251C983.54 463.259 970.415 453.13 959.287 438.863ZM1207.37 456.411C1207.37 461.262 1205.66 465.399 1202.23 468.823C1199.09 472.247 1195.1 473.959 1190.25 473.959C1185.11 473.959 1180.98 472.247 1177.84 468.823C1174.7 465.399 1173.13 461.262 1173.13 456.411V266.379C1173.13 261.528 1174.7 257.534 1177.84 254.395C1181.26 250.971 1185.4 249.259 1190.25 249.259C1195.1 249.259 1199.09 250.971 1202.23 254.395C1205.66 257.534 1207.37 261.528 1207.37 266.379V456.411ZM1190.25 220.583C1183.12 220.583 1177.84 219.156 1174.41 216.303C1170.99 213.45 1169.28 209.027 1169.28 203.035V197.043C1169.28 191.051 1171.13 186.628 1174.84 183.775C1178.55 180.922 1183.83 179.495 1190.68 179.495C1197.53 179.495 1202.66 180.922 1206.09 183.775C1209.51 186.628 1211.22 191.051 1211.22 197.043V203.035C1211.22 209.027 1209.37 213.45 1205.66 216.303C1202.23 219.156 1197.1 220.583 1190.25 220.583ZM1361.75 247.119C1374.02 247.119 1385.43 249.259 1395.99 253.539C1406.55 257.534 1415.68 262.812 1423.38 269.375C1431.37 275.938 1437.51 282.786 1441.79 289.919C1446.35 297.052 1448.63 303.758 1448.63 310.035L1440.5 304.899V267.663C1440.5 262.812 1442.07 258.818 1445.21 255.679C1448.35 252.255 1452.49 250.543 1457.62 250.543C1462.47 250.543 1466.47 252.255 1469.61 255.679C1473.03 258.818 1474.74 262.812 1474.74 267.663V455.127C1474.74 478.524 1469.75 497.927 1459.76 513.335C1450.06 528.743 1436.94 540.299 1420.39 548.003C1403.84 555.707 1385.29 559.559 1364.75 559.559C1356.19 559.559 1346.77 558.418 1336.5 556.135C1326.23 553.852 1317.1 550.999 1309.11 547.575C1301.12 544.436 1295.98 541.155 1293.7 537.731C1289.42 534.878 1286.71 531.596 1285.57 527.887C1284.71 524.463 1285.42 521.182 1287.71 518.043C1290.27 514.048 1293.56 512.051 1297.55 512.051C1301.83 512.051 1307.11 513.335 1313.39 515.903C1315.95 516.759 1319.95 518.186 1325.37 520.183C1331.08 522.18 1337.35 523.892 1344.2 525.319C1351.34 527.031 1358.33 527.887 1365.17 527.887C1389.43 527.887 1407.97 521.467 1420.81 508.627C1433.94 496.072 1440.5 479.38 1440.5 458.551V418.747L1445.21 420.887C1443.5 428.876 1439.93 436.295 1434.51 443.143C1429.37 449.991 1422.95 456.126 1415.25 461.547C1407.83 466.683 1399.56 470.82 1390.43 473.959C1381.3 476.812 1372.02 478.239 1362.61 478.239C1342.63 478.239 1324.66 473.246 1308.68 463.259C1292.7 453.272 1280 439.576 1270.59 422.171C1261.46 404.766 1256.89 384.935 1256.89 362.679C1256.89 340.138 1261.46 320.164 1270.59 302.759C1280 285.354 1292.56 271.8 1308.25 262.099C1324.23 252.112 1342.06 247.119 1361.75 247.119ZM1366.03 278.791C1351.48 278.791 1338.35 282.5 1326.65 289.919C1315.24 297.052 1306.25 306.896 1299.69 319.451C1293.41 332.006 1290.27 346.415 1290.27 362.679C1290.27 378.372 1293.41 392.639 1299.69 405.479C1306.25 418.034 1315.24 428.02 1326.65 435.439C1338.35 442.858 1351.48 446.567 1366.03 446.567C1380.87 446.567 1393.99 443 1405.41 435.867C1416.82 428.448 1425.81 418.462 1432.37 405.907C1438.93 393.352 1442.21 378.943 1442.21 362.679C1442.21 346.13 1438.93 331.578 1432.37 319.023C1425.81 306.468 1416.82 296.624 1405.41 289.491C1393.99 282.358 1380.87 278.791 1366.03 278.791ZM1645.05 249.259C1663.88 249.259 1678.72 253.396 1689.56 261.671C1700.69 269.66 1708.53 280.503 1713.1 294.199C1717.95 307.61 1720.37 322.59 1720.37 339.139V456.411C1720.37 461.262 1718.66 465.399 1715.24 468.823C1712.1 472.247 1708.11 473.959 1703.25 473.959C1698.4 473.959 1694.27 472.247 1690.84 468.823C1687.7 465.399 1686.13 461.262 1686.13 456.411V339.139C1686.13 328.296 1684.57 318.595 1681.43 310.035C1678.29 301.19 1673.01 294.199 1665.59 289.063C1658.46 283.642 1648.61 280.931 1636.06 280.931C1624.36 280.931 1613.66 283.642 1603.96 289.063C1594.26 294.199 1586.55 301.19 1580.85 310.035C1575.14 318.595 1572.29 328.296 1572.29 339.139V456.411C1572.29 461.262 1570.57 465.399 1567.15 468.823C1564.01 472.247 1560.02 473.959 1555.17 473.959C1550.32 473.959 1546.18 472.247 1542.75 468.823C1539.62 465.399 1538.05 461.262 1538.05 456.411V174.359C1538.05 169.508 1539.62 165.514 1542.75 162.375C1546.18 158.951 1550.32 157.239 1555.17 157.239C1560.3 157.239 1564.44 158.951 1567.58 162.375C1570.72 165.514 1572.29 169.508 1572.29 174.359V302.331L1563.73 311.747C1565.15 304.328 1568.29 296.91 1573.14 289.491C1577.99 281.787 1584.13 274.939 1591.55 268.947C1598.97 262.955 1607.24 258.247 1616.37 254.823C1625.5 251.114 1635.06 249.259 1645.05 249.259ZM1775.25 253.967H1875.83C1880.4 253.967 1884.11 255.536 1886.96 258.675C1890.1 261.814 1891.67 265.523 1891.67 269.803C1891.67 274.368 1890.1 278.22 1886.96 281.359C1884.11 284.212 1880.4 285.639 1875.83 285.639H1775.25C1770.97 285.639 1767.26 284.07 1764.12 280.931C1760.99 277.792 1759.42 273.94 1759.42 269.375C1759.42 265.095 1760.99 261.528 1764.12 258.675C1767.26 255.536 1770.97 253.967 1775.25 253.967ZM1820.19 195.759C1825.04 195.759 1829.04 197.471 1832.18 200.895C1835.31 204.034 1836.88 208.028 1836.88 212.879V419.603C1836.88 426.451 1837.88 431.587 1839.88 435.011C1841.88 438.435 1844.45 440.86 1847.58 442.287C1851.01 443.428 1854.29 443.999 1857.43 443.999C1860.28 443.999 1862.71 443.571 1864.7 442.715C1866.99 441.574 1869.55 441.003 1872.41 441.003C1875.26 441.003 1877.83 442.43 1880.11 445.283C1882.68 447.851 1883.96 451.275 1883.96 455.555C1883.96 460.691 1880.97 465.114 1874.98 468.823C1868.98 472.247 1862.28 473.959 1854.86 473.959C1850.87 473.959 1845.87 473.674 1839.88 473.103C1834.17 472.532 1828.47 470.678 1822.76 467.539C1817.05 464.4 1812.2 459.264 1808.21 452.131C1804.5 444.712 1802.64 434.44 1802.64 421.315V212.879C1802.64 208.028 1804.36 204.034 1807.78 200.895C1811.2 197.471 1815.34 195.759 1820.19 195.759ZM2080.28 174.359H2232.64C2237.49 174.359 2241.63 175.928 2245.06 179.067C2248.48 182.206 2250.19 186.2 2250.19 191.051C2250.19 195.902 2248.48 199.896 2245.06 203.035C2241.63 205.888 2237.49 207.315 2232.64 207.315H2094.83L2098.68 200.039V308.323L2094.4 303.615H2213.38C2218.23 303.615 2222.37 305.184 2225.8 308.323C2229.22 311.462 2230.93 315.456 2230.93 320.307C2230.93 325.158 2229.22 329.152 2225.8 332.291C2222.37 335.144 2218.23 336.571 2213.38 336.571H2095.68L2098.68 332.719V443.571L2096.11 440.575H2232.64C2237.49 440.575 2241.63 442.287 2245.06 445.711C2248.48 449.135 2250.19 452.987 2250.19 457.267C2250.19 462.118 2248.48 466.112 2245.06 469.251C2241.63 472.39 2237.49 473.959 2232.64 473.959H2080.28C2075.42 473.959 2071.29 472.247 2067.86 468.823C2064.72 465.399 2063.16 461.262 2063.16 456.411V191.479C2063.16 186.628 2064.72 182.634 2067.86 179.495C2071.29 176.071 2075.42 174.359 2080.28 174.359ZM2481.5 157.239C2486.35 157.239 2490.34 158.951 2493.48 162.375C2496.9 165.514 2498.62 169.508 2498.62 174.359V456.411C2498.62 461.262 2496.9 465.399 2493.48 468.823C2490.34 472.247 2486.35 473.959 2481.5 473.959C2476.36 473.959 2472.22 472.247 2469.08 468.823C2465.94 465.399 2464.38 461.262 2464.38 456.411V415.751L2472.51 412.755C2472.51 419.603 2470.37 426.879 2466.09 434.583C2461.81 442.002 2455.96 448.992 2448.54 455.555C2441.12 462.118 2432.28 467.539 2422 471.819C2412.02 476.099 2401.17 478.239 2389.48 478.239C2370.36 478.239 2352.95 473.246 2337.26 463.259C2321.85 453.272 2309.58 439.576 2300.45 422.171C2291.61 404.766 2287.18 384.935 2287.18 362.679C2287.18 340.138 2291.61 320.164 2300.45 302.759C2309.58 285.354 2321.85 271.8 2337.26 262.099C2352.67 252.112 2369.79 247.119 2388.62 247.119C2400.6 247.119 2411.87 249.116 2422.43 253.111C2432.99 257.106 2442.12 262.527 2449.82 269.375C2457.81 276.223 2464.09 283.784 2468.66 292.059C2473.22 300.334 2475.5 308.608 2475.5 316.883L2464.38 314.315V174.359C2464.38 169.508 2465.94 165.514 2469.08 162.375C2472.22 158.951 2476.36 157.239 2481.5 157.239ZM2393.33 446.567C2407.59 446.567 2420.15 443 2430.99 435.867C2442.12 428.448 2450.68 418.462 2456.67 405.907C2462.95 393.067 2466.09 378.658 2466.09 362.679C2466.09 346.415 2462.95 332.006 2456.67 319.451C2450.68 306.896 2442.12 297.052 2430.99 289.919C2420.15 282.5 2407.59 278.791 2393.33 278.791C2379.35 278.791 2366.79 282.5 2355.66 289.919C2344.82 297.052 2336.26 306.896 2329.98 319.451C2323.71 332.006 2320.57 346.415 2320.57 362.679C2320.57 378.372 2323.71 392.639 2329.98 405.479C2336.26 418.034 2344.82 428.02 2355.66 435.439C2366.79 442.858 2379.35 446.567 2393.33 446.567ZM2654.95 247.119C2667.22 247.119 2678.63 249.259 2689.19 253.539C2699.74 257.534 2708.87 262.812 2716.58 269.375C2724.57 275.938 2730.7 282.786 2734.98 289.919C2739.55 297.052 2741.83 303.758 2741.83 310.035L2733.7 304.899V267.663C2733.7 262.812 2735.27 258.818 2738.41 255.679C2741.54 252.255 2745.68 250.543 2750.82 250.543C2755.67 250.543 2759.66 252.255 2762.8 255.679C2766.23 258.818 2767.94 262.812 2767.94 267.663V455.127C2767.94 478.524 2762.94 497.927 2752.96 513.335C2743.26 528.743 2730.13 540.299 2713.58 548.003C2697.03 555.707 2678.49 559.559 2657.94 559.559C2649.38 559.559 2639.97 558.418 2629.69 556.135C2619.42 553.852 2610.29 550.999 2602.3 547.575C2594.31 544.436 2589.18 541.155 2586.89 537.731C2582.61 534.878 2579.9 531.596 2578.76 527.887C2577.91 524.463 2578.62 521.182 2580.9 518.043C2583.47 514.048 2586.75 512.051 2590.75 512.051C2595.03 512.051 2600.3 513.335 2606.58 515.903C2609.15 516.759 2613.14 518.186 2618.57 520.183C2624.27 522.18 2630.55 523.892 2637.4 525.319C2644.53 527.031 2651.52 527.887 2658.37 527.887C2682.62 527.887 2701.17 521.467 2714.01 508.627C2727.14 496.072 2733.7 479.38 2733.7 458.551V418.747L2738.41 420.887C2736.69 428.876 2733.13 436.295 2727.71 443.143C2722.57 449.991 2716.15 456.126 2708.45 461.547C2701.03 466.683 2692.75 470.82 2683.62 473.959C2674.49 476.812 2665.22 478.239 2655.8 478.239C2635.83 478.239 2617.85 473.246 2601.87 463.259C2585.9 453.272 2573.2 439.576 2563.78 422.171C2554.65 404.766 2550.09 384.935 2550.09 362.679C2550.09 340.138 2554.65 320.164 2563.78 302.759C2573.2 285.354 2585.75 271.8 2601.45 262.099C2617.42 252.112 2635.26 247.119 2654.95 247.119ZM2659.23 278.791C2644.67 278.791 2631.55 282.5 2619.85 289.919C2608.44 297.052 2599.45 306.896 2592.89 319.451C2586.61 332.006 2583.47 346.415 2583.47 362.679C2583.47 378.372 2586.61 392.639 2592.89 405.479C2599.45 418.034 2608.44 428.02 2619.85 435.439C2631.55 442.858 2644.67 446.567 2659.23 446.567C2674.06 446.567 2687.19 443 2698.6 435.867C2710.02 428.448 2719 418.462 2725.57 405.907C2732.13 393.352 2735.41 378.943 2735.41 362.679C2735.41 346.13 2732.13 331.578 2725.57 319.023C2719 306.468 2710.02 296.624 2698.6 289.491C2687.19 282.358 2674.06 278.791 2659.23 278.791ZM2925.17 478.239C2902.35 478.239 2882.37 473.388 2865.25 463.687C2848.13 453.986 2834.72 440.718 2825.02 423.883C2815.61 406.763 2810.9 387.075 2810.9 364.819C2810.9 339.995 2815.75 318.88 2825.45 301.475C2835.44 283.784 2848.28 270.374 2863.97 261.243C2879.95 251.827 2896.78 247.119 2914.47 247.119C2927.6 247.119 2940.3 249.544 2952.57 254.395C2964.84 259.246 2975.68 266.379 2985.09 275.795C2994.51 284.926 3002.07 296.054 3007.78 309.179C3013.49 322.019 3016.48 336.428 3016.77 352.407C3016.77 356.972 3015.05 360.824 3011.63 363.963C3008.21 367.102 3004.21 368.671 2999.65 368.671H2830.59L2822.88 339.139H2987.66L2980.81 345.131V335.715C2979.67 324.016 2975.68 314.03 2968.83 305.755C2962.27 297.195 2954.14 290.632 2944.43 286.067C2935.02 281.502 2925.03 279.219 2914.47 279.219C2905.91 279.219 2897.35 280.788 2888.79 283.927C2880.52 286.78 2872.96 291.631 2866.11 298.479C2859.55 305.042 2854.13 313.602 2849.85 324.159C2845.85 334.716 2843.85 347.414 2843.85 362.251C2843.85 378.8 2847.14 393.352 2853.7 405.907C2860.55 418.462 2869.96 428.448 2881.95 435.867C2893.93 443 2907.91 446.567 2923.89 446.567C2933.88 446.567 2942.58 445.283 2950 442.715C2957.42 440.147 2963.84 437.008 2969.26 433.299C2974.68 429.304 2979.25 425.31 2982.95 421.315C2986.66 418.747 2990.23 417.463 2993.65 417.463C2997.93 417.463 3001.36 418.89 3003.93 421.743C3006.78 424.596 3008.21 428.02 3008.21 432.015C3008.21 436.866 3005.92 441.146 3001.36 444.855C2993.37 453.7 2982.53 461.547 2968.83 468.395C2955.13 474.958 2940.58 478.239 2925.17 478.239Z" fill="url(#paint1_linear_452_86)"/>
<defs>
<linearGradient id="paint0_linear_452_86" x1="0" y1="256" x2="516.624" y2="256" gradientUnits="userSpaceOnUse">
<stop stop-color="#833AB4"/>
<stop offset="0.5" stop-color="#FD1D1D"/>
<stop offset="1" stop-color="#FCB045"/>
</linearGradient>
<linearGradient id="paint1_linear_452_86" x1="392.878" y1="107.394" x2="3223" y2="107.394" gradientUnits="userSpaceOnUse">
<stop stop-color="#F12711"/>
<stop offset="1" stop-color="#F5AF19"/>
</linearGradient>
</defs>
</svg>
