<svg width="126" height="118" viewBox="0 0 126 118" fill="none" xmlns="http://www.w3.org/2000/svg">
<g filter="url(#filter0_d_451_55)">
<rect x="17" y="13" width="92" height="84" rx="19" fill="#EBDCEC"/>
</g>
<g clip-path="url(#clip0_451_55)">
<path d="M92.343 38.1058L75.1749 22.3886C74.903 22.1398 74.5346 22 74.1503 22H41.2744C37.3914 22 34.2324 24.8922 34.2324 28.4472V80.553C34.2324 84.1078 37.3915 87 41.2746 87H85.7253C89.6084 87 92.7675 84.1079 92.7675 80.553V39.0438C92.7674 38.692 92.6147 38.3546 92.343 38.1058ZM75.5997 26.5296L87.8204 37.7174H79.7439C78.6367 37.7174 77.5959 37.3227 76.8132 36.6062C76.0307 35.8898 75.5995 34.937 75.5997 33.9235V26.5296ZM89.8694 80.5528C89.8694 82.6449 88.0104 84.3468 85.7253 84.3468H41.2744C38.9893 84.3468 37.1302 82.6449 37.1302 80.5528V28.4472C37.1304 26.3551 38.9894 24.6531 41.2744 24.6531H72.7017V33.9233C72.7015 35.6454 73.4339 37.2644 74.7639 38.482C76.0941 39.6998 77.8625 40.3703 79.7438 40.3703H89.8693L89.8694 80.5528Z" fill="#434343"/>
<path d="M65.0977 75H64.449C63.6488 75 63 75.5939 63 76.3265C63 77.0592 63.6488 77.6531 64.449 77.6531H65.0977C65.8978 77.6531 66.5467 77.0592 66.5467 76.3265C66.5467 75.5939 65.8978 75 65.0977 75Z" fill="#434343"/>
<path d="M60.523 75H46.449C45.6488 75 45 75.5939 45 76.3265C45 77.0592 45.6488 77.6531 46.449 77.6531H60.523C61.3232 77.6531 61.972 77.0592 61.972 76.3265C61.972 75.5939 61.3233 75 60.523 75Z" fill="#434343"/>
<path d="M79.9746 69H46.449C45.6488 69 45 69.5939 45 70.3265C45 71.0592 45.6488 71.6531 46.449 71.6531H79.9746C80.7748 71.6531 81.4236 71.0592 81.4236 70.3265C81.4236 69.5939 80.7748 69 79.9746 69Z" fill="#434343"/>
<path d="M57.1205 40C57.4671 40 57.7905 40.1 58.0905 40.3C58.3971 40.5 58.6438 40.77 58.8305 41.11C59.0171 41.45 59.1105 41.83 59.1105 42.25C59.1105 42.6633 59.0171 43.04 58.8305 43.38C58.6438 43.72 58.3971 43.9933 58.0905 44.2C57.7905 44.4 57.4671 44.5 57.1205 44.5H55.2805L55.3805 44.32V46.39C55.3805 46.5633 55.3271 46.71 55.2205 46.83C55.1138 46.9433 54.9738 47 54.8005 47C54.6338 47 54.4971 46.9433 54.3905 46.83C54.2838 46.71 54.2305 46.5633 54.2305 46.39V40.61C54.2305 40.4367 54.2871 40.2933 54.4005 40.18C54.5205 40.06 54.6671 40 54.8405 40H57.1205ZM57.1205 43.36C57.2471 43.36 57.3705 43.3067 57.4905 43.2C57.6105 43.0933 57.7105 42.9567 57.7905 42.79C57.8705 42.6167 57.9105 42.4367 57.9105 42.25C57.9105 42.0567 57.8705 41.8767 57.7905 41.71C57.7105 41.5433 57.6105 41.41 57.4905 41.31C57.3705 41.2033 57.2471 41.15 57.1205 41.15H55.2605L55.3805 40.97V43.52L55.2705 43.36H57.1205ZM60.9759 47C60.7892 47 60.6225 46.9433 60.4759 46.83C60.3292 46.71 60.2559 46.5633 60.2559 46.39V40.61C60.2559 40.4367 60.3125 40.2933 60.4259 40.18C60.5459 40.06 60.6925 40 60.8659 40H63.7459C64.0925 40 64.4159 40.0933 64.7159 40.28C65.0225 40.46 65.2692 40.7133 65.4559 41.04C65.6425 41.36 65.7359 41.73 65.7359 42.15C65.7359 42.4033 65.6825 42.65 65.5759 42.89C65.4759 43.13 65.3359 43.3467 65.1559 43.54C64.9825 43.7333 64.7859 43.8833 64.5659 43.99L64.5759 43.76C64.7625 43.86 64.9159 43.98 65.0359 44.12C65.1625 44.2533 65.2592 44.4 65.3259 44.56C65.3992 44.7133 65.4425 44.88 65.4559 45.06C65.4825 45.2267 65.4992 45.3733 65.5059 45.5C65.5192 45.6267 65.5392 45.7333 65.5659 45.82C65.5992 45.9067 65.6592 45.9733 65.7459 46.02C65.8925 46.1067 65.9825 46.2333 66.0159 46.4C66.0559 46.56 66.0192 46.7033 65.9059 46.83C65.8325 46.9167 65.7392 46.9733 65.6259 47C65.5125 47.02 65.3992 47.02 65.2859 47C65.1725 46.9733 65.0792 46.94 65.0059 46.9C64.8925 46.8333 64.7792 46.7367 64.6659 46.61C64.5525 46.4767 64.4592 46.3 64.3859 46.08C64.3192 45.86 64.2859 45.5767 64.2859 45.23C64.2859 45.1167 64.2659 45.0133 64.2259 44.92C64.1859 44.82 64.1292 44.7367 64.0559 44.67C63.9825 44.5967 63.8892 44.5433 63.7759 44.51C63.6625 44.47 63.5292 44.45 63.3759 44.45H61.3559L61.5059 44.22V46.39C61.5059 46.5633 61.4592 46.71 61.3659 46.83C61.2725 46.9433 61.1425 47 60.9759 47ZM61.3659 43.42H63.6959C63.8159 43.42 63.9325 43.3667 64.0459 43.26C64.1592 43.1467 64.2525 42.9967 64.3259 42.81C64.3992 42.6167 64.4359 42.4067 64.4359 42.18C64.4359 41.8867 64.3559 41.6433 64.1959 41.45C64.0425 41.25 63.8759 41.15 63.6959 41.15H61.3859L61.5059 40.83V43.66L61.3659 43.42ZM70.1211 40C70.6011 40 71.0278 40.09 71.4011 40.27C71.7744 40.45 72.0878 40.7033 72.3411 41.03C72.6011 41.35 72.7944 41.7233 72.9211 42.15C73.0544 42.57 73.1211 43.02 73.1211 43.5C73.1211 44.1467 73.0044 44.7367 72.7711 45.27C72.5378 45.7967 72.1978 46.2167 71.7511 46.53C71.3111 46.8433 70.7678 47 70.1211 47H67.7311C67.5578 47 67.4111 46.9433 67.2911 46.83C67.1778 46.71 67.1211 46.5633 67.1211 46.39V40.61C67.1211 40.4367 67.1778 40.2933 67.2911 40.18C67.4111 40.06 67.5578 40 67.7311 40H70.1211ZM70.0211 45.85C70.4411 45.85 70.7844 45.7433 71.0511 45.53C71.3178 45.31 71.5111 45.0233 71.6311 44.67C71.7578 44.31 71.8211 43.92 71.8211 43.5C71.8211 43.1867 71.7844 42.89 71.7111 42.61C71.6444 42.3233 71.5378 42.0733 71.3911 41.86C71.2444 41.64 71.0578 41.4667 70.8311 41.34C70.6044 41.2133 70.3344 41.15 70.0211 41.15H68.2711L68.3711 41.06V45.96L68.3111 45.85H70.0211ZM44.155 52.6C44.3283 52.6 44.4717 52.6567 44.585 52.77C44.6983 52.8833 44.755 53.03 44.755 53.21V59.39C44.755 59.5633 44.6983 59.71 44.585 59.83C44.4717 59.9433 44.3283 60 44.155 60C43.9817 60 43.8383 59.9433 43.725 59.83C43.6117 59.71 43.555 59.5633 43.555 59.39V58.9L43.775 58.99C43.775 59.0767 43.7283 59.1833 43.635 59.31C43.5417 59.43 43.415 59.55 43.255 59.67C43.095 59.79 42.905 59.8933 42.685 59.98C42.4717 60.06 42.2383 60.1 41.985 60.1C41.525 60.1 41.1083 59.9833 40.735 59.75C40.3617 59.51 40.065 59.1833 39.845 58.77C39.6317 58.35 39.525 57.87 39.525 57.33C39.525 56.7833 39.6317 56.3033 39.845 55.89C40.065 55.47 40.3583 55.1433 40.725 54.91C41.0917 54.67 41.4983 54.55 41.945 54.55C42.2317 54.55 42.495 54.5933 42.735 54.68C42.975 54.7667 43.1817 54.8767 43.355 55.01C43.535 55.1433 43.6717 55.28 43.765 55.42C43.865 55.5533 43.915 55.6667 43.915 55.76L43.555 55.89V53.21C43.555 53.0367 43.6117 52.8933 43.725 52.78C43.8383 52.66 43.9817 52.6 44.155 52.6ZM42.135 59C42.4283 59 42.685 58.9267 42.905 58.78C43.125 58.6333 43.295 58.4333 43.415 58.18C43.5417 57.9267 43.605 57.6433 43.605 57.33C43.605 57.01 43.5417 56.7233 43.415 56.47C43.295 56.2167 43.125 56.0167 42.905 55.87C42.685 55.7233 42.4283 55.65 42.135 55.65C41.8483 55.65 41.595 55.7233 41.375 55.87C41.155 56.0167 40.9817 56.2167 40.855 56.47C40.735 56.7233 40.675 57.01 40.675 57.33C40.675 57.6433 40.735 57.9267 40.855 58.18C40.9817 58.4333 41.155 58.6333 41.375 58.78C41.595 58.9267 41.8483 59 42.135 59ZM51.2443 57.33C51.2443 57.8767 51.121 58.36 50.8743 58.78C50.6343 59.1933 50.3076 59.5167 49.8943 59.75C49.4876 59.9833 49.031 60.1 48.5243 60.1C48.0176 60.1 47.5576 59.9833 47.1443 59.75C46.7376 59.5167 46.411 59.1933 46.1643 58.78C45.9243 58.36 45.8043 57.8767 45.8043 57.33C45.8043 56.7833 45.9243 56.3033 46.1643 55.89C46.411 55.47 46.7376 55.1433 47.1443 54.91C47.5576 54.67 48.0176 54.55 48.5243 54.55C49.031 54.55 49.4876 54.67 49.8943 54.91C50.3076 55.1433 50.6343 55.47 50.8743 55.89C51.121 56.3033 51.2443 56.7833 51.2443 57.33ZM50.0443 57.33C50.0443 56.99 49.9743 56.6967 49.8343 56.45C49.701 56.1967 49.5176 56 49.2843 55.86C49.0576 55.72 48.8043 55.65 48.5243 55.65C48.2443 55.65 47.9876 55.72 47.7543 55.86C47.5276 56 47.3443 56.1967 47.2043 56.45C47.071 56.6967 47.0043 56.99 47.0043 57.33C47.0043 57.6633 47.071 57.9567 47.2043 58.21C47.3443 58.4567 47.5276 58.65 47.7543 58.79C47.9876 58.93 48.2443 59 48.5243 59C48.8043 59 49.0576 58.93 49.2843 58.79C49.5176 58.65 49.701 58.4567 49.8343 58.21C49.9743 57.9567 50.0443 57.6633 50.0443 57.33ZM54.6745 54.55C55.0545 54.55 55.3845 54.59 55.6645 54.67C55.9512 54.75 56.1712 54.8633 56.3245 55.01C56.4845 55.15 56.5645 55.32 56.5645 55.52C56.5645 55.6533 56.5245 55.78 56.4445 55.9C56.3645 56.0133 56.2479 56.07 56.0945 56.07C55.9879 56.07 55.8979 56.0567 55.8245 56.03C55.7579 55.9967 55.6979 55.9567 55.6445 55.91C55.5912 55.8633 55.5279 55.82 55.4545 55.78C55.3879 55.74 55.2845 55.71 55.1445 55.69C55.0112 55.6633 54.9112 55.65 54.8445 55.65C54.5045 55.65 54.2145 55.7233 53.9745 55.87C53.7412 56.0167 53.5612 56.2167 53.4345 56.47C53.3079 56.7167 53.2445 57.0033 53.2445 57.33C53.2445 57.65 53.3079 57.9367 53.4345 58.19C53.5679 58.4367 53.7479 58.6333 53.9745 58.78C54.2079 58.9267 54.4745 59 54.7745 59C54.9412 59 55.0845 58.99 55.2045 58.97C55.3245 58.95 55.4245 58.92 55.5045 58.88C55.5979 58.8267 55.6812 58.77 55.7545 58.71C55.8279 58.65 55.9379 58.62 56.0845 58.62C56.2579 58.62 56.3912 58.6767 56.4845 58.79C56.5779 58.8967 56.6245 59.03 56.6245 59.19C56.6245 59.3567 56.5312 59.51 56.3445 59.65C56.1579 59.7833 55.9112 59.8933 55.6045 59.98C55.3045 60.06 54.9779 60.1 54.6245 60.1C54.0979 60.1 53.6412 59.98 53.2545 59.74C52.8679 59.4933 52.5679 59.16 52.3545 58.74C52.1479 58.32 52.0445 57.85 52.0445 57.33C52.0445 56.7833 52.1545 56.3033 52.3745 55.89C52.6012 55.47 52.9112 55.1433 53.3045 54.91C53.7045 54.67 54.1612 54.55 54.6745 54.55ZM61.4598 54.65C61.6332 54.65 61.7765 54.71 61.8898 54.83C62.0032 54.9433 62.0598 55.0867 62.0598 55.26V57.8C62.0598 58.5067 61.8632 59.0667 61.4698 59.48C61.0765 59.8933 60.5098 60.1 59.7698 60.1C59.0298 60.1 58.4632 59.8933 58.0698 59.48C57.6832 59.0667 57.4898 58.5067 57.4898 57.8V55.26C57.4898 55.0867 57.5465 54.9433 57.6598 54.83C57.7732 54.71 57.9165 54.65 58.0898 54.65C58.2632 54.65 58.4065 54.71 58.5198 54.83C58.6332 54.9433 58.6898 55.0867 58.6898 55.26V57.8C58.6898 58.2067 58.7798 58.51 58.9598 58.71C59.1398 58.9033 59.4098 59 59.7698 59C60.1365 59 60.4098 58.9033 60.5898 58.71C60.7698 58.51 60.8598 58.2067 60.8598 57.8V55.26C60.8598 55.0867 60.9165 54.9433 61.0298 54.83C61.1432 54.71 61.2865 54.65 61.4598 54.65ZM66.169 54.55C66.7023 54.55 67.0957 54.68 67.349 54.94C67.6023 55.1933 67.769 55.5233 67.849 55.93L67.679 55.84L67.759 55.68C67.839 55.5267 67.9623 55.3633 68.129 55.19C68.2957 55.01 68.4957 54.86 68.729 54.74C68.969 54.6133 69.2357 54.55 69.529 54.55C70.009 54.55 70.3723 54.6533 70.619 54.86C70.8723 55.0667 71.0457 55.3433 71.139 55.69C71.2323 56.03 71.279 56.41 71.279 56.83V59.39C71.279 59.5633 71.2223 59.71 71.109 59.83C70.9957 59.9433 70.8523 60 70.679 60C70.5057 60 70.3623 59.9433 70.249 59.83C70.1357 59.71 70.079 59.5633 70.079 59.39V56.83C70.079 56.61 70.0523 56.4133 69.999 56.24C69.9457 56.06 69.849 55.9167 69.709 55.81C69.569 55.7033 69.369 55.65 69.109 55.65C68.8557 55.65 68.639 55.7033 68.459 55.81C68.279 55.9167 68.1423 56.06 68.049 56.24C67.9623 56.4133 67.919 56.61 67.919 56.83V59.39C67.919 59.5633 67.8623 59.71 67.749 59.83C67.6357 59.9433 67.4923 60 67.319 60C67.1457 60 67.0023 59.9433 66.889 59.83C66.7757 59.71 66.719 59.5633 66.719 59.39V56.83C66.719 56.61 66.6923 56.4133 66.639 56.24C66.5857 56.06 66.489 55.9167 66.349 55.81C66.209 55.7033 66.009 55.65 65.749 55.65C65.4957 55.65 65.279 55.7033 65.099 55.81C64.919 55.9167 64.7823 56.06 64.689 56.24C64.6023 56.4133 64.559 56.61 64.559 56.83V59.39C64.559 59.5633 64.5023 59.71 64.389 59.83C64.2757 59.9433 64.1323 60 63.959 60C63.7857 60 63.6423 59.9433 63.529 59.83C63.4157 59.71 63.359 59.5633 63.359 59.39V55.26C63.359 55.0867 63.4157 54.9433 63.529 54.83C63.6423 54.71 63.7857 54.65 63.959 54.65C64.1323 54.65 64.2757 54.71 64.389 54.83C64.5023 54.9433 64.559 55.0867 64.559 55.26V55.69L64.409 55.66C64.469 55.5467 64.5523 55.4267 64.659 55.3C64.7657 55.1667 64.8957 55.0433 65.049 54.93C65.2023 54.8167 65.3723 54.7267 65.559 54.66C65.7457 54.5867 65.949 54.55 66.169 54.55ZM75.0977 60.1C74.5311 60.1 74.0377 59.9833 73.6177 59.75C73.2044 59.51 72.8844 59.1867 72.6577 58.78C72.4377 58.3733 72.3277 57.9133 72.3277 57.4C72.3277 56.8 72.4477 56.29 72.6877 55.87C72.9344 55.4433 73.2544 55.1167 73.6477 54.89C74.0411 54.6633 74.4577 54.55 74.8977 54.55C75.2377 54.55 75.5577 54.62 75.8577 54.76C76.1644 54.9 76.4344 55.0933 76.6677 55.34C76.9011 55.58 77.0844 55.86 77.2177 56.18C77.3577 56.5 77.4277 56.84 77.4277 57.2C77.4211 57.36 77.3577 57.49 77.2377 57.59C77.1177 57.69 76.9777 57.74 76.8177 57.74H72.9977L72.6977 56.74H76.3677L76.1477 56.94V56.67C76.1344 56.4767 76.0644 56.3033 75.9377 56.15C75.8177 55.9967 75.6644 55.8767 75.4777 55.79C75.2977 55.6967 75.1044 55.65 74.8977 55.65C74.6977 55.65 74.5111 55.6767 74.3377 55.73C74.1644 55.7833 74.0144 55.8733 73.8877 56C73.7611 56.1267 73.6611 56.2967 73.5877 56.51C73.5144 56.7233 73.4777 56.9933 73.4777 57.32C73.4777 57.68 73.5511 57.9867 73.6977 58.24C73.8511 58.4867 74.0444 58.6767 74.2777 58.81C74.5177 58.9367 74.7711 59 75.0377 59C75.2844 59 75.4811 58.98 75.6277 58.94C75.7744 58.9 75.8911 58.8533 75.9777 58.8C76.0711 58.74 76.1544 58.69 76.2277 58.65C76.3477 58.59 76.4611 58.56 76.5677 58.56C76.7144 58.56 76.8344 58.61 76.9277 58.71C77.0277 58.81 77.0777 58.9267 77.0777 59.06C77.0777 59.24 76.9844 59.4033 76.7977 59.55C76.6244 59.6967 76.3811 59.8267 76.0677 59.94C75.7544 60.0467 75.4311 60.1 75.0977 60.1ZM81.3362 54.55C81.8295 54.55 82.2028 54.6533 82.4562 54.86C82.7162 55.0667 82.8928 55.3433 82.9862 55.69C83.0862 56.03 83.1362 56.41 83.1362 56.83V59.39C83.1362 59.5633 83.0795 59.71 82.9662 59.83C82.8528 59.9433 82.7095 60 82.5362 60C82.3628 60 82.2195 59.9433 82.1062 59.83C81.9928 59.71 81.9362 59.5633 81.9362 59.39V56.83C81.9362 56.61 81.9062 56.4133 81.8462 56.24C81.7928 56.06 81.6928 55.9167 81.5462 55.81C81.3995 55.7033 81.1895 55.65 80.9162 55.65C80.6495 55.65 80.4228 55.7033 80.2362 55.81C80.0562 55.9167 79.9162 56.06 79.8162 56.24C79.7228 56.4133 79.6762 56.61 79.6762 56.83V59.39C79.6762 59.5633 79.6195 59.71 79.5062 59.83C79.3928 59.9433 79.2495 60 79.0762 60C78.9028 60 78.7595 59.9433 78.6462 59.83C78.5328 59.71 78.4762 59.5633 78.4762 59.39V55.26C78.4762 55.0867 78.5328 54.9433 78.6462 54.83C78.7595 54.71 78.9028 54.65 79.0762 54.65C79.2495 54.65 79.3928 54.71 79.5062 54.83C79.6195 54.9433 79.6762 55.0867 79.6762 55.26V55.69L79.5262 55.66C79.5862 55.5467 79.6728 55.4267 79.7862 55.3C79.8995 55.1667 80.0328 55.0433 80.1862 54.93C80.3395 54.8167 80.5128 54.7267 80.7062 54.66C80.8995 54.5867 81.1095 54.55 81.3362 54.55ZM84.4932 54.75H86.8632C87.0232 54.75 87.1565 54.8033 87.2632 54.91C87.3699 55.0167 87.4232 55.15 87.4232 55.31C87.4232 55.4633 87.3699 55.5933 87.2632 55.7C87.1565 55.8 87.0232 55.85 86.8632 55.85H84.4932C84.3332 55.85 84.1999 55.7967 84.0932 55.69C83.9865 55.5833 83.9332 55.45 83.9332 55.29C83.9332 55.1367 83.9865 55.01 84.0932 54.91C84.1999 54.8033 84.3332 54.75 84.4932 54.75ZM85.5632 53.5C85.7365 53.5 85.8765 53.56 85.9832 53.68C86.0965 53.7933 86.1532 53.9367 86.1532 54.11V58.56C86.1532 58.6533 86.1699 58.73 86.2032 58.79C86.2432 58.85 86.2932 58.8933 86.3532 58.92C86.4199 58.9467 86.4899 58.96 86.5632 58.96C86.6432 58.96 86.7165 58.9467 86.7832 58.92C86.8499 58.8867 86.9265 58.87 87.0132 58.87C87.1065 58.87 87.1899 58.9133 87.2632 59C87.3432 59.0867 87.3832 59.2067 87.3832 59.36C87.3832 59.5467 87.2799 59.7 87.0732 59.82C86.8732 59.94 86.6565 60 86.4232 60C86.2832 60 86.1265 59.99 85.9532 59.97C85.7865 59.9433 85.6265 59.8867 85.4732 59.8C85.3265 59.7067 85.2032 59.5667 85.1032 59.38C85.0032 59.1933 84.9532 58.9367 84.9532 58.61V54.11C84.9532 53.9367 85.0099 53.7933 85.1232 53.68C85.2432 53.56 85.3899 53.5 85.5632 53.5Z" fill="#434343"/>
</g>
<defs>
<filter id="filter0_d_451_55" x="0" y="0" width="126" height="118" filterUnits="userSpaceOnUse" color-interpolation-filters="sRGB">
<feFlood flood-opacity="0" result="BackgroundImageFix"/>
<feColorMatrix in="SourceAlpha" type="matrix" values="0 0 0 0 0 0 0 0 0 0 0 0 0 0 0 0 0 0 127 0" result="hardAlpha"/>
<feMorphology radius="7" operator="erode" in="SourceAlpha" result="effect1_dropShadow_451_55"/>
<feOffset dy="4"/>
<feGaussianBlur stdDeviation="12"/>
<feComposite in2="hardAlpha" operator="out"/>
<feColorMatrix type="matrix" values="0 0 0 0 0 0 0 0 0 0 0 0 0 0 0 0 0 0 0.25 0"/>
<feBlend mode="normal" in2="BackgroundImageFix" result="effect1_dropShadow_451_55"/>
<feBlend mode="normal" in="SourceGraphic" in2="effect1_dropShadow_451_55" result="shape"/>
</filter>
<clipPath id="clip0_451_55">
<rect width="71" height="65" fill="white" transform="translate(28 22)"/>
</clipPath>
</defs>
</svg>
