<svg width="2374" height="486" viewBox="0 0 2374 486" fill="none" xmlns="http://www.w3.org/2000/svg">
<g clip-path="url(#clip0_453_107)">
<path d="M817.198 80.8V323.2H773.544V132.983H772.962L694.967 323.2H665.865L586.124 132.983H585.542V323.2H545.381V80.8H608.242L680.416 260.356H681.58L757.829 80.8H817.198ZM853.285 99.3167C853.285 92.5834 855.613 86.9723 860.852 82.4834C866.09 77.9945 871.911 75.75 878.895 75.75C886.462 75.75 892.864 77.9945 897.521 82.4834C902.177 86.9723 905.087 92.5834 905.087 99.3167C905.087 106.05 902.759 111.661 897.521 116.15C892.282 120.639 886.462 122.883 878.895 122.883C871.328 122.883 865.508 120.639 860.852 116.15C856.195 111.1 853.285 105.489 853.285 99.3167ZM900.431 149.256V323.2H857.941V149.256H900.431ZM1029.06 293.461C1035.47 293.461 1042.45 292.339 1050.02 288.972C1057.58 286.167 1064.57 282.239 1070.97 277.75V315.906C1063.99 319.833 1056.42 322.639 1047.69 324.322C1038.96 326.006 1029.65 327.128 1019.17 327.128C992.395 327.128 970.859 319.272 954.562 303C937.682 286.728 929.533 265.967 929.533 241.278C929.533 213.222 938.264 190.217 955.144 172.261C972.023 154.306 995.887 145.328 1027.32 145.328C1035.47 145.328 1043.62 146.45 1051.18 148.133C1059.33 149.817 1065.73 152.622 1070.39 154.867V194.144C1063.99 189.656 1057 185.728 1050.6 183.483C1043.62 181.239 1036.63 179.556 1029.65 179.556C1012.77 179.556 999.379 184.606 988.903 195.267C978.426 205.928 973.769 219.956 973.769 237.911C973.769 255.306 979.008 269.333 988.903 278.872C998.797 288.411 1012.18 293.461 1029.06 293.461ZM1191.46 146.45C1194.95 146.45 1197.86 146.45 1200.77 147.011C1203.68 147.572 1206.01 148.133 1207.75 148.694V190.217C1205.43 188.533 1202.51 186.85 1197.86 185.728C1193.2 184.606 1188.55 183.483 1182.14 183.483C1171.67 183.483 1162.94 187.972 1155.95 196.389C1148.97 204.806 1144.89 217.711 1144.89 235.667V323.2H1102.4V149.256H1144.89V176.75H1145.47C1149.55 167.211 1155.37 159.917 1162.94 154.306C1171.08 149.256 1180.4 146.45 1191.46 146.45ZM1210.08 239.033C1210.08 210.417 1218.81 187.411 1235.11 170.578C1251.99 153.744 1275.27 145.328 1304.96 145.328C1332.89 145.328 1355.01 153.183 1370.73 169.456C1386.44 185.728 1394.59 207.611 1394.59 235.106C1394.59 263.161 1385.86 285.606 1369.56 302.439C1352.68 319.272 1329.98 327.689 1300.88 327.689C1272.94 327.689 1250.82 319.833 1234.53 304.122C1218.23 287.85 1210.08 265.967 1210.08 239.033ZM1254.32 237.35C1254.32 255.306 1258.39 269.333 1267.12 278.872C1275.85 288.411 1288.08 293.461 1303.79 293.461C1318.92 293.461 1331.15 288.972 1339.3 278.872C1347.45 269.333 1351.52 255.306 1351.52 236.228C1351.52 217.711 1347.45 203.683 1339.3 193.583C1331.15 184.044 1318.92 178.994 1304.37 178.994C1288.66 178.994 1277.02 184.044 1268.29 194.144C1258.39 204.806 1254.32 218.833 1254.32 237.35ZM1458.03 195.267C1458.03 200.878 1459.78 205.928 1463.86 209.294C1467.93 212.661 1476.08 216.589 1489.47 221.639C1506.34 228.372 1518.57 235.667 1524.97 243.522C1531.95 251.939 1535.45 261.478 1535.45 273.261C1535.45 289.533 1529.04 302.439 1515.66 312.539C1502.85 322.639 1484.81 327.128 1462.69 327.128C1455.12 327.128 1446.98 326.006 1437.66 324.322C1428.35 322.639 1420.78 320.394 1414.38 317.589V277.189C1421.95 282.239 1430.68 286.728 1439.41 289.533C1448.14 292.339 1456.29 294.022 1463.86 294.022C1473.17 294.022 1480.73 292.9 1484.81 290.094C1489.47 287.289 1491.79 283.361 1491.79 277.189C1491.79 271.578 1489.47 267.089 1484.81 262.6C1480.15 258.672 1470.84 254.183 1458.03 249.133C1442.32 242.961 1431.26 235.667 1424.86 227.811C1418.46 219.956 1414.96 209.856 1414.96 197.511C1414.96 181.8 1421.37 168.894 1434.17 158.794C1446.98 148.694 1463.86 143.644 1484.23 143.644C1490.63 143.644 1497.61 144.206 1505.18 145.889C1512.75 147.572 1519.73 149.256 1524.97 150.939V190.778C1519.15 187.411 1512.75 184.044 1505.18 181.239C1497.61 178.433 1490.05 177.311 1483.06 177.311C1474.91 177.311 1468.51 178.994 1464.44 181.8C1460.36 185.728 1458.03 189.656 1458.03 195.267ZM1553.49 239.033C1553.49 210.417 1562.22 187.411 1578.52 170.578C1595.4 153.744 1618.68 145.328 1648.36 145.328C1676.3 145.328 1698.42 153.183 1714.14 169.456C1729.85 185.728 1738 207.611 1738 235.106C1738 263.161 1729.27 285.606 1712.97 302.439C1696.09 319.272 1673.39 327.689 1644.29 327.689C1616.35 327.689 1594.23 319.833 1577.94 304.122C1562.22 287.85 1553.49 265.967 1553.49 239.033ZM1597.73 237.35C1597.73 255.306 1601.8 269.333 1610.53 278.872C1619.26 288.411 1631.49 293.461 1647.2 293.461C1662.33 293.461 1674.56 288.972 1682.71 278.872C1690.85 269.333 1694.93 255.306 1694.93 236.228C1694.93 217.711 1690.85 203.683 1682.71 193.583C1674.56 184.044 1662.33 178.994 1647.78 178.994C1632.07 178.994 1620.43 184.044 1611.7 194.144C1602.38 204.806 1597.73 218.833 1597.73 237.35ZM1879.44 182.922H1816V323.2H1772.92V182.922H1742.66V149.256H1772.92V125.128C1772.92 107.172 1779.33 92.0223 1791.55 80.2389C1803.77 68.4556 1819.49 62.8445 1838.7 62.8445C1843.93 62.8445 1848.59 63.4056 1852.66 63.4056C1856.74 63.4056 1860.23 64.5278 1863.14 65.65V101C1861.98 100.439 1859.07 99.3167 1855.57 98.1945C1852.08 97.0723 1848.01 96.5112 1843.35 96.5112C1834.62 96.5112 1827.64 99.3167 1822.98 104.367C1818.32 109.417 1816 117.833 1816 127.933V148.694H1879.44V109.417L1921.93 97.0723V148.694H1965V182.361H1921.93V263.722C1921.93 274.383 1924.26 281.678 1927.75 286.167C1931.82 290.656 1938.23 292.9 1946.96 292.9C1949.28 292.9 1952.19 292.339 1955.69 291.217C1959.18 290.094 1962.09 288.972 1964.42 287.289V320.956C1961.51 322.639 1957.43 323.761 1951.03 324.883C1944.63 326.006 1938.81 326.567 1932.41 326.567C1914.36 326.567 1900.97 322.078 1892.24 313.1C1883.51 304.122 1878.86 290.094 1878.86 271.578L1879.44 182.922Z" fill="#737373"/>
<path d="M199.061 0H0V191.9H199.061V0Z" fill="#F25022"/>
<path d="M419.076 0H220.015V191.9H419.076V0Z" fill="#7FBA00"/>
<path d="M199.061 212.1H0V404H199.061V212.1Z" fill="#00A4EF"/>
<path d="M419.076 212.1H220.015V404H419.076V212.1Z" fill="#FFB900"/>
</g>
<path d="M859.2 399.2C867.8 391 878.2 386.9 890.4 386.9C896.9 386.9 904.3 388.2 912.6 390.8C914.3 392.1 915.15 393.6 915.15 395.3C915.15 397 914.4 398.5 912.9 399.8C911.4 401 909.5 401.6 907.2 401.6C901.6 400.2 896.55 399.5 892.05 399.5C881.15 399.5 872.95 402.7 867.45 409.1C861.85 415.6 859.05 425.1 859.05 437.6C859.05 450.3 862.35 460.15 868.95 467.15C872.35 470.85 876.4 472.7 881.1 472.7C885.6 472.7 893.1 470.2 903.6 465.2C907.3 463.5 909.7 462.65 910.8 462.65C913.4 462.65 914.7 464 914.7 466.7C914.7 469.4 913.45 471.65 910.95 473.45C902.75 477.75 896.05 480.8 890.85 482.6C886.05 484.1 881.9 484.85 878.4 484.85C871.2 484.85 865.05 482.2 859.95 476.9C850.85 467.2 846.3 453.85 846.3 436.85C846.3 419.85 850.6 407.3 859.2 399.2ZM935.378 424.4C940.778 419.1 948.228 416.45 957.728 416.45C965.228 416.45 971.228 419.35 975.728 425.15C980.228 430.85 982.478 438.6 982.478 448.4C982.478 458.2 979.978 466.75 974.978 474.05C970.078 481.25 963.728 484.85 955.928 484.85C947.528 484.85 940.678 481.25 935.378 474.05C930.078 466.75 927.428 457.95 927.428 447.65C927.428 437.45 930.078 429.7 935.378 424.4ZM942.878 465.5C946.378 471.1 951.078 473.9 956.978 473.9C960.378 473.9 963.278 472.45 965.678 469.55C969.678 464.65 971.678 458.15 971.678 450.05C971.678 441.85 970.478 435.95 968.078 432.35C965.778 428.65 961.778 426.8 956.078 426.8C950.278 426.8 945.778 428.6 942.578 432.2C939.378 435.7 937.778 440.75 937.778 447.35C937.778 453.95 939.478 460 942.878 465.5ZM1040.26 447.05C1040.26 435.95 1039.66 427.55 1038.46 421.85L1038.31 420.5C1038.31 419.2 1038.91 418.05 1040.11 417.05C1041.31 416.15 1042.66 415.7 1044.16 415.7C1045.56 415.7 1046.71 416.05 1047.61 416.75C1048.61 417.45 1049.16 418.35 1049.26 419.45C1050.26 429.15 1050.76 438 1050.76 446C1050.76 450.5 1050.61 454.1 1050.31 456.8C1049.61 466.5 1047.16 473.65 1042.96 478.25C1038.86 482.75 1032.51 485 1023.91 485C1017.81 485 1012.61 483.25 1008.31 479.75C1004.11 476.15 1001.11 471.3 999.307 465.2C996.707 456.2 995.407 446.3 995.407 435.5C995.407 431.3 995.657 426.55 996.157 421.25C996.257 419.95 997.007 418.85 998.407 417.95C999.807 416.95 1001.16 416.45 1002.46 416.45C1003.76 416.45 1004.81 416.85 1005.61 417.65C1006.41 418.45 1006.76 419.5 1006.66 420.8C1006.16 425.5 1005.91 430.6 1005.91 436.1C1005.91 438.7 1006.01 442 1006.21 446C1006.81 454.1 1008.66 460.95 1011.76 466.55C1014.96 472.15 1019.01 474.95 1023.91 474.95C1034.81 474.95 1040.26 465.65 1040.26 447.05ZM1073.89 461.45C1073.99 464.35 1074.19 470.3 1074.49 479.3V479.45C1074.49 480.95 1073.79 482.25 1072.39 483.35C1070.99 484.45 1069.44 485 1067.74 485C1065.54 485 1064.44 484 1064.44 482C1064.04 477.9 1063.84 459.25 1063.84 426.05C1063.84 422.85 1065.74 420.35 1069.54 418.55C1073.34 416.75 1078.49 415.85 1084.99 415.85C1091.39 415.85 1097.04 417.45 1101.94 420.65C1106.84 423.75 1109.29 427.6 1109.29 432.2C1109.29 434.3 1108.34 436.7 1106.44 439.4C1104.64 442.1 1102.59 444.3 1100.29 446C1098.29 447.4 1095.24 449.25 1091.14 451.55C1087.04 453.85 1084.59 455.05 1083.79 455.15C1089.89 459.05 1095.49 463.4 1100.59 468.2C1105.49 473 1107.94 476.95 1107.94 480.05C1107.94 482.25 1106.74 483.75 1104.34 484.55C1103.44 484.85 1102.79 485 1102.39 485C1100.89 485 1099.24 483.9 1097.44 481.7C1096.14 480 1092.94 476.9 1087.84 472.4C1082.64 467.9 1077.99 464.25 1073.89 461.45ZM1074.04 427.4C1073.94 430.6 1073.89 437.5 1073.89 448.1C1077.09 448.1 1082.04 446.5 1088.74 443.3C1095.34 440 1098.79 436.95 1099.09 434.15C1099.09 431.65 1097.64 429.7 1094.74 428.3C1091.94 426.8 1088.74 426.05 1085.14 426.05C1081.34 426.05 1077.64 426.5 1074.04 427.4ZM1163.79 418.25C1167.49 419.95 1169.34 422.25 1169.34 425.15C1169.34 426.45 1168.89 427.55 1167.99 428.45C1167.19 429.25 1166.34 429.65 1165.44 429.65C1163.84 429.65 1161.29 428.85 1157.79 427.25C1154.49 425.65 1151.29 424.85 1148.19 424.85C1145.29 424.85 1142.29 425.65 1139.19 427.25C1136.09 428.75 1134.54 430.65 1134.54 432.95C1134.54 435.25 1136.44 437.3 1140.24 439.1C1143.74 440.8 1148.24 442.35 1153.74 443.75C1159.14 445.15 1162.59 446.45 1164.09 447.65C1165.59 448.65 1166.84 449.65 1167.84 450.65C1168.74 451.45 1169.54 453 1170.24 455.3C1171.04 457.5 1171.44 460.15 1171.44 463.25C1171.44 470.55 1169.04 476 1164.24 479.6C1159.54 483.1 1153.89 484.85 1147.29 484.85C1140.79 484.85 1135.19 483.8 1130.49 481.7C1125.79 479.6 1123.44 477 1123.44 473.9C1123.44 472.5 1123.94 471.25 1124.94 470.15C1125.94 468.95 1127.09 468.35 1128.39 468.35C1128.69 468.35 1129.14 468.45 1129.74 468.65C1139.04 472.35 1144.94 474.2 1147.44 474.2C1151.64 474.2 1154.89 473.15 1157.19 471.05C1159.59 468.95 1160.79 466.2 1160.79 462.8C1160.79 460.1 1159.94 457.95 1158.24 456.35C1156.54 454.75 1154.44 453.55 1151.94 452.75C1149.54 451.85 1146.24 450.95 1142.04 450.05L1136.49 448.7C1132.69 447.6 1129.59 445.85 1127.19 443.45C1124.59 440.85 1123.29 437.25 1123.29 432.65C1123.29 427.95 1125.69 423.95 1130.49 420.65C1135.19 417.25 1141.04 415.55 1148.04 415.55C1154.84 415.55 1160.09 416.45 1163.79 418.25ZM1210.5 451.4L1195.5 451.25L1195.8 470.9C1195.8 473.6 1195.75 475 1195.65 475.1L1221.6 474.65C1224.5 474.95 1225.95 476.2 1225.95 478.4C1225.95 482.6 1224 484.7 1220.1 484.7L1190.7 485C1188.2 485 1186.65 484.05 1186.05 482.15C1185.45 480.25 1185.15 477.7 1185.15 474.5V449.6C1183.85 448.9 1183.2 447.8 1183.2 446.3C1183.2 445 1183.75 443.8 1184.85 442.7C1184.55 434.9 1184.4 427.8 1184.4 421.4C1184.4 417.7 1186.65 415.8 1191.15 415.7H1195.35L1221.6 416.15H1221.75C1224.95 416.65 1226.55 418.15 1226.55 420.65C1226.55 422.55 1225.95 423.9 1224.75 424.7C1222.15 426.1 1215.9 426.8 1206 426.8C1202.4 426.8 1198.7 426.65 1194.9 426.35C1194.9 435.75 1194.95 440.8 1195.05 441.5C1197.65 441.6 1205.3 441.65 1218 441.65C1221.1 442.05 1222.65 443.45 1222.65 445.85C1222.65 447.05 1222.15 448.2 1221.15 449.3C1220.15 450.4 1219.05 451.05 1217.85 451.25C1217.35 451.25 1216.55 451.3 1215.45 451.4C1214.35 451.4 1212.7 451.4 1210.5 451.4ZM1279.41 485.6C1277.41 485.6 1276.06 484.4 1275.36 482C1275.06 468.8 1274.91 455.65 1274.91 442.55L1274.46 404.75C1274.46 397.15 1277.81 391.95 1284.51 389.15C1289.81 386.65 1296.21 385.4 1303.71 385.4C1307.61 385.4 1311.66 386.35 1315.86 388.25C1320.26 390.05 1324.16 392.75 1327.56 396.35C1331.06 399.85 1332.81 403.7 1332.81 407.9C1333.01 411.8 1331.21 416.1 1327.41 420.8C1323.61 425.5 1318.81 429.8 1313.01 433.7C1307.31 437.6 1301.86 440.35 1296.66 441.95C1305.86 448.35 1313.96 455.35 1320.96 462.95C1327.86 470.25 1331.31 476 1331.31 480.2C1331.31 481.6 1330.61 482.85 1329.21 483.95C1327.91 485.05 1326.41 485.6 1324.71 485.6C1322.81 485.6 1321.21 484.8 1319.91 483.2C1317.81 478.1 1313.71 472.65 1307.61 466.85C1301.61 461.05 1294.36 455.35 1285.86 449.75L1286.76 478.55C1286.76 480.25 1285.96 481.85 1284.36 483.35C1282.76 484.85 1281.11 485.6 1279.41 485.6ZM1299.96 397.55C1294.46 397.55 1289.91 398.25 1286.31 399.65C1286.21 403.05 1286.16 414.35 1286.16 433.55C1292.86 433.25 1300.36 430.45 1308.66 425.15C1317.06 419.85 1321.26 415.1 1321.26 410.9C1321.26 406.5 1319.16 403.2 1314.96 401C1310.66 398.7 1305.66 397.55 1299.96 397.55ZM1370.17 451.4L1355.17 451.25L1355.47 470.9C1355.47 473.6 1355.42 475 1355.32 475.1L1381.27 474.65C1384.17 474.95 1385.62 476.2 1385.62 478.4C1385.62 482.6 1383.67 484.7 1379.77 484.7L1350.37 485C1347.87 485 1346.32 484.05 1345.72 482.15C1345.12 480.25 1344.82 477.7 1344.82 474.5V449.6C1343.52 448.9 1342.87 447.8 1342.87 446.3C1342.87 445 1343.42 443.8 1344.52 442.7C1344.22 434.9 1344.07 427.8 1344.07 421.4C1344.07 417.7 1346.32 415.8 1350.82 415.7H1355.02L1381.27 416.15H1381.42C1384.62 416.65 1386.22 418.15 1386.22 420.65C1386.22 422.55 1385.62 423.9 1384.42 424.7C1381.82 426.1 1375.57 426.8 1365.67 426.8C1362.07 426.8 1358.37 426.65 1354.57 426.35C1354.57 435.75 1354.62 440.8 1354.72 441.5C1357.32 441.6 1364.97 441.65 1377.67 441.65C1380.77 442.05 1382.32 443.45 1382.32 445.85C1382.32 447.05 1381.82 448.2 1380.82 449.3C1379.82 450.4 1378.72 451.05 1377.52 451.25C1377.02 451.25 1376.22 451.3 1375.12 451.4C1374.02 451.4 1372.37 451.4 1370.17 451.4ZM1409.15 426.05C1415.65 419.25 1423.7 415.85 1433.3 415.85C1437.5 415.85 1441.4 416.75 1445 418.55C1448.6 420.35 1450.4 422.55 1450.4 425.15C1450.4 426.55 1449.85 427.75 1448.75 428.75C1447.65 429.75 1446.35 430.25 1444.85 430.25C1444.15 430.25 1442.8 429.85 1440.8 429.05C1437.6 427.55 1434.75 426.8 1432.25 426.8C1425.95 426.8 1420.75 429.45 1416.65 434.75C1412.65 439.95 1410.65 445.8 1410.65 452.3C1410.65 458.7 1412.05 464.05 1414.85 468.35C1417.75 472.75 1421 474.95 1424.6 474.95C1428.3 474.95 1431.3 474 1433.6 472.1C1436 470.1 1437.2 467.6 1437.2 464.6C1437.2 459.4 1436.25 456.8 1434.35 456.8C1430.05 456.8 1427.1 456.5 1425.5 455.9C1424 455.3 1423.25 454.1 1423.25 452.3C1423.25 448.7 1424.85 446.75 1428.05 446.45L1432.25 446.3C1435.45 446.3 1438.1 446.7 1440.2 447.5C1443.3 448.7 1445.25 450.6 1446.05 453.2C1447.55 459.3 1448.3 465.1 1448.3 470.6V474.05C1448.3 477.35 1448.1 479.95 1447.7 481.85C1447.5 483.15 1447.05 484.05 1446.35 484.55C1445.75 485.05 1444.65 485.3 1443.05 485.3C1441.55 485.3 1440.4 485 1439.6 484.4C1438.8 483.7 1438.25 482.5 1437.95 480.8C1433.15 483.9 1428.45 485.45 1423.85 485.45C1419.15 485.45 1414.85 483.8 1410.95 480.5C1407.25 477.2 1404.4 473.1 1402.4 468.2C1400.5 463.2 1399.55 458.1 1399.55 452.9C1399.55 441.7 1402.75 432.75 1409.15 426.05ZM1470.49 483.5C1469.09 484.5 1467.64 485 1466.14 485C1463.34 485 1461.94 483.8 1461.94 481.4L1462.54 420.35C1462.54 418.95 1462.99 417.85 1463.89 417.05C1464.89 416.15 1466.14 415.7 1467.64 415.7C1469.14 415.7 1470.39 416.05 1471.39 416.75C1472.49 417.55 1473.09 418.75 1473.19 420.35C1473.29 421.45 1473.34 425.1 1473.34 431.3C1473.34 458.6 1473.14 474.85 1472.74 480.05C1472.64 481.25 1471.89 482.4 1470.49 483.5ZM1526.05 418.25C1529.75 419.95 1531.6 422.25 1531.6 425.15C1531.6 426.45 1531.15 427.55 1530.25 428.45C1529.45 429.25 1528.6 429.65 1527.7 429.65C1526.1 429.65 1523.55 428.85 1520.05 427.25C1516.75 425.65 1513.55 424.85 1510.45 424.85C1507.55 424.85 1504.55 425.65 1501.45 427.25C1498.35 428.75 1496.8 430.65 1496.8 432.95C1496.8 435.25 1498.7 437.3 1502.5 439.1C1506 440.8 1510.5 442.35 1516 443.75C1521.4 445.15 1524.85 446.45 1526.35 447.65C1527.85 448.65 1529.1 449.65 1530.1 450.65C1531 451.45 1531.8 453 1532.5 455.3C1533.3 457.5 1533.7 460.15 1533.7 463.25C1533.7 470.55 1531.3 476 1526.5 479.6C1521.8 483.1 1516.15 484.85 1509.55 484.85C1503.05 484.85 1497.45 483.8 1492.75 481.7C1488.05 479.6 1485.7 477 1485.7 473.9C1485.7 472.5 1486.2 471.25 1487.2 470.15C1488.2 468.95 1489.35 468.35 1490.65 468.35C1490.95 468.35 1491.4 468.45 1492 468.65C1501.3 472.35 1507.2 474.2 1509.7 474.2C1513.9 474.2 1517.15 473.15 1519.45 471.05C1521.85 468.95 1523.05 466.2 1523.05 462.8C1523.05 460.1 1522.2 457.95 1520.5 456.35C1518.8 454.75 1516.7 453.55 1514.2 452.75C1511.8 451.85 1508.5 450.95 1504.3 450.05L1498.75 448.7C1494.95 447.6 1491.85 445.85 1489.45 443.45C1486.85 440.85 1485.55 437.25 1485.55 432.65C1485.55 427.95 1487.95 423.95 1492.75 420.65C1497.45 417.25 1503.3 415.55 1510.3 415.55C1517.1 415.55 1522.35 416.45 1526.05 418.25ZM1599.61 419C1599.61 423.1 1594.91 425.15 1585.51 425.15L1575.61 424.85L1575.31 460.4L1575.46 471.65C1575.56 473.65 1575.61 476.45 1575.61 480.05C1575.61 481.45 1574.96 482.65 1573.66 483.65C1572.46 484.55 1571.11 485 1569.61 485C1567.01 485 1565.71 483.6 1565.71 480.8C1565.41 470.9 1565.26 461.35 1565.26 452.15C1565.26 441.15 1565.56 432.2 1566.16 425.3C1559.46 425.8 1553.36 426.05 1547.86 426.05C1544.76 426.05 1543.21 424.75 1543.21 422.15C1543.21 420.95 1543.76 419.75 1544.86 418.55C1546.06 417.35 1547.36 416.7 1548.76 416.6L1595.56 415.1C1598.26 415.7 1599.61 417 1599.61 419ZM1620.71 461.45C1620.81 464.35 1621.01 470.3 1621.31 479.3V479.45C1621.31 480.95 1620.61 482.25 1619.21 483.35C1617.81 484.45 1616.26 485 1614.56 485C1612.36 485 1611.26 484 1611.26 482C1610.86 477.9 1610.66 459.25 1610.66 426.05C1610.66 422.85 1612.56 420.35 1616.36 418.55C1620.16 416.75 1625.31 415.85 1631.81 415.85C1638.21 415.85 1643.86 417.45 1648.76 420.65C1653.66 423.75 1656.11 427.6 1656.11 432.2C1656.11 434.3 1655.16 436.7 1653.26 439.4C1651.46 442.1 1649.41 444.3 1647.11 446C1645.11 447.4 1642.06 449.25 1637.96 451.55C1633.86 453.85 1631.41 455.05 1630.61 455.15C1636.71 459.05 1642.31 463.4 1647.41 468.2C1652.31 473 1654.76 476.95 1654.76 480.05C1654.76 482.25 1653.56 483.75 1651.16 484.55C1650.26 484.85 1649.61 485 1649.21 485C1647.71 485 1646.06 483.9 1644.26 481.7C1642.96 480 1639.76 476.9 1634.66 472.4C1629.46 467.9 1624.81 464.25 1620.71 461.45ZM1620.86 427.4C1620.76 430.6 1620.71 437.5 1620.71 448.1C1623.91 448.1 1628.86 446.5 1635.56 443.3C1642.16 440 1645.61 436.95 1645.91 434.15C1645.91 431.65 1644.46 429.7 1641.56 428.3C1638.76 426.8 1635.56 426.05 1631.96 426.05C1628.16 426.05 1624.46 426.5 1620.86 427.4ZM1685.72 458.15C1682.82 468.75 1681.12 476.35 1680.62 480.95C1680.22 483.45 1678.42 484.7 1675.22 484.7C1672.12 484.7 1670.57 483.4 1670.57 480.8C1670.57 474.8 1673.47 462.8 1679.27 444.8C1681.67 436.9 1684.57 430 1687.97 424.1C1691.07 418.6 1694.17 415.85 1697.27 415.85C1698.87 415.85 1700.27 416.8 1701.47 418.7C1702.47 420.3 1704.62 424.65 1707.92 431.75C1711.22 438.95 1713.87 446.1 1715.87 453.2C1717.77 459.9 1720.07 469.1 1722.77 480.8C1722.77 482 1722.32 483 1721.42 483.8C1720.52 484.6 1719.42 485 1718.12 485C1714.82 485 1712.82 483.6 1712.12 480.8L1706.87 460.25C1698.17 460.25 1691.12 459.55 1685.72 458.15ZM1704.32 450.2C1702.22 442.6 1699.72 435.75 1696.82 429.65C1693.52 435.15 1690.82 441.4 1688.72 448.4C1693.12 449.6 1698.32 450.2 1704.32 450.2ZM1790.19 419C1790.19 423.1 1785.49 425.15 1776.09 425.15L1766.19 424.85L1765.89 460.4L1766.04 471.65C1766.14 473.65 1766.19 476.45 1766.19 480.05C1766.19 481.45 1765.54 482.65 1764.24 483.65C1763.04 484.55 1761.69 485 1760.19 485C1757.59 485 1756.29 483.6 1756.29 480.8C1755.99 470.9 1755.84 461.35 1755.84 452.15C1755.84 441.15 1756.14 432.2 1756.74 425.3C1750.04 425.8 1743.94 426.05 1738.44 426.05C1735.34 426.05 1733.79 424.75 1733.79 422.15C1733.79 420.95 1734.34 419.75 1735.44 418.55C1736.64 417.35 1737.94 416.7 1739.34 416.6L1786.14 415.1C1788.84 415.7 1790.19 417 1790.19 419ZM1808.14 483.5C1806.74 484.5 1805.29 485 1803.79 485C1800.99 485 1799.59 483.8 1799.59 481.4L1800.19 420.35C1800.19 418.95 1800.64 417.85 1801.54 417.05C1802.54 416.15 1803.79 415.7 1805.29 415.7C1806.79 415.7 1808.04 416.05 1809.04 416.75C1810.14 417.55 1810.74 418.75 1810.84 420.35C1810.94 421.45 1810.99 425.1 1810.99 431.3C1810.99 458.6 1810.79 474.85 1810.39 480.05C1810.29 481.25 1809.54 482.4 1808.14 483.5ZM1830.4 424.4C1835.8 419.1 1843.25 416.45 1852.75 416.45C1860.25 416.45 1866.25 419.35 1870.75 425.15C1875.25 430.85 1877.5 438.6 1877.5 448.4C1877.5 458.2 1875 466.75 1870 474.05C1865.1 481.25 1858.75 484.85 1850.95 484.85C1842.55 484.85 1835.7 481.25 1830.4 474.05C1825.1 466.75 1822.45 457.95 1822.45 447.65C1822.45 437.45 1825.1 429.7 1830.4 424.4ZM1837.9 465.5C1841.4 471.1 1846.1 473.9 1852 473.9C1855.4 473.9 1858.3 472.45 1860.7 469.55C1864.7 464.65 1866.7 458.15 1866.7 450.05C1866.7 441.85 1865.5 435.95 1863.1 432.35C1860.8 428.65 1856.8 426.8 1851.1 426.8C1845.3 426.8 1840.8 428.6 1837.6 432.2C1834.4 435.7 1832.8 440.75 1832.8 447.35C1832.8 453.95 1834.5 460 1837.9 465.5ZM1925.83 473.9C1918.23 459.5 1910.28 447.6 1901.98 438.2L1900.33 474.65L1900.18 477.95C1900.18 479.65 1900.13 480.7 1900.03 481.1C1899.63 483.8 1897.88 485.15 1894.78 485.15C1893.58 485.15 1892.48 484.75 1891.48 483.95C1890.58 483.05 1890.08 481.95 1889.98 480.65L1891.18 438.65V433.7C1891.18 430 1891.43 427.1 1891.93 425C1892.73 422.3 1894.53 420.95 1897.33 420.95C1898.83 420.95 1900.63 421.95 1902.73 423.95C1904.83 425.85 1907.83 429.3 1911.73 434.3C1921.13 445.9 1928.33 456.95 1933.33 467.45C1933.23 455.15 1932.88 444.35 1932.28 435.05L1931.53 422.75V421.55C1932.33 417.75 1934.38 415.85 1937.68 415.85C1938.98 415.85 1940.18 416.45 1941.28 417.65C1942.38 418.75 1942.93 420.15 1942.93 421.85L1943.68 477.65C1943.68 482.85 1941.58 485.45 1937.38 485.45C1934.88 485.45 1932.93 484.6 1931.53 482.9C1929.83 480.8 1928.53 478.9 1927.63 477.2C1926.73 475.5 1926.13 474.4 1925.83 473.9ZM2000.21 392.3C2006.71 387.9 2015.06 385.7 2025.26 385.7C2031.86 385.7 2037.36 386.8 2041.76 389C2046.36 391.2 2048.66 394 2048.66 397.4C2048.66 398.9 2048.26 400.2 2047.46 401.3C2046.66 402.4 2045.56 402.95 2044.16 402.95C2042.66 402.95 2039.56 401.85 2034.86 399.65C2029.96 397.35 2025.56 396.2 2021.66 396.2C2017.66 396.2 2013.61 397.45 2009.51 399.95C2005.31 402.45 2003.21 405.5 2003.21 409.1C2003.21 414 2005.76 417.6 2010.86 419.9C2014.96 421.7 2020.41 423.25 2027.21 424.55C2043.31 427.45 2051.36 436.45 2051.36 451.55C2051.36 464.25 2047.51 473.7 2039.81 479.9C2035.51 483.3 2029.41 485 2021.51 485C2013.61 485 2005.81 482.85 1998.11 478.55C1993.01 475.85 1990.46 473.15 1990.46 470.45C1990.46 469.45 1990.91 468.35 1991.81 467.15C1992.71 465.95 1993.86 464.95 1995.26 464.15C1996.06 463.75 1996.86 463.55 1997.66 463.55C1998.46 463.55 1999.01 463.65 1999.31 463.85C1999.61 463.95 2001.66 464.9 2005.46 466.7C2009.26 468.5 2011.31 469.45 2011.61 469.55C2015.71 471.15 2019.66 471.95 2023.46 471.95C2027.16 471.95 2030.71 470.15 2034.11 466.55C2037.61 462.75 2039.36 458.25 2039.36 453.05C2039.36 446.05 2035.86 441.15 2028.86 438.35C2025.36 436.95 2021.51 435.9 2017.31 435.2C2008.11 433.6 2001.31 430.9 1996.91 427.1C1992.61 423.2 1990.46 417.55 1990.46 410.15C1990.46 402.65 1993.71 396.7 2000.21 392.3ZM2098.61 416C2099.41 415.5 2100.06 415.25 2100.56 415.25C2103.16 415.55 2104.46 416.75 2104.46 418.85C2104.46 421.35 2103.11 424.8 2100.41 429.2L2096.51 435.2L2092.91 440.6L2090.81 443.75C2089.11 445.95 2087.56 448.25 2086.16 450.65V463.7C2086.16 472.7 2085.86 478.5 2085.26 481.1C2084.66 483.7 2082.81 485 2079.71 485C2078.81 485 2078.16 484.8 2077.76 484.4C2076.66 483.3 2076.11 480 2076.11 474.5L2076.26 458.3C2076.26 455.7 2076.11 453.05 2075.81 450.35C2071.51 444.75 2065.91 435.65 2059.01 423.05C2058.71 422.55 2058.56 422 2058.56 421.4C2058.56 420.7 2058.86 419.9 2059.46 419C2060.86 416.9 2062.56 415.85 2064.56 415.85C2065.96 415.85 2069.61 420.9 2075.51 431C2077.91 435.2 2079.86 438.4 2081.36 440.6L2087.06 431.9L2091.71 424.4C2094.81 419.6 2097.11 416.8 2098.61 416ZM2157.69 418.25C2161.39 419.95 2163.24 422.25 2163.24 425.15C2163.24 426.45 2162.79 427.55 2161.89 428.45C2161.09 429.25 2160.24 429.65 2159.34 429.65C2157.74 429.65 2155.19 428.85 2151.69 427.25C2148.39 425.65 2145.19 424.85 2142.09 424.85C2139.19 424.85 2136.19 425.65 2133.09 427.25C2129.99 428.75 2128.44 430.65 2128.44 432.95C2128.44 435.25 2130.34 437.3 2134.14 439.1C2137.64 440.8 2142.14 442.35 2147.64 443.75C2153.04 445.15 2156.49 446.45 2157.99 447.65C2159.49 448.65 2160.74 449.65 2161.74 450.65C2162.64 451.45 2163.44 453 2164.14 455.3C2164.94 457.5 2165.34 460.15 2165.34 463.25C2165.34 470.55 2162.94 476 2158.14 479.6C2153.44 483.1 2147.79 484.85 2141.19 484.85C2134.69 484.85 2129.09 483.8 2124.39 481.7C2119.69 479.6 2117.34 477 2117.34 473.9C2117.34 472.5 2117.84 471.25 2118.84 470.15C2119.84 468.95 2120.99 468.35 2122.29 468.35C2122.59 468.35 2123.04 468.45 2123.64 468.65C2132.94 472.35 2138.84 474.2 2141.34 474.2C2145.54 474.2 2148.79 473.15 2151.09 471.05C2153.49 468.95 2154.69 466.2 2154.69 462.8C2154.69 460.1 2153.84 457.95 2152.14 456.35C2150.44 454.75 2148.34 453.55 2145.84 452.75C2143.44 451.85 2140.14 450.95 2135.94 450.05L2130.39 448.7C2126.59 447.6 2123.49 445.85 2121.09 443.45C2118.49 440.85 2117.19 437.25 2117.19 432.65C2117.19 427.95 2119.59 423.95 2124.39 420.65C2129.09 417.25 2134.94 415.55 2141.94 415.55C2148.74 415.55 2153.99 416.45 2157.69 418.25ZM2231.25 419C2231.25 423.1 2226.55 425.15 2217.15 425.15L2207.25 424.85L2206.95 460.4L2207.1 471.65C2207.2 473.65 2207.25 476.45 2207.25 480.05C2207.25 481.45 2206.6 482.65 2205.3 483.65C2204.1 484.55 2202.75 485 2201.25 485C2198.65 485 2197.35 483.6 2197.35 480.8C2197.05 470.9 2196.9 461.35 2196.9 452.15C2196.9 441.15 2197.2 432.2 2197.8 425.3C2191.1 425.8 2185 426.05 2179.5 426.05C2176.4 426.05 2174.85 424.75 2174.85 422.15C2174.85 420.95 2175.4 419.75 2176.5 418.55C2177.7 417.35 2179 416.7 2180.4 416.6L2227.2 415.1C2229.9 415.7 2231.25 417 2231.25 419ZM2268.85 451.4L2253.85 451.25L2254.15 470.9C2254.15 473.6 2254.1 475 2254 475.1L2279.95 474.65C2282.85 474.95 2284.3 476.2 2284.3 478.4C2284.3 482.6 2282.35 484.7 2278.45 484.7L2249.05 485C2246.55 485 2245 484.05 2244.4 482.15C2243.8 480.25 2243.5 477.7 2243.5 474.5V449.6C2242.2 448.9 2241.55 447.8 2241.55 446.3C2241.55 445 2242.1 443.8 2243.2 442.7C2242.9 434.9 2242.75 427.8 2242.75 421.4C2242.75 417.7 2245 415.8 2249.5 415.7H2253.7L2279.95 416.15H2280.1C2283.3 416.65 2284.9 418.15 2284.9 420.65C2284.9 422.55 2284.3 423.9 2283.1 424.7C2280.5 426.1 2274.25 426.8 2264.35 426.8C2260.75 426.8 2257.05 426.65 2253.25 426.35C2253.25 435.75 2253.3 440.8 2253.4 441.5C2256 441.6 2263.65 441.65 2276.35 441.65C2279.45 442.05 2281 443.45 2281 445.85C2281 447.05 2280.5 448.2 2279.5 449.3C2278.5 450.4 2277.4 451.05 2276.2 451.25C2275.7 451.25 2274.9 451.3 2273.8 451.4C2272.7 451.4 2271.05 451.4 2268.85 451.4ZM2350.59 413.6C2351.89 412.7 2353.24 412.25 2354.64 412.25C2357.54 412.25 2358.99 413.65 2358.99 416.45C2359.29 434.25 2359.44 455 2359.44 478.7C2359.44 480.2 2358.84 481.65 2357.64 483.05C2356.64 484.35 2354.84 485 2352.24 485C2349.74 485 2348.49 483.35 2348.49 480.05C2348.49 471.15 2348.39 463.3 2348.19 456.5C2348.09 453 2348.04 447.4 2348.04 439.7C2344.34 444.2 2340.74 447.35 2337.24 449.15C2333.84 450.95 2329.29 451.85 2323.59 451.85C2317.79 451.85 2313.34 450.3 2310.24 447.2C2310.24 464 2310.14 474.5 2309.94 478.7C2309.84 482.9 2307.49 485 2302.89 485C2300.19 485 2298.84 483.55 2298.84 480.65L2299.29 452.9V423.35C2299.29 421.85 2299.84 420.5 2300.94 419.3C2302.04 418 2303.29 417.35 2304.69 417.35C2306.29 417.35 2307.64 417.7 2308.74 418.4C2309.84 419.1 2310.44 420.05 2310.54 421.25C2310.64 426.25 2312.09 430.8 2314.89 434.9C2317.69 438.9 2320.84 440.9 2324.34 440.9C2334.44 440.9 2341.44 435.45 2345.34 424.55L2346.54 420.65C2347.44 418.05 2347.99 416.6 2348.19 416.3C2348.59 415.3 2349.39 414.4 2350.59 413.6Z" fill="#F51F27"/>
<defs>
<clipPath id="clip0_453_107">
<rect width="1965" height="404" fill="white"/>
</clipPath>
</defs>
</svg>
