<svg width="852" height="292" viewBox="0 0 852 292" fill="none" xmlns="http://www.w3.org/2000/svg">
<rect width="852" height="292" rx="63" fill="#D9D9D9" fill-opacity="0.1"/>
<path d="M193.492 170.641C192.711 179.365 190.107 187.177 185.68 194.078C181.253 200.979 175.589 206.773 168.688 211.461C161.917 216.279 154.234 219.924 145.641 222.398C137.047 224.872 128.193 226.109 119.078 226.109C115.693 226.109 112.503 225.849 109.508 225.328C106.643 224.938 104.039 224.417 101.695 223.766C99.3516 223.115 97.3333 222.464 95.6406 221.812C94.0781 221.292 92.9714 220.836 92.3203 220.445C91.1484 219.794 90.1719 218.948 89.3906 217.906C88.7396 216.995 88.349 215.628 88.2188 213.805C88.0885 212.763 88.0234 211.917 88.0234 211.266C88.0234 210.745 88.0885 210.159 88.2188 209.508C88.349 208.857 88.6094 207.945 89 206.773C89.2604 205.732 89.651 204.234 90.1719 202.281C90.4323 201.109 91.4089 197.398 93.1016 191.148C94.9245 185.029 97.0729 177.542 99.5469 168.688C102.021 159.703 104.69 150.003 107.555 139.586C110.549 129.169 113.414 119.078 116.148 109.312C118.883 99.5469 121.357 90.7578 123.57 82.9453C125.784 75.0026 127.411 69.1432 128.453 65.3672C126.63 66.6693 124.807 68.0365 122.984 69.4688C121.292 70.901 119.534 72.4635 117.711 74.1562C115.758 75.9792 113.805 76.6302 111.852 76.1094C110.029 75.4583 108.727 73.8307 107.945 71.2266C107.685 69.9245 107.49 68.5573 107.359 67.125C107.229 65.9531 107.229 64.651 107.359 63.2188C107.62 61.6562 108.141 60.1589 108.922 58.7266C113.219 56.1224 117.385 53.9089 121.422 52.0859C125.589 50.263 129.56 48.6354 133.336 47.2031C134.117 44.9896 134.964 43.2969 135.875 42.125C136.917 40.9531 137.958 40.1719 139 39.7812C140.042 39.3906 141.148 39.2604 142.32 39.3906C143.492 39.5208 144.729 39.7161 146.031 39.9766C148.896 40.6276 150.784 41.5391 151.695 42.7109C153.518 42.4505 155.276 42.2552 156.969 42.125C158.661 41.9948 160.419 41.9297 162.242 41.9297C169.794 41.9297 176.37 42.9062 181.969 44.8594C187.568 46.8125 192.125 49.4818 195.641 52.8672C199.286 56.1224 201.891 59.9635 203.453 64.3906C205.016 68.8177 205.602 73.5052 205.211 78.4531C204.82 82.75 203.648 87.2422 201.695 91.9297C199.872 96.487 197.398 101.044 194.273 105.602C191.148 110.029 187.503 114.391 183.336 118.688C179.169 122.854 174.547 126.695 169.469 130.211C173.505 132.555 177.086 135.289 180.211 138.414C183.336 141.539 185.94 144.924 188.023 148.57C190.107 152.216 191.604 155.927 192.516 159.703C193.427 163.479 193.753 167.125 193.492 170.641ZM128.844 122.789C128.583 124.091 128.258 125.393 127.867 126.695C127.607 127.997 127.281 129.365 126.891 130.797C128.453 129.104 131.057 127.542 134.703 126.109C138.479 124.677 142.06 123.961 145.445 123.961C147.268 123.961 149.026 124.091 150.719 124.352C152.411 124.482 154.039 124.677 155.602 124.938C159.247 122.594 162.763 119.599 166.148 115.953C169.534 112.177 172.464 108.206 174.938 104.039C177.542 99.7422 179.625 95.3802 181.188 90.9531C182.88 86.526 183.922 82.4245 184.312 78.6484C185.094 69.6641 183.531 63.0234 179.625 58.7266C175.849 54.2995 170.445 52.0859 163.414 52.0859C158.727 52.0859 153.844 52.9323 148.766 54.625C147.724 58.0104 146.422 62.2422 144.859 67.3203C143.297 72.2682 141.604 77.737 139.781 83.7266C138.089 89.7161 136.266 96.0312 134.312 102.672C132.359 109.312 130.536 116.018 128.844 122.789ZM125.523 135.68C123.701 142.711 121.878 150.328 120.055 158.531C118.362 165.562 116.539 173.766 114.586 183.141C112.633 192.385 110.549 202.281 108.336 212.828C109.117 213.479 110.159 213.935 111.461 214.195C112.763 214.456 114.065 214.716 115.367 214.977C116.799 215.237 118.362 215.367 120.055 215.367C125.914 215.367 131.839 214.13 137.828 211.656C143.948 209.312 149.547 205.927 154.625 201.5C159.703 197.073 163.935 191.734 167.32 185.484C170.836 179.104 172.919 172.008 173.57 164.195C173.831 160.68 173.57 157.555 172.789 154.82C172.138 151.956 171.096 149.417 169.664 147.203C168.362 144.859 166.799 142.841 164.977 141.148C163.284 139.326 161.461 137.763 159.508 136.461C153.518 139.716 146.943 142.451 139.781 144.664C137.438 145.315 135.419 145.445 133.727 145.055C132.034 144.534 130.602 143.818 129.43 142.906C128.258 141.865 127.346 140.693 126.695 139.391C126.044 138.089 125.654 136.852 125.523 135.68ZM298.961 148.375C295.055 154.104 290.628 159.703 285.68 165.172C280.732 170.51 275.458 175.328 269.859 179.625C264.391 183.792 258.727 187.177 252.867 189.781C247.138 192.385 241.539 193.688 236.07 193.688C233.206 193.688 230.081 192.971 226.695 191.539C223.44 190.237 220.445 188.154 217.711 185.289C214.977 182.424 212.763 178.714 211.07 174.156C209.508 169.599 209.052 164.065 209.703 157.555C210.224 152.216 211.852 146.617 214.586 140.758C217.451 134.768 220.901 129.299 224.938 124.352C229.104 119.404 233.727 115.302 238.805 112.047C244.013 108.792 249.221 107.164 254.43 107.164C259.378 107.164 262.958 108.401 265.172 110.875C267.385 113.349 268.362 116.409 268.102 120.055C267.711 124.091 266.539 127.802 264.586 131.188C262.763 134.573 260.549 137.633 257.945 140.367C255.341 143.102 252.542 145.576 249.547 147.789C246.682 150.003 243.948 152.021 241.344 153.844C238.479 155.797 235.745 157.685 233.141 159.508C230.536 161.201 228.258 162.763 226.305 164.195C226.435 167.451 227.021 170.185 228.062 172.398C229.104 174.612 230.406 176.435 231.969 177.867C233.531 179.169 235.289 180.146 237.242 180.797C239.326 181.318 241.409 181.578 243.492 181.578C247.919 181.578 252.542 180.211 257.359 177.477C262.177 174.612 266.865 171.227 271.422 167.32C276.109 163.284 280.406 159.117 284.312 154.82C288.349 150.523 291.669 146.812 294.273 143.688C295.185 142.646 296.096 142.06 297.008 141.93C298.049 141.669 298.831 141.799 299.352 142.32C300.003 142.711 300.328 143.492 300.328 144.664C300.328 145.706 299.872 146.943 298.961 148.375ZM248.961 118.297C247.398 118.297 245.51 119.078 243.297 120.641C241.214 122.203 239.13 124.482 237.047 127.477C234.964 130.341 233.01 133.922 231.188 138.219C229.365 142.385 227.997 147.203 227.086 152.672C228.648 151.5 230.341 150.328 232.164 149.156C233.987 147.854 235.81 146.487 237.633 145.055C243.232 140.758 247.138 136.982 249.352 133.727C251.565 130.471 252.802 127.672 253.062 125.328C253.323 122.854 253.062 121.096 252.281 120.055C251.5 118.883 250.393 118.297 248.961 118.297ZM385.094 150.133C383.271 152.737 380.927 155.992 378.062 159.898C375.198 163.674 372.203 167.516 369.078 171.422C366.083 175.198 363.089 178.714 360.094 181.969C357.229 185.094 354.82 187.307 352.867 188.609C351.565 189.391 350.068 190.042 348.375 190.562C346.682 191.083 344.924 191.409 343.102 191.539C341.409 191.669 339.781 191.539 338.219 191.148C336.656 190.888 335.289 190.367 334.117 189.586C332.945 188.674 331.969 187.372 331.188 185.68C330.536 184.247 329.885 182.359 329.234 180.016C328.714 177.672 328.518 174.742 328.648 171.227C325.523 176.435 322.073 180.471 318.297 183.336C314.521 186.07 310.94 188.089 307.555 189.391C303.648 190.823 299.742 191.669 295.836 191.93C294.013 191.93 292.06 191.279 289.977 189.977C287.893 188.805 286.135 186.917 284.703 184.312C283.271 181.578 282.359 178.128 281.969 173.961C281.578 169.664 282.099 164.586 283.531 158.727C285.354 150.784 288.219 143.557 292.125 137.047C296.161 130.536 300.523 125.003 305.211 120.445C309.898 115.758 314.521 112.242 319.078 109.898C323.635 107.555 327.411 106.513 330.406 106.773C333.922 107.424 336.786 108.466 339 109.898C340.823 111.201 341.995 113.154 342.516 115.758C343.167 118.232 342.125 121.552 339.391 125.719C341.214 125.328 342.711 125.068 343.883 124.938C345.185 124.807 346.161 124.742 346.812 124.742C347.594 124.742 348.115 124.807 348.375 124.938C348.505 125.198 348.57 125.784 348.57 126.695C348.57 127.477 348.375 128.974 347.984 131.188C347.594 133.401 347.008 136.396 346.227 140.172C345.445 143.948 344.404 148.831 343.102 154.82C342.841 155.992 342.581 157.099 342.32 158.141C342.19 159.052 341.995 160.029 341.734 161.07C341.604 161.982 341.409 163.089 341.148 164.391C340.888 165.693 340.562 167.32 340.172 169.273C340.042 170.445 339.977 171.747 339.977 173.18C340.107 174.482 340.367 175.719 340.758 176.891C341.148 178.062 341.734 179.039 342.516 179.82C343.427 180.471 344.664 180.797 346.227 180.797C347.529 180.797 349.221 180.016 351.305 178.453C353.388 176.76 355.602 174.677 357.945 172.203C360.289 169.599 362.698 166.799 365.172 163.805C367.776 160.68 370.185 157.685 372.398 154.82C374.612 151.956 376.565 149.417 378.258 147.203C380.081 144.99 381.383 143.362 382.164 142.32C383.206 141.148 384.247 140.497 385.289 140.367C386.331 140.107 387.112 140.367 387.633 141.148C388.154 141.93 388.219 143.102 387.828 144.664C387.568 146.227 386.656 148.049 385.094 150.133ZM327.867 158.727C328.518 156.122 329.299 153.062 330.211 149.547C331.122 146.031 331.904 142.646 332.555 139.391C333.206 136.135 333.661 133.466 333.922 131.383C334.312 129.169 334.247 128.128 333.727 128.258C333.076 128.388 332.359 128.583 331.578 128.844C330.927 129.104 330.081 129.299 329.039 129.43C327.997 129.56 326.956 129.755 325.914 130.016C326.956 127.932 327.542 126.24 327.672 124.938C327.932 123.505 327.997 122.398 327.867 121.617C327.737 120.706 327.477 119.99 327.086 119.469C325.654 118.297 323.115 119.273 319.469 122.398C315.953 125.393 311.852 130.992 307.164 139.195C305.211 142.581 303.648 146.227 302.477 150.133C301.305 153.909 300.458 157.49 299.938 160.875C299.547 164.26 299.482 167.255 299.742 169.859C300.003 172.333 300.523 173.961 301.305 174.742C302.737 176.174 304.365 176.891 306.188 176.891C308.01 176.76 309.833 176.24 311.656 175.328C313.609 174.286 315.497 172.984 317.32 171.422C319.273 169.859 320.966 168.232 322.398 166.539C323.961 164.846 325.198 163.284 326.109 161.852C327.151 160.419 327.737 159.378 327.867 158.727ZM396.227 192.125C391.279 192.125 387.242 191.344 384.117 189.781C380.992 188.219 378.518 186.331 376.695 184.117C375.003 181.773 373.766 179.299 372.984 176.695C372.333 173.961 372.008 171.487 372.008 169.273C372.008 165.367 372.333 161.266 372.984 156.969C373.635 152.542 374.417 148.505 375.328 144.859C376.24 141.083 377.021 137.893 377.672 135.289C378.453 132.685 378.974 131.057 379.234 130.406C380.406 126.63 381.904 123.375 383.727 120.641C385.68 117.776 388.349 115.823 391.734 114.781C393.036 114.521 394.404 114.26 395.836 114C397.008 113.87 398.18 113.805 399.352 113.805C400.654 113.805 401.826 114 402.867 114.391C399.352 123.375 396.552 130.862 394.469 136.852C392.516 142.841 391.018 147.724 389.977 151.5C388.805 155.797 388.089 159.247 387.828 161.852C387.177 167.711 387.698 172.138 389.391 175.133C391.083 178.128 394.534 179.625 399.742 179.625C403.128 179.625 406.383 178.388 409.508 175.914C412.633 173.31 415.497 169.99 418.102 165.953C417.711 163.87 417.516 161.721 417.516 159.508C417.516 155.341 417.841 151.305 418.492 147.398C419.273 143.362 420.12 139.651 421.031 136.266C422.073 132.75 423.115 129.625 424.156 126.891C425.328 124.156 426.305 122.008 427.086 120.445C428.518 117.32 429.82 115.432 430.992 114.781C432.164 114 434.052 113.544 436.656 113.414C437.698 113.284 438.544 113.284 439.195 113.414C439.977 113.414 440.628 113.479 441.148 113.609C442.711 114 443.492 114.781 443.492 115.953C443.492 118.036 443.362 121.161 443.102 125.328C442.841 129.495 442.06 133.792 440.758 138.219C439.846 141.865 438.935 144.99 438.023 147.594C437.242 150.068 436.461 152.216 435.68 154.039C434.898 155.732 434.117 157.164 433.336 158.336C432.555 159.378 431.839 160.354 431.188 161.266C431.448 165.172 431.773 168.297 432.164 170.641C432.555 172.984 433.01 174.807 433.531 176.109C434.182 177.281 434.898 178.128 435.68 178.648C436.591 179.039 437.568 179.234 438.609 179.234C440.432 179.234 442.581 178.388 445.055 176.695C447.529 174.872 450.068 172.659 452.672 170.055C455.406 167.32 458.076 164.391 460.68 161.266C463.414 158.01 465.888 154.951 468.102 152.086C470.315 149.221 472.203 146.747 473.766 144.664C475.328 142.451 476.305 141.083 476.695 140.562C477.607 139.391 478.453 138.674 479.234 138.414C480.146 138.154 480.862 138.284 481.383 138.805C481.904 139.195 482.164 139.911 482.164 140.953C482.294 141.865 482.034 142.906 481.383 144.078C478.779 149.026 475.523 154.299 471.617 159.898C467.841 165.367 463.74 170.445 459.312 175.133C455.016 179.82 450.654 183.727 446.227 186.852C441.799 189.977 437.633 191.539 433.727 191.539C430.211 191.539 427.411 190.367 425.328 188.023C423.375 185.549 421.682 182.034 420.25 177.477C417.255 182.164 413.74 185.81 409.703 188.414C405.667 190.888 401.174 192.125 396.227 192.125ZM537.828 139.586C538.349 138.805 539 138.349 539.781 138.219C540.693 137.958 541.409 138.023 541.93 138.414C542.451 138.805 542.711 139.456 542.711 140.367C542.841 141.279 542.516 142.516 541.734 144.078C539.13 149.026 535.68 154.365 531.383 160.094C527.216 165.823 522.789 171.227 518.102 176.305C513.414 181.253 508.857 185.354 504.43 188.609C500.003 191.865 496.292 193.492 493.297 193.492C489 193.492 485.419 192.646 482.555 190.953C479.69 189.26 477.411 187.177 475.719 184.703C474.156 182.229 473.049 179.56 472.398 176.695C471.747 173.701 471.552 170.966 471.812 168.492C471.943 166.409 472.398 162.698 473.18 157.359C473.961 151.891 475.003 145.641 476.305 138.609C477.607 131.448 479.039 123.831 480.602 115.758C482.294 107.555 484.052 99.6771 485.875 92.125C483.661 92.3854 481.448 92.6458 479.234 92.9062C477.021 93.1667 475.003 93.2969 473.18 93.2969C469.013 93.2969 465.107 92.8411 461.461 91.9297C457.685 90.888 454.885 89.9115 453.062 89C452.021 88.4792 451.565 87.763 451.695 86.8516C451.826 85.8099 452.216 84.8333 452.867 83.9219C453.518 82.8802 454.365 82.0339 455.406 81.3828C456.318 80.6016 457.164 80.2109 457.945 80.2109C460.419 80.4714 463.089 80.7318 465.953 80.9922C468.818 81.1224 471.943 81.1224 475.328 80.9922C477.802 80.862 480.146 80.6667 482.359 80.4062C484.703 80.1458 486.982 79.8203 489.195 79.4297C490.888 73.1797 492.516 67.776 494.078 63.2188C495.771 58.5312 497.268 55.276 498.57 53.4531C498.961 52.8021 499.807 52.2812 501.109 51.8906C502.542 51.3698 504.039 51.0443 505.602 50.9141C507.164 50.6536 508.661 50.6536 510.094 50.9141C511.526 51.0443 512.568 51.5 513.219 52.2812C513.87 53.3229 514.13 55.9922 514 60.2891C513.87 64.5859 513.154 70.0547 511.852 76.6953C517.32 76.6953 522.138 77.0208 526.305 77.6719C530.602 78.1927 534.247 78.8438 537.242 79.625C540.237 80.276 542.646 80.9922 544.469 81.7734C546.292 82.4245 547.659 82.8802 548.57 83.1406C549.482 83.401 549.938 84.0521 549.938 85.0938C550.068 86.1354 549.872 87.2422 549.352 88.4141C548.961 89.4557 548.245 90.3672 547.203 91.1484C546.161 91.9297 544.99 92.1901 543.688 91.9297C542.385 91.7995 540.888 91.5391 539.195 91.1484C537.633 90.7578 535.68 90.4323 533.336 90.1719C531.122 89.9115 528.453 89.651 525.328 89.3906C522.203 89.1302 518.557 89 514.391 89C513.609 89 512.698 89.0651 511.656 89.1953C510.745 89.1953 509.768 89.1953 508.727 89.1953C508.206 91.2786 507.685 93.362 507.164 95.4453C506.773 97.3984 506.188 99.4818 505.406 101.695C503.714 106.904 501.76 112.568 499.547 118.688C497.594 124.026 495.25 130.146 492.516 137.047C489.781 143.948 486.721 151.305 483.336 159.117C482.555 164.716 482.62 169.013 483.531 172.008C484.573 174.872 485.81 176.956 487.242 178.258C488.935 179.69 491.018 180.471 493.492 180.602C495.445 180.862 497.789 180.211 500.523 178.648C503.388 176.956 506.318 174.742 509.312 172.008C512.307 169.273 515.302 166.279 518.297 163.023C521.422 159.768 524.286 156.578 526.891 153.453C529.495 150.328 531.773 147.529 533.727 145.055C535.68 142.451 537.047 140.628 537.828 139.586ZM577.477 117.125C579.169 115.823 580.797 114.846 582.359 114.195C584.052 113.414 585.549 112.893 586.852 112.633C588.284 112.242 589.716 112.112 591.148 112.242C594.664 112.503 596.812 113.609 597.594 115.562C598.505 117.516 598.635 120.641 597.984 124.938C597.594 127.151 596.812 129.951 595.641 133.336C594.469 136.721 593.102 140.888 591.539 145.836C589.977 150.654 588.284 156.188 586.461 162.438C584.768 168.688 583.141 175.719 581.578 183.531C580.016 189.911 578.323 197.268 576.5 205.602C574.938 212.893 573.049 221.682 570.836 231.969C568.753 242.255 566.474 254.039 564 267.32C563.349 270.576 561.917 272.464 559.703 272.984C557.62 273.505 555.406 273.245 553.062 272.203C552.151 271.682 551.305 271.096 550.523 270.445C549.872 269.794 549.156 269.013 548.375 268.102C547.594 267.32 546.943 266.214 546.422 264.781C549.417 253.844 552.021 243.883 554.234 234.898C556.578 225.914 558.661 218.102 560.484 211.461C562.438 203.779 564.26 196.878 565.953 190.758C566.604 188.023 567.19 185.354 567.711 182.75C568.362 180.016 569.013 177.346 569.664 174.742C567.971 177.477 566.148 180.081 564.195 182.555C562.242 185.029 560.094 187.177 557.75 189C555.406 190.823 552.867 192.19 550.133 193.102C547.529 194.143 544.794 194.469 541.93 194.078C534.898 193.167 529.885 190.562 526.891 186.266C524.026 181.969 522.789 176.37 523.18 169.469C523.31 166.734 523.701 163.74 524.352 160.484C525.003 157.229 525.719 154.104 526.5 151.109C527.281 148.115 527.997 145.445 528.648 143.102C529.43 140.628 530.016 138.87 530.406 137.828C531.969 132.88 533.076 128.648 533.727 125.133C534.508 121.617 533.987 118.688 532.164 116.344C533.987 115.172 535.68 114.391 537.242 114C538.935 113.479 540.432 113.089 541.734 112.828C543.167 112.698 544.599 112.698 546.031 112.828C549.547 113.349 551.565 114.651 552.086 116.734C552.737 118.818 552.542 121.943 551.5 126.109C550.979 128.323 550.133 131.188 548.961 134.703C547.789 138.089 546.552 141.604 545.25 145.25C543.948 148.896 542.776 152.281 541.734 155.406C540.693 158.401 540.107 160.549 539.977 161.852C538.805 167.711 538.74 172.268 539.781 175.523C540.823 178.648 543.102 180.211 546.617 180.211C548.31 180.211 550.198 179.495 552.281 178.062C554.365 176.5 556.448 174.482 558.531 172.008C560.745 169.534 562.893 166.734 564.977 163.609C567.06 160.354 568.948 157.099 570.641 153.844C572.464 150.589 574.026 147.398 575.328 144.273C576.76 141.148 577.802 138.349 578.453 135.875C579.365 131.057 579.951 127.281 580.211 124.547C580.471 121.812 579.56 119.339 577.477 117.125ZM691.93 41.9297C696.487 41.9297 700.198 43.2318 703.062 45.8359C706.057 48.3099 707.359 52.8672 706.969 59.5078C706.839 61.7214 706.318 65.888 705.406 72.0078C704.495 77.9974 703.388 85.0938 702.086 93.2969C700.784 101.5 699.286 110.354 697.594 119.859C696.031 129.234 694.534 138.414 693.102 147.398H697.203C698.505 147.398 699.938 147.333 701.5 147.203C703.062 147.073 704.69 146.878 706.383 146.617C705.732 148.18 705.016 149.677 704.234 151.109C703.453 152.411 702.672 153.583 701.891 154.625C700.979 155.797 700.068 156.839 699.156 157.75C697.984 159.182 696.617 160.484 695.055 161.656C693.492 162.698 691.995 163.544 690.562 164.195C689.651 170.576 688.87 176.305 688.219 181.383C687.698 186.331 687.372 190.432 687.242 193.688C686.982 198.635 687.112 203.258 687.633 207.555C688.023 211.331 688.805 215.172 689.977 219.078C691.148 222.984 693.036 226.109 695.641 228.453L672.984 235.875C671.422 233.661 670.25 230.667 669.469 226.891C668.818 223.245 668.362 219.599 668.102 215.953C667.711 211.656 667.646 207.229 667.906 202.672C668.167 198.115 668.883 192.19 670.055 184.898C671.227 177.477 672.529 169.404 673.961 160.68C671.357 159.898 668.492 159.247 665.367 158.727C662.372 158.206 658.987 157.945 655.211 157.945C651.826 157.945 648.245 158.076 644.469 158.336C640.823 158.596 637.177 158.922 633.531 159.312C631.969 165.042 630.406 171.096 628.844 177.477C627.151 184.378 625.589 190.237 624.156 195.055C622.854 200.003 621.552 204.104 620.25 207.359C619.078 210.615 617.841 213.219 616.539 215.172C615.367 217.125 614.065 218.557 612.633 219.469C611.07 220.25 609.117 220.966 606.773 221.617C604.56 222.268 601.76 222.919 598.375 223.57C594.99 224.221 590.628 224.742 585.289 225.133C587.242 222.789 588.935 220.641 590.367 218.688C591.799 216.734 593.232 214.326 594.664 211.461C596.096 208.596 597.724 204.885 599.547 200.328C601.24 195.901 603.453 190.042 606.188 182.75C607.359 179.755 608.531 176.5 609.703 172.984C611.005 169.339 612.372 165.628 613.805 161.852C609.117 162.503 605.146 163.089 601.891 163.609C598.635 164.13 596.682 164.521 596.031 164.781C594.99 164.911 594.143 164.911 593.492 164.781C591.799 164.521 590.888 163.674 590.758 162.242C590.888 160.419 591.539 159.182 592.711 158.531C593.753 157.88 595.38 157.099 597.594 156.188C598.635 155.667 601.044 154.755 604.82 153.453C608.466 152.021 612.958 150.523 618.297 148.961C620.25 143.492 622.138 138.089 623.961 132.75C625.914 127.281 627.802 122.073 629.625 117.125C631.448 112.177 633.206 107.555 634.898 103.258C636.591 98.8307 638.154 95.0547 639.586 91.9297C641.799 87.112 644.599 81.8385 647.984 76.1094C651.5 70.25 655.471 64.7812 659.898 59.7031C664.456 54.625 669.404 50.3932 674.742 47.0078C680.211 43.6224 685.94 41.9297 691.93 41.9297ZM689.781 82.5547C691.214 76.6953 692.19 71.8776 692.711 68.1016C693.232 64.3255 693.427 61.3958 693.297 59.3125C693.167 57.099 692.711 55.6016 691.93 54.8203C691.279 53.9089 690.432 53.4531 689.391 53.4531C687.698 53.4531 685.615 54.1042 683.141 55.4062C680.667 56.7083 678.062 58.5964 675.328 61.0703C672.594 63.4141 669.859 66.4089 667.125 70.0547C664.521 73.5703 662.177 77.6068 660.094 82.1641C657.099 88.9349 653.714 97.2682 649.938 107.164C646.161 116.93 642.06 129.43 637.633 144.664C640.237 144.273 642.776 143.948 645.25 143.688C647.854 143.427 650.393 143.297 652.867 143.297C657.294 143.297 661.526 143.492 665.562 143.883C669.599 144.143 673.31 144.469 676.695 144.859C677.867 138.609 679.039 132.49 680.211 126.5C681.513 120.38 682.75 114.586 683.922 109.117C685.094 103.648 686.135 98.6354 687.047 94.0781C688.089 89.5208 689 85.6797 689.781 82.5547ZM760.875 73.9609C760.484 75.3932 759.703 76.8255 758.531 78.2578C757.49 79.5599 756.253 80.6667 754.82 81.5781C753.518 82.3594 752.151 82.8802 750.719 83.1406C749.286 83.401 748.115 83.1406 747.203 82.3594C744.469 80.276 743.036 78.0625 742.906 75.7188C742.776 73.2448 743.362 70.9661 744.664 68.8828C745.966 66.6693 747.594 64.8464 749.547 63.4141C751.5 61.8516 753.193 60.9401 754.625 60.6797C756.057 60.4193 757.229 60.7448 758.141 61.6562C759.182 62.4375 759.964 63.5443 760.484 64.9766C761.005 66.2786 761.266 67.776 761.266 69.4688C761.396 71.1615 761.266 72.6589 760.875 73.9609ZM733.922 115.562C734.573 114.781 735.81 114.13 737.633 113.609C739.456 113.089 741.344 112.698 743.297 112.438C745.25 112.047 747.008 111.852 748.57 111.852C750.263 111.721 751.24 111.721 751.5 111.852C751.63 111.982 751.305 113.349 750.523 115.953C749.742 118.557 748.766 121.617 747.594 125.133C746.422 128.648 745.185 132.294 743.883 136.07C742.581 139.716 741.604 142.711 740.953 145.055C740.302 147.398 739.521 150.068 738.609 153.062C737.698 155.927 736.852 158.792 736.07 161.656C735.419 164.391 734.964 166.995 734.703 169.469C734.443 171.943 734.638 173.831 735.289 175.133C735.94 176.695 736.656 177.802 737.438 178.453C738.219 178.974 739.065 179.234 739.977 179.234C742.581 179.234 745.836 177.802 749.742 174.938C753.779 172.073 757.815 168.688 761.852 164.781C766.018 160.745 769.859 156.708 773.375 152.672C776.891 148.505 779.495 145.185 781.188 142.711C782.229 141.409 783.271 140.562 784.312 140.172C785.484 139.781 786.396 139.846 787.047 140.367C787.828 140.888 788.219 141.734 788.219 142.906C788.349 144.078 787.958 145.445 787.047 147.008C784.964 150.654 781.904 155.016 777.867 160.094C773.831 165.042 769.534 169.859 764.977 174.547C760.419 179.104 755.927 183.01 751.5 186.266C747.203 189.521 743.688 191.214 740.953 191.344C738.74 191.474 736.526 191.083 734.312 190.172C732.229 189.391 730.276 188.284 728.453 186.852C726.76 185.289 725.328 183.531 724.156 181.578C722.984 179.495 722.333 177.346 722.203 175.133C721.812 171.878 721.812 167.451 722.203 161.852C722.594 156.122 723.31 150.328 724.352 144.469C725.393 138.479 726.695 132.815 728.258 127.477C729.951 122.138 731.839 118.167 733.922 115.562Z" fill="white"/>
</svg>
