<svg width="126" height="118" viewBox="0 0 126 118" fill="none" xmlns="http://www.w3.org/2000/svg">
<g filter="url(#filter0_d_501_13)">
<rect x="17" y="13" width="92" height="84" rx="19" fill="#FFBCB4"/>
</g>
<g clip-path="url(#clip0_501_13)">
<path d="M92.343 38.1058L75.1749 22.3886C74.903 22.1398 74.5346 22 74.1503 22H41.2744C37.3914 22 34.2324 24.8922 34.2324 28.4472V80.553C34.2324 84.1078 37.3915 87 41.2746 87H85.7253C89.6084 87 92.7675 84.1079 92.7675 80.553V39.0438C92.7674 38.692 92.6147 38.3546 92.343 38.1058ZM75.5997 26.5296L87.8204 37.7174H79.7439C78.6367 37.7174 77.5959 37.3227 76.8132 36.6062C76.0307 35.8898 75.5995 34.937 75.5997 33.9235V26.5296ZM89.8694 80.5528C89.8694 82.6449 88.0104 84.3468 85.7253 84.3468H41.2744C38.9893 84.3468 37.1302 82.6449 37.1302 80.5528V28.4472C37.1304 26.3551 38.9894 24.6531 41.2744 24.6531H72.7017V33.9233C72.7015 35.6454 73.4339 37.2644 74.7639 38.482C76.0941 39.6998 77.8625 40.3703 79.7438 40.3703H89.8693L89.8694 80.5528Z" fill="#434343"/>
<path d="M65.0977 75H64.449C63.6488 75 63 75.5939 63 76.3265C63 77.0592 63.6488 77.6531 64.449 77.6531H65.0977C65.8978 77.6531 66.5467 77.0592 66.5467 76.3265C66.5467 75.5939 65.8978 75 65.0977 75Z" fill="#434343"/>
<path d="M60.523 75H46.449C45.6488 75 45 75.5939 45 76.3265C45 77.0592 45.6488 77.6531 46.449 77.6531H60.523C61.3232 77.6531 61.972 77.0592 61.972 76.3265C61.972 75.5939 61.3233 75 60.523 75Z" fill="#434343"/>
<path d="M79.9746 69H46.449C45.6488 69 45 69.5939 45 70.3265C45 71.0592 45.6488 71.6531 46.449 71.6531H79.9746C80.7748 71.6531 81.4236 71.0592 81.4236 70.3265C81.4236 69.5939 80.7748 69 79.9746 69Z" fill="#434343"/>
<path d="M52.0236 47C51.8369 47 51.6836 46.9433 51.5636 46.83C51.4502 46.71 51.3936 46.5633 51.3936 46.39V40.61C51.3936 40.4367 51.4502 40.2933 51.5636 40.18C51.6836 40.06 51.8302 40 52.0036 40H55.2536C55.4269 40 55.5702 40.0567 55.6836 40.17C55.8036 40.2767 55.8636 40.4167 55.8636 40.59C55.8636 40.7367 55.8036 40.8667 55.6836 40.98C55.5702 41.0933 55.4269 41.15 55.2536 41.15H52.5536L52.6436 41.03V43.04L52.5736 42.91H54.8036C54.9769 42.91 55.1202 42.9667 55.2336 43.08C55.3536 43.1867 55.4136 43.3267 55.4136 43.5C55.4136 43.6467 55.3536 43.7767 55.2336 43.89C55.1202 44.0033 54.9769 44.06 54.8036 44.06H52.5536L52.6436 43.97V46.39C52.6436 46.5633 52.5802 46.71 52.4536 46.83C52.3336 46.9433 52.1902 47 52.0236 47ZM58.0388 46.39C58.0388 46.5633 57.9821 46.71 57.8688 46.83C57.7555 46.9433 57.6121 47 57.4388 47C57.2655 47 57.1221 46.9433 57.0088 46.83C56.8955 46.71 56.8388 46.5633 56.8388 46.39V42.26C56.8388 42.0867 56.8955 41.9433 57.0088 41.83C57.1221 41.71 57.2655 41.65 57.4388 41.65C57.6121 41.65 57.7555 41.71 57.8688 41.83C57.9821 41.9433 58.0388 42.0867 58.0388 42.26V46.39ZM57.4288 41C57.2021 41 57.0421 40.9633 56.9488 40.89C56.8555 40.8167 56.8088 40.6867 56.8088 40.5V40.31C56.8088 40.1167 56.8588 39.9867 56.9588 39.92C57.0655 39.8467 57.2255 39.81 57.4388 39.81C57.6721 39.81 57.8355 39.8467 57.9288 39.92C58.0221 39.9933 58.0688 40.1233 58.0688 40.31V40.5C58.0688 40.6933 58.0188 40.8267 57.9188 40.9C57.8188 40.9667 57.6555 41 57.4288 41ZM62.1321 41.55C62.6254 41.55 62.9987 41.6533 63.2521 41.86C63.5121 42.0667 63.6887 42.3433 63.7821 42.69C63.8821 43.03 63.9321 43.41 63.9321 43.83V46.39C63.9321 46.5633 63.8754 46.71 63.7621 46.83C63.6487 46.9433 63.5054 47 63.3321 47C63.1587 47 63.0154 46.9433 62.9021 46.83C62.7887 46.71 62.7321 46.5633 62.7321 46.39V43.83C62.7321 43.61 62.7021 43.4133 62.6421 43.24C62.5887 43.06 62.4887 42.9167 62.3421 42.81C62.1954 42.7033 61.9854 42.65 61.7121 42.65C61.4454 42.65 61.2187 42.7033 61.0321 42.81C60.8521 42.9167 60.7121 43.06 60.6121 43.24C60.5187 43.4133 60.4721 43.61 60.4721 43.83V46.39C60.4721 46.5633 60.4154 46.71 60.3021 46.83C60.1887 46.9433 60.0454 47 59.8721 47C59.6987 47 59.5554 46.9433 59.4421 46.83C59.3287 46.71 59.2721 46.5633 59.2721 46.39V42.26C59.2721 42.0867 59.3287 41.9433 59.4421 41.83C59.5554 41.71 59.6987 41.65 59.8721 41.65C60.0454 41.65 60.1887 41.71 60.3021 41.83C60.4154 41.9433 60.4721 42.0867 60.4721 42.26V42.69L60.3221 42.66C60.3821 42.5467 60.4687 42.4267 60.5821 42.3C60.6954 42.1667 60.8287 42.0433 60.9821 41.93C61.1354 41.8167 61.3087 41.7267 61.5021 41.66C61.6954 41.5867 61.9054 41.55 62.1321 41.55ZM69.6091 41.55C69.7824 41.55 69.9258 41.6067 70.0391 41.72C70.1524 41.8333 70.2091 41.98 70.2091 42.16V46.39C70.2091 46.5633 70.1524 46.71 70.0391 46.83C69.9258 46.9433 69.7824 47 69.6091 47C69.4358 47 69.2924 46.9433 69.1791 46.83C69.0658 46.71 69.0091 46.5633 69.0091 46.39V45.9L69.2291 45.99C69.2291 46.0767 69.1824 46.1833 69.0891 46.31C68.9958 46.43 68.8691 46.55 68.7091 46.67C68.5491 46.79 68.3591 46.8933 68.1391 46.98C67.9258 47.06 67.6924 47.1 67.4391 47.1C66.9791 47.1 66.5624 46.9833 66.1891 46.75C65.8158 46.51 65.5191 46.1833 65.2991 45.77C65.0858 45.35 64.9791 44.87 64.9791 44.33C64.9791 43.7833 65.0858 43.3033 65.2991 42.89C65.5191 42.47 65.8124 42.1433 66.1791 41.91C66.5458 41.67 66.9524 41.55 67.3991 41.55C67.6858 41.55 67.9491 41.5933 68.1891 41.68C68.4291 41.7667 68.6358 41.8767 68.8091 42.01C68.9891 42.1433 69.1258 42.28 69.2191 42.42C69.3191 42.5533 69.3691 42.6667 69.3691 42.76L69.0091 42.89V42.16C69.0091 41.9867 69.0658 41.8433 69.1791 41.73C69.2924 41.61 69.4358 41.55 69.6091 41.55ZM67.5891 46C67.8824 46 68.1391 45.9267 68.3591 45.78C68.5791 45.6333 68.7491 45.4333 68.8691 45.18C68.9958 44.9267 69.0591 44.6433 69.0591 44.33C69.0591 44.01 68.9958 43.7233 68.8691 43.47C68.7491 43.2167 68.5791 43.0167 68.3591 42.87C68.1391 42.7233 67.8824 42.65 67.5891 42.65C67.3024 42.65 67.0491 42.7233 66.8291 42.87C66.6091 43.0167 66.4358 43.2167 66.3091 43.47C66.1891 43.7233 66.1291 44.01 66.1291 44.33C66.1291 44.6433 66.1891 44.9267 66.3091 45.18C66.4358 45.4333 66.6091 45.6333 66.8291 45.78C67.0491 45.9267 67.3024 46 67.5891 46ZM72.8084 46.39C72.8084 46.5633 72.7484 46.71 72.6284 46.83C72.5151 46.9433 72.3717 47 72.1984 47C72.0317 47 71.8917 46.9433 71.7784 46.83C71.6651 46.71 71.6084 46.5633 71.6084 46.39V40.21C71.6084 40.0367 71.6651 39.8933 71.7784 39.78C71.8984 39.66 72.0451 39.6 72.2184 39.6C72.3917 39.6 72.5317 39.66 72.6384 39.78C72.7517 39.8933 72.8084 40.0367 72.8084 40.21V46.39ZM48.1389 60C47.9523 60 47.7856 59.9433 47.6389 59.83C47.4923 59.71 47.4189 59.5633 47.4189 59.39V53.61C47.4189 53.4367 47.4756 53.2933 47.5889 53.18C47.7089 53.06 47.8556 53 48.0289 53H50.9089C51.2556 53 51.5789 53.0933 51.8789 53.28C52.1856 53.46 52.4323 53.7133 52.6189 54.04C52.8056 54.36 52.8989 54.73 52.8989 55.15C52.8989 55.4033 52.8456 55.65 52.7389 55.89C52.6389 56.13 52.4989 56.3467 52.3189 56.54C52.1456 56.7333 51.9489 56.8833 51.7289 56.99L51.7389 56.76C51.9256 56.86 52.0789 56.98 52.1989 57.12C52.3256 57.2533 52.4223 57.4 52.4889 57.56C52.5623 57.7133 52.6056 57.88 52.6189 58.06C52.6456 58.2267 52.6623 58.3733 52.6689 58.5C52.6823 58.6267 52.7023 58.7333 52.7289 58.82C52.7623 58.9067 52.8223 58.9733 52.9089 59.02C53.0556 59.1067 53.1456 59.2333 53.1789 59.4C53.2189 59.56 53.1823 59.7033 53.0689 59.83C52.9956 59.9167 52.9023 59.9733 52.7889 60C52.6756 60.02 52.5623 60.02 52.4489 60C52.3356 59.9733 52.2423 59.94 52.1689 59.9C52.0556 59.8333 51.9423 59.7367 51.8289 59.61C51.7156 59.4767 51.6223 59.3 51.5489 59.08C51.4823 58.86 51.4489 58.5767 51.4489 58.23C51.4489 58.1167 51.4289 58.0133 51.3889 57.92C51.3489 57.82 51.2923 57.7367 51.2189 57.67C51.1456 57.5967 51.0523 57.5433 50.9389 57.51C50.8256 57.47 50.6923 57.45 50.5389 57.45H48.5189L48.6689 57.22V59.39C48.6689 59.5633 48.6223 59.71 48.5289 59.83C48.4356 59.9433 48.3056 60 48.1389 60ZM48.5289 56.42H50.8589C50.9789 56.42 51.0956 56.3667 51.2089 56.26C51.3223 56.1467 51.4156 55.9967 51.4889 55.81C51.5623 55.6167 51.5989 55.4067 51.5989 55.18C51.5989 54.8867 51.5189 54.6433 51.3589 54.45C51.2056 54.25 51.0389 54.15 50.8589 54.15H48.5489L48.6689 53.83V56.66L48.5289 56.42ZM56.6554 60.1C56.0887 60.1 55.5954 59.9833 55.1754 59.75C54.762 59.51 54.442 59.1867 54.2154 58.78C53.9954 58.3733 53.8854 57.9133 53.8854 57.4C53.8854 56.8 54.0054 56.29 54.2454 55.87C54.492 55.4433 54.812 55.1167 55.2054 54.89C55.5987 54.6633 56.0154 54.55 56.4554 54.55C56.7954 54.55 57.1154 54.62 57.4154 54.76C57.722 54.9 57.992 55.0933 58.2254 55.34C58.4587 55.58 58.642 55.86 58.7754 56.18C58.9154 56.5 58.9854 56.84 58.9854 57.2C58.9787 57.36 58.9154 57.49 58.7954 57.59C58.6754 57.69 58.5354 57.74 58.3754 57.74H54.5554L54.2554 56.74H57.9254L57.7054 56.94V56.67C57.692 56.4767 57.622 56.3033 57.4954 56.15C57.3754 55.9967 57.222 55.8767 57.0354 55.79C56.8554 55.6967 56.662 55.65 56.4554 55.65C56.2554 55.65 56.0687 55.6767 55.8954 55.73C55.722 55.7833 55.572 55.8733 55.4454 56C55.3187 56.1267 55.2187 56.2967 55.1454 56.51C55.072 56.7233 55.0354 56.9933 55.0354 57.32C55.0354 57.68 55.1087 57.9867 55.2554 58.24C55.4087 58.4867 55.602 58.6767 55.8354 58.81C56.0754 58.9367 56.3287 59 56.5954 59C56.842 59 57.0387 58.98 57.1854 58.94C57.332 58.9 57.4487 58.8533 57.5354 58.8C57.6287 58.74 57.712 58.69 57.7854 58.65C57.9054 58.59 58.0187 58.56 58.1254 58.56C58.272 58.56 58.392 58.61 58.4854 58.71C58.5854 58.81 58.6354 58.9267 58.6354 59.06C58.6354 59.24 58.542 59.4033 58.3554 59.55C58.182 59.6967 57.9387 59.8267 57.6254 59.94C57.312 60.0467 56.9887 60.1 56.6554 60.1ZM62.8038 54.55C63.2705 54.55 63.6871 54.67 64.0538 54.91C64.4271 55.1433 64.7205 55.4667 64.9338 55.88C65.1538 56.2933 65.2638 56.7733 65.2638 57.32C65.2638 57.8667 65.1538 58.35 64.9338 58.77C64.7205 59.1833 64.4305 59.51 64.0638 59.75C63.7038 59.9833 63.2971 60.1 62.8438 60.1C62.5771 60.1 62.3271 60.0567 62.0938 59.97C61.8605 59.8833 61.6538 59.7733 61.4738 59.64C61.3005 59.5067 61.1638 59.3733 61.0638 59.24C60.9705 59.1 60.9238 58.9833 60.9238 58.89L61.2338 58.76V61.39C61.2338 61.5633 61.1771 61.7067 61.0638 61.82C60.9505 61.94 60.8071 62 60.6338 62C60.4605 62 60.3171 61.9433 60.2038 61.83C60.0905 61.7167 60.0338 61.57 60.0338 61.39V55.26C60.0338 55.0867 60.0905 54.9433 60.2038 54.83C60.3171 54.71 60.4605 54.65 60.6338 54.65C60.8071 54.65 60.9505 54.71 61.0638 54.83C61.1771 54.9433 61.2338 55.0867 61.2338 55.26V55.75L61.0638 55.66C61.0638 55.5733 61.1105 55.47 61.2038 55.35C61.2971 55.2233 61.4238 55.1 61.5838 54.98C61.7438 54.8533 61.9271 54.75 62.1338 54.67C62.3471 54.59 62.5705 54.55 62.8038 54.55ZM62.6538 55.65C62.3605 55.65 62.1038 55.7233 61.8838 55.87C61.6638 56.0167 61.4905 56.2167 61.3638 56.47C61.2438 56.7167 61.1838 57 61.1838 57.32C61.1838 57.6333 61.2438 57.92 61.3638 58.18C61.4905 58.4333 61.6638 58.6333 61.8838 58.78C62.1038 58.9267 62.3605 59 62.6538 59C62.9471 59 63.2005 58.9267 63.4138 58.78C63.6338 58.6333 63.8038 58.4333 63.9238 58.18C64.0505 57.92 64.1138 57.6333 64.1138 57.32C64.1138 57 64.0505 56.7167 63.9238 56.47C63.8038 56.2167 63.6338 56.0167 63.4138 55.87C63.2005 55.7233 62.9471 55.65 62.6538 55.65ZM71.5031 57.33C71.5031 57.8767 71.3798 58.36 71.1331 58.78C70.8931 59.1933 70.5664 59.5167 70.1531 59.75C69.7464 59.9833 69.2898 60.1 68.7831 60.1C68.2764 60.1 67.8164 59.9833 67.4031 59.75C66.9964 59.5167 66.6698 59.1933 66.4231 58.78C66.1831 58.36 66.0631 57.8767 66.0631 57.33C66.0631 56.7833 66.1831 56.3033 66.4231 55.89C66.6698 55.47 66.9964 55.1433 67.4031 54.91C67.8164 54.67 68.2764 54.55 68.7831 54.55C69.2898 54.55 69.7464 54.67 70.1531 54.91C70.5664 55.1433 70.8931 55.47 71.1331 55.89C71.3798 56.3033 71.5031 56.7833 71.5031 57.33ZM70.3031 57.33C70.3031 56.99 70.2331 56.6967 70.0931 56.45C69.9598 56.1967 69.7764 56 69.5431 55.86C69.3164 55.72 69.0631 55.65 68.7831 55.65C68.5031 55.65 68.2464 55.72 68.0131 55.86C67.7864 56 67.6031 56.1967 67.4631 56.45C67.3298 56.6967 67.2631 56.99 67.2631 57.33C67.2631 57.6633 67.3298 57.9567 67.4631 58.21C67.6031 58.4567 67.7864 58.65 68.0131 58.79C68.2464 58.93 68.5031 59 68.7831 59C69.0631 59 69.3164 58.93 69.5431 58.79C69.7764 58.65 69.9598 58.4567 70.0931 58.21C70.2331 57.9567 70.3031 57.6633 70.3031 57.33ZM73.1533 60C72.98 60 72.8367 59.9433 72.7233 59.83C72.61 59.71 72.5533 59.5633 72.5533 59.39V55.26C72.5533 55.0867 72.61 54.9433 72.7233 54.83C72.8367 54.71 72.98 54.65 73.1533 54.65C73.3267 54.65 73.47 54.71 73.5833 54.83C73.6967 54.9433 73.7533 55.0867 73.7533 55.26V56.2L73.6833 55.53C73.7567 55.37 73.85 55.23 73.9633 55.11C74.0833 54.9833 74.2167 54.88 74.3633 54.8C74.51 54.7133 74.6667 54.65 74.8333 54.61C75 54.57 75.1667 54.55 75.3333 54.55C75.5333 54.55 75.7 54.6067 75.8333 54.72C75.9733 54.8333 76.0433 54.9667 76.0433 55.12C76.0433 55.34 75.9867 55.5 75.8733 55.6C75.76 55.6933 75.6367 55.74 75.5033 55.74C75.3767 55.74 75.26 55.7167 75.1533 55.67C75.0533 55.6233 74.9367 55.6 74.8033 55.6C74.6833 55.6 74.56 55.63 74.4333 55.69C74.3133 55.7433 74.2 55.83 74.0933 55.95C73.9933 56.07 73.91 56.22 73.8433 56.4C73.7833 56.5733 73.7533 56.78 73.7533 57.02V59.39C73.7533 59.5633 73.6967 59.71 73.5833 59.83C73.47 59.9433 73.3267 60 73.1533 60ZM76.9493 54.75H79.3193C79.4793 54.75 79.6126 54.8033 79.7193 54.91C79.8259 55.0167 79.8793 55.15 79.8793 55.31C79.8793 55.4633 79.8259 55.5933 79.7193 55.7C79.6126 55.8 79.4793 55.85 79.3193 55.85H76.9493C76.7893 55.85 76.6559 55.7967 76.5493 55.69C76.4426 55.5833 76.3893 55.45 76.3893 55.29C76.3893 55.1367 76.4426 55.01 76.5493 54.91C76.6559 54.8033 76.7893 54.75 76.9493 54.75ZM78.0193 53.5C78.1926 53.5 78.3326 53.56 78.4393 53.68C78.5526 53.7933 78.6093 53.9367 78.6093 54.11V58.56C78.6093 58.6533 78.6259 58.73 78.6593 58.79C78.6993 58.85 78.7493 58.8933 78.8093 58.92C78.8759 58.9467 78.9459 58.96 79.0193 58.96C79.0993 58.96 79.1726 58.9467 79.2393 58.92C79.3059 58.8867 79.3826 58.87 79.4693 58.87C79.5626 58.87 79.6459 58.9133 79.7193 59C79.7993 59.0867 79.8393 59.2067 79.8393 59.36C79.8393 59.5467 79.7359 59.7 79.5293 59.82C79.3293 59.94 79.1126 60 78.8793 60C78.7393 60 78.5826 59.99 78.4093 59.97C78.2426 59.9433 78.0826 59.8867 77.9293 59.8C77.7826 59.7067 77.6593 59.5667 77.5593 59.38C77.4593 59.1933 77.4093 58.9367 77.4093 58.61V54.11C77.4093 53.9367 77.4659 53.7933 77.5793 53.68C77.6993 53.56 77.8459 53.5 78.0193 53.5Z" fill="#434343"/>
</g>
<defs>
<filter id="filter0_d_501_13" x="0" y="0" width="126" height="118" filterUnits="userSpaceOnUse" color-interpolation-filters="sRGB">
<feFlood flood-opacity="0" result="BackgroundImageFix"/>
<feColorMatrix in="SourceAlpha" type="matrix" values="0 0 0 0 0 0 0 0 0 0 0 0 0 0 0 0 0 0 127 0" result="hardAlpha"/>
<feMorphology radius="7" operator="erode" in="SourceAlpha" result="effect1_dropShadow_501_13"/>
<feOffset dy="4"/>
<feGaussianBlur stdDeviation="12"/>
<feComposite in2="hardAlpha" operator="out"/>
<feColorMatrix type="matrix" values="0 0 0 0 0 0 0 0 0 0 0 0 0 0 0 0 0 0 0.25 0"/>
<feBlend mode="normal" in2="BackgroundImageFix" result="effect1_dropShadow_501_13"/>
<feBlend mode="normal" in="SourceGraphic" in2="effect1_dropShadow_501_13" result="shape"/>
</filter>
<clipPath id="clip0_501_13">
<rect width="71" height="65" fill="white" transform="translate(28 22)"/>
</clipPath>
</defs>
</svg>
